<svg width="3045" height="3045" viewBox="0 0 3045 3045" fill="none" xmlns="http://www.w3.org/2000/svg">
<g clip-path="url(#clip0_19_11)">
<rect width="3045" height="3045" fill="white"/>
<path fill-rule="evenodd" clip-rule="evenodd" d="M1502.78 300.498C1486.99 303.151 1474.28 309.334 1463.27 319.718C1451.55 330.769 1444.32 342.694 1438.31 360.851C1428.43 390.715 1414.65 405.069 1390.66 410.483C1378.56 413.213 1370.98 417.188 1368.27 422.217C1367.61 423.432 1366.75 428.476 1366.34 433.426C1365.94 438.376 1364.44 446.251 1363 450.926C1357.05 470.338 1356.19 474.833 1356.61 484.338C1356.99 493.031 1358.48 497.707 1364.17 508.013C1364.34 508.337 1360.54 508.616 1355.71 508.634C1344.43 508.677 1339.02 510.614 1322.95 520.355C1310.6 527.844 1300.98 531.926 1295.69 531.926C1291.05 531.926 1278.49 535.817 1270.98 539.578C1262.15 544.005 1253.73 549.628 1240.93 559.633C1235.43 563.934 1225.98 571.042 1219.93 575.429C1206.43 585.222 1193.12 598.459 1184.19 610.977C1176 622.464 1165.74 642.897 1161.37 656.426C1157.05 669.794 1154.79 674.086 1143.85 689.708C1131.58 707.237 1130.85 709.348 1130.1 729.926C1129.24 753.2 1127.29 767.646 1120.31 802.426C1117.56 816.141 1115.91 823.216 1110.37 844.926C1108.05 854.046 1107.92 862.603 1109.98 871.466C1110.83 875.131 1111.93 886.368 1112.43 896.439C1113.43 916.561 1114.51 924.397 1117.93 936.426C1123.41 955.675 1123.22 970.582 1117.34 982.68C1114.89 987.731 1112.67 990.298 1105.82 996.02C1087.67 1011.18 1081.43 1023.59 1081.43 1044.53C1081.43 1057.33 1083.13 1066.27 1090.12 1090.3C1108.86 1154.71 1115.22 1187.2 1121.37 1249.93C1124.19 1278.7 1125.63 1300.58 1129.98 1380.43C1133.96 1453.73 1135.7 1466.76 1143.69 1482.92C1153.64 1503.07 1176.75 1517.18 1199.93 1517.26C1217.28 1517.32 1233.02 1507.55 1245.25 1489.14C1247.18 1486.23 1249.13 1484.22 1249.57 1484.67C1250.02 1485.11 1250.81 1492.93 1251.32 1502.04C1254.01 1549.46 1245.46 1584.14 1224 1612.93C1219.53 1618.92 1205.26 1632.85 1197.93 1638.36C1180.97 1651.13 1157.26 1662.68 1133.12 1669.94C1125.52 1672.23 1116.07 1675.57 1112.12 1677.37C1097.45 1684.05 1086.72 1685.87 1075.67 1683.55C1066.95 1681.72 1058 1677.14 1051.21 1671.03C1046.12 1666.46 1040.97 1663.3 1029.5 1657.7C1013.84 1650.07 1006.43 1655.38 1003.5 1676.34C1002.97 1680.14 1001.83 1683.96 1000.96 1684.82C999.82 1685.97 996.588 1686.54 989.161 1686.92C983.535 1687.21 977.924 1688.02 976.692 1688.72C973.307 1690.63 971.763 1694.63 971.155 1703.06C970.57 1711.16 968.851 1715.65 964.568 1720.27C960.934 1724.18 957.233 1725.93 933.556 1734.93C860.481 1762.7 797.693 1793 742.911 1826.95C646.296 1886.82 589.054 1968.89 568.557 2076.93C564.365 2099.02 561.151 2127.84 552.44 2221.43C542.456 2328.7 532.269 2389.88 514.246 2450.81C510.929 2462.03 507.561 2472.76 506.764 2474.67C504.482 2480.14 506.021 2479.67 508.878 2474.03C510.298 2471.23 512.319 2467.41 513.367 2465.54C521.773 2450.57 534.849 2415.63 541.421 2390.56C550.682 2355.23 553.807 2334.02 559.937 2264.93C570.669 2143.93 579.457 2079.14 590.119 2042.43C613.669 1961.33 660.421 1899.11 734.432 1850.37C774.491 1823.99 819.049 1801.54 922.432 1755.62L956.932 1740.3L957.229 1746.66C957.819 1759.31 951.896 1774.59 938.749 1794.35C928.413 1809.88 926.43 1810.57 914.776 1802.68C908.676 1798.55 897.242 1795.42 891.205 1796.23C882.41 1797.41 878.81 1802.95 877.315 1817.63C876.766 1823.02 875.266 1830.35 873.982 1833.93C872.697 1837.5 870.012 1844.93 868.015 1850.43C863.702 1862.3 857.313 1886.27 854.555 1900.93C849.732 1926.55 848.931 1937.48 848.95 1977.43C848.971 2023.64 850.555 2041.54 860.541 2108.43C870.218 2173.25 874.203 2202.48 873.465 2203.25C873.03 2203.71 870.83 2204.33 868.576 2204.63C865.023 2205.11 863.557 2204.63 857.559 2201C849.382 2196.06 844.199 2194.38 841.679 2195.85C840.589 2196.48 840.426 2196.88 841.247 2196.9C844.339 2196.97 855.553 2226.35 859.957 2245.93C864.686 2266.94 865.858 2278.77 865.854 2305.43C865.849 2331.99 864.737 2343.66 859.94 2367.44C851.733 2408.12 834.711 2447.6 812.52 2477.42C795.511 2500.27 774.361 2518.58 705.432 2570.15C610.296 2641.31 604.109 2646.22 582.833 2667.4C534.739 2715.27 505.762 2769.15 491.93 2836.43C486.738 2861.68 487.603 2879.77 494.738 2895.21C497.953 2902.17 505.08 2912.97 507.405 2914.41C508.089 2914.83 508.219 2909.7 507.8 2898.73C506.607 2867.53 510.557 2841.22 521.133 2809.93C538.794 2757.66 564.445 2715.46 601.911 2677.05C619.325 2659.2 633.288 2647.49 660.613 2627.81C789.019 2535.36 866.395 2461.47 923.857 2376.43C934.219 2361.09 936.643 2358.34 941.1 2356.87C945.524 2355.41 949.239 2356.33 959.432 2361.42C964.107 2363.75 974.598 2368.22 982.745 2371.35C996.58 2376.66 997.801 2376.96 1001.24 2375.86C1006.54 2374.17 1006.82 2373.61 1004.57 2369.2C1001.76 2363.69 996.338 2359.24 987.484 2355.17C983.33 2353.26 976.107 2349.92 971.432 2347.75C957.88 2341.45 941.122 2329.71 930.338 2318.98C916.009 2304.71 907.854 2292.53 901.182 2275.43C895.388 2260.57 893.599 2250.68 891.938 2224.33C890.149 2195.97 889.154 2186.07 885.812 2163.43C883.46 2147.49 882.12 2139.77 875.831 2105.93C860.763 2024.84 857.19 1994.1 859.378 1964.43C861.159 1940.27 864.636 1923.79 880.911 1862.43C883.391 1853.08 886.773 1838.76 888.429 1830.6C890.084 1822.45 891.899 1814.92 892.464 1813.87C895.343 1808.49 902.995 1811.07 910.133 1819.83C915.888 1826.9 918.119 1831.38 920.494 1840.67C924.012 1854.42 922.801 1863.58 915.499 1878.43C908.702 1892.25 907.991 1895.31 908.069 1910.43C908.124 1920.97 908.643 1925.5 910.82 1934.43C917.341 1961.17 918.518 1967.17 919.635 1979.43C920.286 1986.58 920.844 1997.38 920.875 2003.43C920.926 2013.19 920.657 2014.96 918.483 2019.22C917.137 2021.85 913.651 2026.27 910.737 2029.02L905.44 2034.03L908.904 2035.48C913.961 2037.59 922.726 2037.33 927.447 2034.92C929.612 2033.81 933.741 2030.82 936.624 2028.26C939.506 2025.7 946.116 2020.45 951.311 2016.59C989.174 1988.51 1028.66 1973.21 1078.07 1967.49C1090.97 1966 1094.99 1964.58 1098.34 1960.31C1102.08 1955.56 1101.2 1950.86 1093.89 1936.38C1080.88 1910.63 1075.96 1889.38 1070.87 1836.93C1067.46 1801.78 1067.66 1796.69 1074.4 1747.43C1075.53 1739.18 1076.79 1726.17 1077.19 1718.53C1077.91 1704.96 1077.99 1704.59 1080.64 1702.61C1083.14 1700.75 1083.8 1700.69 1088.92 1701.83C1095.73 1703.36 1102.1 1708.01 1105.3 1713.79C1108.64 1719.84 1110.42 1733.42 1110.42 1752.93C1110.41 1775.97 1107.25 1800.79 1100.51 1830.66C1096.47 1848.55 1095.43 1856.25 1095.43 1868.23C1095.43 1885.47 1097.92 1894.34 1106.57 1907.97C1115.54 1922.09 1115.68 1922.69 1114.9 1941.75C1113.53 1975.31 1117.93 1991.02 1143.25 2042.93C1161.21 2079.75 1161.83 2081.52 1161.88 2096.5L1161.93 2108.58L1157.7 2117C1154.87 2122.63 1149.98 2129.57 1142.95 2137.93C1120.07 2165.1 1108.05 2188.25 1103.02 2214.79C1101.09 2224.96 1100.97 2248.62 1102.8 2257.93L1104.08 2264.43L1104.88 2257.43C1110.03 2211.93 1129.13 2176.32 1172.33 2131.66C1180.5 2123.21 1187.91 2114.89 1188.81 2113.17C1191.17 2108.6 1190.82 2105.19 1187.29 2098.3L1184.15 2092.18L1189.25 2081.8C1195.79 2068.47 1199.33 2054.69 1203.86 2024.87C1208.9 1991.76 1211.38 1982.1 1218.52 1967.81C1224.54 1955.75 1237.51 1939.56 1243.79 1936.26C1247.49 1934.32 1254.4 1934.34 1258.2 1936.31C1259.85 1937.16 1262.35 1939.23 1263.77 1940.92C1268.55 1946.59 1268.44 1951.42 1262.98 1977.8C1259.72 1993.52 1255.8 2023.2 1254.51 2041.93C1252.67 2068.54 1252.29 2080.08 1251.43 2134.93C1250.8 2174.85 1250.15 2192.5 1249 2200.93C1242.17 2250.82 1224.26 2289.25 1193.51 2320C1161.99 2351.52 1124.23 2369.53 1066.93 2380.38C1058.89 2381.9 1033.98 2389.05 1032.88 2390.14C1032.56 2390.47 1034.43 2392.2 1037.03 2394C1044.3 2399 1056.24 2410.76 1060.68 2417.29C1065.48 2424.36 1069.68 2433.48 1071.55 2440.93C1073.9 2450.28 1073.27 2469.46 1070.16 2482.74C1065.09 2504.42 1042.02 2575.07 1029.93 2605.94C989.423 2709.42 934.281 2806.98 836.791 2947.66C787.198 3019.23 713.892 3117.62 676.031 3163.43C664.156 3177.79 640.216 3201.87 628.432 3211.29C608.729 3227.04 584.052 3241.46 572.667 3243.88C561.086 3246.33 554.943 3243.18 545.911 3230.15C537.963 3218.67 524.408 3201.16 512.07 3186.43C471.631 3138.12 462.232 3126.37 451.305 3110.43C437.364 3090.08 426.62 3069.73 419.098 3049.43C377.036 2935.85 383.759 2814.22 440.711 2658.43C449.025 2635.68 457.956 2613.49 476.934 2568.43C510.965 2487.61 509.702 2491.14 507.186 2483.83C505.707 2479.54 505.645 2479.49 504.658 2481.93C502.967 2486.1 458.385 2586.65 445.909 2614.43C439.487 2628.73 432.67 2644.25 430.762 2648.93C402.34 2718.55 387.087 2782.36 379.731 2862.43C377.301 2888.88 377.306 2935.86 379.741 2956.43C388.782 3032.79 414.421 3092.23 463.714 3151.12C469.884 3158.49 481.512 3172.37 489.553 3181.97C506.194 3201.84 518.735 3218.7 527.609 3233.14C535.956 3246.72 542.047 3253.16 550.229 3257.07C566.938 3265.04 583.172 3260.77 614.432 3240.17C636.559 3225.59 651.054 3213.69 676.199 3189.47C694.443 3171.9 710.401 3159.89 728.734 3149.93L736.536 3145.69L736.005 3153.06C735.713 3157.11 735.211 3166.05 734.891 3172.93C733.713 3198.2 728.536 3227.84 721.883 3247.43C717.676 3259.81 709.277 3276.84 702.317 3287.11C693.767 3299.71 676.727 3316.64 662.932 3326.22C638.081 3343.49 633.865 3346.76 627.055 3354.01C616.826 3364.91 610.432 3379.04 610.432 3390.75C610.432 3393.41 609.576 3396.68 608.279 3398.98C606.234 3402.62 584.33 3423.66 561.335 3444.08C493.881 3503.96 437.648 3539.46 372.431 3563.33C352.345 3570.69 340.947 3576.38 330.38 3584.33C315.059 3595.85 303.512 3609.86 294.429 3627.93C288.277 3640.18 283.234 3647.25 273.512 3657.27C263.513 3667.58 252.421 3676.09 232.932 3688.39C185.311 3718.46 146.452 3748.82 98.1975 3793.64C76.8135 3813.5 62.7925 3828.03 52.0825 3841.43C25.1375 3875.12 11.4725 3907.21 5.0295 3951.93C0.379501 3984.19 -0.0294987 3990.53 0.00150125 4029.93C0.0325013 4070.71 0.989501 4083.01 6.5285 4113.93C15.7915 4165.62 35.6105 4219.78 61.9955 4265.5C107.299 4343.99 171.875 4386.74 255.932 4393.89C279.121 4395.86 309.694 4394.3 344.199 4389.39C402.988 4381.02 447.736 4367.25 499.397 4341.61C514.67 4334.03 516.385 4333.42 523.075 4333.08C529.555 4332.75 531.891 4333.23 546.109 4337.82C595.913 4353.9 647.753 4355.36 703.932 4342.27C720.232 4338.47 729.437 4335.73 755.432 4326.97C782.736 4317.77 790.173 4316.4 808.335 4317.22C824.054 4317.92 832.081 4320.19 855.654 4330.56C928.951 4362.83 997.259 4379.42 1087.93 4386.97C1135.74 4390.95 1228.22 4390.65 1257.3 4386.41C1323.57 4376.76 1370.28 4346.16 1401.24 4292.12C1407.81 4280.65 1410.02 4275.7 1423.99 4241.06C1430.96 4223.78 1433.96 4219.93 1440.43 4219.93C1445.71 4219.93 1448.89 4221.81 1462.23 4232.84C1518.28 4279.18 1586.84 4317.89 1652.43 4340.21C1725.55 4365.1 1793.35 4375.87 1877.15 4375.91C1913.03 4375.93 1935.92 4374.85 1963.43 4371.86C2015.31 4366.22 2039.8 4356.31 2071.56 4328.11C2091.92 4310.04 2114.37 4299.48 2144.43 4293.85C2153.85 4292.08 2161.01 4291.6 2184.02 4291.19C2243.3 4290.13 2282.72 4296.21 2338.18 4314.93C2405.8 4337.77 2461.37 4348.15 2538.93 4352.43C2591.55 4355.33 2683.27 4353.24 2739.43 4347.86C2779.71 4344 2822.22 4329.45 2860.36 4306.47C2940.77 4258.02 3002.18 4171.39 3019.89 4081.43C3024.3 4058.98 3024.93 4051.62 3024.89 4022.93C3024.86 3999.8 3024.5 3993.12 3022.65 3980.93C3021.44 3972.95 3020.19 3964.5 3019.88 3962.15C3019 3955.64 3021.24 3943.43 3025.14 3933.43C3030.87 3918.72 3031.71 3912.95 3031.11 3892.43C3029.41 3834.41 3008.4 3776.1 2973.75 3733.22C2953.26 3707.87 2925.57 3685.07 2894.43 3667.91C2865.19 3651.8 2851.51 3642.1 2835.93 3626.44C2804.32 3594.65 2783.3 3553.24 2772.97 3502.43C2760.46 3440.81 2738.54 3386.1 2704.8 3332.26C2688.18 3305.74 2680.65 3290.05 2673.08 3266.13C2661.44 3229.33 2658.81 3191.25 2663.94 3133.43C2665.3 3118.03 2666.86 3102.05 2667.41 3097.93C2678.79 3011.73 2679.16 2967.56 2668.91 2919.02C2663.9 2895.29 2657.02 2876.09 2644.03 2849.56C2639.41 2840.14 2634.68 2829.49 2633.52 2825.9C2627.81 2808.22 2627.02 2789.32 2630.93 2764.36C2633.97 2744.94 2634.13 2731.22 2631.49 2715.76C2628.77 2699.85 2625.45 2689.96 2616.45 2670.93C2601.48 2639.29 2599.01 2626.11 2600.8 2587.43C2602.39 2552.84 2598.42 2528.34 2582.16 2472.43C2570.27 2431.55 2563.09 2391.29 2558.98 2342.43C2557.03 2319.21 2554.7 2278.8 2551.92 2219.93C2551.11 2202.6 2550.01 2182.58 2549.48 2175.43C2548.96 2168.28 2548.25 2158.38 2547.91 2153.43C2545.06 2111.6 2537.04 2052.7 2530.36 2024.43C2519.07 1976.67 2494.99 1940.44 2459.02 1917.1C2455.21 1914.63 2427.09 1900.1 2396.52 1884.79C2282.79 1827.87 2281.81 1827.28 2267.13 1806.43C2251.9 1784.8 2239.45 1772.28 2221.2 1760.22C2197.65 1744.67 2176.53 1736.81 2134.43 1727.89C2119.99 1724.83 2102.45 1719.46 2093.67 1715.4C2079.79 1708.99 2074.25 1704.81 2055.92 1686.96C2044.76 1676.1 2034.48 1667.1 2028.92 1663.3C2008.74 1649.56 1988.09 1640.56 1961.43 1633.91C1920.24 1623.63 1895.85 1605.71 1868.22 1565.43C1862.94 1557.73 1842.43 1523.76 1842.43 1522.71C1842.43 1522.43 1847.49 1521.95 1853.68 1521.64C1883.88 1520.14 1900.73 1507.94 1908.54 1481.92C1910.76 1474.53 1910.8 1473.34 1911.5 1397.43C1911.89 1355.08 1912.49 1317.95 1912.82 1314.93C1913.15 1311.9 1913.89 1301.55 1914.47 1291.93C1919.04 1215.5 1934.3 1133.78 1955.41 1072.6C1960.81 1056.95 1962.4 1049.86 1962.4 1041.43C1962.41 1028.01 1958.12 1018.06 1949.16 1010.72C1929.04 994.219 1923.36 984.605 1920.88 962.847C1919.67 952.208 1922.87 922.882 1927.04 906.426C1934.17 878.309 1934.08 870.035 1926.47 853.551C1919.25 837.913 1918.34 832.71 1908.84 752.926C1903.7 709.695 1899.5 695.651 1882.21 663.926C1879.66 659.251 1875.46 648.901 1872.88 640.926C1865.55 618.359 1862.66 613.073 1851.47 601.897C1813.93 564.39 1763.09 533.37 1704 511.909C1697.44 509.525 1690.76 506.407 1689.16 504.978C1684.41 500.728 1683.32 494.489 1682.43 466.426C1681.52 437.371 1680.23 431.382 1673.11 423.303C1667.92 417.406 1663.7 414.801 1654.08 411.57C1625.72 402.046 1611.82 388.146 1602.43 359.926C1596.35 341.672 1590.07 331.452 1577.96 320.149C1559.39 302.808 1531.87 295.613 1502.78 300.498ZM1579.43 719.05C1613.56 721.703 1635.89 731.379 1657.55 752.908C1678.81 774.041 1692.67 802.688 1698.9 838.426C1702.82 860.889 1702.85 910.515 1698.96 925.255C1693.81 944.727 1681.66 955.588 1657.43 962.376C1637.91 967.845 1618.85 977.59 1601.42 991.021C1589.1 1000.51 1571.87 1017.96 1567.43 1025.45C1564.32 1030.69 1563.93 1032.13 1563.93 1038.39C1563.93 1044.72 1564.26 1045.9 1567.23 1050.17C1571.78 1056.74 1576.75 1059.93 1582.41 1059.92C1587.92 1059.92 1590.74 1058.28 1602.8 1048.1C1655.49 1003.6 1695.53 983.906 1733.23 983.933C1754.28 983.948 1771.12 990.732 1786.29 1005.31C1798.79 1017.33 1800.67 1028.5 1791.49 1036.22C1786.26 1040.63 1781.25 1039.82 1768.79 1032.59C1757.99 1026.32 1749.46 1022.09 1743.17 1019.89C1736.28 1017.49 1720.43 1015.95 1720.43 1017.69C1720.43 1019.4 1729.43 1026.98 1740.7 1034.77C1751.57 1042.27 1760.94 1051.14 1763.76 1056.59L1765.37 1059.7L1760.96 1060.82C1753.59 1062.67 1745.62 1062.08 1730.43 1058.54C1706.8 1053.04 1702.17 1052.44 1683.43 1052.47C1659.5 1052.51 1647.7 1054.92 1622.93 1064.86C1607.45 1071.07 1605.9 1072.32 1606.03 1078.49C1606.22 1087.64 1612.08 1090.5 1645.93 1097.96C1693.61 1108.47 1726.99 1106.26 1758.24 1090.52C1765.02 1087.11 1765.46 1087.01 1764.35 1089.14C1761.15 1095.26 1753.33 1104.57 1748.03 1108.56C1742.34 1112.85 1722.08 1123.4 1704.43 1131.28L1695.93 1135.07L1705.39 1139.53C1743.68 1157.57 1770.25 1189.81 1780.32 1230.43C1785.02 1249.39 1785.54 1265.38 1782.35 1292.64C1779.47 1317.22 1780.59 1326.76 1786.95 1331.76C1790.59 1334.62 1798.61 1334.73 1803.14 1331.96C1808.83 1328.49 1811.78 1322.07 1820.43 1294.25C1821.7 1290.18 1823.93 1285.64 1825.6 1283.75L1828.53 1280.43L1827.89 1291.93C1826.27 1321.16 1820.87 1336.91 1800.02 1373.18C1792.87 1385.62 1791.33 1386.82 1787.51 1383.01C1786.33 1381.83 1785.33 1378.93 1784.89 1375.48C1784.09 1369.05 1778.61 1359.58 1773.91 1356.51C1769.31 1353.49 1763.55 1353.33 1759.43 1356.11C1756.17 1358.31 1755.5 1359.77 1749.66 1377.45C1746.21 1387.89 1741.83 1402.05 1739.93 1408.93C1724.33 1465.37 1689.39 1507.33 1634.16 1535.93C1597.1 1555.13 1560.48 1564.09 1518.93 1564.15C1477.54 1564.21 1449.15 1556.96 1413.56 1537.24C1294.73 1471.39 1232.14 1401.52 1208.02 1307.78C1195.95 1260.84 1190.64 1209.8 1186.93 1104.97L1185.42 1062.52L1188.39 1058.83C1192.09 1054.23 1197.84 1043.84 1199.96 1037.92C1203.29 1028.63 1204.61 1017.75 1205.93 988.426C1207.46 954.405 1208.57 947.454 1214.78 933.058L1218.93 923.426L1219.03 904.887C1219.14 884.297 1219.34 882.712 1223.39 869.614C1242.64 807.346 1285.22 763.81 1347.15 743.071C1360.6 738.567 1369.34 736.5 1393.93 732.007C1440.53 723.493 1475.42 719.432 1518.43 717.521C1529.89 717.012 1564.31 717.875 1579.43 719.05ZM1315.93 953.855C1301.68 956.14 1288.29 961.206 1277.43 968.426C1271.02 972.688 1254.43 988.964 1254.43 990.992C1254.43 992.185 1254.22 992.197 1265.43 990.371C1329.49 979.941 1363.45 984.329 1399.43 1007.68C1411.07 1015.24 1417.31 1020.15 1431.07 1032.57C1442.08 1042.52 1450.37 1047.89 1454.71 1047.92C1459.82 1047.94 1468.14 1042.24 1471.02 1036.73C1474.3 1030.45 1472.04 1024.6 1461.69 1012.62C1442.23 990.071 1414.79 970.644 1389.43 961.463C1372.94 955.49 1362.58 953.768 1340.93 953.397C1329.93 953.208 1318.68 953.415 1315.93 953.855ZM1926.08 1009.1C1934.08 1012.04 1938.86 1016.05 1941.98 1022.45C1946.13 1030.92 1945.72 1037.66 1939.47 1063.93C1932.85 1091.78 1916.42 1156.27 1915.78 1156.91C1914.25 1158.44 1905.03 1141.49 1902.4 1132.3C1896.64 1112.19 1899.86 1094.81 1914.85 1065.03C1925.68 1043.49 1927.26 1036.95 1923.31 1029.93C1919.91 1023.87 1908.81 1019.95 1894.99 1019.93L1890.06 1019.93L1892.91 1016.95C1902.77 1006.65 1912.91 1004.25 1926.08 1009.1ZM1135.93 1012.81L1142.93 1014.53L1135.2 1016.29C1126.09 1018.37 1118.76 1022.84 1116.11 1027.93C1114.69 1030.67 1114.4 1032.93 1114.77 1038.43C1115.26 1045.6 1116.84 1050.22 1125.7 1070.43C1135.61 1092.99 1138.43 1109.85 1135 1126.04C1133.6 1132.62 1126.8 1148.93 1125.44 1148.93C1123.46 1148.93 1108.66 1105.99 1103.55 1085.43C1097.14 1059.6 1095.1 1034.18 1098.69 1024.86C1100.84 1019.29 1105.63 1014.47 1110.95 1012.52C1116.28 1010.57 1127.35 1010.7 1135.93 1012.81ZM1306.43 1017.02C1282.57 1025.48 1257.78 1044.01 1250.16 1059.07C1246.25 1066.79 1246.46 1072.45 1250.99 1081.91C1257.98 1096.49 1268.59 1108.57 1282.02 1117.2C1296.6 1126.59 1309.02 1130.32 1325.43 1130.24C1336.51 1130.19 1345.93 1128.46 1345.93 1126.47C1345.93 1124.55 1333.25 1118.85 1322.43 1115.92C1303.95 1110.91 1298.1 1107.67 1292.3 1099.24L1289.12 1094.61L1292.53 1095.31C1311.35 1099.18 1322.76 1100.23 1345.93 1100.25C1366.85 1100.27 1372.35 1099.92 1388.77 1097.54C1409.83 1094.49 1417.86 1092.36 1422.96 1088.47C1427.51 1085 1429.43 1081.1 1429.43 1075.34C1429.43 1068.56 1425.19 1064.81 1413.63 1061.38C1408.84 1059.96 1399.77 1057.2 1393.46 1055.25C1366.89 1047.03 1351.64 1046.97 1307.56 1054.87C1291.2 1057.81 1266.32 1061.14 1265.66 1060.49C1265.49 1060.32 1274.71 1051.5 1286.14 1040.89C1318.09 1011.24 1316.09 1013.6 1306.43 1017.02ZM1878.52 1097.43C1881.06 1114.03 1885.99 1134.06 1893.9 1159.93C1903.26 1190.54 1904.42 1197.24 1902.46 1209.34C1899.99 1224.61 1894.66 1235.37 1882.36 1249.93C1865.55 1269.83 1856.96 1287.37 1853.7 1308.43C1853.06 1312.61 1852.88 1311.48 1852.61 1301.43C1852.2 1286.52 1853.55 1274.16 1858.43 1247.93C1863.96 1218.23 1864.24 1216.34 1866.45 1192.82C1871.13 1143.06 1874.29 1100.04 1874.56 1082.43C1874.71 1072.12 1874.56 1071.54 1878.52 1097.43ZM1469.43 1168.43C1469.43 1212.7 1469.61 1248.93 1469.84 1248.93C1470.64 1248.93 1476.46 1231.67 1478.86 1222.16C1483.78 1202.65 1484.93 1191.44 1484.91 1163.43C1484.88 1135.92 1483.38 1122.74 1478.5 1107.3C1476.31 1100.37 1470.85 1087.93 1469.99 1087.93C1469.68 1087.93 1469.43 1124.15 1469.43 1168.43ZM1164.77 1106.93C1165.11 1113.8 1166.3 1127.98 1167.42 1138.43C1169.28 1155.81 1170.86 1168.6 1176.45 1211.43C1179.94 1238.22 1183.3 1271.13 1183.91 1284.43L1184.51 1297.43L1182.14 1290.43C1177.79 1277.58 1171.33 1266.96 1158.73 1251.93C1145.29 1235.89 1139.67 1224.25 1137.35 1207.64C1135.32 1193.11 1137.59 1181.22 1147.92 1152.43C1153.36 1137.24 1159.88 1112.33 1161.57 1100.23C1162.22 1095.57 1163.07 1092.36 1163.46 1093.09C1163.85 1093.83 1164.44 1100.05 1164.77 1106.93ZM1562.11 1105.68C1558.4 1127.98 1557.93 1134.7 1557.95 1165.43C1557.96 1192.64 1558.24 1198.2 1560.23 1210.93C1561.48 1218.9 1562.88 1227 1563.36 1228.93C1563.88 1231.02 1564.27 1204.91 1564.33 1164.18C1564.39 1126.64 1564.28 1095.93 1564.08 1095.93C1563.89 1095.93 1563.01 1100.31 1562.11 1105.68ZM1601.59 1243.3C1592.41 1259.56 1572.5 1273.17 1548.54 1279.57C1536.74 1282.72 1514.02 1283.85 1499.93 1281.99C1480.15 1279.38 1458.66 1269.61 1445.9 1257.43C1440.83 1252.59 1439.49 1250.65 1438.97 1247.41C1438.11 1241.98 1437.14 1240.68 1433.96 1240.68C1428.01 1240.68 1424.68 1244.53 1422.51 1253.97C1419.08 1268.84 1425.07 1279.83 1440.68 1287.34C1450.91 1292.26 1470.56 1298.61 1484.43 1301.48C1517.35 1308.29 1548.02 1306.17 1579.58 1294.92C1610.31 1283.95 1619.29 1273.45 1613.84 1254.86C1612.19 1249.24 1606.48 1237.93 1605.3 1237.93C1604.93 1237.93 1603.26 1240.35 1601.59 1243.3ZM1148.04 1269.7C1158.14 1281.41 1165.81 1297 1170.52 1315.43C1172.41 1322.82 1172.82 1327.1 1172.84 1339.43C1172.87 1360.78 1170.09 1370.17 1159.29 1385.12C1154.14 1392.25 1153.43 1393.8 1153.43 1397.89C1153.43 1401.69 1153.94 1403.03 1156.18 1405.12C1168.84 1416.92 1180.21 1406.55 1188.74 1375.44C1190.64 1368.49 1190.92 1364.98 1190.88 1348.93C1190.84 1335.1 1190.41 1328.79 1189.17 1323.97C1188.26 1320.42 1187.64 1317.39 1187.79 1317.23C1188.29 1316.73 1226.19 1394.09 1232.96 1409.43C1241.33 1428.4 1241.69 1431.43 1237.99 1452.86C1234.12 1475.31 1231.21 1483.04 1223.53 1491.28C1216.13 1499.21 1206.85 1502.93 1194.43 1502.93C1172.13 1502.93 1155.47 1489.43 1150.59 1467.43C1149.36 1461.89 1147.29 1436.57 1144.94 1398.43C1143.39 1373.32 1137.45 1264.98 1137.44 1261.65C1137.43 1260.03 1137.7 1260.06 1140.35 1262.03C1141.96 1263.21 1145.42 1266.67 1148.04 1269.7ZM1899.12 1298.25C1899.65 1320.39 1899.28 1327.51 1895.49 1368.28C1894.43 1379.65 1892.7 1382.3 1886.04 1382.73C1880.25 1383.11 1875.28 1380.35 1873.3 1375.67C1871.6 1371.64 1871.65 1342.53 1873.39 1326.32C1875.96 1302.3 1882.75 1281.5 1892.8 1266.93L1895.9 1262.43L1897.23 1268.93C1897.98 1272.56 1898.81 1285.48 1899.12 1298.25ZM1850.92 1328.46C1848.27 1343.32 1849.35 1358.67 1854.48 1379.23C1859.92 1401.05 1862.38 1404.49 1874.93 1407.88C1897.73 1414.04 1903.27 1425.16 1896.89 1451.93C1895.52 1457.7 1893.98 1467.26 1893.47 1473.16C1892.89 1479.85 1891.8 1485.56 1890.57 1488.33C1887.76 1494.69 1881.27 1501.28 1874.65 1504.51C1869.75 1506.89 1867.38 1507.35 1858.14 1507.72C1848.9 1508.09 1846.33 1507.82 1840.31 1505.89C1816.9 1498.36 1804.22 1478.61 1800.53 1443.93C1799.74 1436.56 1799.71 1431.04 1800.43 1425.43C1802.08 1412.41 1804.28 1407.19 1813.46 1394.43C1820.74 1384.31 1824.35 1377.06 1831.16 1358.93C1837.27 1342.65 1843.84 1329.3 1848.52 1323.62C1850.25 1321.53 1851.81 1319.97 1852 1320.16C1852.19 1320.35 1851.7 1324.08 1850.92 1328.46ZM1488.43 1333.53C1473.18 1335.37 1455.61 1339.26 1441.11 1344.01C1426.84 1348.67 1405.43 1357.95 1405.43 1359.46C1405.43 1360.97 1410.31 1365.4 1413.93 1367.16C1415.58 1367.97 1420.03 1369.39 1423.82 1370.32C1427.61 1371.26 1431.88 1372.62 1433.32 1373.35C1440.01 1376.78 1464.96 1381.93 1484.93 1384.01C1499.21 1385.5 1535.02 1385.5 1548.43 1384.01C1571.36 1381.47 1591.58 1376.94 1607.93 1370.7C1620.2 1366.02 1635.18 1357.28 1633.62 1355.72C1632.25 1354.34 1605.18 1345.41 1592.09 1342.01C1556.46 1332.76 1519.72 1329.75 1488.43 1333.53ZM1432.29 1378.38C1428.33 1381.07 1427.43 1382.65 1427.43 1386.94C1427.43 1394.77 1432.89 1401.27 1448.36 1411.88C1463.44 1422.22 1467.72 1427.03 1470.84 1437.19C1471.76 1440.2 1476.26 1441.17 1486.47 1440.59C1492.82 1440.22 1498.67 1439.16 1503.97 1437.41C1517.11 1433.08 1518.08 1432.96 1526.83 1434.5C1531.28 1435.28 1540.2 1435.92 1546.64 1435.92C1565.65 1435.93 1577.48 1431.13 1588.93 1418.76C1596.88 1410.17 1606.15 1393.51 1609.94 1381L1610.68 1378.58L1607.8 1380.81C1600.8 1386.25 1587.81 1394.34 1581.17 1397.41C1572.56 1401.38 1559 1405.33 1547.93 1407.08C1530.8 1409.79 1484.74 1407.64 1468.09 1403.35C1455.13 1400 1444.44 1391.88 1438.93 1381.18C1437.44 1378.29 1436.15 1375.93 1436.06 1375.93C1435.97 1375.93 1434.27 1377.03 1432.29 1378.38ZM1781.91 1441.31C1783.22 1442.63 1784.57 1445.44 1784.9 1447.56C1786.08 1455.08 1790.74 1472.52 1793.47 1479.67C1801.98 1501.86 1815.51 1515.39 1833.81 1520C1836.34 1520.64 1838.19 1521.51 1837.92 1521.95C1836.55 1524.17 1826.4 1526.17 1809.93 1527.47C1800.03 1528.25 1789.46 1529.62 1786.43 1530.52C1783.41 1531.41 1779.53 1532.36 1777.81 1532.63C1773.85 1533.25 1768.62 1530.6 1767.98 1527.66C1767.71 1526.43 1766.05 1517.1 1764.29 1506.93C1760.11 1482.8 1759.74 1465.13 1763.19 1454.43C1765.54 1447.14 1766.98 1444.93 1771.82 1441.17C1775.54 1438.27 1778.92 1438.32 1781.91 1441.31ZM1285.43 1471.06C1294.55 1476.23 1308.73 1491.53 1318.94 1507.23C1340.02 1539.59 1346.09 1546.81 1362.86 1559.38C1406.2 1591.86 1449.37 1610.77 1496.93 1618.09C1515.82 1621 1548.96 1621.22 1567.93 1618.57C1604.71 1613.44 1625.23 1607.1 1704.43 1576.41C1736.05 1564.16 1745.05 1560.93 1747.59 1560.93C1748.59 1560.93 1750.76 1562.16 1752.43 1563.68C1755.04 1566.05 1755.92 1568.32 1758.87 1580.43C1765.58 1607.89 1773.57 1628.57 1796.91 1678.93C1818.55 1725.6 1828.02 1753.82 1833.32 1787.43C1845.62 1865.28 1843.83 1937.95 1827.79 2011.43C1820.85 2043.27 1814.97 2058.93 1805.1 2071.9C1802.81 2074.9 1797.16 2082.33 1792.55 2088.4C1781.81 2102.53 1760.41 2134.9 1748.23 2155.43C1736.37 2175.41 1721.24 2203 1696.43 2249.93C1650.48 2336.84 1637.97 2358.03 1591.14 2428.23C1579.07 2446.33 1566.52 2463.96 1563.16 2467.56C1556.99 2474.16 1555.38 2475.1 1531.43 2486.17C1524.43 2489.41 1503.98 2500.59 1492.93 2507.22C1469.36 2521.36 1450.96 2534.06 1383.93 2582.44C1337.3 2616.09 1311.54 2631.77 1255.43 2660.64C1215.79 2681.03 1179.36 2695.61 1148.43 2703.44C1119.41 2710.8 1086.1 2714.14 1061.67 2712.15C1046.21 2710.9 1040.73 2709.25 1036.93 2704.74C1032.04 2698.93 1033.64 2690.48 1045.03 2662.17C1056.67 2633.21 1073.86 2584.61 1097.61 2513.43C1106.07 2488.09 1126.3 2438.12 1135.67 2419.43C1145.79 2399.24 1156.16 2388.17 1176.93 2375.36C1223.49 2346.65 1250.99 2303.52 1262.92 2240.46C1269.22 2207.2 1270.45 2187.87 1271.44 2106.43C1272.47 2021.66 1272.93 2016.52 1283.14 1976.43C1288.36 1955.92 1289.04 1946.98 1286.05 1938.16C1283.54 1930.77 1276.02 1922.83 1267.62 1918.7C1261.75 1915.81 1260.01 1915.43 1252.95 1915.46C1245.85 1915.48 1244.19 1915.87 1238.47 1918.83C1224.78 1925.91 1205.49 1950.12 1196.16 1971.93C1190.65 1984.81 1189.38 1991.42 1188.55 2011.43C1187.88 2027.67 1187.56 2029.96 1185.28 2034.93C1182.19 2041.65 1178.56 2046.05 1172.89 2049.96C1170.51 2051.59 1168.36 2052.93 1168.11 2052.93C1167.85 2052.93 1166.51 2050.11 1165.12 2046.68C1163.73 2043.24 1158.91 2032.55 1154.42 2022.93C1133.67 1978.54 1131.17 1969.22 1131.03 1935.43L1130.93 1912.43L1126.08 1898.93C1115.45 1869.32 1114.06 1861.45 1116.86 1846.61C1117.77 1841.76 1118.91 1830.51 1119.38 1821.61C1120.1 1807.88 1120.77 1803.46 1123.77 1792.43C1131.09 1765.55 1131.2 1754.46 1124.33 1735.93C1120.4 1725.33 1120.06 1723.64 1120 1714.43C1119.94 1705.77 1120.25 1703.82 1122.29 1699.93C1127.95 1689.16 1140.04 1681.74 1165.43 1673.44C1191.1 1665.05 1209.41 1654.16 1224.45 1638.34C1247.42 1614.17 1258.5 1584.88 1262.42 1537.93C1264.56 1512.21 1269.83 1486.16 1275.6 1472.76C1276.74 1470.1 1278.18 1467.93 1278.8 1467.93C1279.42 1467.94 1282.41 1469.35 1285.43 1471.06ZM1646.93 1483.84C1637.18 1487.75 1624.64 1493.44 1605.93 1502.45C1564.09 1522.6 1543.02 1527.48 1508.43 1525.01C1464.13 1521.85 1431.56 1511.59 1400.17 1490.91C1395.18 1487.62 1390.95 1485.07 1390.79 1485.24C1390.62 1485.4 1391.66 1487.76 1393.1 1490.48C1406.77 1516.31 1435.59 1536.84 1470.38 1545.53C1521.77 1558.38 1581.69 1547.98 1621.51 1519.31C1633.74 1510.5 1648.7 1494.31 1655.82 1482.18C1656.91 1480.31 1654.76 1480.71 1646.93 1483.84ZM1817.43 1545.34C1839.22 1549.96 1853.54 1564.52 1867.88 1596.64C1893.74 1654.6 1908.43 1711.27 1929.36 1833.93C1950.78 1959.41 1938.82 2074.02 1883.92 2269.43C1867.4 2328.23 1857.61 2361.29 1837.55 2426.04C1812.97 2505.39 1809.16 2516.94 1802.87 2531.31C1789.34 2562.2 1767.83 2591.98 1743.56 2613.41C1731.12 2624.4 1722.43 2631.38 1722.43 2630.4C1722.43 2630.01 1724.62 2625.81 1727.3 2621.06C1749.48 2581.71 1767.66 2534.08 1780.8 2480.9C1786.06 2459.63 1790.56 2438.72 1790 2438.16C1788.72 2436.88 1779.18 2457.71 1774.31 2472.43C1749.69 2546.81 1711.46 2607.8 1649.93 2670.8C1623.69 2697.67 1599.43 2719.02 1558.93 2750.88C1445.35 2840.22 1352.71 2897.54 1259.23 2936.31C1163.64 2975.96 1074.96 2992.41 966.432 2990.62C937.031 2990.14 895.419 2987.93 885.57 2986.34C880.562 2985.53 877.432 2981.9 877.432 2976.9C877.432 2971.49 881.13 2967.71 888.495 2965.56C891.484 2964.69 897.082 2963.09 900.932 2962C937.315 2951.7 1012.88 2927.36 1044.93 2915.61C1105.22 2893.52 1157.3 2869.89 1202.43 2844.16C1230.12 2828.37 1262.42 2807.48 1306.43 2776.92C1455.17 2673.62 1548.02 2585.89 1616.14 2484.27C1638.58 2450.81 1653.25 2425.06 1672.19 2385.93C1690.94 2347.18 1692.45 2344.16 1702.76 2324.93C1724.44 2284.45 1743.07 2253.24 1782.43 2191.43C1841.65 2098.44 1852.51 2080.96 1871.94 2047.44C1902.71 1994.37 1913.38 1957.08 1908.37 1920.25C1906.29 1905.01 1900.04 1884.38 1898.31 1887.06C1896.2 1890.32 1893.32 1902.64 1890.96 1918.54C1889.55 1927.95 1887.69 1938.07 1886.81 1941.04C1884.4 1949.13 1875.59 1965.73 1875.45 1962.43C1875.29 1958.46 1871.11 1906.25 1869.9 1892.94C1861.77 1803.99 1841.22 1726.54 1806.84 1655.29C1798.28 1637.54 1795.78 1631.01 1788 1606.09C1784.34 1594.35 1780.04 1581.17 1778.44 1576.8C1773.04 1561.98 1773.49 1554.27 1780.07 1549.25C1786.56 1544.3 1803.95 1542.48 1817.43 1545.34ZM1367.08 1641.4C1366.42 1643.12 1367.85 1648.39 1369.77 1651.31C1371.48 1653.93 1384.65 1662.06 1400.87 1670.53C1430.97 1686.24 1464.04 1696.4 1501.93 1701.56C1521.47 1704.22 1565.84 1704.02 1589.51 1701.15C1618.75 1697.61 1651.17 1691.2 1682.18 1682.82C1702.32 1677.39 1710.15 1673.14 1714.13 1665.51C1717.48 1659.11 1713.87 1649.82 1706.7 1646.35C1700.19 1643.21 1691.6 1644.04 1666.93 1650.21C1562.97 1676.21 1486.81 1678.19 1412.93 1656.81C1398.89 1652.75 1378.12 1645.28 1371.28 1641.83C1368.23 1640.29 1367.53 1640.22 1367.08 1641.4ZM1962.28 1648.56C2007.35 1657.67 2041.22 1683.85 2061.72 1725.43C2067.85 1737.86 2071.58 1747.68 2077.47 1766.93C2101.1 1844.17 2110.92 1914.22 2107.65 1982.18C2105.87 2019.03 2101.77 2049.39 2088.42 2124.43C2081.89 2161.09 2077.43 2190.52 2077.43 2196.89C2077.43 2206.05 2079.73 2213.93 2082.42 2213.93C2085.33 2213.93 2095.96 2205.46 2100.25 2199.73C2106.03 2192 2110.79 2181.87 2116.49 2165.18C2132.31 2118.84 2141.21 2078.71 2145.61 2033.93C2147.36 2016.06 2147.36 1957.86 2145.61 1939.93C2139.51 1877.39 2123.01 1818.05 2094.07 1754.54C2088.2 1741.67 2085.64 1734.95 2086.02 1733.42L2086.58 1731.19L2099.76 1734.43C2107 1736.22 2121.71 1739.81 2132.43 1742.41C2184.53 1755.04 2210.55 1767.9 2236.5 1793.86C2272.51 1829.87 2291.54 1880.37 2301.13 1965.43C2302.64 1978.83 2302.93 1989.87 2302.93 2033.43C2302.93 2068.47 2302.49 2090.32 2301.6 2100.43C2297.48 2146.82 2298.68 2188.23 2305.06 2220.36C2307.15 2230.89 2307.09 2251.07 2304.92 2260.93C2300.01 2283.32 2293.19 2298.57 2270.23 2338.43C2246.96 2378.83 2243.63 2386.12 2245.01 2393.51C2246.26 2400.16 2253.54 2405.99 2264.13 2408.84C2270.14 2410.46 2273.43 2414.76 2273.43 2420.98C2273.43 2426.76 2269.47 2450.04 2266.51 2461.63C2261.1 2482.79 2251.43 2504.25 2237.75 2525.43C2207.87 2571.65 2194.1 2603.29 2163.91 2694.96C2145.25 2751.62 2142.28 2759.67 2137.31 2766.93C2131.77 2775.04 2130.03 2779.19 2130.83 2782.38C2131.74 2786 2134.88 2787.27 2144.43 2787.88L2152.93 2788.43L2152.87 2793.93C2152.73 2807.58 2131 2873.05 2111.26 2919.32C2082.94 2985.71 2045.38 3052.85 1991.76 3132.93C1958.69 3182.31 1955.1 3187.26 1943.47 3199.32C1925.18 3218.3 1904.91 3233.11 1870.43 3252.68C1860.81 3258.15 1839.43 3270.29 1822.93 3279.67C1806.43 3289.05 1782.81 3302.33 1770.43 3309.18C1710.99 3342.11 1711.67 3341.69 1708.84 3347.13C1706.87 3350.9 1707.06 3352.79 1709.97 3358.62C1712.81 3364.33 1716.17 3366.34 1722.48 3366.09C1728.1 3365.88 1765.34 3352.2 1796.43 3338.94C1811.93 3332.33 1848.62 3313.71 1867.43 3302.91C1903.28 3282.33 1947.42 3251.63 1978.43 3225.71C1992.64 3213.83 2012.7 3195.83 2030.67 3178.83C2039.46 3170.51 2043.85 3167.05 2046.18 3166.6C2049.21 3166.02 2049.43 3166.16 2049.42 3168.7C2049.39 3174.29 2046.24 3184.56 2042.26 3192.02C2040 3196.25 2032.99 3206.14 2026.67 3213.99C2012.25 3231.91 2006.77 3239.58 2000.39 3250.81C1989.67 3269.66 1984.51 3287.1 1983.69 3307.2C1982.89 3326.59 1986.04 3342.04 1994.96 3362.54C2000.26 3374.71 2001.14 3379.33 1999.37 3385.65C1997.19 3393.44 1991.59 3398.04 1974.09 3406.41C1912.25 3435.99 1855.89 3451.27 1794.93 3454.98C1773.61 3456.28 1762.28 3455.9 1718.43 3452.39C1673.3 3448.79 1662.72 3448.02 1643.43 3446.98C1548.42 3441.83 1473.78 3447.58 1403.93 3465.42C1385.24 3470.19 1384.81 3469.88 1398.73 3461.75C1421.54 3448.43 1451.47 3439.08 1486.43 3434.36C1495.56 3433.13 1515.57 3432.63 1583.43 3431.95C1707.99 3430.7 1720.86 3430.15 1748.43 3424.9C1790.15 3416.95 1832.48 3397.16 1867.43 3369.25C1876.48 3362.02 1904.3 3335.3 1907.63 3330.63L1909.63 3327.84L1906.78 3329.15C1905.21 3329.87 1889.31 3337.72 1871.43 3346.59C1828.45 3367.94 1804.28 3377.35 1771.93 3385.34C1740.2 3393.17 1713.86 3396.31 1679.93 3396.3C1656.42 3396.29 1645.78 3395.5 1612.43 3391.3C1591.25 3388.62 1537.88 3388.88 1513.78 3391.77C1439.97 3400.63 1374.88 3422.25 1297.93 3463.46C1266.72 3480.17 1243.74 3494.25 1200.93 3522.89C1165.74 3546.43 1149.91 3556.17 1133.48 3564.4C1121.26 3570.53 1104.68 3577.93 1103.17 3577.93C1101.94 3577.93 1112.31 3558.46 1119.16 3547.93C1136.69 3520.96 1161.73 3496.18 1191.83 3476C1209.08 3464.44 1225.77 3455.11 1258.25 3438.89L1289.56 3423.25L1285.25 3421.63C1273.73 3417.33 1261.21 3416.87 1250.93 3420.37C1235.62 3425.59 1202.75 3443.52 1134.56 3483.84L1129.19 3487.02L1129.86 3484.22C1131.31 3478.16 1137.67 3466.66 1148.55 3450.43C1159.31 3434.39 1167.94 3418.9 1167.24 3416.89C1166.73 3415.41 1150.05 3423.33 1141.17 3429.26C1133.74 3434.23 1120.46 3446.6 1114.17 3454.43C1110.13 3459.44 1102.22 3471.64 1092.84 3487.29C1078.64 3511 1074.09 3514.11 1066 3505.66C1063.75 3503.31 1058.77 3495.8 1054.92 3488.95C1042.48 3466.81 1025.31 3444.7 1006.73 3426.86C981.135 3402.29 957.775 3393.94 914.682 3393.93C896.465 3393.93 896.781 3393.77 900.471 3401C902.659 3405.29 909.46 3410.23 917.432 3413.33C937.551 3421.14 982.589 3454.09 1000.61 3474.19C1028.21 3504.98 1039.38 3529.51 1048.52 3579.43C1051.95 3598.13 1048.86 3607.13 1037.01 3612.96C1031.25 3615.8 1029.76 3616.12 1024.01 3615.75C1018.62 3615.41 1016.87 3614.82 1013.79 3612.33C1008.83 3608.31 1004.38 3600.01 999.393 3585.45C979.896 3528.54 933.77 3480.8 854.471 3435.43C803.516 3406.28 752.711 3390.14 698.432 3385.84C685.002 3384.78 664.827 3385.05 646.858 3386.54C639.844 3387.13 639.76 3387.1 637.108 3383.95C633.779 3380 633.441 3373.06 636.346 3368.3C639.161 3363.68 665.241 3342.29 678.432 3333.78C716.72 3309.07 760.009 3295.87 820.432 3290.47C857.059 3287.2 892.616 3286.43 1006.43 3286.43C1086.59 3286.43 1142.65 3286.97 1201.43 3288.3C1324.32 3291.1 1357.55 3290.02 1415.93 3281.32C1518.53 3266.03 1617.13 3229.1 1713.48 3169.9C1784.02 3126.55 1869.47 3057.94 1936.97 2990.46C1987.46 2939.98 2024.72 2894.74 2059.68 2841.43C2090.22 2794.87 2113.17 2750.48 2135.55 2694.72C2145.72 2669.38 2148.43 2659.9 2148.43 2649.71V2641.98L2145.18 2642.58C2138.39 2643.85 2133.34 2648.92 2130.91 2656.89C2129.3 2662.19 2116.74 2689.48 2106.5 2709.93C2084.8 2753.27 2061.68 2790.62 2031.91 2830.43C1985.06 2893.06 1937.17 2940.61 1839.43 3021.51C1734.94 3108.01 1639.33 3169.86 1549.43 3209.12C1493.4 3233.58 1434.19 3246.9 1362.93 3251.07C1339.42 3252.45 1190.02 3253.08 1180.46 3251.85C1174.06 3251.02 1163.45 3246.52 1162.73 3244.32C1162.31 3243.05 1175.59 3236.37 1185.93 3232.66C1196.29 3228.95 1211.85 3225.37 1230.43 3222.43C1317.92 3208.62 1394 3182.77 1472.56 3140.17C1538.26 3104.55 1590.8 3067.65 1671.42 3000.52C1734.82 2947.71 1776.42 2917.13 1833.43 2881.39C1894.15 2843.33 1937.41 2804.86 1977.89 2752.93C1989.34 2738.24 2009.4 2708.23 2018.66 2691.93C2033.12 2666.48 2048.46 2633.53 2058.45 2606.43C2070.64 2573.4 2101.26 2484 2117.88 2432.93C2131.53 2390.99 2133.16 2385.87 2143.28 2352.93C2172.89 2256.57 2199.85 2160.14 2202.37 2141.6C2203.56 2132.83 2203.73 2123.63 2202.76 2120.02C2202.18 2117.86 2201.92 2118.11 2200.16 2122.52C2196.72 2131.09 2187.59 2158.59 2179.44 2184.93C2165.97 2228.42 2154.03 2260.85 2146.32 2274.89L2144.38 2278.43L2145.01 2274.93C2145.36 2273 2147.87 2263.1 2150.59 2252.93C2159.82 2218.41 2169.29 2180.49 2173.34 2161.93C2187.37 2097.59 2188.8 2090.73 2191.34 2075.43C2197.15 2040.45 2197.47 2011.03 2192.31 1985.43C2189.8 1972.95 2182.29 1949.77 2178.32 1942.21C2176.67 1939.08 2173.22 1934.06 2170.66 1931.06C2166.24 1925.88 2155.24 1916.93 2153.31 1916.93C2152.81 1916.93 2153.03 1918.43 2153.8 1920.27C2156.53 1926.79 2163.37 1951.6 2165.85 1963.93C2170.17 1985.45 2171.43 1998.5 2171.43 2021.75C2171.43 2046.16 2170.99 2050.66 2165.36 2084.34C2155.39 2143.84 2149.52 2170.45 2140.08 2198.93C2131.97 2223.39 2126.04 2236.1 2106.66 2270.63C2078.68 2320.47 2056.84 2367.14 2001.45 2495.43C1984.77 2534.05 1983.95 2535.86 1973.93 2556C1942.24 2619.73 1902.28 2672.91 1852.09 2718.18C1846.14 2723.55 1831.07 2736.13 1818.6 2746.16C1779.52 2777.57 1729.07 2820.57 1679.43 2864.79C1566.67 2965.24 1490.06 3028.65 1444.63 3059.13C1392.37 3094.19 1332.11 3120.26 1269.12 3135.05C1260.64 3137.04 1259.19 3137.15 1258.39 3135.89C1255.97 3132.07 1256.75 3131.41 1274.43 3122.24C1352.22 3081.88 1418.4 3027.68 1491.59 2944.43C1511.93 2921.28 1525.75 2904.36 1572.87 2844.94C1605.88 2803.3 1628 2778.26 1660.38 2745.86C1691.75 2714.48 1712.81 2696.31 1745.43 2672.46C1768.2 2655.81 1783.01 2643.38 1798.47 2627.95C1848.22 2578.28 1885.69 2516.98 1935.42 2403.93C1970.43 2324.33 2001.53 2240.25 2023.07 2166.93C2039.59 2110.69 2042.85 2096.66 2040.7 2091.04C2039.84 2088.79 2039.54 2089.04 2035.43 2095.54C2017.09 2124.58 1994.16 2169.99 1967.58 2229.93C1937.85 2296.96 1918.86 2336.43 1919.95 2328.93C1926.46 2283.99 1932.01 2263.38 1961.91 2172.93C1981.38 2114.05 1988.58 2090.91 1995.4 2065.43C2005.43 2027.87 2010.57 2000.93 2014.09 1967.43C2016.56 1943.93 2016.57 1893.32 2014.12 1869.43C2006.65 1796.91 1988.71 1737.81 1953.27 1669.05L1941.22 1645.67L1948.08 1646.37C1951.85 1646.76 1958.24 1647.74 1962.28 1648.56ZM1921.77 1661.39C1954.07 1694.79 1979.8 1775.96 1983.3 1855.45C1984.77 1888.77 1982.13 1923.59 1976.47 1945.76C1974.59 1953.09 1973.43 1955.72 1973.43 1952.61C1973.43 1950.52 1966.86 1891.32 1964.87 1875.43C1958.23 1822.52 1948.91 1772.22 1939.21 1736.93C1931.17 1707.64 1923.74 1686.3 1909.66 1651.98C1908.68 1649.58 1915.43 1654.83 1921.77 1661.39ZM1049.63 1674.18C1055 1684.94 1058.27 1695.99 1060.06 1709.43C1062.41 1727.09 1061.63 1739.56 1055.01 1789.93C1050.81 1821.92 1049.43 1837.36 1049.44 1852.28C1049.44 1879.44 1054.92 1899.44 1067.42 1917.93C1073.89 1927.49 1074.89 1930.26 1074.54 1937.64C1074.38 1941.02 1069.02 1946.43 1063.47 1948.81C1048.22 1955.37 1038.19 1950.84 1030.16 1933.78C1019.97 1912.09 1015.36 1888.04 1015.35 1856.43C1015.34 1838.57 1017.5 1800.71 1019.5 1783.43C1023.13 1752.18 1022.42 1727.51 1017.34 1708.43C1013.22 1692.9 1012.88 1683.2 1016.28 1677.45C1020.56 1670.21 1027.23 1667.06 1038.47 1666.98L1046.01 1666.93L1049.63 1674.18ZM998.6 1703.56C1005.73 1710.34 1009.64 1725.24 1009.7 1745.93C1009.77 1769.17 1003.23 1791.37 990.588 1810.84C983.141 1822.3 983.19 1827.91 990.82 1837.23C992.854 1839.71 994.948 1843.24 995.475 1845.07C996.86 1849.91 996.616 1863.89 994.944 1875.43C994.147 1880.93 993.481 1889.94 993.464 1895.47C993.411 1912.1 996.883 1921.48 1007.6 1933.61C1017.75 1945.11 1020.06 1953.64 1014.75 1959.96C1010.77 1964.69 995.188 1976.42 988.994 1979.35C978.1 1984.51 966.648 1985.08 959.741 1980.81C957.793 1979.6 955.48 1976.68 953.864 1973.38C951.372 1968.28 951.18 1966.9 950.913 1952.18C950.605 1935.25 950.247 1933.37 942.47 1907.93C937.131 1890.45 935.669 1879.27 937.411 1869.22C938.154 1864.93 938.837 1855.35 938.929 1847.93C939.18 1827.7 942.047 1818.62 958.505 1785.93C973.456 1756.22 979.228 1737.78 981.012 1713.99C981.622 1705.85 982.055 1704.21 984.151 1702.11C987.503 1698.76 994.259 1699.44 998.6 1703.56ZM1701.43 1726.09C1679.53 1727.94 1656.57 1732.47 1640.69 1738.06C1606.68 1750.03 1586.19 1769.25 1577.55 1797.28C1574.12 1808.38 1574.81 1808.93 1581.26 1800.26C1592.38 1785.29 1608.22 1772.34 1626.13 1763.55C1641.31 1756.1 1655.1 1751.54 1680.93 1745.42C1715.95 1737.13 1731.53 1732.58 1742.59 1727.43L1747.93 1724.95L1729.93 1725.07C1720.03 1725.15 1707.21 1725.6 1701.43 1726.09ZM1355.43 1741.37C1364.53 1744.9 1376.03 1748.08 1396.93 1752.86C1428.06 1759.98 1432.62 1761.11 1445.44 1764.93C1474.75 1773.66 1495.77 1785.27 1512.42 1801.91C1515.72 1805.22 1518.43 1807.56 1518.43 1807.11C1518.43 1806.67 1516.56 1803.18 1514.27 1799.36C1499.21 1774.26 1477.87 1757.41 1449.93 1748.58C1430.92 1742.57 1411.01 1740.17 1373.43 1739.37L1348.93 1738.85L1355.43 1741.37ZM1705.93 1774.32C1697.68 1776.67 1684.74 1780.3 1677.18 1782.39C1669.62 1784.49 1663.43 1786.51 1663.43 1786.89C1663.43 1788.19 1670.89 1790.02 1678.56 1790.61C1687.74 1791.31 1696.57 1788.99 1705.98 1783.4C1712.83 1779.32 1724.28 1769.89 1722.26 1769.99C1721.53 1770.03 1714.18 1771.98 1705.93 1774.32ZM1345.43 1779.97C1345.43 1781.3 1356.68 1788.26 1362.87 1790.76C1371.45 1794.23 1384.99 1796.75 1399.28 1797.54C1414.05 1798.36 1414.4 1797.64 1402.04 1791.89C1391.22 1786.86 1381.85 1784.38 1364.43 1781.93C1356.46 1780.81 1348.92 1779.74 1347.68 1779.55C1346.44 1779.36 1345.43 1779.55 1345.43 1779.97ZM2303.76 1851.27C2314.23 1857.97 2339.13 1871.27 2371.67 1887.54C2485.59 1944.52 2502.07 1963.11 2520.83 2055.93C2531.13 2106.91 2534.34 2141.9 2536.93 2231.43C2539.26 2311.86 2541.33 2343.82 2547 2386.37C2551.19 2417.77 2556.55 2443.49 2562.43 2460.43C2570.82 2484.54 2575.06 2508.03 2579.96 2557.43C2581.38 2571.73 2584.09 2595.13 2585.97 2609.43C2587.86 2623.73 2590.33 2642.63 2591.47 2651.43C2602.68 2738.08 2611.19 2784.27 2625.45 2835.93C2653.85 2938.78 2661.25 3009.14 2651.42 3082.93C2646.72 3118.25 2644.43 3153.46 2644.43 3190.51C2644.43 3201 2644.04 3208.93 2643.52 3208.93C2641.82 3208.93 2631.29 3196.49 2627.42 3189.93C2620.11 3177.51 2617.52 3163.23 2619.4 3145.56C2619.97 3140.13 2622.68 3126.41 2625.41 3115.06C2633.09 3083.14 2633.84 3077.63 2633.89 3052.43C2633.92 3035.66 2633.5 3027.81 2632.11 3019.43C2624.46 2973.31 2605.76 2932.23 2565.64 2873.43C2547.51 2846.85 2532.79 2833.45 2515.43 2827.73C2510.56 2826.13 2505.67 2825.49 2495.93 2825.18C2475.05 2824.53 2464.33 2827.54 2423.88 2845.44C2325.11 2889.15 2262.9 2928.25 2213.93 2977.4C2195.43 2995.97 2175.19 3020.79 2161.32 3041.94L2159.7 3044.41L2158.51 3038.92C2152.94 3013.14 2156.16 2984.39 2167.04 2962.66C2177.2 2942.34 2191.59 2927.33 2224.43 2902.77C2321.46 2830.18 2402.91 2789.37 2488.49 2770.46C2506.39 2766.5 2529.42 2760.22 2530.8 2758.91C2532.07 2757.71 2516.06 2750.28 2507.93 2748.3C2498.56 2746.01 2476.42 2746.01 2462.99 2748.3C2451.26 2750.3 2431.73 2754.88 2419.58 2758.49C2393.05 2766.38 2343.04 2784.24 2301.01 2800.84C2291.15 2804.73 2282.97 2807.8 2282.83 2807.66C2282.69 2807.52 2283.21 2804.07 2283.98 2800C2286.82 2785.09 2296 2770.45 2316.91 2747.43C2377.75 2680.44 2421.35 2603.1 2441.43 2526.52C2449.44 2496.01 2452.74 2476.43 2452.85 2458.93C2452.93 2446.87 2450.95 2429.93 2449.47 2429.93C2449.07 2429.93 2448.17 2432.51 2447.47 2435.68C2445.68 2443.74 2438.37 2467.36 2433.62 2480.43C2419.63 2518.94 2397.26 2562.33 2368.05 2607.64C2352.93 2631.09 2341.31 2647.87 2304.5 2699.42C2251.72 2773.33 2227.65 2810.44 2206.37 2850.64C2200 2862.68 2199.44 2862.46 2198.7 2847.56C2198.11 2835.78 2199.95 2824.21 2204.47 2811.15C2206.06 2806.55 2214.99 2787.41 2224.31 2768.61C2300.1 2615.75 2354.13 2461.66 2411.83 2233.85C2427.14 2173.44 2428.18 2166.98 2424.91 2153.1C2421.82 2139.99 2422.39 2139.02 2408.44 2181.02C2397.01 2215.43 2383.26 2254.2 2373 2280.93C2362.42 2308.47 2355.39 2326.48 2342.73 2358.43C2336.41 2374.38 2326.15 2400.25 2319.94 2415.93C2289.71 2492.19 2276.01 2528.33 2258.92 2576.93C2254.37 2589.85 2250.26 2600.42 2249.79 2600.41C2248.3 2600.39 2244.22 2588.71 2243.7 2582.94C2242.97 2574.93 2247.12 2560.5 2254.87 2544.04C2259.58 2534.06 2261.99 2527.35 2263.92 2518.93C2275.69 2467.57 2289.39 2430.03 2329.55 2339.14C2341.12 2312.95 2352.86 2286.11 2355.65 2279.48C2385.72 2207.88 2399.73 2160.24 2406.52 2106.43C2409.85 2080.1 2409.53 2040.49 2405.81 2016.54C2405 2011.27 2404.45 2012.35 2398.01 2031.93C2392.77 2047.84 2388.89 2061.15 2378.92 2097.43C2364.03 2151.57 2354.75 2178.91 2341.94 2206.43C2336.99 2217.05 2325.34 2238.16 2324.75 2237.57C2324.55 2237.38 2325.28 2232.54 2326.37 2226.82C2335.26 2180.01 2339.42 2135.27 2339.42 2086.43C2339.42 2014.89 2330.2 1952.93 2309.38 1884.43C2304.99 1870.01 2299.83 1854.33 2297.93 1849.68C2296.93 1847.22 2297.8 1847.46 2303.76 1851.27ZM1070.93 2061.38C1041.77 2068.14 1010.68 2085.67 988.815 2107.69C976.497 2120.09 968.248 2133.07 964.837 2145.43C962.184 2155.03 962.794 2154.76 978.87 2139.18C1004.72 2114.12 1030.91 2093.21 1063.43 2071.67C1078.61 2061.62 1082.58 2058.81 1081.38 2059C1081.13 2059.03 1076.43 2060.11 1070.93 2061.38ZM1111.62 2092.87C1064.56 2120.87 1029.3 2166.38 1016.3 2215.93C1013.23 2227.62 1012.97 2252.35 1015.82 2261.43L1017.7 2267.43L1020.1 2254.43C1025.64 2224.49 1035.31 2199.63 1050.05 2177.43C1058.22 2165.13 1066.13 2155.17 1111.68 2099.78C1117.05 2093.26 1121.1 2087.93 1120.68 2087.93C1120.27 2087.93 1116.19 2090.15 1111.62 2092.87ZM1468.33 2894.68C1455.46 2911.42 1423.53 2944.72 1403.43 2962.36C1349 3010.12 1299.33 3040.22 1215.93 3075.96C1176.34 3092.93 1137.45 3109.56 1124.43 3115.08C1051.73 3145.94 979.992 3169.34 924.432 3180.34C896.559 3185.85 890.448 3186.36 850.932 3186.39C809.142 3186.43 806.424 3186.06 789.065 3178.04C774.739 3171.43 757.766 3159.1 753.317 3152.08C746.458 3141.27 752.638 3123.99 765.799 3117.19C773.135 3113.4 782.699 3113.52 800.432 3117.63C863.13 3132.17 939.69 3136.15 988.432 3127.4C1024.86 3120.86 1061.69 3108.35 1101.93 3088.85C1137.98 3071.38 1202.27 3034.05 1211.59 3025.19C1217.11 3019.93 1217.88 3019.57 1244.09 3009.99C1289.99 2993.22 1317.15 2981.9 1351.27 2965.34C1393.1 2945.03 1431.85 2921.74 1459.93 2900.01C1469.68 2892.47 1470.36 2892.04 1468.33 2894.68ZM2471.05 2912.46C2519.82 2920.85 2556.59 2949.09 2572.55 2990.4C2578.87 3006.77 2582.99 3029.3 2589.91 3085.43C2592.42 3105.78 2594.75 3123.94 2595.09 3125.78L2595.7 3129.15L2592.81 3127.32C2586.19 3123.15 2577.62 3116.07 2567.59 3106.51C2561.73 3100.92 2554.48 3094.41 2551.48 3092.05C2545.8 3087.57 2534.91 3081.59 2533.39 3082.12C2532.9 3082.29 2539.95 3093.68 2549.04 3107.43C2582.38 3157.84 2600.32 3191.44 2611.75 3224.93C2618.23 3243.87 2631.08 3290.24 2641.28 3331.43C2647.06 3354.76 2658.45 3404.71 2658.41 3406.52C2658.38 3407.59 2657.45 3406.44 2644.49 3389.32C2618.91 3355.53 2594.56 3315.85 2549.93 3235.22C2535.44 3209.04 2529.7 3199.5 2529.08 3200.59C2527.55 3203.31 2527.07 3225.4 2528.37 3233.43C2530.78 3248.41 2535.31 3259.31 2558.07 3304.93C2577.93 3344.74 2604.69 3391.14 2648.6 3461.93C2654.91 3472.1 2666.06 3490.33 2673.37 3502.43C2704.55 3554 2722.99 3577.88 2749.64 3601.19C2762.96 3612.84 2774.09 3619.96 2809.43 3639.44C2838.53 3655.48 2867.34 3672.16 2881.73 3681.3C2947.26 3722.92 2985.44 3771.51 3001.45 3833.65C3004.48 3845.4 3006.17 3858.57 3005.03 3861.53C3004.54 3862.81 3002.2 3859.42 2996.36 3848.99C2978.05 3816.27 2955.04 3785.95 2915.97 3743.07C2876.09 3699.28 2845.27 3677.2 2804.26 3663.02C2774.36 3652.69 2752.05 3643.26 2722.43 3628.43C2667.6 3600.98 2626.71 3574.49 2515.43 3494.33C2489.34 3475.53 2462.23 3456.69 2451.78 3450.09C2439.65 3442.43 2429.36 3436.66 2428.81 3437.22C2428.37 3437.66 2451.6 3459.01 2470.92 3475.93C2545.67 3541.35 2632.21 3603.24 2741.43 3669.39C2754.91 3677.54 2767.28 3685.05 2768.93 3686.06L2771.93 3687.89L2769.29 3687.91C2760.16 3687.97 2703.34 3679.39 2677.08 3673.99C2551.3 3648.12 2459.66 3594.08 2395.2 3507.77C2382.51 3490.77 2373.91 3477.16 2353.96 3442.43C2320.41 3384.06 2305.73 3362.79 2281.93 3338.1C2249.21 3304.15 2213.96 3283.72 2174.36 3275.76C2159.03 3272.67 2127.37 3272.42 2111.93 3275.27C2091.24 3279.08 2071.05 3285.06 2059.93 3290.68C2047.27 3297.07 2034.72 3307.82 2020.18 3324.72C2015.78 3329.83 2011.97 3333.79 2011.7 3333.53C2010.78 3332.61 2008.59 3320.42 2007.9 3312.38C2007.05 3302.49 2008.79 3288.16 2012.04 3278.18C2021.9 3248 2051.06 3219.05 2078.74 3211.98C2100.61 3206.39 2118.16 3209.05 2161.72 3224.55C2185.78 3233.12 2200.23 3237.46 2201.24 3236.45C2202.28 3235.4 2186.83 3220.98 2179.43 3216.09C2163.69 3205.7 2140.09 3196.48 2120.2 3192.95C2107.25 3190.65 2098.47 3190.24 2086.43 3191.36C2078.03 3192.15 2077.9 3192.12 2075.43 3189.46C2073.17 3187.01 2072.94 3185.97 2073.02 3178.59C2073.15 3165.63 2075.89 3158.86 2083.48 3152.76C2088.91 3148.39 2096.11 3147.26 2109.16 3148.74C2135.52 3151.71 2158.65 3158.76 2184.56 3171.74C2205.09 3182.02 2217.93 3189.93 2235.54 3203.1C2276.78 3233.97 2309.07 3270.61 2362.71 3347.43C2383.68 3377.45 2394.5 3389.18 2411.65 3400.5C2419.68 3405.79 2421.29 3406.06 2418.62 3401.68C2417.54 3399.89 2411.9 3389.65 2406.1 3378.93C2400.31 3368.2 2387.25 3344.13 2377.09 3325.43C2366.93 3306.73 2358.78 3291.26 2358.97 3291.07C2359.41 3290.61 2372.2 3301 2383.93 3311.35C2388.88 3315.72 2418.13 3344.32 2448.93 3374.92C2479.73 3405.51 2510.11 3434.96 2516.43 3440.37C2543.98 3463.9 2570.12 3481.72 2596.46 3494.94L2606.54 3500L2605.9 3496.21C2601.68 3470.86 2590.88 3449.46 2569.93 3424.89C2553.68 3405.83 2444.77 3303.26 2381.43 3247.37C2352.94 3222.22 2349.89 3219.68 2336.43 3209.73C2290.6 3175.84 2238.86 3152.03 2169.64 3132.97C2145.36 3126.29 2141.43 3124.15 2141.43 3117.6C2141.43 3108.04 2162.47 3088.85 2183.91 3078.84C2202.41 3070.2 2219.29 3066.56 2240.93 3066.55C2257.41 3066.54 2268.62 3068.17 2281.93 3072.51C2301.28 3078.81 2313.72 3086.46 2329.79 3101.93C2342.86 3114.51 2355.34 3130.85 2368.86 3153.09C2389.04 3186.29 2402.51 3205.68 2417.39 3222.97C2429.11 3236.57 2455.71 3264.99 2456.23 3264.46C2456.5 3264.19 2456.27 3263.4 2455.72 3262.7C2452.25 3258.25 2437.2 3222.61 2421.39 3181.43C2405.92 3141.1 2392.59 3111.67 2381.58 3093.54C2379.3 3089.79 2377.43 3086.58 2377.43 3086.41C2377.43 3084.91 2408.42 3094.09 2423.01 3099.92C2451.79 3111.42 2487.9 3132.78 2514.6 3154.1C2527.33 3164.26 2560.73 3197.55 2569.19 3208.52C2578.24 3220.24 2583.02 3222.18 2589.76 3216.89C2595.26 3212.55 2594.86 3205.11 2588.65 3196.43C2586.68 3193.68 2582.6 3187.83 2579.58 3183.43C2545.66 3133.99 2501.24 3097.39 2444.72 3072.34C2420.77 3061.73 2389.74 3051.41 2364.93 3045.81C2359.98 3044.69 2347.38 3042.45 2336.93 3040.83C2326.48 3039.2 2317.2 3037.65 2316.31 3037.37C2315.41 3037.1 2310.76 3036.24 2305.98 3035.46C2296.45 3033.92 2292.85 3032.15 2291.39 3028.31C2288.38 3020.4 2291.59 3016.88 2308.64 3009.45C2331.3 2999.56 2343.35 2995.82 2363.97 2992.29C2378.87 2989.74 2409.15 2989.98 2424.67 2992.77C2473.26 3001.53 2513.14 3024.58 2540.7 3059.85C2546.82 3067.69 2547.43 3067.54 2547.42 3058.26C2547.38 3003.16 2483.51 2962.54 2367.62 2943.9C2360.59 2942.77 2360.37 2942.65 2361.98 2940.87C2365.11 2937.41 2380.1 2927.96 2389.53 2923.49C2399.74 2918.66 2412.36 2914.75 2424.93 2912.52C2435.89 2910.58 2459.96 2910.55 2471.05 2912.46ZM2020.36 2967.62C1986.54 3014.98 1971 3034.1 1943.43 3062.27C1898.24 3108.46 1849.97 3147.55 1762.72 3208.58C1645.58 3290.53 1521.65 3338.3 1387.27 3353.33C1301.08 3362.96 1220.99 3359.61 1101.43 3341.38C1071.58 3336.82 964.526 3318.95 933.932 3313.41C881.706 3303.95 862.548 3301.68 834.932 3301.69C798.879 3301.7 774.94 3306.37 753.034 3317.69C742.827 3322.96 732.284 3330.99 724.789 3339.21C719.663 3344.83 711.432 3356.4 711.432 3357.99C711.432 3358.45 712.669 3358.41 714.182 3357.9C725.044 3354.28 772.284 3346.55 794.432 3344.77C815.677 3343.07 853.389 3344.27 873.932 3347.3C896.458 3350.63 909.323 3352.68 918.432 3354.38C922.557 3355.15 931.332 3356.74 937.932 3357.92C944.531 3359.09 955.557 3361.12 962.432 3362.43C1005.71 3370.67 1069.63 3380.22 1122.43 3386.34C1180.05 3393.01 1228.02 3395.92 1280.14 3395.93C1374.91 3395.93 1447.36 3385.69 1538.43 3359.42C1623.63 3334.85 1706.86 3297.9 1774.93 3254.43C1850.75 3206.01 1917.9 3145.76 1979.99 3070.42C2009.17 3035.02 2024.32 3007.69 2032.47 2975.79C2034.65 2967.22 2037.88 2946.04 2037.11 2945.27C2036.86 2945.02 2029.32 2955.07 2020.36 2967.62ZM869.525 3009.25C871.949 3010.53 874.607 3012.83 875.432 3014.35C876.887 3017.04 876.828 3017.2 873.504 3019.78C866.193 3025.43 864.432 3027.65 864.432 3031.19C864.432 3035.65 865.837 3036.81 878.463 3042.81C901.166 3053.6 921.454 3057.94 958.447 3059.95C990.964 3061.72 1025.22 3059.39 1085.43 3051.31C1121.23 3046.51 1133.79 3044.95 1134.12 3045.28C1134.69 3045.86 1106.71 3058.86 1093.53 3064.14C1056.63 3078.93 1020.46 3087.99 978.106 3093.07C962.982 3094.89 954.645 3095.25 928.432 3095.24C894.41 3095.23 874.63 3093.66 843.676 3088.5C815.779 3083.85 808.355 3081.33 805.582 3075.55C803.636 3071.49 805.955 3066.14 813.682 3056.83C820.312 3048.85 825.891 3041.55 839.65 3022.85C846.318 3013.78 849.118 3010.79 852.549 3009.1C858.25 3006.27 863.986 3006.33 869.525 3009.25ZM2133.13 3053.43C2135.48 3064.54 2134.56 3075.92 2130.62 3084.33C2126.63 3092.86 2117.82 3101.67 2107.33 3107.63C2095.58 3114.3 2095.82 3114.53 2101.5 3101.78C2104.29 3095.54 2111.58 3079 2117.72 3065.03L2128.87 3039.63L2130.26 3043.03C2131.02 3044.9 2132.31 3049.58 2133.13 3053.43ZM2172.04 3301.77C2193.87 3306.8 2213.03 3315.97 2233.43 3331.17C2244.47 3339.39 2275.03 3369.56 2284.85 3381.93C2307.22 3410.09 2323.05 3441.52 2330.33 3472.23C2343.13 3526.23 2330.91 3582.62 2294.85 3635.93C2290.2 3642.8 2281.97 3654.5 2276.57 3661.93C2271.17 3669.35 2256.92 3689.83 2244.91 3707.43C2214.32 3752.24 2215.08 3751.18 2211.43 3753.68C2207.18 3756.57 2199.28 3756.74 2194.83 3754.03C2190.43 3751.34 2188.02 3746.88 2184.78 3735.43C2182.2 3726.26 2181.96 3724.05 2181.99 3708.93C2182.02 3693.73 2182.23 3691.8 2184.7 3684.43C2191.75 3663.39 2203.44 3650.23 2232.24 3630.93C2238.39 3626.8 2243.43 3623.15 2243.43 3622.82C2243.43 3622.48 2240.87 3620.51 2237.75 3618.43C2210.93 3600.63 2210.23 3583.35 2235.19 3555.18C2239.39 3550.43 2241.15 3547.78 2240.27 3547.49C2239.53 3547.24 2234 3545.42 2227.97 3543.44C2178.98 3527.35 2158.09 3497.24 2162.39 3448.93C2163.83 3432.79 2166.49 3418.35 2173.8 3386.93C2176.8 3374 2179.57 3361.9 2179.96 3360.03L2180.65 3356.64L2174.4 3361.03C2161.64 3369.98 2151.39 3384.41 2146.53 3400.28C2139.74 3422.46 2139.72 3463.07 2146.5 3489.43C2153.02 3514.79 2170.46 3540.8 2191.69 3556.83C2198.03 3561.62 2201.86 3568.14 2202.97 3576.06C2203.69 3581.13 2202.4 3591.04 2199.43 3603.43C2198.37 3607.83 2196.79 3615.7 2195.91 3620.93C2192.79 3639.4 2185.1 3650.05 2169.19 3657.89C2157.78 3663.52 2149.09 3665.19 2131.43 3665.18C2115.8 3665.16 2106.14 3663.77 2077.22 3657.39C2068.58 3655.49 2060.44 3653.93 2059.12 3653.93H2056.72L2056.04 3673.18C2052.36 3776.43 2043.29 3825.32 2017.93 3878.65L2012.33 3890.43L2010.39 3887.93C2006.71 3883.19 1999.5 3867.41 1996.97 3858.56C1994.99 3851.66 1994.43 3847.44 1994.43 3839.42C1994.43 3823.03 1998.4 3812.66 2011.67 3794.35C2032.61 3765.48 2041.92 3737.77 2043.15 3700.77C2043.99 3675.32 2041.95 3657.8 2033.05 3614.43C2021.17 3556.49 2017.7 3525.44 2018.74 3486.59C2019.74 3449.24 2025.35 3419.85 2037.3 3389.34C2057.75 3337.11 2088.72 3307.66 2131.35 3299.88C2139.37 3298.41 2162.03 3299.47 2172.04 3301.77ZM2711.67 3386.43C2732.95 3419.11 2745.58 3456.15 2747.84 3492.43L2748.46 3502.43L2745.91 3499.43C2741.81 3494.61 2729.9 3469.46 2725.53 3456.43C2723.32 3449.83 2718.77 3433.85 2715.42 3420.93C2710.34 3401.32 2704.45 3380.76 2701.73 3373.13C2700.76 3370.43 2704.59 3375.54 2711.67 3386.43ZM2093.8 3402.43C2091.97 3405.7 2087.57 3419.18 2085.76 3427.07C2083.1 3438.67 2083.4 3468.19 2086.31 3481.93C2095.7 3526.14 2121.02 3563.31 2150.58 3576.3C2155.76 3578.57 2168.49 3582.2 2169.11 3581.58C2169.28 3581.41 2165.53 3578.16 2160.79 3574.35C2118.5 3540.41 2098.75 3492.99 2095.64 3417.93C2095.07 3404.22 2094.67 3400.86 2093.8 3402.43ZM697.932 3413.4C763.924 3422.18 818.666 3448.54 866.336 3494.5C877.016 3504.79 896.382 3526.47 897.338 3529.2C897.561 3529.84 896.436 3529.49 894.838 3528.44C866.263 3509.51 826.583 3492.04 792.932 3483.56C756.266 3474.31 723.823 3470.62 679.432 3470.64C642.854 3470.66 608.549 3473.24 561.533 3479.51C551.414 3480.86 542.981 3481.81 542.793 3481.62C542.234 3481.06 575.28 3448.85 583.932 3441.52C602.804 3425.53 621.193 3416.08 640.773 3412.33C649.924 3410.58 681.083 3411.16 697.932 3413.4ZM648.932 3494.96C691.686 3498.55 739.089 3509.57 789.432 3527.59C807.64 3534.11 840.432 3546.89 840.432 3547.47C840.432 3548.54 833.658 3551.13 824.91 3553.41C816.871 3555.49 812.906 3555.93 801.729 3555.93C782.896 3555.93 775.852 3554.42 732.371 3541.05C713.594 3535.28 699.743 3532.78 688.452 3533.13L678.971 3533.43L687.102 3539.93C695.76 3546.85 703.953 3551.96 722.432 3561.95C736.958 3569.8 748.297 3577.31 755.786 3584.02L761.641 3589.27L752.786 3591.06C741.913 3593.26 735.142 3595.68 720.932 3602.45C696.738 3613.98 688.914 3616.26 673.432 3616.27C657.018 3616.27 648.646 3613.49 625.999 3600.49C605.717 3588.84 587.479 3581.83 565.582 3577.26C554.543 3574.95 550.512 3574.61 533.932 3574.57C518.259 3574.54 512.917 3574.93 503.431 3576.77C497.106 3577.99 491.257 3579.26 490.431 3579.58C488.638 3580.29 488.938 3580.38 512.432 3586.51C522.057 3589.02 534.207 3592.19 539.432 3593.55C562.833 3599.67 589.073 3610.1 604.203 3619.29C607.354 3621.2 611.281 3623.09 612.932 3623.49C618.624 3624.88 626.161 3628.7 627.794 3631.03C630.076 3634.29 629.839 3638.19 627.025 3643.71C624.25 3649.15 620.153 3653.34 616.117 3654.86C610.349 3657.04 605.111 3656.01 582.898 3648.33C536.543 3632.29 525.57 3628.71 514.432 3625.98C481.173 3617.82 453.003 3617.99 427.259 3626.5C420.267 3628.81 419.225 3629.52 415.509 3634.44C413.266 3637.41 411.431 3640.08 411.431 3640.38C411.431 3640.68 420.318 3640.93 431.181 3640.94C491.384 3640.97 531.258 3653.37 566.229 3682.93C572.979 3688.64 588.36 3705.22 590.499 3709.1C591.072 3710.14 585.234 3707.8 575.177 3702.97C549.01 3690.39 526.454 3682.29 485.931 3670.92C473.831 3667.52 458.757 3663.25 452.431 3661.41C434.861 3656.32 425.349 3654.76 408.431 3654.22C384.799 3653.46 366.376 3656.17 305.487 3669.39C296.442 3671.36 288.612 3672.82 288.087 3672.65C286.732 3672.19 299.291 3661.89 309.931 3654.73C320.173 3647.84 341.494 3637.24 358.431 3630.63C388.799 3618.76 401.581 3613.55 408.931 3610.01L416.931 3606.16L412.931 3605.29C410.731 3604.82 403.531 3604.46 396.931 3604.51C382.971 3604.6 376.849 3606.07 354.99 3614.57C340.876 3620.07 326.531 3624.36 325.556 3623.38C324.573 3622.4 337.384 3611.25 349.073 3602.91C400.623 3566.14 497.553 3513.42 531.966 3503.44C542.255 3500.45 566.299 3496.35 580.932 3495.07C595.167 3493.83 634.775 3493.77 648.932 3494.96ZM2058.31 3560.68C2061.46 3566.85 2068.79 3576.23 2076.24 3583.6C2089.01 3596.24 2104.54 3605 2122.31 3609.59C2134.77 3612.81 2154.74 3613.06 2166.43 3610.14L2173.93 3608.28L2165.93 3606.51C2126.5 3597.82 2088.1 3580.67 2061.29 3559.77C2056.5 3556.03 2056.01 3556.18 2058.31 3560.68ZM1624.19 3561.49C1633.42 3565.14 1636.68 3567.7 1636.68 3571.29C1636.68 3574.52 1631.94 3580.84 1628.11 3582.72C1624.92 3584.29 1623.66 3583.7 1617.17 3577.62C1608.95 3569.92 1603.81 3569.2 1598.5 3575.01C1597 3576.66 1594.71 3580.57 1593.42 3583.72C1592.12 3586.86 1587.8 3595.73 1583.81 3603.43C1560.07 3649.26 1549.97 3689.64 1540.93 3774.93C1531.5 3863.89 1529.38 3881.68 1524.43 3912.98C1516.54 3962.95 1505.31 4006.35 1487.58 4055.43C1477.47 4083.4 1463.02 4114.26 1451.31 4132.9L1448.47 4137.43L1448.45 4132.84C1448.44 4130.32 1449.77 4081.5 1451.41 4024.34C1453.05 3967.19 1454.85 3903.78 1455.42 3883.43C1455.98 3863.08 1456.88 3833.38 1457.41 3817.43C1457.94 3801.48 1458.85 3772 1459.45 3751.93C1461.42 3685.22 1462.5 3676.6 1470.98 3659.7C1482.71 3636.32 1495.07 3625.01 1558.93 3579.25C1588.17 3558.3 1589.19 3557.84 1605.93 3558.31C1615.24 3558.57 1618.05 3559.06 1624.19 3561.49ZM1715.58 3585.87C1721.82 3586.94 1733.68 3590.05 1741.93 3592.78C1802.09 3612.72 1845.58 3622.71 1899.93 3629.07C1916.68 3631.03 1924.15 3631.3 1962.93 3631.37C2004.93 3631.45 2007.08 3631.54 2010.23 3633.43C2015.54 3636.62 2017.98 3643.19 2021.03 3662.43C2026.76 3698.63 2024.1 3726.51 2012.77 3749.2C2004.74 3765.27 1999.84 3767.84 1970.43 3771.4C1936.92 3775.46 1899.65 3780.99 1835.43 3791.43C1783.66 3799.85 1759.06 3803.8 1748.43 3805.4C1674.92 3816.46 1641.21 3819.93 1607.67 3819.91C1574.12 3819.89 1568.59 3818.5 1563.68 3808.91C1560.87 3803.41 1560.69 3792.69 1563.01 3769.93C1565.92 3741.38 1572.54 3717.79 1586.73 3685.43C1612.63 3626.35 1615.3 3621.32 1626.6 3610.18C1637.13 3599.79 1648.18 3593.06 1662.26 3588.46C1676.64 3583.75 1697.36 3582.75 1715.58 3585.87ZM838.932 3604.43C841.132 3605.38 846.082 3608.2 849.932 3610.69C860.003 3617.22 864.153 3618.88 870.432 3618.9C874.716 3618.9 877.076 3618.25 881.109 3615.94C883.958 3614.3 886.57 3612.51 886.917 3611.95C887.723 3610.65 892.172 3612.9 895.067 3616.08C900.535 3622.09 898.236 3626.31 888.859 3627.48C885.703 3627.87 868.678 3627.77 851.026 3627.26C820.914 3626.37 818.671 3626.18 814.715 3624.12C809.648 3621.48 808.42 3619.44 808.466 3613.74C808.508 3608.7 810.2 3605.2 813.542 3603.25C816.865 3601.32 833.513 3602.09 838.932 3604.43ZM770.788 3611.5C774.167 3612.37 778.732 3614.13 780.932 3615.42C785.958 3618.36 792.865 3625.42 792.036 3626.76C791.693 3627.31 789.505 3628.85 787.173 3630.19C784.84 3631.52 774.382 3637.78 763.932 3644.09C741.924 3657.39 731.331 3663.13 719.324 3668.25C705.468 3674.17 700.321 3673.28 683.721 3662.12C672.998 3654.92 668.119 3652.38 662.042 3650.85L657.382 3649.68L660.656 3647.22C666.558 3642.8 675.312 3638.92 684.198 3636.79C691.588 3635.02 694.932 3634.78 705.932 3635.23C713.738 3635.55 721.088 3636.43 724.328 3637.43C731.194 3639.54 737.67 3639.8 739.785 3638.05C742.044 3636.17 741.875 3630.63 739.331 3623.09C736.848 3615.74 737.349 3612.49 741.18 3611.09C745.599 3609.48 763.874 3609.73 770.788 3611.5ZM1459.95 3634.1C1406.67 3832.04 1349.83 3957.73 1265.58 4063.93C1252.88 4079.94 1228.8 4107.37 1219.94 4115.93C1214.37 4121.31 1214.54 4120.98 1227.7 4100.93C1272.55 4032.62 1305.11 3966.4 1327.78 3897.43C1333.05 3881.38 1341.42 3852.57 1341.43 3850.45C1341.43 3848.71 1338.92 3852.99 1321.43 3884.43C1280.64 3957.77 1263.24 3986 1239.96 4016.66C1227.95 4032.48 1225.03 4036.03 1225.77 4033.93C1226.06 4033.1 1229.3 4025.9 1232.97 4017.93C1246.49 3988.56 1266.69 3936.23 1287.77 3875.93C1314.19 3800.37 1333.49 3751.78 1351.07 3716.59C1364.12 3690.44 1374.75 3675.37 1392.83 3657.39C1406.22 3644.08 1418.81 3635.02 1434.44 3627.48C1443.4 3623.15 1463.53 3615.7 1464.27 3616.44C1464.46 3616.62 1462.52 3624.57 1459.95 3634.1ZM1118.93 3638.94C1144.09 3640.99 1171.21 3646.6 1199.01 3655.48L1213.08 3659.99L1197.51 3691.22C1181.98 3722.35 1176.14 3734.75 1144.4 3803.93C1095.65 3910.15 1073.25 3953.87 1040.88 4005.93C1012.57 4051.45 974.339 4100.66 948.096 4125.34C945.805 4127.5 940.781 4132.25 936.932 4135.9C933.082 4139.56 924.757 4146.84 918.432 4152.08C862.296 4198.62 795.993 4230.64 716.799 4249.45C706.422 4251.91 697.34 4253.93 696.616 4253.93C694.549 4253.93 703.734 4242.9 714.302 4232.7C731.167 4216.41 742.561 4208.94 779.595 4189.88C832.876 4162.45 865.265 4139.67 901.695 4104C928.867 4077.39 947.737 4053.93 968.008 4021.56C978.31 4005.11 995.717 3971.1 1003.39 3952.43C1013.89 3926.86 1026.67 3887.49 1029.75 3871.18C1031.09 3864.11 1031.07 3863.89 1028.63 3859.79L1026.14 3855.62L1007.38 3893.52C981.847 3945.13 968.937 3967.73 950.83 3992.54C939.471 4008.1 933.462 4015.19 920.106 4028.79C907.431 4041.7 898.63 4049.32 885.825 4058.49C875.502 4065.88 856.544 4077.37 855.844 4076.67C855.58 4076.41 857.152 4073.93 859.337 4071.17C864.937 4064.08 883.106 4037.23 889.949 4025.93C904.6 4001.72 921.399 3970.65 942.128 3929.43C966.33 3881.29 988.948 3839.88 999.588 3824.25C1001.15 3821.95 1002.43 3819.7 1002.42 3819.25C1002.41 3818.8 1000.78 3817.37 998.796 3816.09C995.801 3814.15 994.973 3813.97 993.949 3815.09C993.27 3815.82 979.958 3833.98 964.367 3855.43C905.854 3935.93 885.78 3962.13 846.393 4009.43C751.265 4123.65 659.371 4207.66 562.432 4269.03C531.953 4288.33 512.563 4297.56 489.431 4303.8C461.891 4311.22 427.714 4308.44 405.431 4296.96C396.382 4292.29 391.446 4289.46 391.468 4288.93C391.479 4288.65 399.238 4285.06 408.71 4280.96C462.862 4257.46 519.878 4225.15 559.987 4195.22C603.164 4163 643.373 4121.92 671.281 4081.51C674.667 4076.61 677.245 4072.41 677.01 4072.17C676.378 4071.54 665.216 4078.24 654.932 4085.43C649.982 4088.89 636.707 4099 625.432 4107.9C603.01 4125.59 587.285 4136.51 574.932 4142.95L566.932 4147.12L570.432 4143.86C645.359 4074.21 681.619 4033.01 715.615 3978.93C753.961 3917.91 784.219 3878.93 821.564 3842.43C843.789 3820.7 862.063 3805.63 885.233 3789.93C898.967 3780.62 901.419 3777.11 899.807 3769.05C899.018 3765.1 898.292 3765.12 886.151 3769.36C859.948 3778.52 837.859 3794.43 802.828 3829.37C775.244 3856.89 760.711 3874.57 718.956 3931.43C693.599 3965.95 676.642 3987.97 665.497 4000.84C636.195 4034.68 605.698 4062.84 566.664 4092.12C548.685 4105.6 512.431 4130.26 511.684 4129.51C511.107 4128.94 590.588 4033.84 617.898 4002.43C629.852 3988.68 651.621 3963.48 666.272 3946.43C742.349 3857.89 784.148 3812.32 823.293 3775.23C904.683 3698.1 957.871 3663.75 1021.24 3647.36C1053.06 3639.14 1086.28 3636.27 1118.93 3638.94ZM1342.85 3649.37C1352.15 3650.74 1360.12 3652.21 1360.56 3652.65C1360.99 3653.09 1358.17 3658.84 1354.29 3665.44C1324 3716.88 1301.34 3763.68 1286.98 3804.43C1272.13 3846.58 1267.72 3858.62 1260.93 3875.46C1230.88 3950.04 1197.73 4008.87 1157.56 4058.93C1147.9 4070.95 1118.93 4100.1 1106.24 4110.57C1094.09 4120.58 1077.12 4132.7 1063.3 4141.23C1051.69 4148.4 1029.54 4160.38 1028.98 4159.79C1028.79 4159.59 1032.66 4154.7 1037.59 4148.93C1087.64 4090.26 1130.77 4014.69 1171.11 3914.93C1180.9 3890.71 1197.6 3846.76 1197.18 3846.34C1196.73 3845.89 1185.86 3863.49 1157.77 3910.14C1125.03 3964.53 1113.08 3982.98 1094.1 4008.43C1084.12 4021.79 1072.37 4036.19 1071.85 4035.68C1071.66 4035.49 1073.34 4031.53 1075.58 4026.88C1087.62 4001.87 1113.36 3941.91 1139.96 3876.93C1166.26 3812.68 1176.62 3788.41 1193.94 3750.43C1205.5 3725.07 1222.05 3692.31 1227.11 3684.77C1235.96 3671.57 1247.37 3660.98 1259.11 3655.06C1264.63 3652.28 1279.2 3648.1 1287.39 3646.95C1297.88 3645.48 1324.12 3646.62 1342.85 3649.37ZM821.504 3653.47C823.939 3654.31 826.832 3655.7 827.932 3656.55C829.911 3658.08 829.906 3658.12 827.456 3659.76C820.7 3664.3 793.077 3686.62 778.432 3699.38C753.212 3721.35 732.051 3743.62 681.949 3800.93C611.997 3880.94 594.758 3900.43 545.086 3955.67C485.419 4022.03 443.68 4061.05 385.931 4104.44C329.982 4146.49 269.641 4181.52 206.932 4208.37C195.932 4213.08 181.484 4219.69 174.825 4223.05L162.717 4229.18L161.075 4234.39C160.171 4237.26 159.432 4239.81 159.432 4240.06C159.432 4240.56 159.952 4240.53 177.932 4238.9C216.999 4235.35 261.886 4223.07 303.931 4204.43C332.636 4191.7 377.121 4166.39 411.431 4143.27C420.236 4137.34 420.6 4137.18 416.401 4141.15C338.32 4214.87 324.546 4226.86 296.431 4245.63C265.794 4266.08 227.08 4281.85 207.364 4281.91C198.802 4281.93 191.604 4279.29 156.432 4263.17C131.447 4251.72 113.441 4243.58 93.7655 4234.85C81.3035 4229.32 69.2255 4223.5 66.9245 4221.92C57.6915 4215.57 51.2755 4204.72 47.5755 4189.2C29.4965 4113.38 25.1015 4085.57 23.5345 4037.12C20.9715 3957.82 29.6185 3912.07 53.9055 3876.43C90.3335 3822.96 142.82 3772.99 206.932 3730.72C240.924 3708.31 253.9 3701.93 265.469 3701.93C268.198 3701.93 270.431 3702.13 270.431 3702.39C270.431 3702.64 267.737 3707.22 264.445 3712.57C261.152 3717.91 258.618 3722.45 258.812 3722.64C259.828 3723.66 269.065 3720.5 273.661 3717.56C291.348 3706.26 313.738 3697.56 355.417 3685.78C367.25 3682.44 381.431 3678.37 386.931 3676.74C405.534 3671.21 422.418 3671.92 441.701 3679.03C445.978 3680.6 459.48 3686.92 471.704 3693.06C483.93 3699.21 497.531 3705.76 501.931 3707.63L509.931 3711.01L503.431 3710.49C440.023 3705.42 402.34 3708.62 362.315 3722.5C316.448 3738.4 278.242 3769.01 249.031 3813.24C244.945 3819.43 239.029 3829.43 235.883 3835.46L230.165 3846.43L234.945 3840.93C278.302 3791.03 333.82 3764.34 405.629 3758.86C413.495 3758.26 433.431 3757.92 449.931 3758.1C477.797 3758.4 480.173 3758.57 483.326 3760.43C488.122 3763.25 490.569 3766.96 491.174 3772.34C491.668 3776.72 491.479 3777.19 487.775 3780.7C485.617 3782.75 480.763 3785.69 476.987 3787.23C473.211 3788.77 462.801 3794.51 453.85 3799.98C444.901 3805.44 420.582 3820.1 399.809 3832.55C318.458 3881.29 287.871 3902.48 241.938 3941.93C220.979 3959.92 217.016 3964.46 214.604 3973.25C213.799 3976.18 213.831 3976.86 214.743 3976.17C215.855 3975.33 229.885 3966.13 245.932 3955.72C288.26 3928.27 344.914 3895.43 406.431 3862.67C442.596 3843.41 470.35 3829.2 539.932 3794.29C669.832 3729.12 727.499 3698.82 787.953 3663.99C810.778 3650.83 812.434 3650.31 821.504 3653.47ZM665.776 3673.9C677.547 3675.82 682.733 3680.36 682.858 3688.84C682.923 3693.21 682.508 3694.25 679.432 3697.45C671.311 3705.9 660.031 3710.21 645.932 3710.24C635.337 3710.27 628.362 3708.4 620.39 3703.39C606.51 3694.67 604.584 3677.69 617.051 3673.96C621.024 3672.77 658.604 3672.72 665.776 3673.9ZM2099.22 3683.52C2104.21 3685.55 2105.84 3690.31 2104.49 3698.98C2102.83 3709.67 2103.24 3736.09 2105.53 3766.53C2108.16 3801.45 2107.76 3821.76 2104.03 3843.04C2098.7 3873.41 2096.99 3877.57 2083.88 3891.98C2073.68 3903.19 2068.01 3911.54 2061.02 3925.61C2056.77 3934.19 2048.96 3953.75 2045.74 3963.93C2045 3966.25 2037.96 3957.63 2033.88 3949.43C2025.12 3931.8 2025.85 3913.52 2036.35 3887.44C2041.73 3874.05 2045.9 3868.32 2052.93 3864.65C2058.25 3861.88 2067.78 3861.97 2075.93 3864.89C2085.67 3868.38 2085.85 3868.41 2084.9 3866.83C2084.43 3866.06 2082.62 3863.38 2080.87 3860.87C2074.07 3851.12 2065.43 3835.06 2062.88 3827.43C2059.79 3818.18 2057.14 3796.58 2057.63 3784.7C2057.89 3778.24 2058.32 3776.59 2060.22 3774.7C2063.81 3771.11 2071.72 3771.64 2082.86 3776.22C2087.77 3778.24 2091.95 3779.75 2092.13 3779.56C2092.62 3779.07 2086.59 3762.54 2080.54 3747.75C2074.99 3734.16 2072.48 3724.44 2072.45 3716.43C2072.43 3707.92 2074.52 3693.63 2076.42 3689.26C2079.75 3681.64 2088.93 3679.33 2099.22 3683.52ZM2140.78 3701.93C2142.74 3710.45 2146.18 3727.78 2148.43 3740.43C2155.58 3780.66 2157.56 3791.16 2160.13 3802.43C2164.18 3820.22 2164.34 3821.16 2164.39 3827.22C2164.47 3838.17 2159.9 3854.72 2150.63 3877C2146.14 3887.78 2141.76 3901.04 2134.94 3924.43C2123.56 3963.47 2112.86 3984.41 2094.98 4002.61C2085.42 4012.35 2080.97 4013.2 2073.81 4006.63C2067.68 4001.01 2065.98 3988.05 2068.88 3968.93C2072.76 3943.38 2084.88 3921.34 2106.59 3900.35C2111.76 3895.35 2119.44 3888.72 2123.65 3885.6C2127.86 3882.49 2132.01 3878.93 2132.87 3877.71C2136.23 3872.91 2133.92 3866.47 2126.75 3860.66C2123.58 3858.09 2122.21 3853.17 2123.47 3848.92C2128.31 3832.54 2129.28 3804.1 2126.53 3759.66C2124.34 3724.46 2124.03 3709.52 2125.31 3701.93C2126.18 3696.79 2135.39 3683.08 2136.55 3685.2C2136.92 3685.87 2138.82 3693.4 2140.78 3701.93ZM2484.93 3702.86C2595.67 3717.99 2687.32 3748.36 2767.93 3796.65C2795.92 3813.42 2817.26 3828.58 2859.93 3862.02C2890.97 3886.34 2917.14 3905.55 2918.02 3904.67C2918.86 3903.83 2909.61 3886.53 2902.66 3875.93C2894.22 3863.04 2888 3855.21 2867.11 3831.16C2858.16 3820.86 2847.56 3808.38 2843.57 3803.43C2834.02 3791.6 2823.12 3775.53 2824.36 3775.12C2826.77 3774.31 2843.05 3783.46 2854.93 3792.3C2870.8 3804.11 2877.99 3807.74 2895.44 3812.76C2911.1 3817.26 2917.85 3820.43 2924.09 3826.18C2929.63 3831.29 2931.94 3835.18 2938.78 3850.98C2941.75 3857.82 2951.61 3878.5 2960.7 3896.93C2969.79 3915.35 2979.29 3935.7 2981.81 3942.16C2998.42 3984.61 3000.63 4016.72 2989.88 4059.15C2975.58 4115.54 2938.57 4169.95 2879.93 4220.79C2854.99 4242.42 2824.98 4262.04 2787.93 4280.94C2762.94 4293.7 2740.45 4301.63 2716.43 4306.17C2699.93 4309.29 2670.73 4309.22 2650.93 4306.01C2641.61 4304.5 2630.58 4303.57 2617.93 4303.22C2599.51 4302.71 2591.41 4303.09 2546.93 4306.55C2521.41 4308.53 2482.51 4308.8 2469.43 4307.08C2460.78 4305.95 2452.11 4304.41 2422.93 4298.87C2417.43 4297.83 2408.21 4296.09 2402.43 4295.01C2357.22 4286.54 2258.31 4267.24 2252.03 4265.66C2248.73 4264.83 2246.45 4263.51 2245.06 4261.64L2242.98 4258.84L2245.21 4252.64C2249.49 4240.68 2248.41 4238.96 2231.74 4231.4C2198.31 4216.23 2161.87 4195.15 2124.93 4169.62C2096.18 4149.74 2071.85 4131.36 2017.43 4088.39C1970.45 4051.28 1956.46 4040.48 1936.43 4025.82C1905.94 4003.5 1855.26 3967.48 1850.18 3964.51C1841.51 3959.45 1839.52 3954.58 1843.46 3948.12C1845.87 3944.16 1852.31 3940.98 1857.99 3940.95C1860.22 3940.94 1864.82 3941.86 1868.22 3943.01C1873.26 3944.71 1875.55 3946.3 1880.66 3951.6C1894.63 3966.08 1929.99 3997.61 1957.93 4020.48C2081.99 4122.03 2224.64 4199.47 2382.93 4251.19C2395.58 4255.32 2408.63 4259.31 2411.93 4260.05C2420.92 4262.07 2444.96 4261.62 2464.42 4259.08C2473.49 4257.9 2483.05 4256.93 2485.67 4256.93C2491.61 4256.93 2491.83 4255.48 2486.77 4249.88C2482.07 4244.67 2480.99 4244.14 2469.5 4241.3C2449.18 4236.27 2385.71 4214.28 2343.2 4197.53C2268.09 4167.95 2195.01 4132.18 2131.93 4094.1C2070.99 4057.33 2014.46 4016.08 1962.43 3970.44C1956.11 3964.89 1948.68 3958.72 1945.93 3956.72C1937.43 3950.54 1934.26 3946.64 1933.78 3941.76C1932.89 3932.75 1937.47 3928.96 1950.61 3927.85C1956.98 3927.31 1962.57 3926.09 1968.26 3923.99C1987.03 3917.07 1997.62 3917.79 2005.32 3926.53C2010.08 3931.94 2012.74 3938.55 2015.94 3952.93C2017.22 3958.7 2019.21 3965.62 2020.37 3968.3C2023.15 3974.77 2030.92 3986.28 2044.33 4003.8C2051.42 4013.07 2057.15 4021.84 2060.46 4028.48C2066.33 4040.26 2069.33 4042.68 2076.65 4041.51C2083.15 4040.47 2087.15 4037.81 2103.99 4023.28C2112.83 4015.66 2120.79 4008.83 2121.69 4008.1C2123.13 4006.92 2123.69 4007.51 2126.5 4013.1C2135.57 4031.18 2143.24 4041.26 2150.88 4045.15C2160.12 4049.87 2173.24 4048.21 2181.3 4041.3C2186.66 4036.72 2189.6 4032.32 2197.92 4016.43C2206.35 4000.34 2209.71 3995.35 2213.43 3993.43C2220.46 3989.79 2225.46 3992.05 2258.93 4014.06C2404.03 4109.46 2504.8 4162.67 2609.93 4199.4C2620.38 4203.05 2633.16 4207.61 2638.33 4209.53C2650.59 4214.08 2658.49 4215.89 2666.21 4215.91C2673.46 4215.93 2674.36 4214.96 2672.58 4209.04C2671.12 4204.15 2668.51 4201.83 2659.43 4197.37C2639.61 4187.63 2467.55 4093.01 2414.43 4062.65C2360.52 4031.83 2293.08 3991.84 2273.43 3979.03C2262.78 3972.1 2253.53 3963.01 2249.88 3955.9C2246.18 3948.71 2245.3 3935.35 2247.92 3926.32C2253.96 3905.47 2263.08 3893.76 2277.22 3888.71C2284.8 3885.99 2302.19 3885.3 2323.58 3886.85C2392.23 3891.83 2453.65 3913.41 2511.93 3953.04C2547.4 3977.15 2576.02 4002.76 2606.81 4037.93C2628.47 4062.67 2640.81 4075.36 2639.88 4071.93C2637.02 4061.43 2619.41 4023.62 2608.86 4005.34C2587.7 3968.67 2558.91 3937.28 2519.29 3907.71C2503.26 3895.74 2498.6 3889.71 2497.63 3879.66C2496.8 3871.07 2502.8 3860.34 2510.13 3857.28C2518.07 3853.96 2524.4 3855.94 2556.87 3871.91C2587.93 3887.19 2623.69 3907.71 2650.93 3925.9C2661.05 3932.66 2661.22 3932.71 2658 3928.38C2646.47 3912.81 2639.83 3905.21 2623.49 3888.84C2599.6 3864.92 2581.96 3850.66 2560.45 3837.89C2549.32 3831.28 2527.6 3820.2 2515.43 3814.92C2494.75 3805.95 2486.69 3800.1 2481.97 3790.63C2476.03 3778.7 2481.56 3766.32 2491.86 3768.49C2498.89 3769.98 2568.3 3803.67 2594.93 3818.52C2633.38 3839.96 2668.71 3863.72 2696.43 3886.76C2723.71 3909.44 2748.84 3937.84 2778.2 3979.18C2783.96 3987.29 2788.9 3993.93 2789.19 3993.93C2790.45 3993.93 2788.07 3975.9 2785.9 3969.02C2783.04 3959.96 2779.6 3954.06 2767.29 3937.15C2739.15 3898.5 2718.41 3873.86 2690.46 3845.85C2650.85 3806.15 2617.03 3780.88 2573.93 3758.79C2539.72 3741.25 2499.18 3727.37 2464.93 3721.45C2453.24 3719.44 2449.77 3718.24 2447.93 3715.63C2444.93 3711.33 2446.75 3704.05 2451.54 3701.25C2454.5 3699.53 2463.81 3699.98 2484.93 3702.86ZM2246.77 3760.68C2243.87 3804.89 2232.83 3854.25 2214.62 3904.43C2210.4 3916.07 2170.09 4016.82 2168.38 4020.02C2167.2 4022.22 2163.41 4023.39 2160.11 4022.56C2156.48 4021.65 2149.89 4014.3 2146.46 4007.34C2141.67 3997.6 2140.14 3988.65 2140.75 3973.93C2141.35 3959.25 2144.06 3948.71 2150.98 3934.07C2156.77 3921.84 2162.64 3913.75 2173.07 3903.67C2187.41 3889.79 2187.9 3886.29 2177.07 3875.14C2171.94 3869.87 2171.93 3869.84 2172.08 3863.64C2172.16 3860.22 2173.73 3851.8 2175.55 3844.93C2178.75 3832.88 2178.88 3831.74 2178.9 3813.43C2178.92 3794.7 2178.87 3794.3 2175.85 3785.93C2174.16 3781.25 2172.41 3776.6 2171.96 3775.6C2171.37 3774.24 2173.84 3775.14 2181.54 3779.08C2190.34 3783.58 2192.92 3784.45 2198.5 3784.76C2208.71 3785.34 2215 3781.55 2235.81 3762.32C2241.38 3757.18 2246.23 3752.96 2246.6 3752.95C2246.97 3752.94 2247.05 3756.41 2246.77 3760.68ZM1429.41 3847.24C1429.2 3928.57 1409.54 4005.9 1367.99 4088.93C1358.24 4108.4 1346.74 4129.62 1340.48 4139.67L1337.62 4144.27L1336.97 4138.85C1336.53 4135.15 1337 4129.62 1338.46 4121.43C1342.52 4098.62 1342.67 4089.48 1339.16 4079.48L1337.77 4075.53L1332.49 4091.48C1301.55 4184.94 1248 4240.85 1166.82 4264.44C1154.6 4267.99 1131.71 4272.46 1114.93 4274.59C1091.1 4277.6 1022.27 4276.77 1006.43 4273.29C1004.46 4272.85 1006.27 4271.9 1014.93 4268.82C1043.69 4258.58 1080.56 4246.62 1095.93 4242.53C1126.2 4234.49 1144.34 4227.9 1167.93 4216.39C1216.58 4192.65 1256.19 4159.69 1290.41 4114.5C1314.11 4083.19 1328.39 4056.84 1358.71 3988.43C1397.94 3899.91 1427.21 3836.67 1428.57 3837.51C1429.04 3837.8 1429.42 3842.18 1429.41 3847.24ZM1708.67 3998.79C1712.42 4000.7 1720.8 4006.95 1728.54 4013.6C1796.47 4072.05 1836.45 4101.95 1879.93 4126.88C1916.15 4147.64 1941.45 4158.32 1987.93 4172.5C1999.34 4175.98 2013.16 4181.58 2035.93 4191.95C2074.66 4209.58 2097.72 4217.53 2118.9 4220.52C2123.26 4221.13 2123.58 4221.33 2121.48 4222.1C2116.86 4223.81 2101.96 4224.74 2093.43 4223.86C2088.76 4223.37 2080.66 4221.82 2075.43 4220.41C2070.21 4219.01 2058.73 4216.27 2049.93 4214.34C2019.86 4207.74 2005.15 4203.82 1981.93 4196.23C1898.48 4168.95 1818.5 4124.58 1710.93 4045.91C1702.13 4039.48 1690.73 4031.62 1685.6 4028.46C1672.25 4020.23 1669.54 4014.55 1675.02 4006.32C1682.83 3994.61 1695.04 3991.88 1708.67 3998.79ZM1565.12 4029.02C1567.84 4030.33 1572.28 4034.33 1577.08 4039.77C1600.36 4066.19 1626.89 4092.32 1654.46 4116C1668.43 4127.99 1694.85 4149.25 1699.71 4152.39C1704.06 4155.21 1702.46 4155.11 1694.38 4152.06C1662.68 4140.11 1627.62 4121.17 1595.43 4098.63C1583.25 4090.09 1556.96 4070.36 1546.94 4062.22C1534.44 4052.07 1533.12 4041.67 1543.21 4032.81C1550.27 4026.61 1557.55 4025.35 1565.12 4029.02ZM1828.45 4035.94C1847.62 4045.61 1876.01 4063.48 1898.86 4080.23C1914.87 4091.97 1977.85 4142.01 1982.43 4146.62C1985.4 4149.61 1953.49 4132.33 1929.3 4117.85C1890.02 4094.33 1845.07 4060.92 1819.52 4036.24L1810.93 4027.94L1816.71 4030.44C1819.89 4031.81 1825.17 4034.28 1828.45 4035.94ZM1414.45 4064.93C1410.02 4124.01 1396.77 4178 1373.95 4229.93C1368.44 4242.48 1355.02 4268.42 1349.22 4277.74C1332.83 4304.09 1312.02 4319.6 1278.48 4330.48C1201.09 4355.58 1115.69 4356.29 1018.93 4332.63L1001.93 4328.48L1020.43 4327.78C1102.66 4324.66 1150.73 4320.5 1197.99 4312.41C1251.82 4303.2 1287.1 4287.13 1315.12 4259.06C1338.12 4236.02 1352.84 4207.73 1363.32 4166.43C1369.54 4141.9 1377.18 4122.44 1398.67 4076.43C1406.63 4059.38 1413.54 4044.3 1414.04 4042.93C1415.57 4038.63 1415.75 4047.7 1414.45 4064.93ZM1532.96 4084.78C1534.63 4085.8 1538.37 4089.56 1541.27 4093.13C1544.17 4096.71 1550.46 4102.98 1555.24 4107.07C1573.33 4122.54 1572.44 4121.92 1641.47 4167.37C1657.8 4178.12 1659.38 4179.4 1657.27 4180.2C1651.68 4182.32 1642.4 4180.53 1629.93 4174.93C1619.02 4170.03 1617.3 4169.55 1610.93 4169.59C1607.08 4169.61 1602.86 4170.07 1601.54 4170.6C1599.29 4171.52 1599.9 4172.17 1612.04 4181.79C1702.09 4253.17 1813.49 4294.53 1972.23 4315.53C1986.29 4317.39 1992.81 4318.61 1991.41 4319.13C1990.25 4319.56 1982.47 4321.13 1974.12 4322.63C1959.83 4325.18 1957.13 4325.35 1928.43 4325.39C1900.94 4325.42 1896.6 4325.2 1884.43 4323.1C1864.31 4319.64 1848.24 4315.51 1825.43 4307.96C1716.69 4271.94 1621.43 4223.21 1540.12 4162C1517.41 4144.9 1509.31 4137.42 1505.86 4130.36C1503.45 4125.44 1503.23 4124.08 1503.64 4116.66C1504.17 4107.05 1507.38 4099.64 1514.54 4091.53C1522.06 4083.01 1527.05 4081.18 1532.96 4084.78Z" fill="black"/>
</g>
<defs>
<clipPath id="clip0_19_11">
<rect width="3045" height="3045" fill="white"/>
</clipPath>
</defs>
</svg>
