<svg width="3032" height="4096" viewBox="0 0 3032 4096" fill="none" xmlns="http://www.w3.org/2000/svg">
<path fill-rule="evenodd" clip-rule="evenodd" d="M1502.78 1.49796C1486.99 4.15096 1474.28 10.334 1463.27 20.718C1451.55 31.769 1444.32 43.694 1438.31 61.851C1428.43 91.715 1414.65 106.069 1390.66 111.483C1378.56 114.213 1370.98 118.188 1368.27 123.217C1367.61 124.432 1366.75 129.476 1366.34 134.426C1365.94 139.376 1364.44 147.251 1363 151.926C1357.05 171.338 1356.19 175.833 1356.61 185.338C1356.99 194.031 1358.48 198.707 1364.17 209.013C1364.34 209.337 1360.54 209.616 1355.71 209.634C1344.43 209.677 1339.02 211.614 1322.95 221.355C1310.6 228.844 1300.98 232.926 1295.69 232.926C1291.05 232.926 1278.49 236.817 1270.98 240.578C1262.15 245.005 1253.73 250.628 1240.93 260.633C1235.43 264.934 1225.98 272.042 1219.93 276.429C1206.43 286.222 1193.12 299.459 1184.19 311.977C1176 323.464 1165.74 343.897 1161.37 357.426C1157.05 370.794 1154.79 375.086 1143.85 390.708C1131.58 408.237 1130.85 410.348 1130.1 430.926C1129.24 454.2 1127.29 468.646 1120.31 503.426C1117.56 517.141 1115.91 524.216 1110.37 545.926C1108.05 555.046 1107.92 563.603 1109.98 572.466C1110.83 576.131 1111.93 587.368 1112.43 597.439C1113.43 617.561 1114.51 625.397 1117.93 637.426C1123.41 656.675 1123.22 671.582 1117.34 683.68C1114.89 688.731 1112.67 691.298 1105.82 697.02C1087.67 712.179 1081.43 724.587 1081.43 745.526C1081.43 758.326 1083.13 767.268 1090.12 791.297C1108.86 855.708 1115.22 888.202 1121.37 950.926C1124.19 979.701 1125.63 1001.58 1129.98 1081.43C1133.96 1154.73 1135.7 1167.76 1143.69 1183.92C1153.64 1204.07 1176.75 1218.18 1199.93 1218.26C1217.28 1218.32 1233.02 1208.55 1245.25 1190.14C1247.18 1187.23 1249.13 1185.22 1249.57 1185.67C1250.02 1186.11 1250.81 1193.93 1251.32 1203.04C1254.01 1250.46 1245.46 1285.14 1224 1313.93C1219.53 1319.92 1205.26 1333.85 1197.93 1339.36C1180.97 1352.13 1157.26 1363.68 1133.12 1370.94C1125.52 1373.23 1116.07 1376.57 1112.12 1378.37C1097.45 1385.05 1086.72 1386.87 1075.67 1384.55C1066.95 1382.72 1058 1378.14 1051.21 1372.03C1046.12 1367.46 1040.97 1364.3 1029.5 1358.7C1013.84 1351.07 1006.43 1356.38 1003.5 1377.34C1002.97 1381.14 1001.83 1384.96 1000.96 1385.82C999.82 1386.97 996.588 1387.54 989.161 1387.92C983.535 1388.21 977.924 1389.02 976.692 1389.72C973.307 1391.63 971.763 1395.63 971.155 1404.06C970.57 1412.16 968.851 1416.65 964.568 1421.27C960.934 1425.18 957.233 1426.93 933.556 1435.93C860.481 1463.7 797.693 1494 742.911 1527.95C646.296 1587.82 589.054 1669.89 568.557 1777.93C564.365 1800.02 561.151 1828.84 552.44 1922.43C542.456 2029.7 532.269 2090.88 514.246 2151.81C510.929 2163.03 507.561 2173.76 506.764 2175.67C504.482 2181.14 506.021 2180.67 508.878 2175.03C510.298 2172.23 512.319 2168.41 513.367 2166.54C521.773 2151.57 534.849 2116.63 541.421 2091.56C550.682 2056.23 553.807 2035.02 559.937 1965.93C570.669 1844.93 579.457 1780.14 590.119 1743.43C613.669 1662.33 660.421 1600.11 734.432 1551.37C774.491 1524.99 819.049 1502.54 922.432 1456.62L956.932 1441.3L957.229 1447.66C957.819 1460.31 951.896 1475.59 938.749 1495.35C928.413 1510.88 926.43 1511.57 914.776 1503.68C908.676 1499.55 897.242 1496.42 891.205 1497.23C882.41 1498.41 878.81 1503.95 877.315 1518.63C876.766 1524.02 875.266 1531.35 873.982 1534.93C872.697 1538.5 870.012 1545.93 868.015 1551.43C863.702 1563.3 857.313 1587.27 854.555 1601.93C849.732 1627.55 848.931 1638.48 848.95 1678.43C848.971 1724.64 850.555 1742.54 860.541 1809.43C870.218 1874.25 874.203 1903.48 873.465 1904.25C873.03 1904.71 870.83 1905.33 868.576 1905.63C865.023 1906.11 863.557 1905.63 857.559 1902C849.382 1897.06 844.199 1895.38 841.679 1896.85C840.589 1897.48 840.426 1897.88 841.247 1897.9C844.339 1897.97 855.553 1927.35 859.957 1946.93C864.686 1967.94 865.858 1979.77 865.854 2006.43C865.849 2032.99 864.737 2044.66 859.94 2068.44C851.733 2109.12 834.711 2148.6 812.52 2178.42C795.511 2201.27 774.361 2219.58 705.432 2271.15C610.296 2342.31 604.109 2347.22 582.833 2368.4C534.739 2416.27 505.762 2470.15 491.93 2537.43C486.738 2562.68 487.603 2580.77 494.738 2596.21C497.953 2603.17 505.08 2613.97 507.405 2615.41C508.089 2615.83 508.219 2610.7 507.8 2599.73C506.607 2568.53 510.557 2542.22 521.133 2510.93C538.794 2458.66 564.445 2416.46 601.911 2378.05C619.325 2360.2 633.288 2348.49 660.613 2328.81C789.019 2236.36 866.395 2162.47 923.857 2077.43C934.219 2062.09 936.643 2059.34 941.1 2057.87C945.524 2056.41 949.239 2057.33 959.432 2062.42C964.107 2064.75 974.598 2069.22 982.745 2072.35C996.58 2077.66 997.801 2077.96 1001.24 2076.86C1006.54 2075.17 1006.82 2074.61 1004.57 2070.2C1001.76 2064.69 996.338 2060.24 987.484 2056.17C983.33 2054.26 976.107 2050.92 971.432 2048.75C957.88 2042.45 941.122 2030.71 930.338 2019.98C916.009 2005.71 907.854 1993.53 901.182 1976.43C895.388 1961.57 893.599 1951.68 891.938 1925.33C890.149 1896.97 889.154 1887.07 885.812 1864.43C883.46 1848.49 882.12 1840.77 875.831 1806.93C860.763 1725.84 857.19 1695.1 859.378 1665.43C861.159 1641.27 864.636 1624.79 880.911 1563.43C883.391 1554.08 886.773 1539.76 888.429 1531.6C890.084 1523.45 891.899 1515.92 892.464 1514.87C895.343 1509.49 902.995 1512.07 910.133 1520.83C915.888 1527.9 918.119 1532.38 920.494 1541.67C924.012 1555.42 922.801 1564.58 915.499 1579.43C908.702 1593.25 907.991 1596.31 908.069 1611.43C908.124 1621.97 908.643 1626.5 910.82 1635.43C917.341 1662.17 918.518 1668.17 919.635 1680.43C920.286 1687.58 920.844 1698.38 920.875 1704.43C920.926 1714.19 920.657 1715.96 918.483 1720.22C917.137 1722.85 913.651 1727.27 910.737 1730.02L905.44 1735.03L908.904 1736.48C913.961 1738.59 922.726 1738.33 927.447 1735.92C929.612 1734.81 933.741 1731.82 936.624 1729.26C939.506 1726.7 946.116 1721.45 951.311 1717.59C989.174 1689.51 1028.66 1674.21 1078.07 1668.49C1090.97 1667 1094.99 1665.58 1098.34 1661.31C1102.08 1656.56 1101.2 1651.86 1093.89 1637.38C1080.88 1611.63 1075.96 1590.38 1070.87 1537.93C1067.46 1502.78 1067.66 1497.69 1074.4 1448.43C1075.53 1440.18 1076.79 1427.17 1077.19 1419.53C1077.91 1405.96 1077.99 1405.59 1080.64 1403.61C1083.14 1401.75 1083.8 1401.69 1088.92 1402.83C1095.73 1404.36 1102.1 1409.01 1105.3 1414.79C1108.64 1420.84 1110.42 1434.42 1110.42 1453.93C1110.41 1476.97 1107.25 1501.79 1100.51 1531.66C1096.47 1549.55 1095.43 1557.25 1095.43 1569.23C1095.43 1586.47 1097.92 1595.34 1106.57 1608.97C1115.54 1623.09 1115.68 1623.69 1114.9 1642.75C1113.53 1676.31 1117.93 1692.02 1143.25 1743.93C1161.21 1780.75 1161.83 1782.52 1161.88 1797.5L1161.93 1809.58L1157.7 1818C1154.87 1823.63 1149.98 1830.57 1142.95 1838.93C1120.07 1866.1 1108.05 1889.25 1103.02 1915.79C1101.09 1925.96 1100.97 1949.62 1102.8 1958.93L1104.08 1965.43L1104.88 1958.43C1110.03 1912.93 1129.13 1877.32 1172.33 1832.66C1180.5 1824.21 1187.91 1815.89 1188.81 1814.17C1191.17 1809.6 1190.82 1806.19 1187.29 1799.3L1184.15 1793.18L1189.25 1782.8C1195.79 1769.47 1199.33 1755.69 1203.86 1725.87C1208.9 1692.76 1211.38 1683.1 1218.52 1668.81C1224.54 1656.75 1237.51 1640.56 1243.79 1637.26C1247.49 1635.32 1254.4 1635.34 1258.2 1637.31C1259.85 1638.16 1262.35 1640.23 1263.77 1641.92C1268.55 1647.59 1268.44 1652.42 1262.98 1678.8C1259.72 1694.52 1255.8 1724.2 1254.51 1742.93C1252.67 1769.54 1252.29 1781.08 1251.43 1835.93C1250.8 1875.85 1250.15 1893.5 1249 1901.93C1242.17 1951.82 1224.26 1990.25 1193.51 2021C1161.99 2052.52 1124.23 2070.53 1066.93 2081.38C1058.89 2082.9 1033.98 2090.05 1032.88 2091.14C1032.56 2091.47 1034.43 2093.2 1037.03 2095C1044.3 2100 1056.24 2111.76 1060.68 2118.29C1065.48 2125.36 1069.68 2134.48 1071.55 2141.93C1073.9 2151.28 1073.27 2170.46 1070.16 2183.74C1065.09 2205.42 1042.02 2276.07 1029.93 2306.94C989.423 2410.42 934.281 2507.98 836.791 2648.66C787.198 2720.23 713.892 2818.62 676.031 2864.43C664.156 2878.79 640.216 2902.87 628.432 2912.29C608.729 2928.04 584.052 2942.46 572.667 2944.88C561.086 2947.33 554.943 2944.18 545.911 2931.15C537.963 2919.67 524.408 2902.16 512.07 2887.43C471.631 2839.12 462.232 2827.37 451.305 2811.43C437.364 2791.08 426.62 2770.73 419.098 2750.43C377.036 2636.85 383.759 2515.22 440.711 2359.43C449.025 2336.68 457.956 2314.49 476.934 2269.43C510.965 2188.61 509.702 2192.14 507.186 2184.83C505.707 2180.54 505.645 2180.49 504.658 2182.93C502.967 2187.1 458.385 2287.65 445.909 2315.43C439.487 2329.73 432.67 2345.25 430.762 2349.93C402.34 2419.55 387.087 2483.36 379.731 2563.43C377.301 2589.88 377.306 2636.86 379.741 2657.43C388.782 2733.79 414.421 2793.23 463.714 2852.12C469.884 2859.49 481.512 2873.37 489.553 2882.97C506.194 2902.84 518.735 2919.7 527.609 2934.14C535.956 2947.72 542.047 2954.16 550.229 2958.07C566.938 2966.04 583.172 2961.77 614.432 2941.17C636.559 2926.59 651.054 2914.69 676.199 2890.47C694.443 2872.9 710.401 2860.89 728.734 2850.93L736.536 2846.69L736.005 2854.06C735.713 2858.11 735.211 2867.05 734.891 2873.93C733.713 2899.2 728.536 2928.84 721.883 2948.43C717.676 2960.81 709.277 2977.84 702.317 2988.11C693.767 3000.71 676.727 3017.64 662.932 3027.22C638.081 3044.49 633.865 3047.76 627.055 3055.01C616.826 3065.91 610.432 3080.04 610.432 3091.75C610.432 3094.41 609.576 3097.68 608.279 3099.98C606.234 3103.62 584.33 3124.66 561.335 3145.08C493.881 3204.96 437.648 3240.46 372.431 3264.33C352.345 3271.69 340.947 3277.38 330.38 3285.33C315.059 3296.85 303.512 3310.86 294.429 3328.93C288.277 3341.18 283.234 3348.25 273.512 3358.27C263.513 3368.58 252.421 3377.09 232.932 3389.39C185.311 3419.46 146.452 3449.82 98.1975 3494.64C76.8135 3514.5 62.7925 3529.03 52.0825 3542.43C25.1375 3576.12 11.4725 3608.21 5.0295 3652.93C0.379501 3685.19 -0.0294987 3691.53 0.00150125 3730.93C0.0325013 3771.71 0.989501 3784.01 6.5285 3814.93C15.7915 3866.62 35.6105 3920.78 61.9955 3966.5C107.299 4044.99 171.875 4087.74 255.932 4094.89C279.121 4096.86 309.694 4095.3 344.199 4090.39C402.988 4082.02 447.736 4068.25 499.397 4042.61C514.67 4035.03 516.385 4034.42 523.075 4034.08C529.555 4033.75 531.891 4034.23 546.109 4038.82C595.913 4054.9 647.753 4056.36 703.932 4043.27C720.232 4039.47 729.437 4036.73 755.432 4027.97C782.736 4018.77 790.173 4017.4 808.335 4018.22C824.054 4018.92 832.081 4021.19 855.654 4031.56C928.951 4063.83 997.259 4080.42 1087.93 4087.97C1135.74 4091.95 1228.22 4091.65 1257.3 4087.41C1323.57 4077.76 1370.28 4047.16 1401.24 3993.12C1407.81 3981.65 1410.02 3976.7 1423.99 3942.06C1430.96 3924.78 1433.96 3920.93 1440.43 3920.93C1445.71 3920.93 1448.89 3922.81 1462.23 3933.84C1518.28 3980.18 1586.84 4018.89 1652.43 4041.21C1725.55 4066.1 1793.35 4076.87 1877.15 4076.91C1913.03 4076.93 1935.92 4075.85 1963.43 4072.86C2015.31 4067.22 2039.8 4057.31 2071.56 4029.11C2091.92 4011.04 2114.37 4000.48 2144.43 3994.85C2153.85 3993.08 2161.01 3992.6 2184.02 3992.19C2243.3 3991.13 2282.72 3997.21 2338.18 4015.93C2405.8 4038.77 2461.37 4049.15 2538.93 4053.43C2591.55 4056.33 2683.27 4054.24 2739.43 4048.86C2779.71 4045 2822.22 4030.45 2860.36 4007.47C2940.77 3959.02 3002.18 3872.39 3019.89 3782.43C3024.3 3759.98 3024.93 3752.62 3024.89 3723.93C3024.86 3700.8 3024.5 3694.12 3022.65 3681.93C3021.44 3673.95 3020.19 3665.5 3019.88 3663.15C3019 3656.64 3021.24 3644.43 3025.14 3634.43C3030.87 3619.72 3031.71 3613.95 3031.11 3593.43C3029.41 3535.41 3008.4 3477.1 2973.75 3434.22C2953.26 3408.87 2925.57 3386.07 2894.43 3368.91C2865.19 3352.8 2851.51 3343.1 2835.93 3327.44C2804.32 3295.65 2783.3 3254.24 2772.97 3203.43C2760.46 3141.81 2738.54 3087.1 2704.8 3033.26C2688.18 3006.74 2680.65 2991.05 2673.08 2967.13C2661.44 2930.33 2658.81 2892.25 2663.94 2834.43C2665.3 2819.03 2666.86 2803.05 2667.41 2798.93C2678.79 2712.73 2679.16 2668.56 2668.91 2620.02C2663.9 2596.29 2657.02 2577.09 2644.03 2550.56C2639.41 2541.14 2634.68 2530.49 2633.52 2526.9C2627.81 2509.22 2627.02 2490.32 2630.93 2465.36C2633.97 2445.94 2634.13 2432.22 2631.49 2416.76C2628.77 2400.85 2625.45 2390.96 2616.45 2371.93C2601.48 2340.29 2599.01 2327.11 2600.8 2288.43C2602.39 2253.84 2598.42 2229.34 2582.16 2173.43C2570.27 2132.55 2563.09 2092.29 2558.98 2043.43C2557.03 2020.21 2554.7 1979.8 2551.92 1920.93C2551.11 1903.6 2550.01 1883.58 2549.48 1876.43C2548.96 1869.28 2548.25 1859.38 2547.91 1854.43C2545.06 1812.6 2537.04 1753.7 2530.36 1725.43C2519.07 1677.67 2494.99 1641.44 2459.02 1618.1C2455.21 1615.63 2427.09 1601.1 2396.52 1585.79C2282.79 1528.87 2281.81 1528.28 2267.13 1507.43C2251.9 1485.8 2239.45 1473.28 2221.2 1461.22C2197.65 1445.67 2176.53 1437.81 2134.43 1428.89C2119.99 1425.83 2102.45 1420.46 2093.67 1416.4C2079.79 1409.99 2074.25 1405.81 2055.92 1387.96C2044.76 1377.1 2034.48 1368.1 2028.92 1364.3C2008.74 1350.56 1988.09 1341.56 1961.43 1334.91C1920.24 1324.63 1895.85 1306.71 1868.22 1266.43C1862.94 1258.73 1842.43 1224.76 1842.43 1223.71C1842.43 1223.43 1847.49 1222.95 1853.68 1222.64C1883.88 1221.14 1900.73 1208.94 1908.54 1182.92C1910.76 1175.53 1910.8 1174.34 1911.5 1098.43C1911.89 1056.08 1912.49 1018.95 1912.82 1015.93C1913.15 1012.9 1913.89 1002.55 1914.47 992.926C1919.04 916.5 1934.3 834.777 1955.41 773.605C1960.81 757.955 1962.4 750.859 1962.4 742.426C1962.41 729.014 1958.12 719.057 1949.16 711.715C1929.04 695.219 1923.36 685.605 1920.88 663.847C1919.67 653.208 1922.87 623.882 1927.04 607.426C1934.17 579.309 1934.08 571.035 1926.47 554.551C1919.25 538.913 1918.34 533.71 1908.84 453.926C1903.7 410.695 1899.5 396.651 1882.21 364.926C1879.66 360.251 1875.46 349.901 1872.88 341.926C1865.55 319.359 1862.66 314.073 1851.47 302.897C1813.93 265.39 1763.09 234.37 1704 212.909C1697.44 210.525 1690.76 207.407 1689.16 205.978C1684.41 201.728 1683.32 195.489 1682.43 167.426C1681.52 138.371 1680.23 132.382 1673.11 124.303C1667.92 118.406 1663.7 115.801 1654.08 112.57C1625.72 103.046 1611.82 89.146 1602.43 60.926C1596.35 42.672 1590.07 32.452 1577.96 21.149C1559.39 3.80796 1531.87 -3.38704 1502.78 1.49796ZM1579.43 420.05C1613.56 422.703 1635.89 432.379 1657.55 453.908C1678.81 475.041 1692.67 503.688 1698.9 539.426C1702.82 561.889 1702.85 611.515 1698.96 626.255C1693.81 645.727 1681.66 656.588 1657.43 663.376C1637.91 668.845 1618.85 678.59 1601.42 692.021C1589.1 701.509 1571.87 718.957 1567.43 726.447C1564.32 731.69 1563.93 733.133 1563.93 739.387C1563.93 745.721 1564.26 746.901 1567.23 751.17C1571.78 757.737 1576.75 760.927 1582.41 760.922C1587.92 760.918 1590.74 759.281 1602.8 749.101C1655.49 704.601 1695.53 684.906 1733.23 684.933C1754.28 684.948 1771.12 691.732 1786.29 706.314C1798.79 718.325 1800.67 729.496 1791.49 737.223C1786.26 741.625 1781.25 740.823 1768.79 733.588C1757.99 727.319 1749.46 723.09 1743.17 720.893C1736.28 718.486 1720.43 716.952 1720.43 718.692C1720.43 720.403 1729.43 727.983 1740.7 735.767C1751.57 743.27 1760.94 752.145 1763.76 757.594L1765.37 760.704L1760.96 761.815C1753.59 763.671 1745.62 763.078 1730.43 759.543C1706.8 754.042 1702.17 753.443 1683.43 753.47C1659.5 753.506 1647.7 755.921 1622.93 765.859C1607.45 772.071 1605.9 773.323 1606.03 779.49C1606.22 788.639 1612.08 791.495 1645.93 798.96C1693.61 809.472 1726.99 807.262 1758.24 791.523C1765.02 788.107 1765.46 788.008 1764.35 790.135C1761.15 796.257 1753.33 805.567 1748.03 809.561C1742.34 813.848 1722.08 824.402 1704.43 832.281L1695.93 836.074L1705.39 840.53C1743.68 858.566 1770.25 890.806 1780.32 931.426C1785.02 950.393 1785.54 966.384 1782.35 993.637C1779.47 1018.22 1780.59 1027.76 1786.95 1032.76C1790.59 1035.62 1798.61 1035.73 1803.14 1032.96C1808.83 1029.49 1811.78 1023.07 1820.43 995.249C1821.7 991.176 1823.93 986.635 1825.6 984.749L1828.53 981.426L1827.89 992.926C1826.27 1022.16 1820.87 1037.91 1800.02 1074.18C1792.87 1086.62 1791.33 1087.82 1787.51 1084.01C1786.33 1082.83 1785.33 1079.93 1784.89 1076.48C1784.09 1070.05 1778.61 1060.58 1773.91 1057.51C1769.31 1054.49 1763.55 1054.33 1759.43 1057.11C1756.17 1059.31 1755.5 1060.77 1749.66 1078.45C1746.21 1088.89 1741.83 1103.05 1739.93 1109.93C1724.33 1166.37 1689.39 1208.33 1634.16 1236.93C1597.1 1256.13 1560.48 1265.09 1518.93 1265.15C1477.54 1265.21 1449.15 1257.96 1413.56 1238.24C1294.73 1172.39 1232.14 1102.52 1208.02 1008.78C1195.95 961.842 1190.64 910.797 1186.93 805.972L1185.42 763.518L1188.39 759.833C1192.09 755.228 1197.84 744.838 1199.96 738.917C1203.29 729.631 1204.61 718.745 1205.93 689.426C1207.46 655.405 1208.57 648.454 1214.78 634.058L1218.93 624.426L1219.03 605.887C1219.14 585.297 1219.34 583.712 1223.39 570.614C1242.64 508.346 1285.22 464.81 1347.15 444.071C1360.6 439.567 1369.34 437.5 1393.93 433.007C1440.53 424.493 1475.42 420.432 1518.43 418.521C1529.89 418.012 1564.31 418.875 1579.43 420.05ZM1315.93 654.855C1301.68 657.14 1288.29 662.206 1277.43 669.426C1271.02 673.688 1254.43 689.964 1254.43 691.992C1254.43 693.185 1254.22 693.197 1265.43 691.371C1329.49 680.941 1363.45 685.329 1399.43 708.684C1411.07 716.238 1417.31 721.146 1431.07 733.572C1442.08 743.517 1450.37 748.892 1454.71 748.916C1459.82 748.944 1468.14 743.236 1471.02 737.726C1474.3 731.445 1472.04 725.603 1461.69 713.617C1442.23 691.071 1414.79 671.644 1389.43 662.463C1372.94 656.49 1362.58 654.768 1340.93 654.397C1329.93 654.208 1318.68 654.415 1315.93 654.855ZM1926.08 710.098C1934.08 713.042 1938.86 717.052 1941.98 723.445C1946.13 731.916 1945.72 738.657 1939.47 764.926C1932.85 792.784 1916.42 857.272 1915.78 857.906C1914.25 859.443 1905.03 842.495 1902.4 833.305C1896.64 813.191 1899.86 795.812 1914.85 766.025C1925.68 744.494 1927.26 737.952 1923.31 730.927C1919.91 724.866 1908.81 720.948 1894.99 720.932L1890.06 720.926L1892.91 717.945C1902.77 707.653 1912.91 705.254 1926.08 710.098ZM1135.93 713.812L1142.93 715.534L1135.2 717.295C1126.09 719.368 1118.76 723.838 1116.11 728.926C1114.69 731.672 1114.4 733.934 1114.77 739.426C1115.26 746.6 1116.84 751.222 1125.7 771.426C1135.61 793.99 1138.43 810.855 1135 827.037C1133.6 833.617 1126.8 849.926 1125.44 849.926C1123.46 849.926 1108.66 806.994 1103.55 786.426C1097.14 760.604 1095.1 735.176 1098.69 725.86C1100.84 720.287 1105.63 715.472 1110.95 713.524C1116.28 711.573 1127.35 711.7 1135.93 713.812ZM1306.43 718.022C1282.57 726.482 1257.78 745.011 1250.16 760.069C1246.25 767.786 1246.46 773.454 1250.99 782.912C1257.98 797.49 1268.59 809.566 1282.02 818.202C1296.6 827.587 1309.02 831.317 1325.43 831.239C1336.51 831.187 1345.93 829.456 1345.93 827.472C1345.93 825.548 1333.25 819.854 1322.43 816.919C1303.95 811.906 1298.1 808.666 1292.3 800.24L1289.12 795.614L1292.53 796.313C1311.35 800.177 1322.76 801.232 1345.93 801.25C1366.85 801.266 1372.35 800.919 1388.77 798.542C1409.83 795.494 1417.86 793.363 1422.96 789.47C1427.51 786.005 1429.43 782.097 1429.43 776.344C1429.43 769.557 1425.19 765.807 1413.63 762.376C1408.84 760.957 1399.77 758.2 1393.46 756.248C1366.89 748.035 1351.64 747.969 1307.56 755.874C1291.2 758.808 1266.32 762.144 1265.66 761.491C1265.49 761.322 1274.71 752.502 1286.14 741.89C1318.09 712.237 1316.09 714.599 1306.43 718.022ZM1878.52 798.426C1881.06 815.027 1885.99 835.055 1893.9 860.926C1903.26 891.54 1904.42 898.245 1902.46 910.344C1899.99 925.61 1894.66 936.373 1882.36 950.926C1865.55 970.827 1856.96 988.371 1853.7 1009.43C1853.06 1013.61 1852.88 1012.48 1852.61 1002.43C1852.2 987.516 1853.55 975.161 1858.43 948.926C1863.96 919.228 1864.24 917.34 1866.45 893.824C1871.13 844.063 1874.29 801.04 1874.56 783.426C1874.71 773.116 1874.56 772.535 1878.52 798.426ZM1469.43 869.426C1469.43 913.701 1469.61 949.926 1469.84 949.926C1470.64 949.926 1476.46 932.671 1478.86 923.162C1483.78 903.646 1484.93 892.444 1484.91 864.426C1484.88 836.921 1483.38 823.739 1478.5 808.301C1476.31 801.374 1470.85 788.926 1469.99 788.926C1469.68 788.926 1469.43 825.151 1469.43 869.426ZM1164.77 807.926C1165.11 814.801 1166.3 828.976 1167.42 839.426C1169.28 856.812 1170.86 869.596 1176.45 912.426C1179.94 939.218 1183.3 972.128 1183.91 985.426L1184.51 998.426L1182.14 991.426C1177.79 978.576 1171.33 967.962 1158.73 952.926C1145.29 936.893 1139.67 925.249 1137.35 908.636C1135.32 894.113 1137.59 882.223 1147.92 853.426C1153.36 838.244 1159.88 813.327 1161.57 801.233C1162.22 796.572 1163.07 793.358 1163.46 794.092C1163.85 794.826 1164.44 801.051 1164.77 807.926ZM1562.11 806.676C1558.4 828.978 1557.93 835.7 1557.95 866.426C1557.96 893.643 1558.24 899.196 1560.23 911.926C1561.48 919.901 1562.88 928.001 1563.36 929.926C1563.88 932.015 1564.27 905.91 1564.33 865.176C1564.39 827.638 1564.28 796.926 1564.08 796.926C1563.89 796.926 1563.01 801.314 1562.11 806.676ZM1601.59 944.304C1592.41 960.559 1572.5 974.174 1548.54 980.573C1536.74 983.721 1514.02 984.852 1499.93 982.992C1480.15 980.381 1458.66 970.609 1445.9 958.426C1440.83 953.59 1439.49 951.646 1438.97 948.406C1438.11 942.975 1437.14 941.676 1433.96 941.676C1428.01 941.676 1424.68 945.532 1422.51 954.968C1419.08 969.835 1425.07 980.828 1440.68 988.336C1450.91 993.258 1470.56 999.61 1484.43 1002.48C1517.35 1009.29 1548.02 1007.17 1579.58 995.917C1610.31 984.954 1619.29 974.453 1613.84 955.858C1612.19 950.239 1606.48 938.926 1605.3 938.926C1604.93 938.926 1603.26 941.346 1601.59 944.304ZM1148.04 970.702C1158.14 982.41 1165.81 997.997 1170.52 1016.43C1172.41 1023.82 1172.82 1028.1 1172.84 1040.43C1172.87 1061.78 1170.09 1071.17 1159.29 1086.12C1154.14 1093.25 1153.43 1094.8 1153.43 1098.89C1153.43 1102.69 1153.94 1104.03 1156.18 1106.12C1168.84 1117.92 1180.21 1107.55 1188.74 1076.44C1190.64 1069.49 1190.92 1065.98 1190.88 1049.93C1190.84 1036.1 1190.41 1029.79 1189.17 1024.97C1188.26 1021.42 1187.64 1018.39 1187.79 1018.23C1188.29 1017.73 1226.19 1095.09 1232.96 1110.43C1241.33 1129.4 1241.69 1132.43 1237.99 1153.86C1234.12 1176.31 1231.21 1184.04 1223.53 1192.28C1216.13 1200.21 1206.85 1203.93 1194.43 1203.93C1172.13 1203.93 1155.47 1190.43 1150.59 1168.43C1149.36 1162.89 1147.29 1137.57 1144.94 1099.43C1143.39 1074.32 1137.45 965.977 1137.44 962.646C1137.43 961.027 1137.7 961.061 1140.35 963.026C1141.96 964.214 1145.42 967.668 1148.04 970.702ZM1899.12 999.252C1899.65 1021.39 1899.28 1028.51 1895.49 1069.28C1894.43 1080.65 1892.7 1083.3 1886.04 1083.73C1880.25 1084.11 1875.28 1081.35 1873.3 1076.67C1871.6 1072.64 1871.65 1043.53 1873.39 1027.32C1875.96 1003.3 1882.75 982.503 1892.8 967.926L1895.9 963.426L1897.23 969.926C1897.98 973.562 1898.81 986.484 1899.12 999.252ZM1850.92 1029.46C1848.27 1044.32 1849.35 1059.67 1854.48 1080.23C1859.92 1102.05 1862.38 1105.49 1874.93 1108.88C1897.73 1115.04 1903.27 1126.16 1896.89 1152.93C1895.52 1158.7 1893.98 1168.26 1893.47 1174.16C1892.89 1180.85 1891.8 1186.56 1890.57 1189.33C1887.76 1195.69 1881.27 1202.28 1874.65 1205.51C1869.75 1207.89 1867.38 1208.35 1858.14 1208.72C1848.9 1209.09 1846.33 1208.82 1840.31 1206.89C1816.9 1199.36 1804.22 1179.61 1800.53 1144.93C1799.74 1137.56 1799.71 1132.04 1800.43 1126.43C1802.08 1113.41 1804.28 1108.19 1813.46 1095.43C1820.74 1085.31 1824.35 1078.06 1831.16 1059.93C1837.27 1043.65 1843.84 1030.3 1848.52 1024.62C1850.25 1022.53 1851.81 1020.97 1852 1021.16C1852.19 1021.35 1851.7 1025.08 1850.92 1029.46ZM1488.43 1034.53C1473.18 1036.37 1455.61 1040.26 1441.11 1045.01C1426.84 1049.67 1405.43 1058.95 1405.43 1060.46C1405.43 1061.97 1410.31 1066.4 1413.93 1068.16C1415.58 1068.97 1420.03 1070.39 1423.82 1071.32C1427.61 1072.26 1431.88 1073.62 1433.32 1074.35C1440.01 1077.78 1464.96 1082.93 1484.93 1085.01C1499.21 1086.5 1535.02 1086.5 1548.43 1085.01C1571.36 1082.47 1591.58 1077.94 1607.93 1071.7C1620.2 1067.02 1635.18 1058.28 1633.62 1056.72C1632.25 1055.34 1605.18 1046.41 1592.09 1043.01C1556.46 1033.76 1519.72 1030.75 1488.43 1034.53ZM1432.29 1079.38C1428.33 1082.07 1427.43 1083.65 1427.43 1087.94C1427.43 1095.77 1432.89 1102.27 1448.36 1112.88C1463.44 1123.22 1467.72 1128.03 1470.84 1138.19C1471.76 1141.2 1476.26 1142.17 1486.47 1141.59C1492.82 1141.22 1498.67 1140.16 1503.97 1138.41C1517.11 1134.08 1518.08 1133.96 1526.83 1135.5C1531.28 1136.28 1540.2 1136.92 1546.64 1136.92C1565.65 1136.93 1577.48 1132.13 1588.93 1119.76C1596.88 1111.17 1606.15 1094.51 1609.94 1082L1610.68 1079.58L1607.8 1081.81C1600.8 1087.25 1587.81 1095.34 1581.17 1098.41C1572.56 1102.38 1559 1106.33 1547.93 1108.08C1530.8 1110.79 1484.74 1108.64 1468.09 1104.35C1455.13 1101 1444.44 1092.88 1438.93 1082.18C1437.44 1079.29 1436.15 1076.93 1436.06 1076.93C1435.97 1076.93 1434.27 1078.03 1432.29 1079.38ZM1781.91 1142.31C1783.22 1143.63 1784.57 1146.44 1784.9 1148.56C1786.08 1156.08 1790.74 1173.52 1793.47 1180.67C1801.98 1202.86 1815.51 1216.39 1833.81 1221C1836.34 1221.64 1838.19 1222.51 1837.92 1222.95C1836.55 1225.17 1826.4 1227.17 1809.93 1228.47C1800.03 1229.25 1789.46 1230.62 1786.43 1231.52C1783.41 1232.41 1779.53 1233.36 1777.81 1233.63C1773.85 1234.25 1768.62 1231.6 1767.98 1228.66C1767.71 1227.43 1766.05 1218.1 1764.29 1207.93C1760.11 1183.8 1759.74 1166.13 1763.19 1155.43C1765.54 1148.14 1766.98 1145.93 1771.82 1142.17C1775.54 1139.27 1778.92 1139.32 1781.91 1142.31ZM1285.43 1172.06C1294.55 1177.23 1308.73 1192.53 1318.94 1208.23C1340.02 1240.59 1346.09 1247.81 1362.86 1260.38C1406.2 1292.86 1449.37 1311.77 1496.93 1319.09C1515.82 1322 1548.96 1322.22 1567.93 1319.57C1604.71 1314.44 1625.23 1308.1 1704.43 1277.41C1736.05 1265.16 1745.05 1261.93 1747.59 1261.93C1748.59 1261.93 1750.76 1263.16 1752.43 1264.68C1755.04 1267.05 1755.92 1269.32 1758.87 1281.43C1765.58 1308.89 1773.57 1329.57 1796.91 1379.93C1818.55 1426.6 1828.02 1454.82 1833.32 1488.43C1845.62 1566.28 1843.83 1638.95 1827.79 1712.43C1820.85 1744.27 1814.97 1759.93 1805.1 1772.9C1802.81 1775.9 1797.16 1783.33 1792.55 1789.4C1781.81 1803.53 1760.41 1835.9 1748.23 1856.43C1736.37 1876.41 1721.24 1904 1696.43 1950.93C1650.48 2037.84 1637.97 2059.03 1591.14 2129.23C1579.07 2147.33 1566.52 2164.96 1563.16 2168.56C1556.99 2175.16 1555.38 2176.1 1531.43 2187.17C1524.43 2190.41 1503.98 2201.59 1492.93 2208.22C1469.36 2222.36 1450.96 2235.06 1383.93 2283.44C1337.3 2317.09 1311.54 2332.77 1255.43 2361.64C1215.79 2382.03 1179.36 2396.61 1148.43 2404.44C1119.41 2411.8 1086.1 2415.14 1061.67 2413.15C1046.21 2411.9 1040.73 2410.25 1036.93 2405.74C1032.04 2399.93 1033.64 2391.48 1045.03 2363.17C1056.67 2334.21 1073.86 2285.61 1097.61 2214.43C1106.07 2189.09 1126.3 2139.12 1135.67 2120.43C1145.79 2100.24 1156.16 2089.17 1176.93 2076.36C1223.49 2047.65 1250.99 2004.52 1262.92 1941.46C1269.22 1908.2 1270.45 1888.87 1271.44 1807.43C1272.47 1722.66 1272.93 1717.52 1283.14 1677.43C1288.36 1656.92 1289.04 1647.98 1286.05 1639.16C1283.54 1631.77 1276.02 1623.83 1267.62 1619.7C1261.75 1616.81 1260.01 1616.43 1252.95 1616.46C1245.85 1616.48 1244.19 1616.87 1238.47 1619.83C1224.78 1626.91 1205.49 1651.12 1196.16 1672.93C1190.65 1685.81 1189.38 1692.42 1188.55 1712.43C1187.88 1728.67 1187.56 1730.96 1185.28 1735.93C1182.19 1742.65 1178.56 1747.05 1172.89 1750.96C1170.51 1752.59 1168.36 1753.93 1168.11 1753.93C1167.85 1753.93 1166.51 1751.11 1165.12 1747.68C1163.73 1744.24 1158.91 1733.55 1154.42 1723.93C1133.67 1679.54 1131.17 1670.22 1131.03 1636.43L1130.93 1613.43L1126.08 1599.93C1115.45 1570.32 1114.06 1562.45 1116.86 1547.61C1117.77 1542.76 1118.91 1531.51 1119.38 1522.61C1120.1 1508.88 1120.77 1504.46 1123.77 1493.43C1131.09 1466.55 1131.2 1455.46 1124.33 1436.93C1120.4 1426.33 1120.06 1424.64 1120 1415.43C1119.94 1406.77 1120.25 1404.82 1122.29 1400.93C1127.95 1390.16 1140.04 1382.74 1165.43 1374.44C1191.1 1366.05 1209.41 1355.16 1224.45 1339.34C1247.42 1315.17 1258.5 1285.88 1262.42 1238.93C1264.56 1213.21 1269.83 1187.16 1275.6 1173.76C1276.74 1171.1 1278.18 1168.93 1278.8 1168.93C1279.42 1168.94 1282.41 1170.35 1285.43 1172.06ZM1646.93 1184.84C1637.18 1188.75 1624.64 1194.44 1605.93 1203.45C1564.09 1223.6 1543.02 1228.48 1508.43 1226.01C1464.13 1222.85 1431.56 1212.59 1400.17 1191.91C1395.18 1188.62 1390.95 1186.07 1390.79 1186.24C1390.62 1186.4 1391.66 1188.76 1393.1 1191.48C1406.77 1217.31 1435.59 1237.84 1470.38 1246.53C1521.77 1259.38 1581.69 1248.98 1621.51 1220.31C1633.74 1211.5 1648.7 1195.31 1655.82 1183.18C1656.91 1181.31 1654.76 1181.71 1646.93 1184.84ZM1817.43 1246.34C1839.22 1250.96 1853.54 1265.52 1867.88 1297.64C1893.74 1355.6 1908.43 1412.27 1929.36 1534.93C1950.78 1660.41 1938.82 1775.02 1883.92 1970.43C1867.4 2029.23 1857.61 2062.29 1837.55 2127.04C1812.97 2206.39 1809.16 2217.94 1802.87 2232.31C1789.34 2263.2 1767.83 2292.98 1743.56 2314.41C1731.12 2325.4 1722.43 2332.38 1722.43 2331.4C1722.43 2331.01 1724.62 2326.81 1727.3 2322.06C1749.48 2282.71 1767.66 2235.08 1780.8 2181.9C1786.06 2160.63 1790.56 2139.72 1790 2139.16C1788.72 2137.88 1779.18 2158.71 1774.31 2173.43C1749.69 2247.81 1711.46 2308.8 1649.93 2371.8C1623.69 2398.67 1599.43 2420.02 1558.93 2451.88C1445.35 2541.22 1352.71 2598.54 1259.23 2637.31C1163.64 2676.96 1074.96 2693.41 966.432 2691.62C937.031 2691.14 895.419 2688.93 885.57 2687.34C880.562 2686.53 877.432 2682.9 877.432 2677.9C877.432 2672.49 881.13 2668.71 888.495 2666.56C891.484 2665.69 897.082 2664.09 900.932 2663C937.315 2652.7 1012.88 2628.36 1044.93 2616.61C1105.22 2594.52 1157.3 2570.89 1202.43 2545.16C1230.12 2529.37 1262.42 2508.48 1306.43 2477.92C1455.17 2374.62 1548.02 2286.89 1616.14 2185.27C1638.58 2151.81 1653.25 2126.06 1672.19 2086.93C1690.94 2048.18 1692.45 2045.16 1702.76 2025.93C1724.44 1985.45 1743.07 1954.24 1782.43 1892.43C1841.65 1799.44 1852.51 1781.96 1871.94 1748.44C1902.71 1695.37 1913.38 1658.08 1908.37 1621.25C1906.29 1606.01 1900.04 1585.38 1898.31 1588.06C1896.2 1591.32 1893.32 1603.64 1890.96 1619.54C1889.55 1628.95 1887.69 1639.07 1886.81 1642.04C1884.4 1650.13 1875.59 1666.73 1875.45 1663.43C1875.29 1659.46 1871.11 1607.25 1869.9 1593.94C1861.77 1504.99 1841.22 1427.54 1806.84 1356.29C1798.28 1338.54 1795.78 1332.01 1788 1307.09C1784.34 1295.35 1780.04 1282.17 1778.44 1277.8C1773.04 1262.98 1773.49 1255.27 1780.07 1250.25C1786.56 1245.3 1803.95 1243.48 1817.43 1246.34ZM1367.08 1342.4C1366.42 1344.12 1367.85 1349.39 1369.77 1352.31C1371.48 1354.93 1384.65 1363.06 1400.87 1371.53C1430.97 1387.24 1464.04 1397.4 1501.93 1402.56C1521.47 1405.22 1565.84 1405.02 1589.51 1402.15C1618.75 1398.61 1651.17 1392.2 1682.18 1383.82C1702.32 1378.39 1710.15 1374.14 1714.13 1366.51C1717.48 1360.11 1713.87 1350.82 1706.7 1347.35C1700.19 1344.21 1691.6 1345.04 1666.93 1351.21C1562.97 1377.21 1486.81 1379.19 1412.93 1357.81C1398.89 1353.75 1378.12 1346.28 1371.28 1342.83C1368.23 1341.29 1367.53 1341.22 1367.08 1342.4ZM1962.28 1349.56C2007.35 1358.67 2041.22 1384.85 2061.72 1426.43C2067.85 1438.86 2071.58 1448.68 2077.47 1467.93C2101.1 1545.17 2110.92 1615.22 2107.65 1683.18C2105.87 1720.03 2101.77 1750.39 2088.42 1825.43C2081.89 1862.09 2077.43 1891.52 2077.43 1897.89C2077.43 1907.05 2079.73 1914.93 2082.42 1914.93C2085.33 1914.93 2095.96 1906.46 2100.25 1900.73C2106.03 1893 2110.79 1882.87 2116.49 1866.18C2132.31 1819.84 2141.21 1779.71 2145.61 1734.93C2147.36 1717.06 2147.36 1658.86 2145.61 1640.93C2139.51 1578.39 2123.01 1519.05 2094.07 1455.54C2088.2 1442.67 2085.64 1435.95 2086.02 1434.42L2086.58 1432.19L2099.76 1435.43C2107 1437.22 2121.71 1440.81 2132.43 1443.41C2184.53 1456.04 2210.55 1468.9 2236.5 1494.86C2272.51 1530.87 2291.54 1581.37 2301.13 1666.43C2302.64 1679.83 2302.93 1690.87 2302.93 1734.43C2302.93 1769.47 2302.49 1791.32 2301.6 1801.43C2297.48 1847.82 2298.68 1889.23 2305.06 1921.36C2307.15 1931.89 2307.09 1952.07 2304.92 1961.93C2300.01 1984.32 2293.19 1999.57 2270.23 2039.43C2246.96 2079.83 2243.63 2087.12 2245.01 2094.51C2246.26 2101.16 2253.54 2106.99 2264.13 2109.84C2270.14 2111.46 2273.43 2115.76 2273.43 2121.98C2273.43 2127.76 2269.47 2151.04 2266.51 2162.63C2261.1 2183.79 2251.43 2205.25 2237.75 2226.43C2207.87 2272.65 2194.1 2304.29 2163.91 2395.96C2145.25 2452.62 2142.28 2460.67 2137.31 2467.93C2131.77 2476.04 2130.03 2480.19 2130.83 2483.38C2131.74 2487 2134.88 2488.27 2144.43 2488.88L2152.93 2489.43L2152.87 2494.93C2152.73 2508.58 2131 2574.05 2111.26 2620.32C2082.94 2686.71 2045.38 2753.85 1991.76 2833.93C1958.69 2883.31 1955.1 2888.26 1943.47 2900.32C1925.18 2919.3 1904.91 2934.11 1870.43 2953.68C1860.81 2959.15 1839.43 2971.29 1822.93 2980.67C1806.43 2990.05 1782.81 3003.33 1770.43 3010.18C1710.99 3043.11 1711.67 3042.69 1708.84 3048.13C1706.87 3051.9 1707.06 3053.79 1709.97 3059.62C1712.81 3065.33 1716.17 3067.34 1722.48 3067.09C1728.1 3066.88 1765.34 3053.2 1796.43 3039.94C1811.93 3033.33 1848.62 3014.71 1867.43 3003.91C1903.28 2983.33 1947.42 2952.63 1978.43 2926.71C1992.64 2914.83 2012.7 2896.83 2030.67 2879.83C2039.46 2871.51 2043.85 2868.05 2046.18 2867.6C2049.21 2867.02 2049.43 2867.16 2049.42 2869.7C2049.39 2875.29 2046.24 2885.56 2042.26 2893.02C2040 2897.25 2032.99 2907.14 2026.67 2914.99C2012.25 2932.91 2006.77 2940.58 2000.39 2951.81C1989.67 2970.66 1984.51 2988.1 1983.69 3008.2C1982.89 3027.59 1986.04 3043.04 1994.96 3063.54C2000.26 3075.71 2001.14 3080.33 1999.37 3086.65C1997.19 3094.44 1991.59 3099.04 1974.09 3107.41C1912.25 3136.99 1855.89 3152.27 1794.93 3155.98C1773.61 3157.28 1762.28 3156.9 1718.43 3153.39C1673.3 3149.79 1662.72 3149.02 1643.43 3147.98C1548.42 3142.83 1473.78 3148.58 1403.93 3166.42C1385.24 3171.19 1384.81 3170.88 1398.73 3162.75C1421.54 3149.43 1451.47 3140.08 1486.43 3135.36C1495.56 3134.13 1515.57 3133.63 1583.43 3132.95C1707.99 3131.7 1720.86 3131.15 1748.43 3125.9C1790.15 3117.95 1832.48 3098.16 1867.43 3070.25C1876.48 3063.02 1904.3 3036.3 1907.63 3031.63L1909.63 3028.84L1906.78 3030.15C1905.21 3030.87 1889.31 3038.72 1871.43 3047.59C1828.45 3068.94 1804.28 3078.35 1771.93 3086.34C1740.2 3094.17 1713.86 3097.31 1679.93 3097.3C1656.42 3097.29 1645.78 3096.5 1612.43 3092.3C1591.25 3089.62 1537.88 3089.88 1513.78 3092.77C1439.97 3101.63 1374.88 3123.25 1297.93 3164.46C1266.72 3181.17 1243.74 3195.25 1200.93 3223.89C1165.74 3247.43 1149.91 3257.17 1133.48 3265.4C1121.26 3271.53 1104.68 3278.93 1103.17 3278.93C1101.94 3278.93 1112.31 3259.46 1119.16 3248.93C1136.69 3221.96 1161.73 3197.18 1191.83 3177C1209.08 3165.44 1225.77 3156.11 1258.25 3139.89L1289.56 3124.25L1285.25 3122.63C1273.73 3118.33 1261.21 3117.87 1250.93 3121.37C1235.62 3126.59 1202.75 3144.52 1134.56 3184.84L1129.19 3188.02L1129.86 3185.22C1131.31 3179.16 1137.67 3167.66 1148.55 3151.43C1159.31 3135.39 1167.94 3119.9 1167.24 3117.89C1166.73 3116.41 1150.05 3124.33 1141.17 3130.26C1133.74 3135.23 1120.46 3147.6 1114.17 3155.43C1110.13 3160.44 1102.22 3172.64 1092.84 3188.29C1078.64 3212 1074.09 3215.11 1066 3206.66C1063.75 3204.31 1058.77 3196.8 1054.92 3189.95C1042.48 3167.81 1025.31 3145.7 1006.73 3127.86C981.135 3103.29 957.775 3094.94 914.682 3094.93C896.465 3094.93 896.781 3094.77 900.471 3102C902.659 3106.29 909.46 3111.23 917.432 3114.33C937.551 3122.14 982.589 3155.09 1000.61 3175.19C1028.21 3205.98 1039.38 3230.51 1048.52 3280.43C1051.95 3299.13 1048.86 3308.13 1037.01 3313.96C1031.25 3316.8 1029.76 3317.12 1024.01 3316.75C1018.62 3316.41 1016.87 3315.82 1013.79 3313.33C1008.83 3309.31 1004.38 3301.01 999.393 3286.45C979.896 3229.54 933.77 3181.8 854.471 3136.43C803.516 3107.28 752.711 3091.14 698.432 3086.84C685.002 3085.78 664.827 3086.05 646.858 3087.54C639.844 3088.13 639.76 3088.1 637.108 3084.95C633.779 3081 633.441 3074.06 636.346 3069.3C639.161 3064.68 665.241 3043.29 678.432 3034.78C716.72 3010.07 760.009 2996.87 820.432 2991.47C857.059 2988.2 892.616 2987.43 1006.43 2987.43C1086.59 2987.43 1142.65 2987.97 1201.43 2989.3C1324.32 2992.1 1357.55 2991.02 1415.93 2982.32C1518.53 2967.03 1617.13 2930.1 1713.48 2870.9C1784.02 2827.55 1869.47 2758.94 1936.97 2691.46C1987.46 2640.98 2024.72 2595.74 2059.68 2542.43C2090.22 2495.87 2113.17 2451.48 2135.55 2395.72C2145.72 2370.38 2148.43 2360.9 2148.43 2350.71V2342.98L2145.18 2343.58C2138.39 2344.85 2133.34 2349.92 2130.91 2357.89C2129.3 2363.19 2116.74 2390.48 2106.5 2410.93C2084.8 2454.27 2061.68 2491.62 2031.91 2531.43C1985.06 2594.06 1937.17 2641.61 1839.43 2722.51C1734.94 2809.01 1639.33 2870.86 1549.43 2910.12C1493.4 2934.58 1434.19 2947.9 1362.93 2952.07C1339.42 2953.45 1190.02 2954.08 1180.46 2952.85C1174.06 2952.02 1163.45 2947.52 1162.73 2945.32C1162.31 2944.05 1175.59 2937.37 1185.93 2933.66C1196.29 2929.95 1211.85 2926.37 1230.43 2923.43C1317.92 2909.62 1394 2883.77 1472.56 2841.17C1538.26 2805.55 1590.8 2768.65 1671.42 2701.52C1734.82 2648.71 1776.42 2618.13 1833.43 2582.39C1894.15 2544.33 1937.41 2505.86 1977.89 2453.93C1989.34 2439.24 2009.4 2409.23 2018.66 2392.93C2033.12 2367.48 2048.46 2334.53 2058.45 2307.43C2070.64 2274.4 2101.26 2185 2117.88 2133.93C2131.53 2091.99 2133.16 2086.87 2143.28 2053.93C2172.89 1957.57 2199.85 1861.14 2202.37 1842.6C2203.56 1833.83 2203.73 1824.63 2202.76 1821.02C2202.18 1818.86 2201.92 1819.11 2200.16 1823.52C2196.72 1832.09 2187.59 1859.59 2179.44 1885.93C2165.97 1929.42 2154.03 1961.85 2146.32 1975.89L2144.38 1979.43L2145.01 1975.93C2145.36 1974 2147.87 1964.1 2150.59 1953.93C2159.82 1919.41 2169.29 1881.49 2173.34 1862.93C2187.37 1798.59 2188.8 1791.73 2191.34 1776.43C2197.15 1741.45 2197.47 1712.03 2192.31 1686.43C2189.8 1673.95 2182.29 1650.77 2178.32 1643.21C2176.67 1640.08 2173.22 1635.06 2170.66 1632.06C2166.24 1626.88 2155.24 1617.93 2153.31 1617.93C2152.81 1617.93 2153.03 1619.43 2153.8 1621.27C2156.53 1627.79 2163.37 1652.6 2165.85 1664.93C2170.17 1686.45 2171.43 1699.5 2171.43 1722.75C2171.43 1747.16 2170.99 1751.66 2165.36 1785.34C2155.39 1844.84 2149.52 1871.45 2140.08 1899.93C2131.97 1924.39 2126.04 1937.1 2106.66 1971.63C2078.68 2021.47 2056.84 2068.14 2001.45 2196.43C1984.77 2235.05 1983.95 2236.86 1973.93 2257C1942.24 2320.73 1902.28 2373.91 1852.09 2419.18C1846.14 2424.55 1831.07 2437.13 1818.6 2447.16C1779.52 2478.57 1729.07 2521.57 1679.43 2565.79C1566.67 2666.24 1490.06 2729.65 1444.63 2760.13C1392.37 2795.19 1332.11 2821.26 1269.12 2836.05C1260.64 2838.04 1259.19 2838.15 1258.39 2836.89C1255.97 2833.07 1256.75 2832.41 1274.43 2823.24C1352.22 2782.88 1418.4 2728.68 1491.59 2645.43C1511.93 2622.28 1525.75 2605.36 1572.87 2545.94C1605.88 2504.3 1628 2479.26 1660.38 2446.86C1691.75 2415.48 1712.81 2397.31 1745.43 2373.46C1768.2 2356.81 1783.01 2344.38 1798.47 2328.95C1848.22 2279.28 1885.69 2217.98 1935.42 2104.93C1970.43 2025.33 2001.53 1941.25 2023.07 1867.93C2039.59 1811.69 2042.85 1797.66 2040.7 1792.04C2039.84 1789.79 2039.54 1790.04 2035.43 1796.54C2017.09 1825.58 1994.16 1870.99 1967.58 1930.93C1937.85 1997.96 1918.86 2037.43 1919.95 2029.93C1926.46 1984.99 1932.01 1964.38 1961.91 1873.93C1981.38 1815.05 1988.58 1791.91 1995.4 1766.43C2005.43 1728.87 2010.57 1701.93 2014.09 1668.43C2016.56 1644.93 2016.57 1594.32 2014.12 1570.43C2006.65 1497.91 1988.71 1438.81 1953.27 1370.05L1941.22 1346.67L1948.08 1347.37C1951.85 1347.76 1958.24 1348.74 1962.28 1349.56ZM1921.77 1362.39C1954.07 1395.79 1979.8 1476.96 1983.3 1556.45C1984.77 1589.77 1982.13 1624.59 1976.47 1646.76C1974.59 1654.09 1973.43 1656.72 1973.43 1653.61C1973.43 1651.52 1966.86 1592.32 1964.87 1576.43C1958.23 1523.52 1948.91 1473.22 1939.21 1437.93C1931.17 1408.64 1923.74 1387.3 1909.66 1352.98C1908.68 1350.58 1915.43 1355.83 1921.77 1362.39ZM1049.63 1375.18C1055 1385.94 1058.27 1396.99 1060.06 1410.43C1062.41 1428.09 1061.63 1440.56 1055.01 1490.93C1050.81 1522.92 1049.43 1538.36 1049.44 1553.28C1049.44 1580.44 1054.92 1600.44 1067.42 1618.93C1073.89 1628.49 1074.89 1631.26 1074.54 1638.64C1074.38 1642.02 1069.02 1647.43 1063.47 1649.81C1048.22 1656.37 1038.19 1651.84 1030.16 1634.78C1019.97 1613.09 1015.36 1589.04 1015.35 1557.43C1015.34 1539.57 1017.5 1501.71 1019.5 1484.43C1023.13 1453.18 1022.42 1428.51 1017.34 1409.43C1013.22 1393.9 1012.88 1384.2 1016.28 1378.45C1020.56 1371.21 1027.23 1368.06 1038.47 1367.98L1046.01 1367.93L1049.63 1375.18ZM998.6 1404.56C1005.73 1411.34 1009.64 1426.24 1009.7 1446.93C1009.77 1470.17 1003.23 1492.37 990.588 1511.84C983.141 1523.3 983.19 1528.91 990.82 1538.23C992.854 1540.71 994.948 1544.24 995.475 1546.07C996.86 1550.91 996.616 1564.89 994.944 1576.43C994.147 1581.93 993.481 1590.94 993.464 1596.47C993.411 1613.1 996.883 1622.48 1007.6 1634.61C1017.75 1646.11 1020.06 1654.64 1014.75 1660.96C1010.77 1665.69 995.188 1677.42 988.994 1680.35C978.1 1685.51 966.648 1686.08 959.741 1681.81C957.793 1680.6 955.48 1677.68 953.864 1674.38C951.372 1669.28 951.18 1667.9 950.913 1653.18C950.605 1636.25 950.247 1634.37 942.47 1608.93C937.131 1591.45 935.669 1580.27 937.411 1570.22C938.154 1565.93 938.837 1556.35 938.929 1548.93C939.18 1528.7 942.047 1519.62 958.505 1486.93C973.456 1457.22 979.228 1438.78 981.012 1414.99C981.622 1406.85 982.055 1405.21 984.151 1403.11C987.503 1399.76 994.259 1400.44 998.6 1404.56ZM1701.43 1427.09C1679.53 1428.94 1656.57 1433.47 1640.69 1439.06C1606.68 1451.03 1586.19 1470.25 1577.55 1498.28C1574.12 1509.38 1574.81 1509.93 1581.26 1501.26C1592.38 1486.29 1608.22 1473.34 1626.13 1464.55C1641.31 1457.1 1655.1 1452.54 1680.93 1446.42C1715.95 1438.13 1731.53 1433.58 1742.59 1428.43L1747.93 1425.95L1729.93 1426.07C1720.03 1426.15 1707.21 1426.6 1701.43 1427.09ZM1355.43 1442.37C1364.53 1445.9 1376.03 1449.08 1396.93 1453.86C1428.06 1460.98 1432.62 1462.11 1445.44 1465.93C1474.75 1474.66 1495.77 1486.27 1512.42 1502.91C1515.72 1506.22 1518.43 1508.56 1518.43 1508.11C1518.43 1507.67 1516.56 1504.18 1514.27 1500.36C1499.21 1475.26 1477.87 1458.41 1449.93 1449.58C1430.92 1443.57 1411.01 1441.17 1373.43 1440.37L1348.93 1439.85L1355.43 1442.37ZM1705.93 1475.32C1697.68 1477.67 1684.74 1481.3 1677.18 1483.39C1669.62 1485.49 1663.43 1487.51 1663.43 1487.89C1663.43 1489.19 1670.89 1491.02 1678.56 1491.61C1687.74 1492.31 1696.57 1489.99 1705.98 1484.4C1712.83 1480.32 1724.28 1470.89 1722.26 1470.99C1721.53 1471.03 1714.18 1472.98 1705.93 1475.32ZM1345.43 1480.97C1345.43 1482.3 1356.68 1489.26 1362.87 1491.76C1371.45 1495.23 1384.99 1497.75 1399.28 1498.54C1414.05 1499.36 1414.4 1498.64 1402.04 1492.89C1391.22 1487.86 1381.85 1485.38 1364.43 1482.93C1356.46 1481.81 1348.92 1480.74 1347.68 1480.55C1346.44 1480.36 1345.43 1480.55 1345.43 1480.97ZM2303.76 1552.27C2314.23 1558.97 2339.13 1572.27 2371.67 1588.54C2485.59 1645.52 2502.07 1664.11 2520.83 1756.93C2531.13 1807.91 2534.34 1842.9 2536.93 1932.43C2539.26 2012.86 2541.33 2044.82 2547 2087.37C2551.19 2118.77 2556.55 2144.49 2562.43 2161.43C2570.82 2185.54 2575.06 2209.03 2579.96 2258.43C2581.38 2272.73 2584.09 2296.13 2585.97 2310.43C2587.86 2324.73 2590.33 2343.63 2591.47 2352.43C2602.68 2439.08 2611.19 2485.27 2625.45 2536.93C2653.85 2639.78 2661.25 2710.14 2651.42 2783.93C2646.72 2819.25 2644.43 2854.46 2644.43 2891.51C2644.43 2902 2644.04 2909.93 2643.52 2909.93C2641.82 2909.93 2631.29 2897.49 2627.42 2890.93C2620.11 2878.51 2617.52 2864.23 2619.4 2846.56C2619.97 2841.13 2622.68 2827.41 2625.41 2816.06C2633.09 2784.14 2633.84 2778.63 2633.89 2753.43C2633.92 2736.66 2633.5 2728.81 2632.11 2720.43C2624.46 2674.31 2605.76 2633.23 2565.64 2574.43C2547.51 2547.85 2532.79 2534.45 2515.43 2528.73C2510.56 2527.13 2505.67 2526.49 2495.93 2526.18C2475.05 2525.53 2464.33 2528.54 2423.88 2546.44C2325.11 2590.15 2262.9 2629.25 2213.93 2678.4C2195.43 2696.97 2175.19 2721.79 2161.32 2742.94L2159.7 2745.41L2158.51 2739.92C2152.94 2714.14 2156.16 2685.39 2167.04 2663.66C2177.2 2643.34 2191.59 2628.33 2224.43 2603.77C2321.46 2531.18 2402.91 2490.37 2488.49 2471.46C2506.39 2467.5 2529.42 2461.22 2530.8 2459.91C2532.07 2458.71 2516.06 2451.28 2507.93 2449.3C2498.56 2447.01 2476.42 2447.01 2462.99 2449.3C2451.26 2451.3 2431.73 2455.88 2419.58 2459.49C2393.05 2467.38 2343.04 2485.24 2301.01 2501.84C2291.15 2505.73 2282.97 2508.8 2282.83 2508.66C2282.69 2508.52 2283.21 2505.07 2283.98 2501C2286.82 2486.09 2296 2471.45 2316.91 2448.43C2377.75 2381.44 2421.35 2304.1 2441.43 2227.52C2449.44 2197.01 2452.74 2177.43 2452.85 2159.93C2452.93 2147.87 2450.95 2130.93 2449.47 2130.93C2449.07 2130.93 2448.17 2133.51 2447.47 2136.68C2445.68 2144.74 2438.37 2168.36 2433.62 2181.43C2419.63 2219.94 2397.26 2263.33 2368.05 2308.64C2352.93 2332.09 2341.31 2348.87 2304.5 2400.42C2251.72 2474.33 2227.65 2511.44 2206.37 2551.64C2200 2563.68 2199.44 2563.46 2198.7 2548.56C2198.11 2536.78 2199.95 2525.21 2204.47 2512.15C2206.06 2507.55 2214.99 2488.41 2224.31 2469.61C2300.1 2316.75 2354.13 2162.66 2411.83 1934.85C2427.14 1874.44 2428.18 1867.98 2424.91 1854.1C2421.82 1840.99 2422.39 1840.02 2408.44 1882.02C2397.01 1916.43 2383.26 1955.2 2373 1981.93C2362.42 2009.47 2355.39 2027.48 2342.73 2059.43C2336.41 2075.38 2326.15 2101.25 2319.94 2116.93C2289.71 2193.19 2276.01 2229.33 2258.92 2277.93C2254.37 2290.85 2250.26 2301.42 2249.79 2301.41C2248.3 2301.39 2244.22 2289.71 2243.7 2283.94C2242.97 2275.93 2247.12 2261.5 2254.87 2245.04C2259.58 2235.06 2261.99 2228.35 2263.92 2219.93C2275.69 2168.57 2289.39 2131.03 2329.55 2040.14C2341.12 2013.95 2352.86 1987.11 2355.65 1980.48C2385.72 1908.88 2399.73 1861.24 2406.52 1807.43C2409.85 1781.1 2409.53 1741.49 2405.81 1717.54C2405 1712.27 2404.45 1713.35 2398.01 1732.93C2392.77 1748.84 2388.89 1762.15 2378.92 1798.43C2364.03 1852.57 2354.75 1879.91 2341.94 1907.43C2336.99 1918.05 2325.34 1939.16 2324.75 1938.57C2324.55 1938.38 2325.28 1933.54 2326.37 1927.82C2335.26 1881.01 2339.42 1836.27 2339.42 1787.43C2339.42 1715.89 2330.2 1653.93 2309.38 1585.43C2304.99 1571.01 2299.83 1555.33 2297.93 1550.68C2296.93 1548.22 2297.8 1548.46 2303.76 1552.27ZM1070.93 1762.38C1041.77 1769.14 1010.68 1786.67 988.815 1808.69C976.497 1821.09 968.248 1834.07 964.837 1846.43C962.184 1856.03 962.794 1855.76 978.87 1840.18C1004.72 1815.12 1030.91 1794.21 1063.43 1772.67C1078.61 1762.62 1082.58 1759.81 1081.38 1760C1081.13 1760.03 1076.43 1761.11 1070.93 1762.38ZM1111.62 1793.87C1064.56 1821.87 1029.3 1867.38 1016.3 1916.93C1013.23 1928.62 1012.97 1953.35 1015.82 1962.43L1017.7 1968.43L1020.1 1955.43C1025.64 1925.49 1035.31 1900.63 1050.05 1878.43C1058.22 1866.13 1066.13 1856.17 1111.68 1800.78C1117.05 1794.26 1121.1 1788.93 1120.68 1788.93C1120.27 1788.93 1116.19 1791.15 1111.62 1793.87ZM1468.33 2595.68C1455.46 2612.42 1423.53 2645.72 1403.43 2663.36C1349 2711.12 1299.33 2741.22 1215.93 2776.96C1176.34 2793.93 1137.45 2810.56 1124.43 2816.08C1051.73 2846.94 979.992 2870.34 924.432 2881.34C896.559 2886.85 890.448 2887.36 850.932 2887.39C809.142 2887.43 806.424 2887.06 789.065 2879.04C774.739 2872.43 757.766 2860.1 753.317 2853.08C746.458 2842.27 752.638 2824.99 765.799 2818.19C773.135 2814.4 782.699 2814.52 800.432 2818.63C863.13 2833.17 939.69 2837.15 988.432 2828.4C1024.86 2821.86 1061.69 2809.35 1101.93 2789.85C1137.98 2772.38 1202.27 2735.05 1211.59 2726.19C1217.11 2720.93 1217.88 2720.57 1244.09 2710.99C1289.99 2694.22 1317.15 2682.9 1351.27 2666.34C1393.1 2646.03 1431.85 2622.74 1459.93 2601.01C1469.68 2593.47 1470.36 2593.04 1468.33 2595.68ZM2471.05 2613.46C2519.82 2621.85 2556.59 2650.09 2572.55 2691.4C2578.87 2707.77 2582.99 2730.3 2589.91 2786.43C2592.42 2806.78 2594.75 2824.94 2595.09 2826.78L2595.7 2830.15L2592.81 2828.32C2586.19 2824.15 2577.62 2817.07 2567.59 2807.51C2561.73 2801.92 2554.48 2795.41 2551.48 2793.05C2545.8 2788.57 2534.91 2782.59 2533.39 2783.12C2532.9 2783.29 2539.95 2794.68 2549.04 2808.43C2582.38 2858.84 2600.32 2892.44 2611.75 2925.93C2618.23 2944.87 2631.08 2991.24 2641.28 3032.43C2647.06 3055.76 2658.45 3105.71 2658.41 3107.52C2658.38 3108.59 2657.45 3107.44 2644.49 3090.32C2618.91 3056.53 2594.56 3016.85 2549.93 2936.22C2535.44 2910.04 2529.7 2900.5 2529.08 2901.59C2527.55 2904.31 2527.07 2926.4 2528.37 2934.43C2530.78 2949.41 2535.31 2960.31 2558.07 3005.93C2577.93 3045.74 2604.69 3092.14 2648.6 3162.93C2654.91 3173.1 2666.06 3191.33 2673.37 3203.43C2704.55 3255 2722.99 3278.88 2749.64 3302.19C2762.96 3313.84 2774.09 3320.96 2809.43 3340.44C2838.53 3356.48 2867.34 3373.16 2881.73 3382.3C2947.26 3423.92 2985.44 3472.51 3001.45 3534.65C3004.48 3546.4 3006.17 3559.57 3005.03 3562.53C3004.54 3563.81 3002.2 3560.42 2996.36 3549.99C2978.05 3517.27 2955.04 3486.95 2915.97 3444.07C2876.09 3400.28 2845.27 3378.2 2804.26 3364.02C2774.36 3353.69 2752.05 3344.26 2722.43 3329.43C2667.6 3301.98 2626.71 3275.49 2515.43 3195.33C2489.34 3176.53 2462.23 3157.69 2451.78 3151.09C2439.65 3143.43 2429.36 3137.66 2428.81 3138.22C2428.37 3138.66 2451.6 3160.01 2470.92 3176.93C2545.67 3242.35 2632.21 3304.24 2741.43 3370.39C2754.91 3378.54 2767.28 3386.05 2768.93 3387.06L2771.93 3388.89L2769.29 3388.91C2760.16 3388.97 2703.34 3380.39 2677.08 3374.99C2551.3 3349.12 2459.66 3295.08 2395.2 3208.77C2382.51 3191.77 2373.91 3178.16 2353.96 3143.43C2320.41 3085.06 2305.73 3063.79 2281.93 3039.1C2249.21 3005.15 2213.96 2984.72 2174.36 2976.76C2159.03 2973.67 2127.37 2973.42 2111.93 2976.27C2091.24 2980.08 2071.05 2986.06 2059.93 2991.68C2047.27 2998.07 2034.72 3008.82 2020.18 3025.72C2015.78 3030.83 2011.97 3034.79 2011.7 3034.53C2010.78 3033.61 2008.59 3021.42 2007.9 3013.38C2007.05 3003.49 2008.79 2989.16 2012.04 2979.18C2021.9 2949 2051.06 2920.05 2078.74 2912.98C2100.61 2907.39 2118.16 2910.05 2161.72 2925.55C2185.78 2934.12 2200.23 2938.46 2201.24 2937.45C2202.28 2936.4 2186.83 2921.98 2179.43 2917.09C2163.69 2906.7 2140.09 2897.48 2120.2 2893.95C2107.25 2891.65 2098.47 2891.24 2086.43 2892.36C2078.03 2893.15 2077.9 2893.12 2075.43 2890.46C2073.17 2888.01 2072.94 2886.97 2073.02 2879.59C2073.15 2866.63 2075.89 2859.86 2083.48 2853.76C2088.91 2849.39 2096.11 2848.26 2109.16 2849.74C2135.52 2852.71 2158.65 2859.76 2184.56 2872.74C2205.09 2883.02 2217.93 2890.93 2235.54 2904.1C2276.78 2934.97 2309.07 2971.61 2362.71 3048.43C2383.68 3078.45 2394.5 3090.18 2411.65 3101.5C2419.68 3106.79 2421.29 3107.06 2418.62 3102.68C2417.54 3100.89 2411.9 3090.65 2406.1 3079.93C2400.31 3069.2 2387.25 3045.13 2377.09 3026.43C2366.93 3007.73 2358.78 2992.26 2358.97 2992.07C2359.41 2991.61 2372.2 3002 2383.93 3012.35C2388.88 3016.72 2418.13 3045.32 2448.93 3075.92C2479.73 3106.51 2510.11 3135.96 2516.43 3141.37C2543.98 3164.9 2570.12 3182.72 2596.46 3195.94L2606.54 3201L2605.9 3197.21C2601.68 3171.86 2590.88 3150.46 2569.93 3125.89C2553.68 3106.83 2444.77 3004.26 2381.43 2948.37C2352.94 2923.22 2349.89 2920.68 2336.43 2910.73C2290.6 2876.84 2238.86 2853.03 2169.64 2833.97C2145.36 2827.29 2141.43 2825.15 2141.43 2818.6C2141.43 2809.04 2162.47 2789.85 2183.91 2779.84C2202.41 2771.2 2219.29 2767.56 2240.93 2767.55C2257.41 2767.54 2268.62 2769.17 2281.93 2773.51C2301.28 2779.81 2313.72 2787.46 2329.79 2802.93C2342.86 2815.51 2355.34 2831.85 2368.86 2854.09C2389.04 2887.29 2402.51 2906.68 2417.39 2923.97C2429.11 2937.57 2455.71 2965.99 2456.23 2965.46C2456.5 2965.19 2456.27 2964.4 2455.72 2963.7C2452.25 2959.25 2437.2 2923.61 2421.39 2882.43C2405.92 2842.1 2392.59 2812.67 2381.58 2794.54C2379.3 2790.79 2377.43 2787.58 2377.43 2787.41C2377.43 2785.91 2408.42 2795.09 2423.01 2800.92C2451.79 2812.42 2487.9 2833.78 2514.6 2855.1C2527.33 2865.26 2560.73 2898.55 2569.19 2909.52C2578.24 2921.24 2583.02 2923.18 2589.76 2917.89C2595.26 2913.55 2594.86 2906.11 2588.65 2897.43C2586.68 2894.68 2582.6 2888.83 2579.58 2884.43C2545.66 2834.99 2501.24 2798.39 2444.72 2773.34C2420.77 2762.73 2389.74 2752.41 2364.93 2746.81C2359.98 2745.69 2347.38 2743.45 2336.93 2741.83C2326.48 2740.2 2317.2 2738.65 2316.31 2738.37C2315.41 2738.1 2310.76 2737.24 2305.98 2736.46C2296.45 2734.92 2292.85 2733.15 2291.39 2729.31C2288.38 2721.4 2291.59 2717.88 2308.64 2710.45C2331.3 2700.56 2343.35 2696.82 2363.97 2693.29C2378.87 2690.74 2409.15 2690.98 2424.67 2693.77C2473.26 2702.53 2513.14 2725.58 2540.7 2760.85C2546.82 2768.69 2547.43 2768.54 2547.42 2759.26C2547.38 2704.16 2483.51 2663.54 2367.62 2644.9C2360.59 2643.77 2360.37 2643.65 2361.98 2641.87C2365.11 2638.41 2380.1 2628.96 2389.53 2624.49C2399.74 2619.66 2412.36 2615.75 2424.93 2613.52C2435.89 2611.58 2459.96 2611.55 2471.05 2613.46ZM2020.36 2668.62C1986.54 2715.98 1971 2735.1 1943.43 2763.27C1898.24 2809.46 1849.97 2848.55 1762.72 2909.58C1645.58 2991.53 1521.65 3039.3 1387.27 3054.33C1301.08 3063.96 1220.99 3060.61 1101.43 3042.38C1071.58 3037.82 964.526 3019.95 933.932 3014.41C881.706 3004.95 862.548 3002.68 834.932 3002.69C798.879 3002.7 774.94 3007.37 753.034 3018.69C742.827 3023.96 732.284 3031.99 724.789 3040.21C719.663 3045.83 711.432 3057.4 711.432 3058.99C711.432 3059.45 712.669 3059.41 714.182 3058.9C725.044 3055.28 772.284 3047.55 794.432 3045.77C815.677 3044.07 853.389 3045.27 873.932 3048.3C896.458 3051.63 909.323 3053.68 918.432 3055.38C922.557 3056.15 931.332 3057.74 937.932 3058.92C944.531 3060.09 955.557 3062.12 962.432 3063.43C1005.71 3071.67 1069.63 3081.22 1122.43 3087.34C1180.05 3094.01 1228.02 3096.92 1280.14 3096.93C1374.91 3096.93 1447.36 3086.69 1538.43 3060.42C1623.63 3035.85 1706.86 2998.9 1774.93 2955.43C1850.75 2907.01 1917.9 2846.76 1979.99 2771.42C2009.17 2736.02 2024.32 2708.69 2032.47 2676.79C2034.65 2668.22 2037.88 2647.04 2037.11 2646.27C2036.86 2646.02 2029.32 2656.07 2020.36 2668.62ZM869.525 2710.25C871.949 2711.53 874.607 2713.83 875.432 2715.35C876.887 2718.04 876.828 2718.2 873.504 2720.78C866.193 2726.43 864.432 2728.65 864.432 2732.19C864.432 2736.65 865.837 2737.81 878.463 2743.81C901.166 2754.6 921.454 2758.94 958.447 2760.95C990.964 2762.72 1025.22 2760.39 1085.43 2752.31C1121.23 2747.51 1133.79 2745.95 1134.12 2746.28C1134.69 2746.86 1106.71 2759.86 1093.53 2765.14C1056.63 2779.93 1020.46 2788.99 978.106 2794.07C962.982 2795.89 954.645 2796.25 928.432 2796.24C894.41 2796.23 874.63 2794.66 843.676 2789.5C815.779 2784.85 808.355 2782.33 805.582 2776.55C803.636 2772.49 805.955 2767.14 813.682 2757.83C820.312 2749.85 825.891 2742.55 839.65 2723.85C846.318 2714.78 849.118 2711.79 852.549 2710.1C858.25 2707.27 863.986 2707.33 869.525 2710.25ZM2133.13 2754.43C2135.48 2765.54 2134.56 2776.92 2130.62 2785.33C2126.63 2793.86 2117.82 2802.67 2107.33 2808.63C2095.58 2815.3 2095.82 2815.53 2101.5 2802.78C2104.29 2796.54 2111.58 2780 2117.72 2766.03L2128.87 2740.63L2130.26 2744.03C2131.02 2745.9 2132.31 2750.58 2133.13 2754.43ZM2172.04 3002.77C2193.87 3007.8 2213.03 3016.97 2233.43 3032.17C2244.47 3040.39 2275.03 3070.56 2284.85 3082.93C2307.22 3111.09 2323.05 3142.52 2330.33 3173.23C2343.13 3227.23 2330.91 3283.62 2294.85 3336.93C2290.2 3343.8 2281.97 3355.5 2276.57 3362.93C2271.17 3370.35 2256.92 3390.83 2244.91 3408.43C2214.32 3453.24 2215.08 3452.18 2211.43 3454.68C2207.18 3457.57 2199.28 3457.74 2194.83 3455.03C2190.43 3452.34 2188.02 3447.88 2184.78 3436.43C2182.2 3427.26 2181.96 3425.05 2181.99 3409.93C2182.02 3394.73 2182.23 3392.8 2184.7 3385.43C2191.75 3364.39 2203.44 3351.23 2232.24 3331.93C2238.39 3327.8 2243.43 3324.15 2243.43 3323.82C2243.43 3323.48 2240.87 3321.51 2237.75 3319.43C2210.93 3301.63 2210.23 3284.35 2235.19 3256.18C2239.39 3251.43 2241.15 3248.78 2240.27 3248.49C2239.53 3248.24 2234 3246.42 2227.97 3244.44C2178.98 3228.35 2158.09 3198.24 2162.39 3149.93C2163.83 3133.79 2166.49 3119.35 2173.8 3087.93C2176.8 3075 2179.57 3062.9 2179.96 3061.03L2180.65 3057.64L2174.4 3062.03C2161.64 3070.98 2151.39 3085.41 2146.53 3101.28C2139.74 3123.46 2139.72 3164.07 2146.5 3190.43C2153.02 3215.79 2170.46 3241.8 2191.69 3257.83C2198.03 3262.62 2201.86 3269.14 2202.97 3277.06C2203.69 3282.13 2202.4 3292.04 2199.43 3304.43C2198.37 3308.83 2196.79 3316.7 2195.91 3321.93C2192.79 3340.4 2185.1 3351.05 2169.19 3358.89C2157.78 3364.52 2149.09 3366.19 2131.43 3366.18C2115.8 3366.16 2106.14 3364.77 2077.22 3358.39C2068.58 3356.49 2060.44 3354.93 2059.12 3354.93H2056.72L2056.04 3374.18C2052.36 3477.43 2043.29 3526.32 2017.93 3579.65L2012.33 3591.43L2010.39 3588.93C2006.71 3584.19 1999.5 3568.41 1996.97 3559.56C1994.99 3552.66 1994.43 3548.44 1994.43 3540.42C1994.43 3524.03 1998.4 3513.66 2011.67 3495.35C2032.61 3466.48 2041.92 3438.77 2043.15 3401.77C2043.99 3376.32 2041.95 3358.8 2033.05 3315.43C2021.17 3257.49 2017.7 3226.44 2018.74 3187.59C2019.74 3150.24 2025.35 3120.85 2037.3 3090.34C2057.75 3038.11 2088.72 3008.66 2131.35 3000.88C2139.37 2999.41 2162.03 3000.47 2172.04 3002.77ZM2711.67 3087.43C2732.95 3120.11 2745.58 3157.15 2747.84 3193.43L2748.46 3203.43L2745.91 3200.43C2741.81 3195.61 2729.9 3170.46 2725.53 3157.43C2723.32 3150.83 2718.77 3134.85 2715.42 3121.93C2710.34 3102.32 2704.45 3081.76 2701.73 3074.13C2700.76 3071.43 2704.59 3076.54 2711.67 3087.43ZM2093.8 3103.43C2091.97 3106.7 2087.57 3120.18 2085.76 3128.07C2083.1 3139.67 2083.4 3169.19 2086.31 3182.93C2095.7 3227.14 2121.02 3264.31 2150.58 3277.3C2155.76 3279.57 2168.49 3283.2 2169.11 3282.58C2169.28 3282.41 2165.53 3279.16 2160.79 3275.35C2118.5 3241.41 2098.75 3193.99 2095.64 3118.93C2095.07 3105.22 2094.67 3101.86 2093.8 3103.43ZM697.932 3114.4C763.924 3123.18 818.666 3149.54 866.336 3195.5C877.016 3205.79 896.382 3227.47 897.338 3230.2C897.561 3230.84 896.436 3230.49 894.838 3229.44C866.263 3210.51 826.583 3193.04 792.932 3184.56C756.266 3175.31 723.823 3171.62 679.432 3171.64C642.854 3171.66 608.549 3174.24 561.533 3180.51C551.414 3181.86 542.981 3182.81 542.793 3182.62C542.234 3182.06 575.28 3149.85 583.932 3142.52C602.804 3126.53 621.193 3117.08 640.773 3113.33C649.924 3111.58 681.083 3112.16 697.932 3114.4ZM648.932 3195.96C691.686 3199.55 739.089 3210.57 789.432 3228.59C807.64 3235.11 840.432 3247.89 840.432 3248.47C840.432 3249.54 833.658 3252.13 824.91 3254.41C816.871 3256.49 812.906 3256.93 801.729 3256.93C782.896 3256.93 775.852 3255.42 732.371 3242.05C713.594 3236.28 699.743 3233.78 688.452 3234.13L678.971 3234.43L687.102 3240.93C695.76 3247.85 703.953 3252.96 722.432 3262.95C736.958 3270.8 748.297 3278.31 755.786 3285.02L761.641 3290.27L752.786 3292.06C741.913 3294.26 735.142 3296.68 720.932 3303.45C696.738 3314.98 688.914 3317.26 673.432 3317.27C657.018 3317.27 648.646 3314.49 625.999 3301.49C605.717 3289.84 587.479 3282.83 565.582 3278.26C554.543 3275.95 550.512 3275.61 533.932 3275.57C518.259 3275.54 512.917 3275.93 503.431 3277.77C497.106 3278.99 491.257 3280.26 490.431 3280.58C488.638 3281.29 488.938 3281.38 512.432 3287.51C522.057 3290.02 534.207 3293.19 539.432 3294.55C562.833 3300.67 589.073 3311.1 604.203 3320.29C607.354 3322.2 611.281 3324.09 612.932 3324.49C618.624 3325.88 626.161 3329.7 627.794 3332.03C630.076 3335.29 629.839 3339.19 627.025 3344.71C624.25 3350.15 620.153 3354.34 616.117 3355.86C610.349 3358.04 605.111 3357.01 582.898 3349.33C536.543 3333.29 525.57 3329.71 514.432 3326.98C481.173 3318.82 453.003 3318.99 427.259 3327.5C420.267 3329.81 419.225 3330.52 415.509 3335.44C413.266 3338.41 411.431 3341.08 411.431 3341.38C411.431 3341.68 420.318 3341.93 431.181 3341.94C491.384 3341.97 531.258 3354.37 566.229 3383.93C572.979 3389.64 588.36 3406.22 590.499 3410.1C591.072 3411.14 585.234 3408.8 575.177 3403.97C549.01 3391.39 526.454 3383.29 485.931 3371.92C473.831 3368.52 458.757 3364.25 452.431 3362.41C434.861 3357.32 425.349 3355.76 408.431 3355.22C384.799 3354.46 366.376 3357.17 305.487 3370.39C296.442 3372.36 288.612 3373.82 288.087 3373.65C286.732 3373.19 299.291 3362.89 309.931 3355.73C320.173 3348.84 341.494 3338.24 358.431 3331.63C388.799 3319.76 401.581 3314.55 408.931 3311.01L416.931 3307.16L412.931 3306.29C410.731 3305.82 403.531 3305.46 396.931 3305.51C382.971 3305.6 376.849 3307.07 354.99 3315.57C340.876 3321.07 326.531 3325.36 325.556 3324.38C324.573 3323.4 337.384 3312.25 349.073 3303.91C400.623 3267.14 497.553 3214.42 531.966 3204.44C542.255 3201.45 566.299 3197.35 580.932 3196.07C595.167 3194.83 634.775 3194.77 648.932 3195.96ZM2058.31 3261.68C2061.46 3267.85 2068.79 3277.23 2076.24 3284.6C2089.01 3297.24 2104.54 3306 2122.31 3310.59C2134.77 3313.81 2154.74 3314.06 2166.43 3311.14L2173.93 3309.28L2165.93 3307.51C2126.5 3298.82 2088.1 3281.67 2061.29 3260.77C2056.5 3257.03 2056.01 3257.18 2058.31 3261.68ZM1624.19 3262.49C1633.42 3266.14 1636.68 3268.7 1636.68 3272.29C1636.68 3275.52 1631.94 3281.84 1628.11 3283.72C1624.92 3285.29 1623.66 3284.7 1617.17 3278.62C1608.95 3270.92 1603.81 3270.2 1598.5 3276.01C1597 3277.66 1594.71 3281.57 1593.42 3284.72C1592.12 3287.86 1587.8 3296.73 1583.81 3304.43C1560.07 3350.26 1549.97 3390.64 1540.93 3475.93C1531.5 3564.89 1529.38 3582.68 1524.43 3613.98C1516.54 3663.95 1505.31 3707.35 1487.58 3756.43C1477.47 3784.4 1463.02 3815.26 1451.31 3833.9L1448.47 3838.43L1448.45 3833.84C1448.44 3831.32 1449.77 3782.5 1451.41 3725.34C1453.05 3668.19 1454.85 3604.78 1455.42 3584.43C1455.98 3564.08 1456.88 3534.38 1457.41 3518.43C1457.94 3502.48 1458.85 3473 1459.45 3452.93C1461.42 3386.22 1462.5 3377.6 1470.98 3360.7C1482.71 3337.32 1495.07 3326.01 1558.93 3280.25C1588.17 3259.3 1589.19 3258.84 1605.93 3259.31C1615.24 3259.57 1618.05 3260.06 1624.19 3262.49ZM1715.58 3286.87C1721.82 3287.94 1733.68 3291.05 1741.93 3293.78C1802.09 3313.72 1845.58 3323.71 1899.93 3330.07C1916.68 3332.03 1924.15 3332.3 1962.93 3332.37C2004.93 3332.45 2007.08 3332.54 2010.23 3334.43C2015.54 3337.62 2017.98 3344.19 2021.03 3363.43C2026.76 3399.63 2024.1 3427.51 2012.77 3450.2C2004.74 3466.27 1999.84 3468.84 1970.43 3472.4C1936.92 3476.46 1899.65 3481.99 1835.43 3492.43C1783.66 3500.85 1759.06 3504.8 1748.43 3506.4C1674.92 3517.46 1641.21 3520.93 1607.67 3520.91C1574.12 3520.89 1568.59 3519.5 1563.68 3509.91C1560.87 3504.41 1560.69 3493.69 1563.01 3470.93C1565.92 3442.38 1572.54 3418.79 1586.73 3386.43C1612.63 3327.35 1615.3 3322.32 1626.6 3311.18C1637.13 3300.79 1648.18 3294.06 1662.26 3289.46C1676.64 3284.75 1697.36 3283.75 1715.58 3286.87ZM838.932 3305.43C841.132 3306.38 846.082 3309.2 849.932 3311.69C860.003 3318.22 864.153 3319.88 870.432 3319.9C874.716 3319.9 877.076 3319.25 881.109 3316.94C883.958 3315.3 886.57 3313.51 886.917 3312.95C887.723 3311.65 892.172 3313.9 895.067 3317.08C900.535 3323.09 898.236 3327.31 888.859 3328.48C885.703 3328.87 868.678 3328.77 851.026 3328.26C820.914 3327.37 818.671 3327.18 814.715 3325.12C809.648 3322.48 808.42 3320.44 808.466 3314.74C808.508 3309.7 810.2 3306.2 813.542 3304.25C816.865 3302.32 833.513 3303.09 838.932 3305.43ZM770.788 3312.5C774.167 3313.37 778.732 3315.13 780.932 3316.42C785.958 3319.36 792.865 3326.42 792.036 3327.76C791.693 3328.31 789.505 3329.85 787.173 3331.19C784.84 3332.52 774.382 3338.78 763.932 3345.09C741.924 3358.39 731.331 3364.13 719.324 3369.25C705.468 3375.17 700.321 3374.28 683.721 3363.12C672.998 3355.92 668.119 3353.38 662.042 3351.85L657.382 3350.68L660.656 3348.22C666.558 3343.8 675.312 3339.92 684.198 3337.79C691.588 3336.02 694.932 3335.78 705.932 3336.23C713.738 3336.55 721.088 3337.43 724.328 3338.43C731.194 3340.54 737.67 3340.8 739.785 3339.05C742.044 3337.17 741.875 3331.63 739.331 3324.09C736.848 3316.74 737.349 3313.49 741.18 3312.09C745.599 3310.48 763.874 3310.73 770.788 3312.5ZM1459.95 3335.1C1406.67 3533.04 1349.83 3658.73 1265.58 3764.93C1252.88 3780.94 1228.8 3808.37 1219.94 3816.93C1214.37 3822.31 1214.54 3821.98 1227.7 3801.93C1272.55 3733.62 1305.11 3667.4 1327.78 3598.43C1333.05 3582.38 1341.42 3553.57 1341.43 3551.45C1341.43 3549.71 1338.92 3553.99 1321.43 3585.43C1280.64 3658.77 1263.24 3687 1239.96 3717.66C1227.95 3733.48 1225.03 3737.03 1225.77 3734.93C1226.06 3734.1 1229.3 3726.9 1232.97 3718.93C1246.49 3689.56 1266.69 3637.23 1287.77 3576.93C1314.19 3501.37 1333.49 3452.78 1351.07 3417.59C1364.12 3391.44 1374.75 3376.37 1392.83 3358.39C1406.22 3345.08 1418.81 3336.02 1434.44 3328.48C1443.4 3324.15 1463.53 3316.7 1464.27 3317.44C1464.46 3317.62 1462.52 3325.57 1459.95 3335.1ZM1118.93 3339.94C1144.09 3341.99 1171.21 3347.6 1199.01 3356.48L1213.08 3360.99L1197.51 3392.22C1181.98 3423.35 1176.14 3435.75 1144.4 3504.93C1095.65 3611.15 1073.25 3654.87 1040.88 3706.93C1012.57 3752.45 974.339 3801.66 948.096 3826.34C945.805 3828.5 940.781 3833.25 936.932 3836.9C933.082 3840.56 924.757 3847.84 918.432 3853.08C862.296 3899.62 795.993 3931.64 716.799 3950.45C706.422 3952.91 697.34 3954.93 696.616 3954.93C694.549 3954.93 703.734 3943.9 714.302 3933.7C731.167 3917.41 742.561 3909.94 779.595 3890.88C832.876 3863.45 865.265 3840.67 901.695 3805C928.867 3778.39 947.737 3754.93 968.008 3722.56C978.31 3706.11 995.717 3672.1 1003.39 3653.43C1013.89 3627.86 1026.67 3588.49 1029.75 3572.18C1031.09 3565.11 1031.07 3564.89 1028.63 3560.79L1026.14 3556.62L1007.38 3594.52C981.847 3646.13 968.937 3668.73 950.83 3693.54C939.471 3709.1 933.462 3716.19 920.106 3729.79C907.431 3742.7 898.63 3750.32 885.825 3759.49C875.502 3766.88 856.544 3778.37 855.844 3777.67C855.58 3777.41 857.152 3774.93 859.337 3772.17C864.937 3765.08 883.106 3738.23 889.949 3726.93C904.6 3702.72 921.399 3671.65 942.128 3630.43C966.33 3582.29 988.948 3540.88 999.588 3525.25C1001.15 3522.95 1002.43 3520.7 1002.42 3520.25C1002.41 3519.8 1000.78 3518.37 998.796 3517.09C995.801 3515.15 994.973 3514.97 993.949 3516.09C993.27 3516.82 979.958 3534.98 964.367 3556.43C905.854 3636.93 885.78 3663.13 846.393 3710.43C751.265 3824.65 659.371 3908.66 562.432 3970.03C531.953 3989.33 512.563 3998.56 489.431 4004.8C461.891 4012.22 427.714 4009.44 405.431 3997.96C396.382 3993.29 391.446 3990.46 391.468 3989.93C391.479 3989.65 399.238 3986.06 408.71 3981.96C462.862 3958.46 519.878 3926.15 559.987 3896.22C603.164 3864 643.373 3822.92 671.281 3782.51C674.667 3777.61 677.245 3773.41 677.01 3773.17C676.378 3772.54 665.216 3779.24 654.932 3786.43C649.982 3789.89 636.707 3800 625.432 3808.9C603.01 3826.59 587.285 3837.51 574.932 3843.95L566.932 3848.12L570.432 3844.86C645.359 3775.21 681.619 3734.01 715.615 3679.93C753.961 3618.91 784.219 3579.93 821.564 3543.43C843.789 3521.7 862.063 3506.63 885.233 3490.93C898.967 3481.62 901.419 3478.11 899.807 3470.05C899.018 3466.1 898.292 3466.12 886.151 3470.36C859.948 3479.52 837.859 3495.43 802.828 3530.37C775.244 3557.89 760.711 3575.57 718.956 3632.43C693.599 3666.95 676.642 3688.97 665.497 3701.84C636.195 3735.68 605.698 3763.84 566.664 3793.12C548.685 3806.6 512.431 3831.26 511.684 3830.51C511.107 3829.94 590.588 3734.84 617.898 3703.43C629.852 3689.68 651.621 3664.48 666.272 3647.43C742.349 3558.89 784.148 3513.32 823.293 3476.23C904.683 3399.1 957.871 3364.75 1021.24 3348.36C1053.06 3340.14 1086.28 3337.27 1118.93 3339.94ZM1342.85 3350.37C1352.15 3351.74 1360.12 3353.21 1360.56 3353.65C1360.99 3354.09 1358.17 3359.84 1354.29 3366.44C1324 3417.88 1301.34 3464.68 1286.98 3505.43C1272.13 3547.58 1267.72 3559.62 1260.93 3576.46C1230.88 3651.04 1197.73 3709.87 1157.56 3759.93C1147.9 3771.95 1118.93 3801.1 1106.24 3811.57C1094.09 3821.58 1077.12 3833.7 1063.3 3842.23C1051.69 3849.4 1029.54 3861.38 1028.98 3860.79C1028.79 3860.59 1032.66 3855.7 1037.59 3849.93C1087.64 3791.26 1130.77 3715.69 1171.11 3615.93C1180.9 3591.71 1197.6 3547.76 1197.18 3547.34C1196.73 3546.89 1185.86 3564.49 1157.77 3611.14C1125.03 3665.53 1113.08 3683.98 1094.1 3709.43C1084.12 3722.79 1072.37 3737.19 1071.85 3736.68C1071.66 3736.49 1073.34 3732.53 1075.58 3727.88C1087.62 3702.87 1113.36 3642.91 1139.96 3577.93C1166.26 3513.68 1176.62 3489.41 1193.94 3451.43C1205.5 3426.07 1222.05 3393.31 1227.11 3385.77C1235.96 3372.57 1247.37 3361.98 1259.11 3356.06C1264.63 3353.28 1279.2 3349.1 1287.39 3347.95C1297.88 3346.48 1324.12 3347.62 1342.85 3350.37ZM821.504 3354.47C823.939 3355.31 826.832 3356.7 827.932 3357.55C829.911 3359.08 829.906 3359.12 827.456 3360.76C820.7 3365.3 793.077 3387.62 778.432 3400.38C753.212 3422.35 732.051 3444.62 681.949 3501.93C611.997 3581.94 594.758 3601.43 545.086 3656.67C485.419 3723.03 443.68 3762.05 385.931 3805.44C329.982 3847.49 269.641 3882.52 206.932 3909.37C195.932 3914.08 181.484 3920.69 174.825 3924.05L162.717 3930.18L161.075 3935.39C160.171 3938.26 159.432 3940.81 159.432 3941.06C159.432 3941.56 159.952 3941.53 177.932 3939.9C216.999 3936.35 261.886 3924.07 303.931 3905.43C332.636 3892.7 377.121 3867.39 411.431 3844.27C420.236 3838.34 420.6 3838.18 416.401 3842.15C338.32 3915.87 324.546 3927.86 296.431 3946.63C265.794 3967.08 227.08 3982.85 207.364 3982.91C198.802 3982.93 191.604 3980.29 156.432 3964.17C131.447 3952.72 113.441 3944.58 93.7655 3935.85C81.3035 3930.32 69.2255 3924.5 66.9245 3922.92C57.6915 3916.57 51.2755 3905.72 47.5755 3890.2C29.4965 3814.38 25.1015 3786.57 23.5345 3738.12C20.9715 3658.82 29.6185 3613.07 53.9055 3577.43C90.3335 3523.96 142.82 3473.99 206.932 3431.72C240.924 3409.31 253.9 3402.93 265.469 3402.93C268.198 3402.93 270.431 3403.13 270.431 3403.39C270.431 3403.64 267.737 3408.22 264.445 3413.57C261.152 3418.91 258.618 3423.45 258.812 3423.64C259.828 3424.66 269.065 3421.5 273.661 3418.56C291.348 3407.26 313.738 3398.56 355.417 3386.78C367.25 3383.44 381.431 3379.37 386.931 3377.74C405.534 3372.21 422.418 3372.92 441.701 3380.03C445.978 3381.6 459.48 3387.92 471.704 3394.06C483.93 3400.21 497.531 3406.76 501.931 3408.63L509.931 3412.01L503.431 3411.49C440.023 3406.42 402.34 3409.62 362.315 3423.5C316.448 3439.4 278.242 3470.01 249.031 3514.24C244.945 3520.43 239.029 3530.43 235.883 3536.46L230.165 3547.43L234.945 3541.93C278.302 3492.03 333.82 3465.34 405.629 3459.86C413.495 3459.26 433.431 3458.92 449.931 3459.1C477.797 3459.4 480.173 3459.57 483.326 3461.43C488.122 3464.25 490.569 3467.96 491.174 3473.34C491.668 3477.72 491.479 3478.19 487.775 3481.7C485.617 3483.75 480.763 3486.69 476.987 3488.23C473.211 3489.77 462.801 3495.51 453.85 3500.98C444.901 3506.44 420.582 3521.1 399.809 3533.55C318.458 3582.29 287.871 3603.48 241.938 3642.93C220.979 3660.92 217.016 3665.46 214.604 3674.25C213.799 3677.18 213.831 3677.86 214.743 3677.17C215.855 3676.33 229.885 3667.13 245.932 3656.72C288.26 3629.27 344.914 3596.43 406.431 3563.67C442.596 3544.41 470.35 3530.2 539.932 3495.29C669.832 3430.12 727.499 3399.82 787.953 3364.99C810.778 3351.83 812.434 3351.31 821.504 3354.47ZM665.776 3374.9C677.547 3376.82 682.733 3381.36 682.858 3389.84C682.923 3394.21 682.508 3395.25 679.432 3398.45C671.311 3406.9 660.031 3411.21 645.932 3411.24C635.337 3411.27 628.362 3409.4 620.39 3404.39C606.51 3395.67 604.584 3378.69 617.051 3374.96C621.024 3373.77 658.604 3373.72 665.776 3374.9ZM2099.22 3384.52C2104.21 3386.55 2105.84 3391.31 2104.49 3399.98C2102.83 3410.67 2103.24 3437.09 2105.53 3467.53C2108.16 3502.45 2107.76 3522.76 2104.03 3544.04C2098.7 3574.41 2096.99 3578.57 2083.88 3592.98C2073.68 3604.19 2068.01 3612.54 2061.02 3626.61C2056.77 3635.19 2048.96 3654.75 2045.74 3664.93C2045 3667.25 2037.96 3658.63 2033.88 3650.43C2025.12 3632.8 2025.85 3614.52 2036.35 3588.44C2041.73 3575.05 2045.9 3569.32 2052.93 3565.65C2058.25 3562.88 2067.78 3562.97 2075.93 3565.89C2085.67 3569.38 2085.85 3569.41 2084.9 3567.83C2084.43 3567.06 2082.62 3564.38 2080.87 3561.87C2074.07 3552.12 2065.43 3536.06 2062.88 3528.43C2059.79 3519.18 2057.14 3497.58 2057.63 3485.7C2057.89 3479.24 2058.32 3477.59 2060.22 3475.7C2063.81 3472.11 2071.72 3472.64 2082.86 3477.22C2087.77 3479.24 2091.95 3480.75 2092.13 3480.56C2092.62 3480.07 2086.59 3463.54 2080.54 3448.75C2074.99 3435.16 2072.48 3425.44 2072.45 3417.43C2072.43 3408.92 2074.52 3394.63 2076.42 3390.26C2079.75 3382.64 2088.93 3380.33 2099.22 3384.52ZM2140.78 3402.93C2142.74 3411.45 2146.18 3428.78 2148.43 3441.43C2155.58 3481.66 2157.56 3492.16 2160.13 3503.43C2164.18 3521.22 2164.34 3522.16 2164.39 3528.22C2164.47 3539.17 2159.9 3555.72 2150.63 3578C2146.14 3588.78 2141.76 3602.04 2134.94 3625.43C2123.56 3664.47 2112.86 3685.41 2094.98 3703.61C2085.42 3713.35 2080.97 3714.2 2073.81 3707.63C2067.68 3702.01 2065.98 3689.05 2068.88 3669.93C2072.76 3644.38 2084.88 3622.34 2106.59 3601.35C2111.76 3596.35 2119.44 3589.72 2123.65 3586.6C2127.86 3583.49 2132.01 3579.93 2132.87 3578.71C2136.23 3573.91 2133.92 3567.47 2126.75 3561.66C2123.58 3559.09 2122.21 3554.17 2123.47 3549.92C2128.31 3533.54 2129.28 3505.1 2126.53 3460.66C2124.34 3425.46 2124.03 3410.52 2125.31 3402.93C2126.18 3397.79 2135.39 3384.08 2136.55 3386.2C2136.92 3386.87 2138.82 3394.4 2140.78 3402.93ZM2484.93 3403.86C2595.67 3418.99 2687.32 3449.36 2767.93 3497.65C2795.92 3514.42 2817.26 3529.58 2859.93 3563.02C2890.97 3587.34 2917.14 3606.55 2918.02 3605.67C2918.86 3604.83 2909.61 3587.53 2902.66 3576.93C2894.22 3564.04 2888 3556.21 2867.11 3532.16C2858.16 3521.86 2847.56 3509.38 2843.57 3504.43C2834.02 3492.6 2823.12 3476.53 2824.36 3476.12C2826.77 3475.31 2843.05 3484.46 2854.93 3493.3C2870.8 3505.11 2877.99 3508.74 2895.44 3513.76C2911.1 3518.26 2917.85 3521.43 2924.09 3527.18C2929.63 3532.29 2931.94 3536.18 2938.78 3551.98C2941.75 3558.82 2951.61 3579.5 2960.7 3597.93C2969.79 3616.35 2979.29 3636.7 2981.81 3643.16C2998.42 3685.61 3000.63 3717.72 2989.88 3760.15C2975.58 3816.54 2938.57 3870.95 2879.93 3921.79C2854.99 3943.42 2824.98 3963.04 2787.93 3981.94C2762.94 3994.7 2740.45 4002.63 2716.43 4007.17C2699.93 4010.29 2670.73 4010.22 2650.93 4007.01C2641.61 4005.5 2630.58 4004.57 2617.93 4004.22C2599.51 4003.71 2591.41 4004.09 2546.93 4007.55C2521.41 4009.53 2482.51 4009.8 2469.43 4008.08C2460.78 4006.95 2452.11 4005.41 2422.93 3999.87C2417.43 3998.83 2408.21 3997.09 2402.43 3996.01C2357.22 3987.54 2258.31 3968.24 2252.03 3966.66C2248.73 3965.83 2246.45 3964.51 2245.06 3962.64L2242.98 3959.84L2245.21 3953.64C2249.49 3941.68 2248.41 3939.96 2231.74 3932.4C2198.31 3917.23 2161.87 3896.15 2124.93 3870.62C2096.18 3850.74 2071.85 3832.36 2017.43 3789.39C1970.45 3752.28 1956.46 3741.48 1936.43 3726.82C1905.94 3704.5 1855.26 3668.48 1850.18 3665.51C1841.51 3660.45 1839.52 3655.58 1843.46 3649.12C1845.87 3645.16 1852.31 3641.98 1857.99 3641.95C1860.22 3641.94 1864.82 3642.86 1868.22 3644.01C1873.26 3645.71 1875.55 3647.3 1880.66 3652.6C1894.63 3667.08 1929.99 3698.61 1957.93 3721.48C2081.99 3823.03 2224.64 3900.47 2382.93 3952.19C2395.58 3956.32 2408.63 3960.31 2411.93 3961.05C2420.92 3963.07 2444.96 3962.62 2464.42 3960.08C2473.49 3958.9 2483.05 3957.93 2485.67 3957.93C2491.61 3957.93 2491.83 3956.48 2486.77 3950.88C2482.07 3945.67 2480.99 3945.14 2469.5 3942.3C2449.18 3937.27 2385.71 3915.28 2343.2 3898.53C2268.09 3868.95 2195.01 3833.18 2131.93 3795.1C2070.99 3758.33 2014.46 3717.08 1962.43 3671.44C1956.11 3665.89 1948.68 3659.72 1945.93 3657.72C1937.43 3651.54 1934.26 3647.64 1933.78 3642.76C1932.89 3633.75 1937.47 3629.96 1950.61 3628.85C1956.98 3628.31 1962.57 3627.09 1968.26 3624.99C1987.03 3618.07 1997.62 3618.79 2005.32 3627.53C2010.08 3632.94 2012.74 3639.55 2015.94 3653.93C2017.22 3659.7 2019.21 3666.62 2020.37 3669.3C2023.15 3675.77 2030.92 3687.28 2044.33 3704.8C2051.42 3714.07 2057.15 3722.84 2060.46 3729.48C2066.33 3741.26 2069.33 3743.68 2076.65 3742.51C2083.15 3741.47 2087.15 3738.81 2103.99 3724.28C2112.83 3716.66 2120.79 3709.83 2121.69 3709.1C2123.13 3707.92 2123.69 3708.51 2126.5 3714.1C2135.57 3732.18 2143.24 3742.26 2150.88 3746.15C2160.12 3750.87 2173.24 3749.21 2181.3 3742.3C2186.66 3737.72 2189.6 3733.32 2197.92 3717.43C2206.35 3701.34 2209.71 3696.35 2213.43 3694.43C2220.46 3690.79 2225.46 3693.05 2258.93 3715.06C2404.03 3810.46 2504.8 3863.67 2609.93 3900.4C2620.38 3904.05 2633.16 3908.61 2638.33 3910.53C2650.59 3915.08 2658.49 3916.89 2666.21 3916.91C2673.46 3916.93 2674.36 3915.96 2672.58 3910.04C2671.12 3905.15 2668.51 3902.83 2659.43 3898.37C2639.61 3888.63 2467.55 3794.01 2414.43 3763.65C2360.52 3732.83 2293.08 3692.84 2273.43 3680.03C2262.78 3673.1 2253.53 3664.01 2249.88 3656.9C2246.18 3649.71 2245.3 3636.35 2247.92 3627.32C2253.96 3606.47 2263.08 3594.76 2277.22 3589.71C2284.8 3586.99 2302.19 3586.3 2323.58 3587.85C2392.23 3592.83 2453.65 3614.41 2511.93 3654.04C2547.4 3678.15 2576.02 3703.76 2606.81 3738.93C2628.47 3763.67 2640.81 3776.36 2639.88 3772.93C2637.02 3762.43 2619.41 3724.62 2608.86 3706.34C2587.7 3669.67 2558.91 3638.28 2519.29 3608.71C2503.26 3596.74 2498.6 3590.71 2497.63 3580.66C2496.8 3572.07 2502.8 3561.34 2510.13 3558.28C2518.07 3554.96 2524.4 3556.94 2556.87 3572.91C2587.93 3588.19 2623.69 3608.71 2650.93 3626.9C2661.05 3633.66 2661.22 3633.71 2658 3629.38C2646.47 3613.81 2639.83 3606.21 2623.49 3589.84C2599.6 3565.92 2581.96 3551.66 2560.45 3538.89C2549.32 3532.28 2527.6 3521.2 2515.43 3515.92C2494.75 3506.95 2486.69 3501.1 2481.97 3491.63C2476.03 3479.7 2481.56 3467.32 2491.86 3469.49C2498.89 3470.98 2568.3 3504.67 2594.93 3519.52C2633.38 3540.96 2668.71 3564.72 2696.43 3587.76C2723.71 3610.44 2748.84 3638.84 2778.2 3680.18C2783.96 3688.29 2788.9 3694.93 2789.19 3694.93C2790.45 3694.93 2788.07 3676.9 2785.9 3670.02C2783.04 3660.96 2779.6 3655.06 2767.29 3638.15C2739.15 3599.5 2718.41 3574.86 2690.46 3546.85C2650.85 3507.15 2617.03 3481.88 2573.93 3459.79C2539.72 3442.25 2499.18 3428.37 2464.93 3422.45C2453.24 3420.44 2449.77 3419.24 2447.93 3416.63C2444.93 3412.33 2446.75 3405.05 2451.54 3402.25C2454.5 3400.53 2463.81 3400.98 2484.93 3403.86ZM2246.77 3461.68C2243.87 3505.89 2232.83 3555.25 2214.62 3605.43C2210.4 3617.07 2170.09 3717.82 2168.38 3721.02C2167.2 3723.22 2163.41 3724.39 2160.11 3723.56C2156.48 3722.65 2149.89 3715.3 2146.46 3708.34C2141.67 3698.6 2140.14 3689.65 2140.75 3674.93C2141.35 3660.25 2144.06 3649.71 2150.98 3635.07C2156.77 3622.84 2162.64 3614.75 2173.07 3604.67C2187.41 3590.79 2187.9 3587.29 2177.07 3576.14C2171.94 3570.87 2171.93 3570.84 2172.08 3564.64C2172.16 3561.22 2173.73 3552.8 2175.55 3545.93C2178.75 3533.88 2178.88 3532.74 2178.9 3514.43C2178.92 3495.7 2178.87 3495.3 2175.85 3486.93C2174.16 3482.25 2172.41 3477.6 2171.96 3476.6C2171.37 3475.24 2173.84 3476.14 2181.54 3480.08C2190.34 3484.58 2192.92 3485.45 2198.5 3485.76C2208.71 3486.34 2215 3482.55 2235.81 3463.32C2241.38 3458.18 2246.23 3453.96 2246.6 3453.95C2246.97 3453.94 2247.05 3457.41 2246.77 3461.68ZM1429.41 3548.24C1429.2 3629.57 1409.54 3706.9 1367.99 3789.93C1358.24 3809.4 1346.74 3830.62 1340.48 3840.67L1337.62 3845.27L1336.97 3839.85C1336.53 3836.15 1337 3830.62 1338.46 3822.43C1342.52 3799.62 1342.67 3790.48 1339.16 3780.48L1337.77 3776.53L1332.49 3792.48C1301.55 3885.94 1248 3941.85 1166.82 3965.44C1154.6 3968.99 1131.71 3973.46 1114.93 3975.59C1091.1 3978.6 1022.27 3977.77 1006.43 3974.29C1004.46 3973.85 1006.27 3972.9 1014.93 3969.82C1043.69 3959.58 1080.56 3947.62 1095.93 3943.53C1126.2 3935.49 1144.34 3928.9 1167.93 3917.39C1216.58 3893.65 1256.19 3860.69 1290.41 3815.5C1314.11 3784.19 1328.39 3757.84 1358.71 3689.43C1397.94 3600.91 1427.21 3537.67 1428.57 3538.51C1429.04 3538.8 1429.42 3543.18 1429.41 3548.24ZM1708.67 3699.79C1712.42 3701.7 1720.8 3707.95 1728.54 3714.6C1796.47 3773.05 1836.45 3802.95 1879.93 3827.88C1916.15 3848.64 1941.45 3859.32 1987.93 3873.5C1999.34 3876.98 2013.16 3882.58 2035.93 3892.95C2074.66 3910.58 2097.72 3918.53 2118.9 3921.52C2123.26 3922.13 2123.58 3922.33 2121.48 3923.1C2116.86 3924.81 2101.96 3925.74 2093.43 3924.86C2088.76 3924.37 2080.66 3922.82 2075.43 3921.41C2070.21 3920.01 2058.73 3917.27 2049.93 3915.34C2019.86 3908.74 2005.15 3904.82 1981.93 3897.23C1898.48 3869.95 1818.5 3825.58 1710.93 3746.91C1702.13 3740.48 1690.73 3732.62 1685.6 3729.46C1672.25 3721.23 1669.54 3715.55 1675.02 3707.32C1682.83 3695.61 1695.04 3692.88 1708.67 3699.79ZM1565.12 3730.02C1567.84 3731.33 1572.28 3735.33 1577.08 3740.77C1600.36 3767.19 1626.89 3793.32 1654.46 3817C1668.43 3828.99 1694.85 3850.25 1699.71 3853.39C1704.06 3856.21 1702.46 3856.11 1694.38 3853.06C1662.68 3841.11 1627.62 3822.17 1595.43 3799.63C1583.25 3791.09 1556.96 3771.36 1546.94 3763.22C1534.44 3753.07 1533.12 3742.67 1543.21 3733.81C1550.27 3727.61 1557.55 3726.35 1565.12 3730.02ZM1828.45 3736.94C1847.62 3746.61 1876.01 3764.48 1898.86 3781.23C1914.87 3792.97 1977.85 3843.01 1982.43 3847.62C1985.4 3850.61 1953.49 3833.33 1929.3 3818.85C1890.02 3795.33 1845.07 3761.92 1819.52 3737.24L1810.93 3728.94L1816.71 3731.44C1819.89 3732.81 1825.17 3735.28 1828.45 3736.94ZM1414.45 3765.93C1410.02 3825.01 1396.77 3879 1373.95 3930.93C1368.44 3943.48 1355.02 3969.42 1349.22 3978.74C1332.83 4005.09 1312.02 4020.6 1278.48 4031.48C1201.09 4056.58 1115.69 4057.29 1018.93 4033.63L1001.93 4029.48L1020.43 4028.78C1102.66 4025.66 1150.73 4021.5 1197.99 4013.41C1251.82 4004.2 1287.1 3988.13 1315.12 3960.06C1338.12 3937.02 1352.84 3908.73 1363.32 3867.43C1369.54 3842.9 1377.18 3823.44 1398.67 3777.43C1406.63 3760.38 1413.54 3745.3 1414.04 3743.93C1415.57 3739.63 1415.75 3748.7 1414.45 3765.93ZM1532.96 3785.78C1534.63 3786.8 1538.37 3790.56 1541.27 3794.13C1544.17 3797.71 1550.46 3803.98 1555.24 3808.07C1573.33 3823.54 1572.44 3822.92 1641.47 3868.37C1657.8 3879.12 1659.38 3880.4 1657.27 3881.2C1651.68 3883.32 1642.4 3881.53 1629.93 3875.93C1619.02 3871.03 1617.3 3870.55 1610.93 3870.59C1607.08 3870.61 1602.86 3871.07 1601.54 3871.6C1599.29 3872.52 1599.9 3873.17 1612.04 3882.79C1702.09 3954.17 1813.49 3995.53 1972.23 4016.53C1986.29 4018.39 1992.81 4019.61 1991.41 4020.13C1990.25 4020.56 1982.47 4022.13 1974.12 4023.63C1959.83 4026.18 1957.13 4026.35 1928.43 4026.39C1900.94 4026.42 1896.6 4026.2 1884.43 4024.1C1864.31 4020.64 1848.24 4016.51 1825.43 4008.96C1716.69 3972.94 1621.43 3924.21 1540.12 3863C1517.41 3845.9 1509.31 3838.42 1505.86 3831.36C1503.45 3826.44 1503.23 3825.08 1503.64 3817.66C1504.17 3808.05 1507.38 3800.64 1514.54 3792.53C1522.06 3784.01 1527.05 3782.18 1532.96 3785.78Z" fill="black"/>
</svg>
