<svg width="2415" height="2415" viewBox="0 0 2415 2415" fill="none" xmlns="http://www.w3.org/2000/svg">
<g clip-path="url(#clip0_8_6)">
<rect width="2415" height="2415" rx="1207.5" fill="white"/>
<path fill-rule="evenodd" clip-rule="evenodd" d="M1194.78 86.498C1178.99 89.151 1166.28 95.334 1155.27 105.718C1143.55 116.769 1136.32 128.694 1130.31 146.851C1120.43 176.715 1106.65 191.069 1082.66 196.483C1070.56 199.213 1062.98 203.188 1060.27 208.217C1059.61 209.432 1058.75 214.476 1058.34 219.426C1057.94 224.376 1056.44 232.251 1055 236.926C1049.05 256.338 1048.19 260.833 1048.61 270.338C1048.99 279.031 1050.48 283.707 1056.17 294.013C1056.34 294.337 1052.54 294.616 1047.71 294.634C1036.43 294.677 1031.02 296.614 1014.95 306.355C1002.6 313.844 992.983 317.926 987.693 317.926C983.052 317.926 970.486 321.817 962.984 325.578C954.152 330.005 945.729 335.628 932.932 345.633C927.432 349.934 917.982 357.042 911.932 361.429C898.427 371.222 885.12 384.459 876.194 396.977C868.005 408.464 857.745 428.897 853.374 442.426C849.055 455.794 846.795 460.086 835.854 475.708C823.577 493.237 822.854 495.348 822.099 515.926C821.245 539.2 819.295 553.646 812.312 588.426C809.559 602.141 807.906 609.216 802.374 630.926C800.05 640.046 799.922 648.603 801.977 657.466C802.827 661.131 803.932 672.368 804.432 682.439C805.432 702.561 806.51 710.397 809.932 722.426C815.41 741.675 815.219 756.582 809.341 768.68C806.887 773.731 804.669 776.298 797.819 782.02C779.67 797.179 773.432 809.587 773.432 830.526C773.432 843.326 775.129 852.268 782.12 876.297C800.859 940.708 807.22 973.202 813.37 1035.93C816.192 1064.7 817.635 1086.58 821.975 1166.43C825.961 1239.73 827.704 1252.76 835.688 1268.92C845.642 1289.07 868.751 1303.18 891.932 1303.26C909.28 1303.32 925.024 1293.55 937.251 1275.14C939.182 1272.23 941.126 1270.22 941.573 1270.67C942.019 1271.11 942.806 1278.93 943.322 1288.04C946.008 1335.46 937.462 1370.14 915.996 1398.93C911.526 1404.92 897.255 1418.85 889.932 1424.36C872.973 1437.13 849.256 1448.68 825.115 1455.94C817.517 1458.23 808.068 1461.57 804.115 1463.37C789.448 1470.05 778.718 1471.87 767.667 1469.55C758.953 1467.72 750 1463.14 743.208 1457.03C738.12 1452.46 732.966 1449.3 721.496 1443.7C705.84 1436.07 698.428 1441.38 695.502 1462.34C694.971 1466.14 693.829 1469.96 692.963 1470.82C691.82 1471.97 688.588 1472.54 681.161 1472.92C675.535 1473.21 669.924 1474.02 668.692 1474.72C665.307 1476.63 663.763 1480.63 663.155 1489.06C662.57 1497.16 660.851 1501.65 656.568 1506.27C652.934 1510.18 649.233 1511.93 625.556 1520.93C552.481 1548.7 489.693 1579 434.911 1612.95C338.296 1672.82 281.054 1754.89 260.557 1862.93C256.365 1885.02 253.151 1913.84 244.44 2007.43C234.456 2114.7 224.269 2175.88 206.246 2236.81C202.929 2248.03 199.561 2258.76 198.764 2260.67C196.482 2266.14 198.021 2265.67 200.878 2260.03C202.298 2257.23 204.319 2253.41 205.367 2251.54C213.773 2236.57 226.849 2201.63 233.421 2176.56C242.682 2141.23 245.807 2120.02 251.937 2050.93C262.669 1929.93 271.457 1865.14 282.119 1828.43C305.669 1747.33 352.421 1685.11 426.432 1636.37C466.491 1609.99 511.049 1587.54 614.432 1541.62L648.932 1526.3L649.229 1532.66C649.819 1545.31 643.896 1560.59 630.749 1580.35C620.413 1595.88 618.43 1596.57 606.776 1588.68C600.676 1584.55 589.242 1581.42 583.205 1582.23C574.41 1583.41 570.81 1588.95 569.315 1603.63C568.766 1609.02 567.266 1616.35 565.982 1619.93C564.697 1623.5 562.012 1630.93 560.015 1636.43C555.702 1648.3 549.313 1672.27 546.555 1686.93C541.732 1712.55 540.931 1723.48 540.95 1763.43C540.971 1809.64 542.555 1827.54 552.541 1894.43C562.218 1959.25 566.203 1988.48 565.465 1989.25C565.03 1989.71 562.83 1990.33 560.576 1990.63C557.023 1991.11 555.557 1990.63 549.559 1987C541.382 1982.06 536.199 1980.38 533.679 1981.85C532.589 1982.48 532.426 1982.88 533.247 1982.9C536.339 1982.97 547.553 2012.35 551.957 2031.93C556.686 2052.94 557.858 2064.77 557.854 2091.43C557.849 2117.99 556.737 2129.66 551.94 2153.44C543.733 2194.12 526.711 2233.6 504.52 2263.42C487.511 2286.27 466.361 2304.58 397.432 2356.15C302.296 2427.31 296.109 2432.22 274.833 2453.4C226.739 2501.27 197.762 2555.15 183.93 2622.43C178.738 2647.68 179.603 2665.77 186.738 2681.21C189.953 2688.17 197.08 2698.97 199.405 2700.41C200.089 2700.83 200.219 2695.7 199.8 2684.73C198.607 2653.53 202.557 2627.22 213.133 2595.93C230.794 2543.66 256.445 2501.46 293.911 2463.05C311.325 2445.2 325.288 2433.49 352.613 2413.81C481.019 2321.36 558.395 2247.47 615.857 2162.43C626.219 2147.09 628.643 2144.34 633.1 2142.87C637.524 2141.41 641.239 2142.33 651.432 2147.42C656.107 2149.75 666.598 2154.22 674.745 2157.35C688.58 2162.66 689.801 2162.96 693.245 2161.86C698.542 2160.17 698.822 2159.61 696.572 2155.2C693.761 2149.69 688.338 2145.24 679.484 2141.17C675.33 2139.26 668.107 2135.92 663.432 2133.75C649.88 2127.45 633.122 2115.71 622.338 2104.98C608.009 2090.71 599.854 2078.53 593.182 2061.43C587.388 2046.57 585.599 2036.68 583.938 2010.33C582.149 1981.97 581.154 1972.07 577.812 1949.43C575.46 1933.49 574.12 1925.77 567.831 1891.93C552.763 1810.84 549.19 1780.1 551.378 1750.43C553.159 1726.27 556.636 1709.79 572.911 1648.43C575.391 1639.08 578.773 1624.76 580.429 1616.6C582.084 1608.45 583.899 1600.92 584.464 1599.87C587.343 1594.49 594.995 1597.07 602.133 1605.83C607.888 1612.9 610.119 1617.38 612.494 1626.67C616.012 1640.42 614.801 1649.58 607.499 1664.43C600.702 1678.25 599.991 1681.31 600.069 1696.43C600.124 1706.97 600.643 1711.5 602.82 1720.43C609.341 1747.17 610.518 1753.17 611.635 1765.43C612.286 1772.58 612.844 1783.38 612.875 1789.43C612.926 1799.19 612.657 1800.96 610.483 1805.22C609.137 1807.85 605.651 1812.27 602.737 1815.02L597.44 1820.03L600.904 1821.48C605.961 1823.59 614.726 1823.33 619.447 1820.92C621.612 1819.81 625.741 1816.82 628.624 1814.26C631.506 1811.7 638.116 1806.45 643.311 1802.59C681.174 1774.51 720.656 1759.21 770.073 1753.49C782.97 1752 786.986 1750.58 790.344 1746.31C794.078 1741.56 793.205 1736.86 785.889 1722.38C772.882 1696.63 767.964 1675.38 762.87 1622.93C759.456 1587.78 759.656 1582.69 766.402 1533.43C767.532 1525.18 768.788 1512.17 769.194 1504.53C769.914 1490.96 769.995 1490.59 772.645 1488.61C775.141 1486.75 775.798 1486.69 780.917 1487.83C787.729 1489.36 794.097 1494.01 797.297 1499.79C800.641 1505.84 802.417 1519.42 802.416 1538.93C802.414 1561.97 799.25 1586.79 792.509 1616.66C788.473 1634.55 787.432 1642.25 787.432 1654.23C787.432 1671.47 789.917 1680.34 798.574 1693.97C807.536 1708.09 807.685 1708.69 806.905 1727.75C805.53 1761.31 809.931 1777.02 835.248 1828.93C853.211 1865.75 853.826 1867.52 853.885 1882.5L853.932 1894.58L849.702 1903C846.875 1908.63 841.98 1915.57 834.949 1923.93C812.073 1951.1 800.047 1974.25 795.016 2000.79C793.089 2010.96 792.973 2034.62 794.805 2043.93L796.084 2050.43L796.878 2043.43C802.032 1997.93 821.131 1962.32 864.334 1917.66C872.5 1909.21 879.913 1900.89 880.807 1899.17C883.171 1894.6 882.823 1891.19 879.292 1884.3L876.152 1878.18L881.245 1867.8C887.787 1854.47 891.327 1840.69 895.864 1810.87C900.901 1777.76 903.382 1768.1 910.518 1753.81C916.54 1741.75 929.505 1725.56 935.792 1722.26C939.494 1720.32 946.398 1720.34 950.201 1722.31C951.847 1723.16 954.354 1725.23 955.772 1726.92C960.547 1732.59 960.443 1737.42 954.978 1763.8C951.719 1779.52 947.799 1809.2 946.506 1827.93C944.669 1854.54 944.287 1866.08 943.427 1920.93C942.801 1960.85 942.151 1978.5 940.999 1986.93C934.17 2036.82 916.26 2075.25 885.509 2106C853.987 2137.52 816.234 2155.53 758.932 2166.38C750.886 2167.9 725.978 2175.05 724.88 2176.14C724.556 2176.47 726.426 2178.2 729.034 2180C736.301 2185 748.241 2196.76 752.677 2203.29C757.483 2210.36 761.675 2219.48 763.548 2226.93C765.901 2236.28 765.266 2255.46 762.161 2268.74C757.087 2290.42 734.02 2361.07 721.933 2391.94C681.423 2495.42 626.281 2592.98 528.791 2733.66C479.198 2805.23 405.892 2903.62 368.031 2949.43C356.156 2963.79 332.216 2987.87 320.432 2997.29C300.729 3013.04 276.052 3027.46 264.667 3029.88C253.086 3032.33 246.943 3029.18 237.911 3016.15C229.963 3004.67 216.408 2987.16 204.07 2972.43C163.631 2924.12 154.232 2912.37 143.305 2896.43C129.364 2876.08 118.62 2855.73 111.098 2835.43C69.0365 2721.85 75.7595 2600.22 132.711 2444.43C141.025 2421.68 149.956 2399.49 168.934 2354.43C202.965 2273.61 201.702 2277.14 199.186 2269.83C197.707 2265.54 197.645 2265.49 196.658 2267.93C194.967 2272.1 150.385 2372.65 137.909 2400.43C131.487 2414.73 124.67 2430.25 122.762 2434.93C94.3405 2504.55 79.0875 2568.36 71.7315 2648.43C69.3015 2674.88 69.3065 2721.86 71.7415 2742.43C80.7825 2818.79 106.421 2878.23 155.714 2937.12C161.884 2944.49 173.512 2958.37 181.553 2967.97C198.194 2987.84 210.735 3004.7 219.609 3019.14C227.956 3032.72 234.047 3039.16 242.229 3043.07C258.938 3051.04 275.172 3046.77 306.432 3026.17C328.559 3011.59 343.054 2999.69 368.199 2975.47C386.443 2957.9 402.401 2945.89 420.734 2935.93L428.536 2931.69L428.005 2939.06C427.713 2943.11 427.211 2952.05 426.891 2958.93C425.713 2984.2 420.536 3013.84 413.883 3033.43C409.676 3045.81 401.277 3062.84 394.317 3073.11C385.767 3085.71 368.727 3102.64 354.932 3112.22C330.081 3129.49 325.865 3132.76 319.055 3140.01C308.826 3150.91 302.432 3165.04 302.432 3176.75C302.432 3179.41 301.576 3182.68 300.279 3184.98C298.234 3188.62 276.33 3209.66 253.335 3230.08C185.881 3289.96 129.648 3325.46 64.4315 3349.33C44.3455 3356.69 32.9465 3362.38 22.3805 3370.33C7.0585 3381.85 -4.48752 3395.86 -13.5705 3413.93C-19.7225 3426.18 -24.7655 3433.25 -34.4875 3443.27C-44.4865 3453.58 -55.5795 3462.09 -75.0685 3474.39C-122.689 3504.46 -161.548 3534.82 -209.802 3579.64C-231.187 3599.5 -245.208 3614.03 -255.917 3627.43C-282.862 3661.12 -296.527 3693.21 -302.97 3737.93C-307.62 3770.19 -308.029 3776.53 -307.998 3815.93C-307.967 3856.71 -307.01 3869.01 -301.471 3899.93C-292.208 3951.62 -272.39 4005.78 -246.005 4051.5C-200.701 4129.99 -136.125 4172.74 -52.0685 4179.89C-28.8795 4181.86 1.69449 4180.3 36.1995 4175.39C94.9885 4167.02 139.736 4153.25 191.397 4127.61C206.67 4120.03 208.385 4119.42 215.075 4119.08C221.555 4118.75 223.891 4119.23 238.109 4123.82C287.913 4139.9 339.753 4141.36 395.932 4128.27C412.232 4124.47 421.437 4121.73 447.432 4112.97C474.736 4103.77 482.173 4102.4 500.335 4103.22C516.054 4103.92 524.081 4106.19 547.654 4116.56C620.951 4148.83 689.259 4165.42 779.932 4172.97C827.742 4176.95 920.222 4176.65 949.296 4172.41C1015.57 4162.76 1062.28 4132.16 1093.24 4078.12C1099.81 4066.65 1102.02 4061.7 1115.99 4027.06C1122.96 4009.78 1125.96 4005.93 1132.43 4005.93C1137.71 4005.93 1140.89 4007.81 1154.23 4018.84C1210.28 4065.18 1278.84 4103.89 1344.43 4126.21C1417.55 4151.1 1485.35 4161.87 1569.15 4161.91C1605.03 4161.93 1627.92 4160.85 1655.43 4157.86C1707.31 4152.22 1731.8 4142.31 1763.56 4114.11C1783.92 4096.04 1806.37 4085.48 1836.43 4079.85C1845.85 4078.08 1853.01 4077.6 1876.02 4077.19C1935.3 4076.13 1974.72 4082.21 2030.18 4100.93C2097.8 4123.77 2153.37 4134.15 2230.93 4138.43C2283.55 4141.33 2375.27 4139.24 2431.43 4133.86C2471.71 4130 2514.22 4115.45 2552.36 4092.47C2632.77 4044.02 2694.18 3957.39 2711.89 3867.43C2716.3 3844.98 2716.93 3837.62 2716.89 3808.93C2716.86 3785.8 2716.5 3779.12 2714.65 3766.93C2713.44 3758.95 2712.19 3750.5 2711.88 3748.15C2711 3741.64 2713.24 3729.43 2717.14 3719.43C2722.87 3704.72 2723.71 3698.95 2723.11 3678.43C2721.41 3620.41 2700.4 3562.1 2665.75 3519.22C2645.26 3493.87 2617.57 3471.07 2586.43 3453.91C2557.19 3437.8 2543.51 3428.1 2527.93 3412.44C2496.32 3380.65 2475.3 3339.24 2464.97 3288.43C2452.46 3226.81 2430.54 3172.1 2396.8 3118.26C2380.18 3091.74 2372.65 3076.05 2365.08 3052.13C2353.44 3015.33 2350.81 2977.25 2355.94 2919.43C2357.3 2904.03 2358.86 2888.05 2359.41 2883.93C2370.79 2797.73 2371.16 2753.56 2360.91 2705.02C2355.9 2681.29 2349.02 2662.09 2336.03 2635.56C2331.41 2626.14 2326.68 2615.49 2325.52 2611.9C2319.81 2594.22 2319.02 2575.32 2322.93 2550.36C2325.97 2530.94 2326.13 2517.22 2323.49 2501.76C2320.77 2485.85 2317.45 2475.96 2308.45 2456.93C2293.48 2425.29 2291.01 2412.11 2292.8 2373.43C2294.39 2338.84 2290.42 2314.34 2274.16 2258.43C2262.27 2217.55 2255.09 2177.29 2250.98 2128.43C2249.03 2105.21 2246.7 2064.8 2243.92 2005.93C2243.11 1988.6 2242.01 1968.58 2241.48 1961.43C2240.96 1954.28 2240.25 1944.38 2239.91 1939.43C2237.06 1897.6 2229.04 1838.7 2222.36 1810.43C2211.07 1762.67 2186.99 1726.44 2151.02 1703.1C2147.21 1700.63 2119.09 1686.1 2088.52 1670.79C1974.79 1613.87 1973.81 1613.28 1959.13 1592.43C1943.9 1570.8 1931.45 1558.28 1913.2 1546.22C1889.65 1530.67 1868.53 1522.81 1826.43 1513.89C1811.99 1510.83 1794.45 1505.46 1785.67 1501.4C1771.79 1494.99 1766.25 1490.81 1747.92 1472.96C1736.76 1462.1 1726.48 1453.1 1720.92 1449.3C1700.74 1435.56 1680.09 1426.56 1653.43 1419.91C1612.24 1409.63 1587.85 1391.71 1560.22 1351.43C1554.94 1343.73 1534.43 1309.76 1534.43 1308.71C1534.43 1308.43 1539.49 1307.95 1545.68 1307.64C1575.88 1306.14 1592.73 1293.94 1600.54 1267.92C1602.76 1260.53 1602.8 1259.34 1603.5 1183.43C1603.89 1141.08 1604.49 1103.95 1604.82 1100.93C1605.15 1097.9 1605.89 1087.55 1606.47 1077.93C1611.04 1001.5 1626.3 919.777 1647.41 858.605C1652.81 842.955 1654.4 835.859 1654.4 827.426C1654.41 814.014 1650.12 804.057 1641.16 796.715C1621.04 780.219 1615.36 770.605 1612.88 748.847C1611.67 738.208 1614.87 708.882 1619.04 692.426C1626.17 664.309 1626.08 656.035 1618.47 639.551C1611.25 623.913 1610.34 618.71 1600.84 538.926C1595.7 495.695 1591.5 481.651 1574.21 449.926C1571.66 445.251 1567.46 434.901 1564.88 426.926C1557.55 404.359 1554.66 399.073 1543.47 387.897C1505.93 350.39 1455.09 319.37 1396 297.909C1389.44 295.525 1382.76 292.407 1381.16 290.978C1376.41 286.728 1375.32 280.489 1374.43 252.426C1373.52 223.371 1372.23 217.382 1365.11 209.303C1359.92 203.406 1355.7 200.801 1346.08 197.57C1317.72 188.046 1303.82 174.146 1294.43 145.926C1288.35 127.672 1282.07 117.452 1269.96 106.149C1251.39 88.808 1223.87 81.613 1194.78 86.498ZM1271.43 505.05C1305.56 507.703 1327.89 517.379 1349.55 538.908C1370.81 560.041 1384.67 588.688 1390.9 624.426C1394.82 646.889 1394.85 696.515 1390.96 711.255C1385.81 730.727 1373.66 741.588 1349.43 748.376C1329.91 753.845 1310.85 763.59 1293.42 777.021C1281.1 786.509 1263.87 803.957 1259.43 811.447C1256.32 816.69 1255.93 818.133 1255.93 824.387C1255.93 830.721 1256.26 831.901 1259.23 836.17C1263.78 842.737 1268.75 845.927 1274.41 845.922C1279.92 845.918 1282.74 844.281 1294.8 834.101C1347.49 789.601 1387.53 769.906 1425.23 769.933C1446.28 769.948 1463.12 776.732 1478.29 791.314C1490.79 803.325 1492.67 814.496 1483.49 822.223C1478.26 826.625 1473.25 825.823 1460.79 818.588C1449.99 812.319 1441.46 808.09 1435.17 805.893C1428.28 803.486 1412.43 801.952 1412.43 803.692C1412.43 805.403 1421.43 812.983 1432.7 820.767C1443.57 828.27 1452.94 837.145 1455.76 842.594L1457.37 845.704L1452.96 846.815C1445.59 848.671 1437.62 848.078 1422.43 844.543C1398.8 839.042 1394.17 838.443 1375.43 838.47C1351.5 838.506 1339.7 840.921 1314.93 850.859C1299.45 857.071 1297.9 858.323 1298.03 864.49C1298.22 873.639 1304.08 876.495 1337.93 883.96C1385.61 894.472 1418.99 892.262 1450.24 876.523C1457.02 873.107 1457.46 873.008 1456.35 875.135C1453.15 881.257 1445.33 890.567 1440.03 894.561C1434.34 898.848 1414.08 909.402 1396.43 917.281L1387.93 921.074L1397.39 925.53C1435.68 943.566 1462.25 975.806 1472.32 1016.43C1477.02 1035.39 1477.54 1051.38 1474.35 1078.64C1471.47 1103.22 1472.59 1112.76 1478.95 1117.76C1482.59 1120.62 1490.61 1120.73 1495.14 1117.96C1500.83 1114.49 1503.78 1108.07 1512.43 1080.25C1513.7 1076.18 1515.93 1071.63 1517.6 1069.75L1520.53 1066.43L1519.89 1077.93C1518.27 1107.16 1512.87 1122.91 1492.02 1159.18C1484.87 1171.62 1483.33 1172.82 1479.51 1169.01C1478.33 1167.83 1477.33 1164.93 1476.89 1161.48C1476.09 1155.05 1470.61 1145.58 1465.91 1142.51C1461.31 1139.49 1455.55 1139.33 1451.43 1142.11C1448.17 1144.31 1447.5 1145.77 1441.66 1163.45C1438.21 1173.89 1433.83 1188.05 1431.93 1194.93C1416.33 1251.37 1381.39 1293.33 1326.16 1321.93C1289.1 1341.13 1252.48 1350.09 1210.93 1350.15C1169.54 1350.21 1141.15 1342.96 1105.56 1323.24C986.727 1257.39 924.139 1187.52 900.022 1093.78C887.948 1046.84 882.639 995.797 878.927 890.972L877.425 848.518L880.385 844.833C884.087 840.228 889.837 829.838 891.962 823.917C895.295 814.631 896.606 803.745 897.927 774.426C899.462 740.405 900.573 733.454 906.78 719.058L910.932 709.426L911.031 690.887C911.141 670.297 911.336 668.712 915.386 655.614C934.638 593.346 977.221 549.81 1039.15 529.071C1052.6 524.567 1061.34 522.5 1085.93 518.007C1132.53 509.493 1167.42 505.432 1210.43 503.521C1221.89 503.012 1256.31 503.875 1271.43 505.05ZM1007.93 739.855C993.677 742.14 980.292 747.206 969.432 754.426C963.02 758.688 946.432 774.964 946.432 776.992C946.432 778.185 946.219 778.197 957.432 776.371C1021.49 765.941 1055.45 770.329 1091.43 793.684C1103.07 801.238 1109.31 806.146 1123.07 818.572C1134.08 828.517 1142.37 833.892 1146.71 833.916C1151.82 833.944 1160.14 828.236 1163.02 822.726C1166.3 816.445 1164.04 810.603 1153.69 798.617C1134.23 776.071 1106.79 756.644 1081.43 747.463C1064.94 741.49 1054.58 739.768 1032.93 739.397C1021.93 739.208 1010.68 739.415 1007.93 739.855ZM1618.08 795.098C1626.08 798.042 1630.86 802.052 1633.98 808.445C1638.13 816.916 1637.72 823.657 1631.47 849.926C1624.85 877.784 1608.42 942.272 1607.78 942.906C1606.25 944.443 1597.03 927.495 1594.4 918.305C1588.64 898.191 1591.86 880.812 1606.85 851.025C1617.68 829.494 1619.26 822.952 1615.31 815.927C1611.91 809.866 1600.81 805.948 1586.99 805.932L1582.06 805.926L1584.91 802.945C1594.77 792.653 1604.91 790.254 1618.08 795.098ZM827.932 798.812L834.932 800.534L827.198 802.295C818.09 804.368 810.756 808.838 808.114 813.926C806.688 816.672 806.398 818.934 806.771 824.426C807.257 831.6 808.838 836.222 817.704 856.426C827.607 878.99 830.426 895.855 826.995 912.037C825.6 918.617 818.795 934.926 817.444 934.926C815.462 934.926 800.662 891.994 795.552 871.426C789.137 845.604 787.098 820.176 790.693 810.86C792.844 805.287 797.63 800.472 802.951 798.524C808.282 796.573 819.352 796.7 827.932 798.812ZM998.432 803.022C974.574 811.482 949.776 830.011 942.156 845.069C938.252 852.786 938.46 858.454 942.993 867.912C949.979 882.49 960.594 894.566 974.016 903.202C988.603 912.587 1001.02 916.317 1017.43 916.239C1028.51 916.187 1037.93 914.456 1037.93 912.472C1037.93 910.548 1025.25 904.854 1014.43 901.919C995.953 896.906 990.101 893.666 984.303 885.24L981.12 880.614L984.526 881.313C1003.35 885.177 1014.76 886.232 1037.93 886.25C1058.85 886.266 1064.35 885.919 1080.77 883.542C1101.83 880.494 1109.86 878.363 1114.96 874.47C1119.51 871.005 1121.43 867.097 1121.43 861.344C1121.43 854.557 1117.19 850.807 1105.63 847.376C1100.84 845.957 1091.77 843.2 1085.46 841.248C1058.89 833.035 1043.64 832.969 999.562 840.874C983.204 843.808 958.317 847.144 957.662 846.491C957.495 846.322 966.711 837.502 978.144 826.89C1010.09 797.237 1008.09 799.599 998.432 803.022ZM1570.52 883.426C1573.06 900.027 1577.99 920.055 1585.9 945.926C1595.26 976.54 1596.42 983.245 1594.46 995.344C1591.99 1010.61 1586.66 1021.37 1574.36 1035.93C1557.55 1055.83 1548.96 1073.37 1545.7 1094.43C1545.06 1098.61 1544.88 1097.48 1544.61 1087.43C1544.2 1072.52 1545.55 1060.16 1550.43 1033.93C1555.96 1004.23 1556.24 1002.34 1558.45 978.824C1563.13 929.063 1566.29 886.04 1566.56 868.426C1566.71 858.116 1566.56 857.535 1570.52 883.426ZM1161.43 954.426C1161.43 998.701 1161.61 1034.93 1161.84 1034.93C1162.64 1034.93 1168.46 1017.67 1170.86 1008.16C1175.78 988.646 1176.93 977.444 1176.91 949.426C1176.88 921.921 1175.38 908.739 1170.5 893.301C1168.31 886.374 1162.85 873.926 1161.99 873.926C1161.68 873.926 1161.43 910.151 1161.43 954.426ZM856.771 892.926C857.105 899.801 858.297 913.976 859.419 924.426C861.284 941.812 862.865 954.596 868.447 997.426C871.938 1024.22 875.305 1057.13 875.914 1070.43L876.51 1083.43L874.139 1076.43C869.788 1063.58 863.335 1052.96 850.732 1037.93C837.293 1021.89 831.671 1010.25 829.347 993.636C827.316 979.113 829.591 967.223 839.917 938.426C845.361 923.244 851.88 898.327 853.573 886.233C854.224 881.572 855.075 878.358 855.462 879.092C855.848 879.826 856.438 886.051 856.771 892.926ZM1254.11 891.676C1250.4 913.978 1249.93 920.7 1249.95 951.426C1249.96 978.643 1250.24 984.196 1252.23 996.926C1253.48 1004.9 1254.88 1013 1255.36 1014.93C1255.88 1017.01 1256.27 990.91 1256.33 950.176C1256.39 912.638 1256.28 881.926 1256.08 881.926C1255.89 881.926 1255.01 886.314 1254.11 891.676ZM1293.59 1029.3C1284.41 1045.56 1264.5 1059.17 1240.54 1065.57C1228.74 1068.72 1206.02 1069.85 1191.93 1067.99C1172.15 1065.38 1150.66 1055.61 1137.9 1043.43C1132.83 1038.59 1131.49 1036.65 1130.97 1033.41C1130.11 1027.97 1129.14 1026.68 1125.96 1026.68C1120.01 1026.68 1116.68 1030.53 1114.51 1039.97C1111.08 1054.83 1117.07 1065.83 1132.68 1073.34C1142.91 1078.26 1162.56 1084.61 1176.43 1087.48C1209.35 1094.29 1240.02 1092.17 1271.58 1080.92C1302.31 1069.95 1311.29 1059.45 1305.84 1040.86C1304.19 1035.24 1298.48 1023.93 1297.3 1023.93C1296.93 1023.93 1295.26 1026.35 1293.59 1029.3ZM840.036 1055.7C850.145 1067.41 857.809 1083 862.519 1101.43C864.41 1108.82 864.823 1113.1 864.841 1125.43C864.871 1146.78 862.085 1156.17 851.292 1171.12C846.145 1178.25 845.432 1179.8 845.432 1183.89C845.432 1187.69 845.943 1189.03 848.182 1191.12C860.839 1202.92 872.211 1192.55 880.737 1161.44C882.642 1154.49 882.925 1150.98 882.88 1134.93C882.841 1121.1 882.409 1114.79 881.17 1109.97C880.259 1106.42 879.638 1103.39 879.79 1103.23C880.292 1102.73 918.194 1180.09 924.964 1195.43C933.333 1214.4 933.686 1217.43 929.99 1238.86C926.119 1261.31 923.207 1269.04 915.526 1277.28C908.135 1285.21 898.852 1288.93 886.432 1288.93C864.133 1288.93 847.469 1275.43 842.589 1253.43C841.364 1247.89 839.289 1222.57 836.936 1184.43C835.387 1159.32 829.447 1050.98 829.437 1047.65C829.432 1046.03 829.696 1046.06 832.354 1048.03C833.959 1049.21 837.417 1052.67 840.036 1055.7ZM1591.12 1084.25C1591.65 1106.39 1591.28 1113.51 1587.49 1154.28C1586.43 1165.65 1584.7 1168.3 1578.04 1168.73C1572.25 1169.11 1567.28 1166.35 1565.3 1161.67C1563.6 1157.64 1563.65 1128.53 1565.39 1112.32C1567.96 1088.3 1574.75 1067.5 1584.8 1052.93L1587.9 1048.43L1589.23 1054.93C1589.98 1058.56 1590.81 1071.48 1591.12 1084.25ZM1542.92 1114.46C1540.27 1129.32 1541.35 1144.67 1546.48 1165.23C1551.92 1187.05 1554.38 1190.49 1566.93 1193.88C1589.73 1200.04 1595.27 1211.16 1588.89 1237.93C1587.52 1243.7 1585.98 1253.26 1585.47 1259.16C1584.89 1265.85 1583.8 1271.56 1582.57 1274.33C1579.76 1280.69 1573.27 1287.28 1566.65 1290.51C1561.75 1292.89 1559.38 1293.35 1550.14 1293.72C1540.9 1294.09 1538.33 1293.82 1532.31 1291.89C1508.9 1284.36 1496.22 1264.61 1492.53 1229.93C1491.74 1222.56 1491.71 1217.04 1492.43 1211.43C1494.08 1198.41 1496.28 1193.19 1505.46 1180.43C1512.74 1170.31 1516.35 1163.06 1523.16 1144.93C1529.27 1128.65 1535.84 1115.3 1540.52 1109.62C1542.25 1107.53 1543.81 1105.97 1544 1106.16C1544.19 1106.35 1543.7 1110.08 1542.92 1114.46ZM1180.43 1119.53C1165.18 1121.37 1147.61 1125.26 1133.11 1130.01C1118.84 1134.67 1097.43 1143.95 1097.43 1145.46C1097.43 1146.97 1102.31 1151.4 1105.93 1153.16C1107.58 1153.97 1112.03 1155.39 1115.82 1156.32C1119.61 1157.26 1123.88 1158.62 1125.32 1159.35C1132.01 1162.78 1156.96 1167.93 1176.93 1170.01C1191.21 1171.5 1227.02 1171.5 1240.43 1170.01C1263.36 1167.47 1283.58 1162.94 1299.93 1156.7C1312.2 1152.02 1327.18 1143.28 1325.62 1141.72C1324.25 1140.34 1297.18 1131.41 1284.09 1128.01C1248.46 1118.76 1211.72 1115.75 1180.43 1119.53ZM1124.29 1164.38C1120.33 1167.07 1119.43 1168.65 1119.43 1172.94C1119.43 1180.77 1124.89 1187.27 1140.36 1197.88C1155.44 1208.22 1159.72 1213.03 1162.84 1223.19C1163.76 1226.2 1168.26 1227.17 1178.47 1226.59C1184.82 1226.22 1190.67 1225.16 1195.97 1223.41C1209.11 1219.08 1210.08 1218.96 1218.83 1220.5C1223.28 1221.28 1232.2 1221.92 1238.64 1221.92C1257.65 1221.93 1269.48 1217.13 1280.93 1204.76C1288.88 1196.17 1298.15 1179.51 1301.94 1167L1302.68 1164.58L1299.8 1166.81C1292.8 1172.25 1279.81 1180.34 1273.17 1183.41C1264.56 1187.38 1251 1191.33 1239.93 1193.08C1222.8 1195.79 1176.74 1193.64 1160.09 1189.35C1147.13 1186 1136.44 1177.88 1130.93 1167.18C1129.44 1164.29 1128.15 1161.93 1128.06 1161.93C1127.97 1161.93 1126.27 1163.03 1124.29 1164.38ZM1473.91 1227.31C1475.22 1228.63 1476.57 1231.44 1476.9 1233.56C1478.08 1241.08 1482.74 1258.52 1485.47 1265.67C1493.98 1287.86 1507.51 1301.39 1525.81 1306C1528.34 1306.64 1530.19 1307.51 1529.92 1307.95C1528.55 1310.17 1518.4 1312.17 1501.93 1313.47C1492.03 1314.25 1481.46 1315.62 1478.43 1316.52C1475.41 1317.41 1471.53 1318.36 1469.81 1318.63C1465.85 1319.25 1460.62 1316.6 1459.98 1313.66C1459.71 1312.43 1458.05 1303.1 1456.29 1292.93C1452.11 1268.8 1451.74 1251.13 1455.19 1240.43C1457.54 1233.14 1458.98 1230.93 1463.82 1227.17C1467.54 1224.27 1470.92 1224.32 1473.91 1227.31ZM977.432 1257.06C986.547 1262.23 1000.73 1277.53 1010.94 1293.23C1032.02 1325.59 1038.09 1332.81 1054.86 1345.38C1098.2 1377.86 1141.37 1396.77 1188.93 1404.09C1207.82 1407 1240.96 1407.22 1259.93 1404.57C1296.71 1399.44 1317.23 1393.1 1396.43 1362.41C1428.05 1350.16 1437.05 1346.93 1439.59 1346.93C1440.59 1346.93 1442.76 1348.16 1444.43 1349.68C1447.04 1352.05 1447.92 1354.32 1450.87 1366.43C1457.58 1393.89 1465.57 1414.57 1488.91 1464.93C1510.55 1511.6 1520.02 1539.82 1525.32 1573.43C1537.62 1651.28 1535.83 1723.95 1519.79 1797.43C1512.85 1829.27 1506.97 1844.93 1497.1 1857.9C1494.81 1860.9 1489.16 1868.33 1484.55 1874.4C1473.81 1888.53 1452.41 1920.9 1440.23 1941.43C1428.37 1961.41 1413.24 1989 1388.43 2035.93C1342.48 2122.84 1329.97 2144.03 1283.14 2214.23C1271.07 2232.33 1258.52 2249.96 1255.16 2253.56C1248.99 2260.16 1247.38 2261.1 1223.43 2272.17C1216.43 2275.41 1195.98 2286.59 1184.93 2293.22C1161.36 2307.36 1142.96 2320.06 1075.93 2368.44C1029.3 2402.09 1003.54 2417.77 947.432 2446.64C907.79 2467.03 871.362 2481.61 840.432 2489.44C811.406 2496.8 778.104 2500.14 753.667 2498.15C738.208 2496.9 732.726 2495.25 728.927 2490.74C724.036 2484.93 725.641 2476.48 737.026 2448.17C748.672 2419.21 765.855 2370.61 789.61 2299.43C798.067 2274.09 818.298 2224.12 827.672 2205.43C837.791 2185.24 848.161 2174.17 868.932 2161.36C915.492 2132.65 942.985 2089.52 954.922 2026.46C961.219 1993.2 962.447 1973.87 963.438 1892.43C964.47 1807.66 964.934 1802.52 975.143 1762.43C980.365 1741.92 981.044 1732.98 978.05 1724.16C975.541 1716.77 968.022 1708.83 959.618 1704.7C953.749 1701.81 952.013 1701.43 944.947 1701.46C937.847 1701.48 936.193 1701.87 930.466 1704.83C916.779 1711.91 897.486 1736.12 888.16 1757.93C882.651 1770.81 881.376 1777.42 880.552 1797.43C879.88 1813.67 879.562 1815.96 877.28 1820.93C874.187 1827.65 870.559 1832.05 864.886 1835.96C862.512 1837.59 860.363 1838.93 860.108 1838.93C859.853 1838.93 858.508 1836.11 857.12 1832.68C855.733 1829.24 850.915 1818.55 846.416 1808.93C825.666 1764.54 823.174 1755.22 823.027 1721.43L822.927 1698.43L818.079 1684.93C807.449 1655.32 806.062 1647.45 808.859 1632.61C809.773 1627.76 810.906 1616.51 811.375 1607.61C812.101 1593.88 812.766 1589.46 815.771 1578.43C823.09 1551.55 823.201 1540.46 816.331 1521.93C812.404 1511.33 812.063 1509.64 812 1500.43C811.94 1491.77 812.249 1489.82 814.295 1485.93C819.947 1475.16 832.042 1467.74 857.432 1459.44C883.104 1451.05 901.406 1440.16 916.453 1424.34C939.423 1400.17 950.501 1370.88 954.419 1323.93C956.565 1298.21 961.832 1272.16 967.599 1258.76C968.743 1256.1 970.185 1253.93 970.805 1253.93C971.425 1253.94 974.406 1255.35 977.432 1257.06ZM1338.93 1269.84C1329.18 1273.75 1316.64 1279.44 1297.93 1288.45C1256.09 1308.6 1235.02 1313.48 1200.43 1311.01C1156.13 1307.85 1123.56 1297.59 1092.17 1276.91C1087.18 1273.62 1082.95 1271.07 1082.79 1271.24C1082.62 1271.4 1083.66 1273.76 1085.1 1276.48C1098.77 1302.31 1127.59 1322.84 1162.38 1331.53C1213.77 1344.38 1273.69 1333.98 1313.51 1305.31C1325.74 1296.5 1340.7 1280.31 1347.82 1268.18C1348.91 1266.31 1346.76 1266.71 1338.93 1269.84ZM1509.43 1331.34C1531.22 1335.96 1545.54 1350.52 1559.88 1382.64C1585.74 1440.6 1600.43 1497.27 1621.36 1619.93C1642.78 1745.41 1630.82 1860.02 1575.92 2055.43C1559.4 2114.23 1549.61 2147.29 1529.55 2212.04C1504.97 2291.39 1501.16 2302.94 1494.87 2317.31C1481.34 2348.2 1459.83 2377.98 1435.56 2399.41C1423.12 2410.4 1414.43 2417.38 1414.43 2416.4C1414.43 2416.01 1416.62 2411.81 1419.3 2407.06C1441.48 2367.71 1459.66 2320.08 1472.8 2266.9C1478.06 2245.63 1482.56 2224.72 1482 2224.16C1480.72 2222.88 1471.18 2243.71 1466.31 2258.43C1441.69 2332.81 1403.46 2393.8 1341.93 2456.8C1315.69 2483.67 1291.43 2505.02 1250.93 2536.88C1137.35 2626.22 1044.71 2683.54 951.229 2722.31C855.642 2761.96 766.958 2778.41 658.432 2776.62C629.031 2776.14 587.419 2773.93 577.57 2772.34C572.562 2771.53 569.432 2767.9 569.432 2762.9C569.432 2757.49 573.13 2753.71 580.495 2751.56C583.484 2750.69 589.082 2749.09 592.932 2748C629.315 2737.7 704.879 2713.36 736.932 2701.61C797.224 2679.52 849.3 2655.89 894.432 2630.16C922.115 2614.37 954.418 2593.48 998.432 2562.92C1147.17 2459.62 1240.02 2371.89 1308.14 2270.27C1330.58 2236.81 1345.25 2211.06 1364.19 2171.93C1382.94 2133.18 1384.45 2130.16 1394.76 2110.93C1416.44 2070.45 1435.07 2039.24 1474.43 1977.43C1533.65 1884.44 1544.51 1866.96 1563.94 1833.44C1594.71 1780.37 1605.38 1743.08 1600.37 1706.25C1598.29 1691.01 1592.04 1670.38 1590.31 1673.06C1588.2 1676.32 1585.32 1688.64 1582.96 1704.54C1581.55 1713.95 1579.69 1724.07 1578.81 1727.04C1576.4 1735.13 1567.59 1751.73 1567.45 1748.43C1567.29 1744.46 1563.11 1692.25 1561.9 1678.94C1553.77 1589.99 1533.22 1512.54 1498.84 1441.29C1490.28 1423.54 1487.78 1417.01 1480 1392.09C1476.34 1380.35 1472.04 1367.17 1470.44 1362.8C1465.04 1347.98 1465.49 1340.27 1472.07 1335.25C1478.56 1330.3 1495.95 1328.48 1509.43 1331.34ZM1059.08 1427.4C1058.42 1429.12 1059.85 1434.39 1061.77 1437.31C1063.48 1439.93 1076.65 1448.06 1092.87 1456.53C1122.97 1472.24 1156.04 1482.4 1193.93 1487.56C1213.47 1490.22 1257.84 1490.02 1281.51 1487.15C1310.75 1483.61 1343.17 1477.2 1374.18 1468.82C1394.32 1463.39 1402.15 1459.14 1406.13 1451.51C1409.48 1445.11 1405.87 1435.82 1398.7 1432.35C1392.19 1429.21 1383.6 1430.04 1358.93 1436.21C1254.97 1462.21 1178.81 1464.19 1104.93 1442.81C1090.89 1438.75 1070.12 1431.28 1063.28 1427.83C1060.23 1426.29 1059.53 1426.22 1059.08 1427.4ZM1654.28 1434.56C1699.35 1443.67 1733.22 1469.85 1753.72 1511.43C1759.85 1523.86 1763.58 1533.68 1769.47 1552.93C1793.1 1630.17 1802.92 1700.22 1799.65 1768.18C1797.87 1805.03 1793.77 1835.39 1780.42 1910.43C1773.89 1947.09 1769.43 1976.52 1769.43 1982.89C1769.43 1992.05 1771.73 1999.93 1774.42 1999.93C1777.33 1999.93 1787.96 1991.46 1792.25 1985.73C1798.03 1978 1802.79 1967.87 1808.49 1951.18C1824.31 1904.84 1833.21 1864.71 1837.61 1819.93C1839.36 1802.06 1839.36 1743.86 1837.61 1725.93C1831.51 1663.39 1815.01 1604.05 1786.07 1540.54C1780.2 1527.67 1777.64 1520.95 1778.02 1519.42L1778.58 1517.19L1791.76 1520.43C1799 1522.22 1813.71 1525.81 1824.43 1528.41C1876.53 1541.04 1902.55 1553.9 1928.5 1579.86C1964.51 1615.87 1983.54 1666.37 1993.13 1751.43C1994.64 1764.83 1994.93 1775.87 1994.93 1819.43C1994.93 1854.47 1994.49 1876.32 1993.6 1886.43C1989.48 1932.82 1990.68 1974.23 1997.06 2006.36C1999.15 2016.89 1999.09 2037.07 1996.92 2046.93C1992.01 2069.32 1985.19 2084.57 1962.23 2124.43C1938.96 2164.83 1935.63 2172.12 1937.01 2179.51C1938.26 2186.16 1945.54 2191.99 1956.13 2194.84C1962.14 2196.46 1965.43 2200.76 1965.43 2206.98C1965.43 2212.76 1961.47 2236.04 1958.51 2247.63C1953.1 2268.79 1943.43 2290.25 1929.75 2311.43C1899.87 2357.65 1886.1 2389.29 1855.91 2480.96C1837.25 2537.62 1834.28 2545.67 1829.31 2552.93C1823.77 2561.04 1822.03 2565.19 1822.83 2568.38C1823.74 2572 1826.88 2573.27 1836.43 2573.88L1844.93 2574.43L1844.87 2579.93C1844.73 2593.58 1823 2659.05 1803.26 2705.32C1774.94 2771.71 1737.38 2838.85 1683.76 2918.93C1650.69 2968.31 1647.1 2973.26 1635.47 2985.32C1617.18 3004.3 1596.91 3019.11 1562.43 3038.68C1552.81 3044.15 1531.43 3056.29 1514.93 3065.67C1498.43 3075.05 1474.81 3088.33 1462.43 3095.18C1402.99 3128.11 1403.67 3127.69 1400.84 3133.13C1398.87 3136.9 1399.06 3138.79 1401.97 3144.62C1404.81 3150.33 1408.17 3152.34 1414.48 3152.09C1420.1 3151.88 1457.34 3138.2 1488.43 3124.94C1503.93 3118.33 1540.62 3099.71 1559.43 3088.91C1595.28 3068.33 1639.42 3037.63 1670.43 3011.71C1684.64 2999.83 1704.7 2981.83 1722.67 2964.83C1731.46 2956.51 1735.85 2953.05 1738.18 2952.6C1741.21 2952.02 1741.43 2952.16 1741.42 2954.7C1741.39 2960.29 1738.24 2970.56 1734.26 2978.02C1732 2982.25 1724.99 2992.14 1718.67 2999.99C1704.25 3017.91 1698.77 3025.58 1692.39 3036.81C1681.67 3055.66 1676.51 3073.1 1675.69 3093.2C1674.89 3112.59 1678.04 3128.04 1686.96 3148.54C1692.26 3160.71 1693.14 3165.33 1691.37 3171.65C1689.19 3179.44 1683.59 3184.04 1666.09 3192.41C1604.25 3221.99 1547.89 3237.27 1486.93 3240.98C1465.61 3242.28 1454.28 3241.9 1410.43 3238.39C1365.3 3234.79 1354.72 3234.02 1335.43 3232.98C1240.42 3227.83 1165.78 3233.58 1095.93 3251.42C1077.24 3256.19 1076.81 3255.88 1090.73 3247.75C1113.54 3234.43 1143.47 3225.08 1178.43 3220.36C1187.56 3219.13 1207.57 3218.63 1275.43 3217.95C1399.99 3216.7 1412.86 3216.15 1440.43 3210.9C1482.15 3202.95 1524.48 3183.16 1559.43 3155.25C1568.48 3148.02 1596.3 3121.3 1599.63 3116.63L1601.63 3113.84L1598.78 3115.15C1597.21 3115.87 1581.31 3123.72 1563.43 3132.59C1520.45 3153.94 1496.28 3163.35 1463.93 3171.34C1432.2 3179.17 1405.86 3182.31 1371.93 3182.3C1348.42 3182.29 1337.78 3181.5 1304.43 3177.3C1283.25 3174.62 1229.88 3174.88 1205.78 3177.77C1131.97 3186.63 1066.88 3208.25 989.932 3249.46C958.719 3266.17 935.74 3280.25 892.932 3308.89C857.737 3332.43 841.915 3342.17 825.484 3350.4C813.262 3356.53 796.681 3363.93 795.172 3363.93C793.938 3363.93 804.311 3344.46 811.161 3333.93C828.691 3306.96 853.732 3282.18 883.829 3262C901.078 3250.44 917.768 3241.11 950.246 3224.89L981.562 3209.25L977.246 3207.63C965.734 3203.33 953.214 3202.87 942.932 3206.37C927.621 3211.59 894.755 3229.52 826.562 3269.84L821.193 3273.02L821.859 3270.22C823.306 3264.16 829.667 3252.66 840.552 3236.43C851.306 3220.39 859.937 3204.9 859.244 3202.89C858.734 3201.41 842.046 3209.33 833.169 3215.26C825.738 3220.23 812.462 3232.6 806.166 3240.43C802.134 3245.44 794.217 3257.64 784.839 3273.29C770.639 3297 766.094 3300.11 758 3291.66C755.751 3289.31 750.766 3281.8 746.922 3274.95C734.475 3252.81 717.314 3230.7 698.727 3212.86C673.135 3188.29 649.775 3179.94 606.682 3179.93C588.465 3179.93 588.781 3179.77 592.471 3187C594.659 3191.29 601.46 3196.23 609.432 3199.33C629.551 3207.14 674.589 3240.09 692.607 3260.19C720.208 3290.98 731.38 3315.51 740.521 3365.43C743.948 3384.13 740.86 3393.13 729.01 3398.96C723.251 3401.8 721.761 3402.12 716.006 3401.75C710.619 3401.41 708.869 3400.82 705.789 3398.33C700.831 3394.31 696.38 3386.01 691.393 3371.45C671.896 3314.54 625.77 3266.8 546.471 3221.43C495.516 3192.28 444.711 3176.14 390.432 3171.84C377.002 3170.78 356.827 3171.05 338.858 3172.54C331.844 3173.13 331.76 3173.1 329.108 3169.95C325.779 3166 325.441 3159.06 328.346 3154.3C331.161 3149.68 357.241 3128.29 370.432 3119.78C408.72 3095.07 452.009 3081.87 512.432 3076.47C549.059 3073.2 584.616 3072.43 698.432 3072.43C778.593 3072.43 834.646 3072.97 893.432 3074.3C1016.32 3077.1 1049.55 3076.02 1107.93 3067.32C1210.53 3052.03 1309.13 3015.1 1405.48 2955.9C1476.02 2912.55 1561.47 2843.94 1628.97 2776.46C1679.46 2725.98 1716.72 2680.74 1751.68 2627.43C1782.22 2580.87 1805.17 2536.48 1827.55 2480.72C1837.72 2455.38 1840.43 2445.9 1840.43 2435.71V2427.98L1837.18 2428.58C1830.39 2429.85 1825.34 2434.92 1822.91 2442.89C1821.3 2448.19 1808.74 2475.48 1798.5 2495.93C1776.8 2539.27 1753.68 2576.62 1723.91 2616.43C1677.06 2679.06 1629.17 2726.61 1531.43 2807.51C1426.94 2894.01 1331.33 2955.86 1241.43 2995.12C1185.4 3019.58 1126.19 3032.9 1054.93 3037.07C1031.42 3038.45 882.02 3039.08 872.458 3037.85C866.065 3037.02 855.45 3032.52 854.725 3030.32C854.305 3029.05 867.593 3022.37 877.932 3018.66C888.29 3014.95 903.854 3011.37 922.432 3008.43C1009.92 2994.62 1086 2968.77 1164.56 2926.17C1230.26 2890.55 1282.8 2853.65 1363.42 2786.52C1426.82 2733.71 1468.42 2703.13 1525.43 2667.39C1586.15 2629.33 1629.41 2590.86 1669.89 2538.93C1681.34 2524.24 1701.4 2494.23 1710.66 2477.93C1725.12 2452.48 1740.46 2419.53 1750.45 2392.43C1762.64 2359.4 1793.26 2270 1809.88 2218.93C1823.53 2176.99 1825.16 2171.87 1835.28 2138.93C1864.89 2042.57 1891.85 1946.14 1894.37 1927.6C1895.56 1918.83 1895.73 1909.63 1894.76 1906.02C1894.18 1903.86 1893.92 1904.11 1892.16 1908.52C1888.72 1917.09 1879.59 1944.59 1871.44 1970.93C1857.97 2014.42 1846.03 2046.85 1838.32 2060.89L1836.38 2064.43L1837.01 2060.93C1837.36 2059 1839.87 2049.1 1842.59 2038.93C1851.82 2004.41 1861.29 1966.49 1865.34 1947.93C1879.37 1883.59 1880.8 1876.73 1883.34 1861.43C1889.15 1826.45 1889.47 1797.03 1884.31 1771.43C1881.8 1758.95 1874.29 1735.77 1870.32 1728.21C1868.67 1725.08 1865.22 1720.06 1862.66 1717.06C1858.24 1711.88 1847.24 1702.93 1845.31 1702.93C1844.81 1702.93 1845.03 1704.43 1845.8 1706.27C1848.53 1712.79 1855.37 1737.6 1857.85 1749.93C1862.17 1771.45 1863.43 1784.5 1863.43 1807.75C1863.43 1832.16 1862.99 1836.66 1857.36 1870.34C1847.39 1929.84 1841.52 1956.45 1832.08 1984.93C1823.97 2009.39 1818.04 2022.1 1798.66 2056.63C1770.68 2106.47 1748.84 2153.14 1693.45 2281.43C1676.77 2320.05 1675.95 2321.86 1665.93 2342C1634.24 2405.73 1594.28 2458.91 1544.09 2504.18C1538.14 2509.55 1523.07 2522.13 1510.6 2532.16C1471.52 2563.57 1421.07 2606.57 1371.43 2650.79C1258.67 2751.24 1182.06 2814.65 1136.63 2845.13C1084.37 2880.19 1024.11 2906.26 961.121 2921.05C952.638 2923.04 951.185 2923.15 950.386 2921.89C947.973 2918.07 948.745 2917.41 966.432 2908.24C1044.22 2867.88 1110.4 2813.68 1183.59 2730.43C1203.93 2707.28 1217.75 2690.36 1264.87 2630.94C1297.88 2589.3 1320 2564.26 1352.38 2531.86C1383.75 2500.48 1404.81 2482.31 1437.43 2458.46C1460.2 2441.81 1475.01 2429.38 1490.47 2413.95C1540.22 2364.28 1577.69 2302.98 1627.42 2189.93C1662.43 2110.33 1693.53 2026.25 1715.07 1952.93C1731.59 1896.69 1734.85 1882.66 1732.7 1877.04C1731.84 1874.79 1731.54 1875.04 1727.43 1881.54C1709.09 1910.58 1686.16 1955.99 1659.58 2015.93C1629.85 2082.96 1610.86 2122.43 1611.95 2114.93C1618.46 2069.99 1624.01 2049.38 1653.91 1958.93C1673.38 1900.05 1680.58 1876.91 1687.4 1851.43C1697.43 1813.87 1702.57 1786.93 1706.09 1753.43C1708.56 1729.93 1708.57 1679.32 1706.12 1655.43C1698.65 1582.91 1680.71 1523.81 1645.27 1455.05L1633.22 1431.67L1640.08 1432.37C1643.85 1432.76 1650.24 1433.74 1654.28 1434.56ZM1613.77 1447.39C1646.07 1480.79 1671.8 1561.96 1675.3 1641.45C1676.77 1674.77 1674.13 1709.59 1668.47 1731.76C1666.59 1739.09 1665.43 1741.72 1665.43 1738.61C1665.43 1736.52 1658.86 1677.32 1656.87 1661.43C1650.23 1608.52 1640.91 1558.22 1631.21 1522.93C1623.17 1493.64 1615.74 1472.3 1601.66 1437.98C1600.68 1435.58 1607.43 1440.83 1613.77 1447.39ZM741.63 1460.18C747.003 1470.94 750.272 1481.99 752.06 1495.43C754.411 1513.09 753.63 1525.56 747.015 1575.93C742.812 1607.92 741.432 1623.36 741.436 1638.28C741.444 1665.44 746.923 1685.44 759.423 1703.93C765.888 1713.49 766.891 1716.26 766.537 1723.64C766.375 1727.02 761.021 1732.43 755.469 1734.81C740.224 1741.37 730.187 1736.84 722.161 1719.78C711.966 1698.09 707.36 1674.04 707.35 1642.43C707.345 1624.57 709.498 1586.71 711.503 1569.43C715.128 1538.18 714.417 1513.51 709.345 1494.43C705.216 1478.9 704.883 1469.2 708.281 1463.45C712.56 1456.21 719.233 1453.06 730.47 1452.98L738.01 1452.93L741.63 1460.18ZM690.6 1489.56C697.735 1496.34 701.641 1511.24 701.703 1531.93C701.773 1555.17 695.234 1577.37 682.588 1596.84C675.141 1608.3 675.19 1613.91 682.82 1623.23C684.854 1625.71 686.948 1629.24 687.475 1631.07C688.86 1635.91 688.616 1649.89 686.944 1661.43C686.147 1666.93 685.481 1675.94 685.464 1681.47C685.411 1698.1 688.883 1707.48 699.596 1719.61C709.747 1731.11 712.065 1739.64 706.754 1745.96C702.771 1750.69 687.188 1762.42 680.994 1765.35C670.1 1770.51 658.648 1771.08 651.741 1766.81C649.793 1765.6 647.48 1762.68 645.864 1759.38C643.372 1754.28 643.18 1752.9 642.913 1738.18C642.605 1721.25 642.247 1719.37 634.47 1693.93C629.131 1676.45 627.669 1665.27 629.411 1655.22C630.154 1650.93 630.837 1641.35 630.929 1633.93C631.18 1613.7 634.047 1604.62 650.505 1571.93C665.456 1542.22 671.228 1523.78 673.012 1499.99C673.622 1491.85 674.055 1490.21 676.151 1488.11C679.503 1484.76 686.259 1485.44 690.6 1489.56ZM1393.43 1512.09C1371.53 1513.94 1348.57 1518.47 1332.69 1524.06C1298.68 1536.03 1278.19 1555.25 1269.55 1583.28C1266.12 1594.38 1266.81 1594.93 1273.26 1586.26C1284.38 1571.29 1300.22 1558.34 1318.13 1549.55C1333.31 1542.1 1347.1 1537.54 1372.93 1531.42C1407.95 1523.13 1423.53 1518.58 1434.59 1513.43L1439.93 1510.95L1421.93 1511.07C1412.03 1511.15 1399.21 1511.6 1393.43 1512.09ZM1047.43 1527.37C1056.53 1530.9 1068.03 1534.08 1088.93 1538.86C1120.06 1545.98 1124.62 1547.11 1137.44 1550.93C1166.75 1559.66 1187.77 1571.27 1204.42 1587.91C1207.72 1591.22 1210.43 1593.56 1210.43 1593.11C1210.43 1592.67 1208.56 1589.18 1206.27 1585.36C1191.21 1560.26 1169.87 1543.41 1141.93 1534.58C1122.92 1528.57 1103.01 1526.17 1065.43 1525.37L1040.93 1524.85L1047.43 1527.37ZM1397.93 1560.32C1389.68 1562.67 1376.74 1566.3 1369.18 1568.39C1361.62 1570.49 1355.43 1572.51 1355.43 1572.89C1355.43 1574.19 1362.89 1576.02 1370.56 1576.61C1379.74 1577.31 1388.57 1574.99 1397.98 1569.4C1404.83 1565.32 1416.28 1555.89 1414.26 1555.99C1413.53 1556.03 1406.18 1557.98 1397.93 1560.32ZM1037.43 1565.97C1037.43 1567.3 1048.68 1574.26 1054.87 1576.76C1063.45 1580.23 1076.99 1582.75 1091.28 1583.54C1106.05 1584.36 1106.4 1583.64 1094.04 1577.89C1083.22 1572.86 1073.85 1570.38 1056.43 1567.93C1048.46 1566.81 1040.92 1565.74 1039.68 1565.55C1038.44 1565.36 1037.43 1565.55 1037.43 1565.97ZM1995.76 1637.27C2006.23 1643.97 2031.13 1657.27 2063.67 1673.54C2177.59 1730.52 2194.07 1749.11 2212.83 1841.93C2223.13 1892.91 2226.34 1927.9 2228.93 2017.43C2231.26 2097.86 2233.33 2129.82 2239 2172.37C2243.19 2203.77 2248.55 2229.49 2254.43 2246.43C2262.82 2270.54 2267.06 2294.03 2271.96 2343.43C2273.38 2357.73 2276.09 2381.13 2277.97 2395.43C2279.86 2409.73 2282.33 2428.63 2283.47 2437.43C2294.68 2524.08 2303.19 2570.27 2317.45 2621.93C2345.85 2724.78 2353.25 2795.14 2343.42 2868.93C2338.72 2904.25 2336.43 2939.46 2336.43 2976.51C2336.43 2987 2336.04 2994.93 2335.52 2994.93C2333.82 2994.93 2323.29 2982.49 2319.42 2975.93C2312.11 2963.51 2309.52 2949.23 2311.4 2931.56C2311.97 2926.13 2314.68 2912.41 2317.41 2901.06C2325.09 2869.14 2325.84 2863.63 2325.89 2838.43C2325.92 2821.66 2325.5 2813.81 2324.11 2805.43C2316.46 2759.31 2297.76 2718.23 2257.64 2659.43C2239.51 2632.85 2224.79 2619.45 2207.43 2613.73C2202.56 2612.13 2197.67 2611.49 2187.93 2611.18C2167.05 2610.53 2156.33 2613.54 2115.88 2631.44C2017.11 2675.15 1954.9 2714.25 1905.93 2763.4C1887.43 2781.97 1867.19 2806.79 1853.32 2827.94L1851.7 2830.41L1850.51 2824.92C1844.94 2799.14 1848.16 2770.39 1859.04 2748.66C1869.2 2728.34 1883.59 2713.33 1916.43 2688.77C2013.46 2616.18 2094.91 2575.37 2180.49 2556.46C2198.39 2552.5 2221.42 2546.22 2222.8 2544.91C2224.07 2543.71 2208.06 2536.28 2199.93 2534.3C2190.56 2532.01 2168.42 2532.01 2154.99 2534.3C2143.26 2536.3 2123.73 2540.88 2111.58 2544.49C2085.05 2552.38 2035.04 2570.24 1993.01 2586.84C1983.15 2590.73 1974.97 2593.8 1974.83 2593.66C1974.69 2593.52 1975.21 2590.07 1975.98 2586C1978.82 2571.09 1988 2556.45 2008.91 2533.43C2069.75 2466.44 2113.35 2389.1 2133.43 2312.52C2141.44 2282.01 2144.74 2262.43 2144.85 2244.93C2144.93 2232.87 2142.95 2215.93 2141.47 2215.93C2141.07 2215.93 2140.17 2218.51 2139.47 2221.68C2137.68 2229.74 2130.37 2253.36 2125.62 2266.43C2111.63 2304.94 2089.26 2348.33 2060.05 2393.64C2044.93 2417.09 2033.31 2433.87 1996.5 2485.42C1943.72 2559.33 1919.65 2596.44 1898.37 2636.64C1892 2648.68 1891.44 2648.46 1890.7 2633.56C1890.11 2621.78 1891.95 2610.21 1896.47 2597.15C1898.06 2592.55 1906.99 2573.41 1916.31 2554.61C1992.1 2401.75 2046.13 2247.66 2103.83 2019.85C2119.14 1959.44 2120.18 1952.98 2116.91 1939.1C2113.82 1925.99 2114.39 1925.02 2100.44 1967.02C2089.01 2001.43 2075.26 2040.2 2065 2066.93C2054.42 2094.47 2047.39 2112.48 2034.73 2144.43C2028.41 2160.38 2018.15 2186.25 2011.94 2201.93C1981.71 2278.19 1968.01 2314.33 1950.92 2362.93C1946.37 2375.85 1942.26 2386.42 1941.79 2386.41C1940.3 2386.39 1936.22 2374.71 1935.7 2368.94C1934.97 2360.93 1939.12 2346.5 1946.87 2330.04C1951.58 2320.06 1953.99 2313.35 1955.92 2304.93C1967.69 2253.57 1981.39 2216.03 2021.55 2125.14C2033.12 2098.95 2044.86 2072.11 2047.65 2065.48C2077.72 1993.88 2091.73 1946.24 2098.52 1892.43C2101.85 1866.1 2101.53 1826.49 2097.81 1802.54C2097 1797.27 2096.45 1798.35 2090.01 1817.93C2084.77 1833.84 2080.89 1847.15 2070.92 1883.43C2056.03 1937.57 2046.75 1964.91 2033.94 1992.43C2028.99 2003.05 2017.34 2024.16 2016.75 2023.57C2016.55 2023.38 2017.28 2018.54 2018.37 2012.82C2027.26 1966.01 2031.42 1921.27 2031.42 1872.43C2031.42 1800.89 2022.2 1738.93 2001.38 1670.43C1996.99 1656.01 1991.83 1640.33 1989.93 1635.68C1988.93 1633.22 1989.8 1633.46 1995.76 1637.27ZM762.932 1847.38C733.768 1854.14 702.685 1871.67 680.815 1893.69C668.497 1906.09 660.248 1919.07 656.837 1931.43C654.184 1941.03 654.794 1940.76 670.87 1925.18C696.721 1900.12 722.914 1879.21 755.432 1857.67C770.605 1847.62 774.584 1844.81 773.381 1845C773.135 1845.03 768.432 1846.11 762.932 1847.38ZM803.618 1878.87C756.556 1906.87 721.305 1952.38 708.296 2001.93C705.226 2013.62 704.966 2038.35 707.815 2047.43L709.7 2053.43L712.104 2040.43C717.64 2010.49 727.31 1985.63 742.055 1963.43C750.217 1951.13 758.127 1941.17 803.683 1885.78C809.047 1879.26 813.096 1873.93 812.683 1873.93C812.27 1873.93 808.191 1876.15 803.618 1878.87ZM1160.33 2680.68C1147.46 2697.42 1115.53 2730.72 1095.43 2748.36C1041 2796.12 991.334 2826.22 907.932 2861.96C868.337 2878.93 829.448 2895.56 816.432 2901.08C743.725 2931.94 671.992 2955.34 616.432 2966.34C588.559 2971.85 582.448 2972.36 542.932 2972.39C501.142 2972.43 498.424 2972.06 481.065 2964.04C466.739 2957.43 449.766 2945.1 445.317 2938.08C438.458 2927.27 444.638 2909.99 457.799 2903.19C465.135 2899.4 474.699 2899.52 492.432 2903.63C555.13 2918.17 631.69 2922.15 680.432 2913.4C716.859 2906.86 753.687 2894.35 793.932 2874.85C829.98 2857.38 894.271 2820.05 903.587 2811.19C909.108 2805.93 909.88 2805.57 936.087 2795.99C981.989 2779.22 1009.15 2767.9 1043.27 2751.34C1085.1 2731.03 1123.85 2707.74 1151.93 2686.01C1161.68 2678.47 1162.36 2678.04 1160.33 2680.68ZM2163.05 2698.46C2211.82 2706.85 2248.59 2735.09 2264.55 2776.4C2270.87 2792.77 2274.99 2815.3 2281.91 2871.43C2284.42 2891.78 2286.75 2909.94 2287.09 2911.78L2287.7 2915.15L2284.81 2913.32C2278.19 2909.15 2269.62 2902.07 2259.59 2892.51C2253.73 2886.92 2246.48 2880.41 2243.48 2878.05C2237.8 2873.57 2226.91 2867.59 2225.39 2868.12C2224.9 2868.29 2231.95 2879.68 2241.04 2893.43C2274.38 2943.84 2292.32 2977.44 2303.75 3010.93C2310.23 3029.87 2323.08 3076.24 2333.28 3117.43C2339.06 3140.76 2350.45 3190.71 2350.41 3192.52C2350.38 3193.59 2349.45 3192.44 2336.49 3175.32C2310.91 3141.53 2286.56 3101.85 2241.93 3021.22C2227.44 2995.04 2221.7 2985.5 2221.08 2986.59C2219.55 2989.31 2219.07 3011.4 2220.37 3019.43C2222.78 3034.41 2227.31 3045.31 2250.07 3090.93C2269.93 3130.74 2296.69 3177.14 2340.6 3247.93C2346.91 3258.1 2358.06 3276.33 2365.37 3288.43C2396.55 3340 2414.99 3363.88 2441.64 3387.19C2454.96 3398.84 2466.09 3405.96 2501.43 3425.44C2530.53 3441.48 2559.34 3458.16 2573.73 3467.3C2639.26 3508.92 2677.44 3557.51 2693.45 3619.65C2696.48 3631.4 2698.17 3644.57 2697.03 3647.53C2696.54 3648.81 2694.2 3645.42 2688.36 3634.99C2670.05 3602.27 2647.04 3571.95 2607.97 3529.07C2568.09 3485.28 2537.27 3463.2 2496.26 3449.02C2466.36 3438.69 2444.05 3429.26 2414.43 3414.43C2359.6 3386.98 2318.71 3360.49 2207.43 3280.33C2181.34 3261.53 2154.23 3242.69 2143.78 3236.09C2131.65 3228.43 2121.36 3222.66 2120.81 3223.22C2120.37 3223.66 2143.6 3245.01 2162.92 3261.93C2237.67 3327.35 2324.21 3389.24 2433.43 3455.39C2446.91 3463.54 2459.28 3471.05 2460.93 3472.06L2463.93 3473.89L2461.29 3473.91C2452.16 3473.97 2395.34 3465.39 2369.08 3459.99C2243.3 3434.12 2151.66 3380.08 2087.2 3293.77C2074.51 3276.77 2065.91 3263.16 2045.96 3228.43C2012.41 3170.06 1997.73 3148.79 1973.93 3124.1C1941.21 3090.15 1905.96 3069.72 1866.36 3061.76C1851.03 3058.67 1819.37 3058.42 1803.93 3061.27C1783.24 3065.08 1763.05 3071.06 1751.93 3076.68C1739.27 3083.07 1726.72 3093.82 1712.18 3110.72C1707.78 3115.83 1703.97 3119.79 1703.7 3119.53C1702.78 3118.61 1700.59 3106.42 1699.9 3098.38C1699.05 3088.49 1700.79 3074.16 1704.04 3064.18C1713.9 3034 1743.06 3005.05 1770.74 2997.98C1792.61 2992.39 1810.16 2995.05 1853.72 3010.55C1877.78 3019.12 1892.23 3023.46 1893.24 3022.45C1894.28 3021.4 1878.83 3006.98 1871.43 3002.09C1855.69 2991.7 1832.09 2982.48 1812.2 2978.95C1799.25 2976.65 1790.47 2976.24 1778.43 2977.36C1770.03 2978.15 1769.9 2978.12 1767.43 2975.46C1765.17 2973.01 1764.94 2971.97 1765.02 2964.59C1765.15 2951.63 1767.89 2944.86 1775.48 2938.76C1780.91 2934.39 1788.11 2933.26 1801.16 2934.74C1827.52 2937.71 1850.65 2944.76 1876.56 2957.74C1897.09 2968.02 1909.93 2975.93 1927.54 2989.1C1968.78 3019.97 2001.07 3056.61 2054.71 3133.43C2075.68 3163.45 2086.5 3175.18 2103.65 3186.5C2111.68 3191.79 2113.29 3192.06 2110.62 3187.68C2109.54 3185.89 2103.9 3175.65 2098.1 3164.93C2092.31 3154.2 2079.25 3130.13 2069.09 3111.43C2058.93 3092.73 2050.78 3077.26 2050.97 3077.07C2051.41 3076.61 2064.2 3087 2075.93 3097.35C2080.88 3101.72 2110.13 3130.32 2140.93 3160.92C2171.73 3191.51 2202.11 3220.96 2208.43 3226.37C2235.98 3249.9 2262.12 3267.72 2288.46 3280.94L2298.54 3286L2297.9 3282.21C2293.68 3256.86 2282.88 3235.46 2261.93 3210.89C2245.68 3191.83 2136.77 3089.26 2073.43 3033.37C2044.94 3008.22 2041.89 3005.68 2028.43 2995.73C1982.6 2961.84 1930.86 2938.03 1861.64 2918.97C1837.36 2912.29 1833.43 2910.15 1833.43 2903.6C1833.43 2894.04 1854.47 2874.85 1875.91 2864.84C1894.41 2856.2 1911.29 2852.56 1932.93 2852.55C1949.41 2852.54 1960.62 2854.17 1973.93 2858.51C1993.28 2864.81 2005.72 2872.46 2021.79 2887.93C2034.86 2900.51 2047.34 2916.85 2060.86 2939.09C2081.04 2972.29 2094.51 2991.68 2109.39 3008.97C2121.11 3022.57 2147.71 3050.99 2148.23 3050.46C2148.5 3050.19 2148.27 3049.4 2147.72 3048.7C2144.25 3044.25 2129.2 3008.61 2113.39 2967.43C2097.92 2927.1 2084.59 2897.67 2073.58 2879.54C2071.3 2875.79 2069.43 2872.58 2069.43 2872.41C2069.43 2870.91 2100.42 2880.09 2115.01 2885.92C2143.79 2897.42 2179.9 2918.78 2206.6 2940.1C2219.33 2950.26 2252.73 2983.55 2261.19 2994.52C2270.24 3006.24 2275.02 3008.18 2281.76 3002.89C2287.26 2998.55 2286.86 2991.11 2280.65 2982.43C2278.68 2979.68 2274.6 2973.83 2271.58 2969.43C2237.66 2919.99 2193.24 2883.39 2136.72 2858.34C2112.77 2847.73 2081.74 2837.41 2056.93 2831.81C2051.98 2830.69 2039.38 2828.45 2028.93 2826.83C2018.48 2825.2 2009.2 2823.65 2008.31 2823.37C2007.41 2823.1 2002.76 2822.24 1997.98 2821.46C1988.45 2819.92 1984.85 2818.15 1983.39 2814.31C1980.38 2806.4 1983.59 2802.88 2000.64 2795.45C2023.3 2785.56 2035.35 2781.82 2055.97 2778.29C2070.87 2775.74 2101.15 2775.98 2116.67 2778.77C2165.26 2787.53 2205.14 2810.58 2232.7 2845.85C2238.82 2853.69 2239.43 2853.54 2239.42 2844.26C2239.38 2789.16 2175.51 2748.54 2059.62 2729.9C2052.59 2728.77 2052.37 2728.65 2053.98 2726.87C2057.11 2723.41 2072.1 2713.96 2081.53 2709.49C2091.74 2704.66 2104.36 2700.75 2116.93 2698.52C2127.89 2696.58 2151.96 2696.55 2163.05 2698.46ZM1712.36 2753.62C1678.54 2800.98 1663 2820.1 1635.43 2848.27C1590.24 2894.46 1541.97 2933.55 1454.72 2994.58C1337.58 3076.53 1213.65 3124.3 1079.27 3139.33C993.081 3148.96 912.987 3145.61 793.432 3127.38C763.579 3122.82 656.526 3104.95 625.932 3099.41C573.706 3089.95 554.548 3087.68 526.932 3087.69C490.879 3087.7 466.94 3092.37 445.034 3103.69C434.827 3108.96 424.284 3116.99 416.789 3125.21C411.663 3130.83 403.432 3142.4 403.432 3143.99C403.432 3144.45 404.669 3144.41 406.182 3143.9C417.044 3140.28 464.284 3132.55 486.432 3130.77C507.677 3129.07 545.389 3130.27 565.932 3133.3C588.458 3136.63 601.323 3138.68 610.432 3140.38C614.557 3141.15 623.332 3142.74 629.932 3143.92C636.531 3145.09 647.557 3147.12 654.432 3148.43C697.714 3156.67 761.634 3166.22 814.432 3172.34C872.047 3179.01 920.022 3181.92 972.141 3181.93C1066.91 3181.93 1139.36 3171.69 1230.43 3145.42C1315.63 3120.85 1398.86 3083.9 1466.93 3040.43C1542.75 2992.01 1609.9 2931.76 1671.99 2856.42C1701.17 2821.02 1716.32 2793.69 1724.47 2761.79C1726.65 2753.22 1729.88 2732.04 1729.11 2731.27C1728.86 2731.02 1721.32 2741.07 1712.36 2753.62ZM561.525 2795.25C563.949 2796.53 566.607 2798.83 567.432 2800.35C568.887 2803.04 568.828 2803.2 565.504 2805.78C558.193 2811.43 556.432 2813.65 556.432 2817.19C556.432 2821.65 557.837 2822.81 570.463 2828.81C593.166 2839.6 613.454 2843.94 650.447 2845.95C682.964 2847.72 717.222 2845.39 777.432 2837.31C813.234 2832.51 825.792 2830.95 826.12 2831.28C826.694 2831.86 798.708 2844.86 785.535 2850.14C748.628 2864.93 712.465 2873.99 670.106 2879.07C654.982 2880.89 646.645 2881.25 620.432 2881.24C586.41 2881.23 566.63 2879.66 535.676 2874.5C507.779 2869.85 500.355 2867.33 497.582 2861.55C495.636 2857.49 497.955 2852.14 505.682 2842.83C512.312 2834.85 517.891 2827.55 531.65 2808.85C538.318 2799.78 541.118 2796.79 544.549 2795.1C550.25 2792.27 555.986 2792.33 561.525 2795.25ZM1825.13 2839.43C1827.48 2850.54 1826.56 2861.92 1822.62 2870.33C1818.63 2878.86 1809.82 2887.67 1799.33 2893.63C1787.58 2900.3 1787.82 2900.53 1793.5 2887.78C1796.29 2881.54 1803.58 2865 1809.72 2851.03L1820.87 2825.63L1822.26 2829.03C1823.02 2830.9 1824.31 2835.58 1825.13 2839.43ZM1864.04 3087.77C1885.87 3092.8 1905.03 3101.97 1925.43 3117.17C1936.47 3125.39 1967.03 3155.56 1976.85 3167.93C1999.22 3196.09 2015.05 3227.52 2022.33 3258.23C2035.13 3312.23 2022.91 3368.62 1986.85 3421.93C1982.2 3428.8 1973.97 3440.5 1968.57 3447.93C1963.17 3455.35 1948.92 3475.83 1936.91 3493.43C1906.32 3538.24 1907.08 3537.18 1903.43 3539.68C1899.18 3542.57 1891.28 3542.74 1886.83 3540.03C1882.43 3537.34 1880.02 3532.88 1876.78 3521.43C1874.2 3512.26 1873.96 3510.05 1873.99 3494.93C1874.02 3479.73 1874.23 3477.8 1876.7 3470.43C1883.75 3449.39 1895.44 3436.23 1924.24 3416.93C1930.39 3412.8 1935.43 3409.15 1935.43 3408.82C1935.43 3408.48 1932.87 3406.51 1929.75 3404.43C1902.93 3386.63 1902.23 3369.35 1927.19 3341.18C1931.39 3336.43 1933.15 3333.78 1932.27 3333.49C1931.53 3333.24 1926 3331.42 1919.97 3329.44C1870.98 3313.35 1850.09 3283.24 1854.39 3234.93C1855.83 3218.79 1858.49 3204.35 1865.8 3172.93C1868.8 3160 1871.57 3147.9 1871.96 3146.03L1872.65 3142.64L1866.4 3147.03C1853.64 3155.98 1843.39 3170.41 1838.53 3186.28C1831.74 3208.46 1831.72 3249.07 1838.5 3275.43C1845.02 3300.79 1862.46 3326.8 1883.69 3342.83C1890.03 3347.62 1893.86 3354.14 1894.97 3362.06C1895.69 3367.13 1894.4 3377.04 1891.43 3389.43C1890.37 3393.83 1888.79 3401.7 1887.91 3406.93C1884.79 3425.4 1877.1 3436.05 1861.19 3443.89C1849.78 3449.52 1841.09 3451.19 1823.43 3451.18C1807.8 3451.16 1798.14 3449.77 1769.22 3443.39C1760.58 3441.49 1752.44 3439.93 1751.12 3439.93H1748.72L1748.04 3459.18C1744.36 3562.43 1735.29 3611.32 1709.93 3664.65L1704.33 3676.43L1702.39 3673.93C1698.71 3669.19 1691.5 3653.41 1688.97 3644.56C1686.99 3637.66 1686.43 3633.44 1686.43 3625.42C1686.43 3609.03 1690.4 3598.66 1703.67 3580.35C1724.61 3551.48 1733.92 3523.77 1735.15 3486.77C1735.99 3461.32 1733.95 3443.8 1725.05 3400.43C1713.17 3342.49 1709.7 3311.44 1710.74 3272.59C1711.74 3235.24 1717.35 3205.85 1729.3 3175.34C1749.75 3123.11 1780.72 3093.66 1823.35 3085.88C1831.37 3084.41 1854.03 3085.47 1864.04 3087.77ZM2403.67 3172.43C2424.95 3205.11 2437.58 3242.15 2439.84 3278.43L2440.46 3288.43L2437.91 3285.43C2433.81 3280.61 2421.9 3255.46 2417.53 3242.43C2415.32 3235.83 2410.77 3219.85 2407.42 3206.93C2402.34 3187.32 2396.45 3166.76 2393.73 3159.13C2392.76 3156.43 2396.59 3161.54 2403.67 3172.43ZM1785.8 3188.43C1783.97 3191.7 1779.57 3205.18 1777.76 3213.07C1775.1 3224.67 1775.4 3254.19 1778.31 3267.93C1787.7 3312.14 1813.02 3349.31 1842.58 3362.3C1847.76 3364.57 1860.49 3368.2 1861.11 3367.58C1861.28 3367.41 1857.53 3364.16 1852.79 3360.35C1810.5 3326.41 1790.75 3278.99 1787.64 3203.93C1787.07 3190.22 1786.67 3186.86 1785.8 3188.43ZM389.932 3199.4C455.924 3208.18 510.666 3234.54 558.336 3280.5C569.016 3290.79 588.382 3312.47 589.338 3315.2C589.561 3315.84 588.436 3315.49 586.838 3314.44C558.263 3295.51 518.583 3278.04 484.932 3269.56C448.266 3260.31 415.823 3256.62 371.432 3256.64C334.854 3256.66 300.549 3259.24 253.533 3265.51C243.414 3266.86 234.981 3267.81 234.793 3267.62C234.234 3267.06 267.28 3234.85 275.932 3227.52C294.804 3211.53 313.193 3202.08 332.773 3198.33C341.924 3196.58 373.083 3197.16 389.932 3199.4ZM340.932 3280.96C383.686 3284.55 431.089 3295.57 481.432 3313.59C499.64 3320.11 532.432 3332.89 532.432 3333.47C532.432 3334.54 525.658 3337.13 516.91 3339.41C508.871 3341.49 504.906 3341.93 493.729 3341.93C474.896 3341.93 467.852 3340.42 424.371 3327.05C405.594 3321.28 391.743 3318.78 380.452 3319.13L370.971 3319.43L379.102 3325.93C387.76 3332.85 395.953 3337.96 414.432 3347.95C428.958 3355.8 440.297 3363.31 447.786 3370.02L453.641 3375.27L444.786 3377.06C433.913 3379.26 427.142 3381.68 412.932 3388.45C388.738 3399.98 380.914 3402.26 365.432 3402.27C349.018 3402.27 340.646 3399.49 317.999 3386.49C297.717 3374.84 279.479 3367.83 257.582 3363.26C246.543 3360.95 242.512 3360.61 225.932 3360.57C210.259 3360.54 204.917 3360.93 195.431 3362.77C189.106 3363.99 183.257 3365.26 182.431 3365.58C180.638 3366.29 180.938 3366.38 204.432 3372.51C214.057 3375.02 226.207 3378.19 231.432 3379.55C254.833 3385.67 281.073 3396.1 296.203 3405.29C299.354 3407.2 303.281 3409.09 304.932 3409.49C310.624 3410.88 318.161 3414.7 319.794 3417.03C322.076 3420.29 321.839 3424.19 319.025 3429.71C316.25 3435.15 312.153 3439.34 308.117 3440.86C302.349 3443.04 297.111 3442.01 274.898 3434.33C228.543 3418.29 217.57 3414.71 206.432 3411.98C173.173 3403.82 145.003 3403.99 119.259 3412.5C112.267 3414.81 111.225 3415.52 107.509 3420.44C105.266 3423.41 103.431 3426.08 103.431 3426.38C103.431 3426.68 112.318 3426.93 123.181 3426.94C183.384 3426.97 223.258 3439.37 258.229 3468.93C264.979 3474.64 280.36 3491.22 282.499 3495.1C283.072 3496.14 277.234 3493.8 267.177 3488.97C241.01 3476.39 218.454 3468.29 177.931 3456.92C165.831 3453.52 150.757 3449.25 144.431 3447.41C126.861 3442.32 117.349 3440.76 100.431 3440.22C76.7995 3439.46 58.3765 3442.17 -2.51251 3455.39C-11.5575 3457.36 -19.3875 3458.82 -19.9125 3458.65C-21.2685 3458.19 -8.70853 3447.89 1.93149 3440.73C12.1735 3433.84 33.4945 3423.24 50.4315 3416.63C80.7995 3404.76 93.5815 3399.55 100.931 3396.01L108.931 3392.16L104.931 3391.29C102.731 3390.82 95.5315 3390.46 88.9315 3390.51C74.9715 3390.6 68.8485 3392.07 46.9895 3400.57C32.8765 3406.07 18.5315 3410.36 17.5565 3409.38C16.5735 3408.4 29.3845 3397.25 41.0735 3388.91C92.6235 3352.14 189.553 3299.42 223.966 3289.44C234.255 3286.45 258.299 3282.35 272.932 3281.07C287.167 3279.83 326.775 3279.77 340.932 3280.96ZM1750.31 3346.68C1753.46 3352.85 1760.79 3362.23 1768.24 3369.6C1781.01 3382.24 1796.54 3391 1814.31 3395.59C1826.77 3398.81 1846.74 3399.06 1858.43 3396.14L1865.93 3394.28L1857.93 3392.51C1818.5 3383.82 1780.1 3366.67 1753.29 3345.77C1748.5 3342.03 1748.01 3342.18 1750.31 3346.68ZM1316.19 3347.49C1325.42 3351.14 1328.68 3353.7 1328.68 3357.29C1328.68 3360.52 1323.94 3366.84 1320.11 3368.72C1316.92 3370.29 1315.66 3369.7 1309.17 3363.62C1300.95 3355.92 1295.81 3355.2 1290.5 3361.01C1289 3362.66 1286.71 3366.57 1285.42 3369.72C1284.12 3372.86 1279.8 3381.73 1275.81 3389.43C1252.07 3435.26 1241.97 3475.64 1232.93 3560.93C1223.5 3649.89 1221.38 3667.68 1216.43 3698.98C1208.54 3748.95 1197.31 3792.35 1179.58 3841.43C1169.47 3869.4 1155.02 3900.26 1143.31 3918.9L1140.47 3923.43L1140.45 3918.84C1140.44 3916.32 1141.77 3867.5 1143.41 3810.34C1145.05 3753.19 1146.85 3689.78 1147.42 3669.43C1147.98 3649.08 1148.88 3619.38 1149.41 3603.43C1149.94 3587.48 1150.85 3558 1151.45 3537.93C1153.42 3471.22 1154.5 3462.6 1162.98 3445.7C1174.71 3422.32 1187.07 3411.01 1250.93 3365.25C1280.17 3344.3 1281.19 3343.84 1297.93 3344.31C1307.24 3344.57 1310.05 3345.06 1316.19 3347.49ZM1407.58 3371.87C1413.82 3372.94 1425.68 3376.05 1433.93 3378.78C1494.09 3398.72 1537.58 3408.71 1591.93 3415.07C1608.68 3417.03 1616.15 3417.3 1654.93 3417.37C1696.93 3417.45 1699.08 3417.54 1702.23 3419.43C1707.54 3422.62 1709.98 3429.19 1713.03 3448.43C1718.76 3484.63 1716.1 3512.51 1704.77 3535.2C1696.74 3551.27 1691.84 3553.84 1662.43 3557.4C1628.92 3561.46 1591.65 3566.99 1527.43 3577.43C1475.66 3585.85 1451.06 3589.8 1440.43 3591.4C1366.92 3602.46 1333.21 3605.93 1299.67 3605.91C1266.12 3605.89 1260.59 3604.5 1255.68 3594.91C1252.87 3589.41 1252.69 3578.69 1255.01 3555.93C1257.92 3527.38 1264.54 3503.79 1278.73 3471.43C1304.63 3412.35 1307.3 3407.32 1318.6 3396.18C1329.13 3385.79 1340.18 3379.06 1354.26 3374.46C1368.64 3369.75 1389.36 3368.75 1407.58 3371.87ZM530.932 3390.43C533.132 3391.38 538.082 3394.2 541.932 3396.69C552.003 3403.22 556.153 3404.88 562.432 3404.9C566.716 3404.9 569.076 3404.25 573.109 3401.94C575.958 3400.3 578.57 3398.51 578.917 3397.95C579.723 3396.65 584.172 3398.9 587.067 3402.08C592.535 3408.09 590.236 3412.31 580.859 3413.48C577.703 3413.87 560.678 3413.77 543.026 3413.26C512.914 3412.37 510.671 3412.18 506.715 3410.12C501.648 3407.48 500.42 3405.44 500.466 3399.74C500.508 3394.7 502.2 3391.2 505.542 3389.25C508.865 3387.32 525.513 3388.09 530.932 3390.43ZM462.788 3397.5C466.167 3398.37 470.732 3400.13 472.932 3401.42C477.958 3404.36 484.865 3411.42 484.036 3412.76C483.693 3413.31 481.505 3414.85 479.173 3416.19C476.84 3417.52 466.382 3423.78 455.932 3430.09C433.924 3443.39 423.331 3449.13 411.324 3454.25C397.468 3460.17 392.321 3459.28 375.721 3448.12C364.998 3440.92 360.119 3438.38 354.042 3436.85L349.382 3435.68L352.656 3433.22C358.558 3428.8 367.312 3424.92 376.198 3422.79C383.588 3421.02 386.932 3420.78 397.932 3421.23C405.738 3421.55 413.088 3422.43 416.328 3423.43C423.194 3425.54 429.67 3425.8 431.785 3424.05C434.044 3422.17 433.875 3416.63 431.331 3409.09C428.848 3401.74 429.349 3398.49 433.18 3397.09C437.599 3395.48 455.874 3395.73 462.788 3397.5ZM1151.95 3420.1C1098.67 3618.04 1041.83 3743.73 957.583 3849.93C944.875 3865.94 920.801 3893.37 911.941 3901.93C906.369 3907.31 906.536 3906.98 919.703 3886.93C964.546 3818.62 997.114 3752.4 1019.78 3683.43C1025.05 3667.38 1033.42 3638.57 1033.43 3636.45C1033.43 3634.71 1030.92 3638.99 1013.43 3670.43C972.635 3743.77 955.244 3772 931.964 3802.66C919.952 3818.48 917.033 3822.03 917.771 3819.93C918.061 3819.1 921.302 3811.9 924.974 3803.93C938.494 3774.56 958.688 3722.23 979.775 3661.93C1006.19 3586.37 1025.49 3537.78 1043.07 3502.59C1056.12 3476.44 1066.75 3461.37 1084.83 3443.39C1098.22 3430.08 1110.81 3421.02 1126.44 3413.48C1135.4 3409.15 1155.53 3401.7 1156.27 3402.44C1156.46 3402.62 1154.52 3410.57 1151.95 3420.1ZM810.932 3424.94C836.086 3426.99 863.208 3432.6 891.005 3441.48L905.079 3445.99L889.505 3477.22C873.983 3508.35 868.141 3520.75 836.396 3589.93C787.651 3696.15 765.245 3739.87 732.88 3791.93C704.573 3837.45 666.339 3886.66 640.096 3911.34C637.805 3913.5 632.781 3918.25 628.932 3921.9C625.082 3925.56 616.757 3932.84 610.432 3938.08C554.296 3984.62 487.993 4016.64 408.799 4035.45C398.422 4037.91 389.34 4039.93 388.616 4039.93C386.549 4039.93 395.734 4028.9 406.302 4018.7C423.167 4002.41 434.561 3994.94 471.595 3975.88C524.876 3948.45 557.265 3925.67 593.695 3890C620.867 3863.39 639.737 3839.93 660.008 3807.56C670.31 3791.11 687.717 3757.1 695.388 3738.43C705.893 3712.86 718.667 3673.49 721.751 3657.18C723.089 3650.11 723.067 3649.89 720.625 3645.79L718.136 3641.62L699.382 3679.52C673.847 3731.13 660.937 3753.73 642.83 3778.54C631.471 3794.1 625.462 3801.19 612.106 3814.79C599.431 3827.7 590.63 3835.32 577.825 3844.49C567.502 3851.88 548.544 3863.37 547.844 3862.67C547.58 3862.41 549.152 3859.93 551.337 3857.17C556.937 3850.08 575.106 3823.23 581.949 3811.93C596.6 3787.72 613.399 3756.65 634.128 3715.43C658.33 3667.29 680.948 3625.88 691.588 3610.25C693.152 3607.95 694.425 3605.7 694.419 3605.25C694.412 3604.8 692.782 3603.37 690.796 3602.09C687.801 3600.15 686.973 3599.97 685.949 3601.09C685.27 3601.82 671.958 3619.98 656.367 3641.43C597.854 3721.93 577.78 3748.13 538.393 3795.43C443.265 3909.65 351.371 3993.66 254.432 4055.03C223.953 4074.33 204.563 4083.56 181.431 4089.8C153.891 4097.22 119.714 4094.44 97.4315 4082.96C88.3825 4078.29 83.4465 4075.46 83.4685 4074.93C83.4795 4074.65 91.2385 4071.06 100.71 4066.96C154.862 4043.46 211.878 4011.15 251.987 3981.22C295.164 3949 335.373 3907.92 363.281 3867.51C366.667 3862.61 369.245 3858.41 369.01 3858.17C368.378 3857.54 357.216 3864.24 346.932 3871.43C341.982 3874.89 328.707 3885 317.432 3893.9C295.01 3911.59 279.285 3922.51 266.932 3928.95L258.932 3933.12L262.432 3929.86C337.359 3860.21 373.619 3819.01 407.615 3764.93C445.961 3703.91 476.219 3664.93 513.564 3628.43C535.789 3606.7 554.063 3591.63 577.233 3575.93C590.967 3566.62 593.419 3563.11 591.807 3555.05C591.018 3551.1 590.292 3551.12 578.151 3555.36C551.948 3564.52 529.859 3580.43 494.828 3615.37C467.244 3642.89 452.711 3660.57 410.956 3717.43C385.599 3751.95 368.642 3773.97 357.497 3786.84C328.195 3820.68 297.698 3848.84 258.664 3878.12C240.685 3891.6 204.431 3916.26 203.684 3915.51C203.107 3914.94 282.588 3819.84 309.898 3788.43C321.852 3774.68 343.621 3749.48 358.272 3732.43C434.349 3643.89 476.148 3598.32 515.293 3561.23C596.683 3484.1 649.871 3449.75 713.236 3433.36C745.063 3425.14 778.279 3422.27 810.932 3424.94ZM1034.85 3435.37C1044.15 3436.74 1052.12 3438.21 1052.56 3438.65C1052.99 3439.09 1050.17 3444.84 1046.29 3451.44C1016 3502.88 993.338 3549.68 978.984 3590.43C964.13 3632.58 959.716 3644.62 952.93 3661.46C922.882 3736.04 889.733 3794.87 849.557 3844.93C839.902 3856.95 810.932 3886.1 798.238 3896.57C786.093 3906.58 769.117 3918.7 755.298 3927.23C743.688 3934.4 721.54 3946.38 720.979 3945.79C720.786 3945.59 724.66 3940.7 729.588 3934.93C779.641 3876.26 822.768 3800.69 863.112 3700.93C872.903 3676.71 889.604 3632.76 889.176 3632.34C888.728 3631.89 877.856 3649.49 849.774 3696.14C817.035 3750.53 805.082 3768.98 786.097 3794.43C776.125 3807.79 764.366 3822.19 763.849 3821.68C763.663 3821.49 765.343 3817.53 767.581 3812.88C779.616 3787.87 805.357 3727.91 831.959 3662.93C858.262 3598.68 868.615 3574.41 885.937 3536.43C897.499 3511.07 914.048 3478.31 919.109 3470.77C927.959 3457.57 939.37 3446.98 951.109 3441.06C956.625 3438.28 971.203 3434.1 979.386 3432.95C989.878 3431.48 1016.12 3432.62 1034.85 3435.37ZM513.504 3439.47C515.939 3440.31 518.832 3441.7 519.932 3442.55C521.911 3444.08 521.906 3444.12 519.456 3445.76C512.7 3450.3 485.077 3472.62 470.432 3485.38C445.212 3507.35 424.051 3529.62 373.949 3586.93C303.997 3666.94 286.758 3686.43 237.086 3741.67C177.419 3808.03 135.68 3847.05 77.9315 3890.44C21.9825 3932.49 -38.3595 3967.52 -101.068 3994.37C-112.068 3999.08 -126.516 4005.69 -133.175 4009.05L-145.283 4015.18L-146.925 4020.39C-147.829 4023.26 -148.568 4025.81 -148.568 4026.06C-148.568 4026.56 -148.048 4026.53 -130.068 4024.9C-91.0015 4021.35 -46.1135 4009.07 -4.06851 3990.43C24.6365 3977.7 69.1215 3952.39 103.431 3929.27C112.236 3923.34 112.6 3923.18 108.401 3927.15C30.3205 4000.87 16.5455 4012.86 -11.5685 4031.63C-42.2055 4052.08 -80.9205 4067.85 -100.636 4067.91C-109.198 4067.93 -116.396 4065.29 -151.568 4049.17C-176.553 4037.72 -194.559 4029.58 -214.234 4020.85C-226.696 4015.32 -238.774 4009.5 -241.076 4007.92C-250.309 4001.57 -256.724 3990.72 -260.424 3975.2C-278.503 3899.38 -282.898 3871.57 -284.465 3823.12C-287.028 3743.82 -278.382 3698.07 -254.095 3662.43C-217.667 3608.96 -165.18 3558.99 -101.068 3516.72C-67.0765 3494.31 -54.0995 3487.93 -42.5305 3487.93C-39.8015 3487.93 -37.5685 3488.13 -37.5685 3488.39C-37.5685 3488.64 -40.2625 3493.22 -43.5545 3498.57C-46.8475 3503.91 -49.3815 3508.45 -49.1875 3508.64C-48.1715 3509.66 -38.9355 3506.5 -34.3385 3503.56C-16.6525 3492.26 5.73846 3483.56 47.4175 3471.78C59.2505 3468.44 73.4315 3464.37 78.9315 3462.74C97.5345 3457.21 114.418 3457.92 133.701 3465.03C137.978 3466.6 151.48 3472.92 163.704 3479.06C175.93 3485.21 189.531 3491.76 193.931 3493.63L201.931 3497.01L195.431 3496.49C132.023 3491.42 94.3405 3494.62 54.3155 3508.5C8.44849 3524.4 -29.7585 3555.01 -58.9695 3599.24C-63.0555 3605.43 -68.9715 3615.43 -72.1165 3621.46L-77.8345 3632.43L-73.0555 3626.93C-29.6975 3577.03 25.8205 3550.34 97.6295 3544.86C105.495 3544.26 125.431 3543.92 141.931 3544.1C169.797 3544.4 172.173 3544.57 175.326 3546.43C180.122 3549.25 182.569 3552.96 183.174 3558.34C183.668 3562.72 183.479 3563.19 179.775 3566.7C177.617 3568.75 172.763 3571.69 168.987 3573.23C165.211 3574.77 154.801 3580.51 145.85 3585.98C136.901 3591.44 112.582 3606.1 91.8085 3618.55C10.4585 3667.29 -20.1285 3688.48 -66.0625 3727.93C-87.0215 3745.92 -90.9835 3750.46 -93.3965 3759.25C-94.2015 3762.18 -94.1695 3762.86 -93.2575 3762.17C-92.1455 3761.33 -78.1155 3752.13 -62.0685 3741.72C-19.7395 3714.27 36.9145 3681.43 98.4315 3648.67C134.596 3629.41 162.35 3615.2 231.932 3580.29C361.832 3515.12 419.499 3484.82 479.953 3449.99C502.778 3436.83 504.434 3436.31 513.504 3439.47ZM357.776 3459.9C369.547 3461.82 374.733 3466.36 374.858 3474.84C374.923 3479.21 374.508 3480.25 371.432 3483.45C363.311 3491.9 352.031 3496.21 337.932 3496.24C327.337 3496.27 320.362 3494.4 312.39 3489.39C298.51 3480.67 296.584 3463.69 309.051 3459.96C313.024 3458.77 350.604 3458.72 357.776 3459.9ZM1791.22 3469.52C1796.21 3471.55 1797.84 3476.31 1796.49 3484.98C1794.83 3495.67 1795.24 3522.09 1797.53 3552.53C1800.16 3587.45 1799.76 3607.76 1796.03 3629.04C1790.7 3659.41 1788.99 3663.57 1775.88 3677.98C1765.68 3689.19 1760.01 3697.54 1753.02 3711.61C1748.77 3720.19 1740.96 3739.75 1737.74 3749.93C1737 3752.25 1729.96 3743.63 1725.88 3735.43C1717.12 3717.8 1717.85 3699.52 1728.35 3673.44C1733.73 3660.05 1737.9 3654.32 1744.93 3650.65C1750.25 3647.88 1759.78 3647.97 1767.93 3650.89C1777.67 3654.38 1777.85 3654.41 1776.9 3652.83C1776.43 3652.06 1774.62 3649.38 1772.87 3646.87C1766.07 3637.12 1757.43 3621.06 1754.88 3613.43C1751.79 3604.18 1749.14 3582.58 1749.63 3570.7C1749.89 3564.24 1750.32 3562.59 1752.22 3560.7C1755.81 3557.11 1763.72 3557.64 1774.86 3562.22C1779.77 3564.24 1783.95 3565.75 1784.13 3565.56C1784.62 3565.07 1778.59 3548.54 1772.54 3533.75C1766.99 3520.16 1764.48 3510.44 1764.45 3502.43C1764.43 3493.92 1766.52 3479.63 1768.42 3475.26C1771.75 3467.64 1780.93 3465.33 1791.22 3469.52ZM1832.78 3487.93C1834.74 3496.45 1838.18 3513.78 1840.43 3526.43C1847.58 3566.66 1849.56 3577.16 1852.13 3588.43C1856.18 3606.22 1856.34 3607.16 1856.39 3613.22C1856.47 3624.17 1851.9 3640.72 1842.63 3663C1838.14 3673.78 1833.76 3687.04 1826.94 3710.43C1815.56 3749.47 1804.86 3770.41 1786.98 3788.61C1777.42 3798.35 1772.97 3799.2 1765.81 3792.63C1759.68 3787.01 1757.98 3774.05 1760.88 3754.93C1764.76 3729.38 1776.88 3707.34 1798.59 3686.35C1803.76 3681.35 1811.44 3674.72 1815.65 3671.6C1819.86 3668.49 1824.01 3664.93 1824.87 3663.71C1828.23 3658.91 1825.92 3652.47 1818.75 3646.66C1815.58 3644.09 1814.21 3639.17 1815.47 3634.92C1820.31 3618.54 1821.28 3590.1 1818.53 3545.66C1816.34 3510.46 1816.03 3495.52 1817.31 3487.93C1818.18 3482.79 1827.39 3469.08 1828.55 3471.2C1828.92 3471.87 1830.82 3479.4 1832.78 3487.93ZM2176.93 3488.86C2287.67 3503.99 2379.32 3534.36 2459.93 3582.65C2487.92 3599.42 2509.26 3614.58 2551.93 3648.02C2582.97 3672.34 2609.14 3691.55 2610.02 3690.67C2610.86 3689.83 2601.61 3672.53 2594.66 3661.93C2586.22 3649.04 2580 3641.21 2559.11 3617.16C2550.16 3606.86 2539.56 3594.38 2535.57 3589.43C2526.02 3577.6 2515.12 3561.53 2516.36 3561.12C2518.77 3560.31 2535.05 3569.46 2546.93 3578.3C2562.8 3590.11 2569.99 3593.74 2587.44 3598.76C2603.1 3603.26 2609.85 3606.43 2616.09 3612.18C2621.63 3617.29 2623.94 3621.18 2630.78 3636.98C2633.75 3643.82 2643.61 3664.5 2652.7 3682.93C2661.79 3701.35 2671.29 3721.7 2673.81 3728.16C2690.42 3770.61 2692.63 3802.72 2681.88 3845.15C2667.58 3901.54 2630.57 3955.95 2571.93 4006.79C2546.99 4028.42 2516.98 4048.04 2479.93 4066.94C2454.94 4079.7 2432.45 4087.63 2408.43 4092.17C2391.93 4095.29 2362.73 4095.22 2342.93 4092.01C2333.61 4090.5 2322.58 4089.57 2309.93 4089.22C2291.51 4088.71 2283.41 4089.09 2238.93 4092.55C2213.41 4094.53 2174.51 4094.8 2161.43 4093.08C2152.78 4091.95 2144.11 4090.41 2114.93 4084.87C2109.43 4083.83 2100.21 4082.09 2094.43 4081.01C2049.22 4072.54 1950.31 4053.24 1944.03 4051.66C1940.73 4050.83 1938.45 4049.51 1937.06 4047.64L1934.98 4044.84L1937.21 4038.64C1941.49 4026.68 1940.41 4024.96 1923.74 4017.4C1890.31 4002.23 1853.87 3981.15 1816.93 3955.62C1788.18 3935.74 1763.85 3917.36 1709.43 3874.39C1662.45 3837.28 1648.46 3826.48 1628.43 3811.82C1597.94 3789.5 1547.26 3753.48 1542.18 3750.51C1533.51 3745.45 1531.52 3740.58 1535.46 3734.12C1537.87 3730.16 1544.31 3726.98 1549.99 3726.95C1552.22 3726.94 1556.82 3727.86 1560.22 3729.01C1565.26 3730.71 1567.55 3732.3 1572.66 3737.6C1586.63 3752.08 1621.99 3783.61 1649.93 3806.48C1773.99 3908.03 1916.64 3985.47 2074.93 4037.19C2087.58 4041.32 2100.63 4045.31 2103.93 4046.05C2112.92 4048.07 2136.96 4047.62 2156.42 4045.08C2165.49 4043.9 2175.05 4042.93 2177.67 4042.93C2183.61 4042.93 2183.83 4041.48 2178.77 4035.88C2174.07 4030.67 2172.99 4030.14 2161.5 4027.3C2141.18 4022.27 2077.71 4000.28 2035.2 3983.53C1960.09 3953.95 1887.01 3918.18 1823.93 3880.1C1762.99 3843.33 1706.46 3802.08 1654.43 3756.44C1648.11 3750.89 1640.68 3744.72 1637.93 3742.72C1629.43 3736.54 1626.26 3732.64 1625.78 3727.76C1624.89 3718.75 1629.47 3714.96 1642.61 3713.85C1648.98 3713.31 1654.57 3712.09 1660.26 3709.99C1679.03 3703.07 1689.62 3703.79 1697.32 3712.53C1702.08 3717.94 1704.74 3724.55 1707.94 3738.93C1709.22 3744.7 1711.21 3751.62 1712.37 3754.3C1715.15 3760.77 1722.92 3772.28 1736.33 3789.8C1743.42 3799.07 1749.15 3807.84 1752.46 3814.48C1758.33 3826.26 1761.33 3828.68 1768.65 3827.51C1775.15 3826.47 1779.15 3823.81 1795.99 3809.28C1804.83 3801.66 1812.79 3794.83 1813.69 3794.1C1815.13 3792.92 1815.69 3793.51 1818.5 3799.1C1827.57 3817.18 1835.24 3827.26 1842.88 3831.15C1852.12 3835.87 1865.24 3834.21 1873.3 3827.3C1878.66 3822.72 1881.6 3818.32 1889.92 3802.43C1898.35 3786.34 1901.71 3781.35 1905.43 3779.43C1912.46 3775.79 1917.46 3778.05 1950.93 3800.06C2096.03 3895.46 2196.8 3948.67 2301.93 3985.4C2312.38 3989.05 2325.16 3993.61 2330.33 3995.53C2342.59 4000.08 2350.49 4001.89 2358.21 4001.91C2365.46 4001.93 2366.36 4000.96 2364.58 3995.04C2363.12 3990.15 2360.51 3987.83 2351.43 3983.37C2331.61 3973.63 2159.55 3879.01 2106.43 3848.65C2052.52 3817.83 1985.08 3777.84 1965.43 3765.03C1954.78 3758.1 1945.53 3749.01 1941.88 3741.9C1938.18 3734.71 1937.3 3721.35 1939.92 3712.32C1945.96 3691.47 1955.08 3679.76 1969.22 3674.71C1976.8 3671.99 1994.19 3671.3 2015.58 3672.85C2084.23 3677.83 2145.65 3699.41 2203.93 3739.04C2239.4 3763.15 2268.02 3788.76 2298.81 3823.93C2320.47 3848.67 2332.81 3861.36 2331.88 3857.93C2329.02 3847.43 2311.41 3809.62 2300.86 3791.34C2279.7 3754.67 2250.91 3723.28 2211.29 3693.71C2195.26 3681.74 2190.6 3675.71 2189.63 3665.66C2188.8 3657.07 2194.8 3646.34 2202.13 3643.28C2210.07 3639.96 2216.4 3641.94 2248.87 3657.91C2279.93 3673.19 2315.69 3693.71 2342.93 3711.9C2353.05 3718.66 2353.22 3718.71 2350 3714.38C2338.47 3698.81 2331.83 3691.21 2315.49 3674.84C2291.6 3650.92 2273.96 3636.66 2252.45 3623.89C2241.32 3617.28 2219.6 3606.2 2207.43 3600.92C2186.75 3591.95 2178.69 3586.1 2173.97 3576.63C2168.03 3564.7 2173.56 3552.32 2183.86 3554.49C2190.89 3555.98 2260.3 3589.67 2286.93 3604.52C2325.38 3625.96 2360.71 3649.72 2388.43 3672.76C2415.71 3695.44 2440.84 3723.84 2470.2 3765.18C2475.96 3773.29 2480.9 3779.93 2481.19 3779.93C2482.45 3779.93 2480.07 3761.9 2477.9 3755.02C2475.04 3745.96 2471.6 3740.06 2459.29 3723.15C2431.15 3684.5 2410.41 3659.86 2382.46 3631.85C2342.85 3592.15 2309.03 3566.88 2265.93 3544.79C2231.72 3527.25 2191.18 3513.37 2156.93 3507.45C2145.24 3505.44 2141.77 3504.24 2139.93 3501.63C2136.93 3497.33 2138.75 3490.05 2143.54 3487.25C2146.5 3485.53 2155.81 3485.98 2176.93 3488.86ZM1938.77 3546.68C1935.87 3590.89 1924.83 3640.25 1906.62 3690.43C1902.4 3702.07 1862.09 3802.82 1860.38 3806.02C1859.2 3808.22 1855.41 3809.39 1852.11 3808.56C1848.48 3807.65 1841.89 3800.3 1838.46 3793.34C1833.67 3783.6 1832.14 3774.65 1832.75 3759.93C1833.35 3745.25 1836.06 3734.71 1842.98 3720.07C1848.77 3707.84 1854.64 3699.75 1865.07 3689.67C1879.41 3675.79 1879.9 3672.29 1869.07 3661.14C1863.94 3655.87 1863.93 3655.84 1864.08 3649.64C1864.16 3646.22 1865.73 3637.8 1867.55 3630.93C1870.75 3618.88 1870.88 3617.74 1870.9 3599.43C1870.92 3580.7 1870.87 3580.3 1867.85 3571.93C1866.16 3567.25 1864.41 3562.6 1863.96 3561.6C1863.37 3560.24 1865.84 3561.14 1873.54 3565.08C1882.34 3569.58 1884.92 3570.45 1890.5 3570.76C1900.71 3571.34 1907 3567.55 1927.81 3548.32C1933.38 3543.18 1938.23 3538.96 1938.6 3538.95C1938.97 3538.94 1939.05 3542.41 1938.77 3546.68ZM1121.41 3633.24C1121.2 3714.57 1101.54 3791.9 1059.99 3874.93C1050.24 3894.4 1038.74 3915.62 1032.48 3925.67L1029.62 3930.27L1028.97 3924.85C1028.53 3921.15 1029 3915.62 1030.46 3907.43C1034.52 3884.62 1034.67 3875.48 1031.16 3865.48L1029.77 3861.53L1024.49 3877.48C993.553 3970.94 940.001 4026.85 858.823 4050.44C846.602 4053.99 823.713 4058.46 806.932 4060.59C783.103 4063.6 714.27 4062.77 698.432 4059.29C696.462 4058.85 698.266 4057.9 706.932 4054.82C735.688 4044.58 772.557 4032.62 787.932 4028.53C818.203 4020.49 836.344 4013.9 859.932 4002.39C908.576 3978.65 948.194 3945.69 982.409 3900.5C1006.11 3869.19 1020.39 3842.84 1050.71 3774.43C1089.94 3685.91 1119.21 3622.67 1120.57 3623.51C1121.04 3623.8 1121.42 3628.18 1121.41 3633.24ZM1400.67 3784.79C1404.42 3786.7 1412.8 3792.95 1420.54 3799.6C1488.47 3858.05 1528.45 3887.95 1571.93 3912.88C1608.15 3933.64 1633.45 3944.32 1679.93 3958.5C1691.34 3961.98 1705.16 3967.58 1727.93 3977.95C1766.66 3995.58 1789.72 4003.53 1810.9 4006.52C1815.26 4007.13 1815.58 4007.33 1813.48 4008.1C1808.86 4009.81 1793.96 4010.74 1785.43 4009.86C1780.76 4009.37 1772.66 4007.82 1767.43 4006.41C1762.21 4005.01 1750.73 4002.27 1741.93 4000.34C1711.86 3993.74 1697.15 3989.82 1673.93 3982.23C1590.48 3954.95 1510.5 3910.58 1402.93 3831.91C1394.13 3825.48 1382.73 3817.62 1377.6 3814.46C1364.25 3806.23 1361.54 3800.55 1367.02 3792.32C1374.83 3780.61 1387.04 3777.88 1400.67 3784.79ZM1257.12 3815.02C1259.84 3816.33 1264.28 3820.33 1269.08 3825.77C1292.36 3852.19 1318.89 3878.32 1346.46 3902C1360.43 3913.99 1386.85 3935.25 1391.71 3938.39C1396.06 3941.21 1394.46 3941.11 1386.38 3938.06C1354.68 3926.11 1319.62 3907.17 1287.43 3884.63C1275.25 3876.09 1248.96 3856.36 1238.94 3848.22C1226.44 3838.07 1225.12 3827.67 1235.21 3818.81C1242.27 3812.61 1249.55 3811.35 1257.12 3815.02ZM1520.45 3821.94C1539.62 3831.61 1568.01 3849.48 1590.86 3866.23C1606.87 3877.97 1669.85 3928.01 1674.43 3932.62C1677.4 3935.61 1645.49 3918.33 1621.3 3903.85C1582.02 3880.33 1537.07 3846.92 1511.52 3822.24L1502.93 3813.94L1508.71 3816.44C1511.89 3817.81 1517.17 3820.28 1520.45 3821.94ZM1106.45 3850.93C1102.02 3910.01 1088.77 3964 1065.95 4015.93C1060.44 4028.48 1047.02 4054.42 1041.22 4063.74C1024.83 4090.09 1004.02 4105.6 970.477 4116.48C893.086 4141.58 807.693 4142.29 710.932 4118.63L693.932 4114.48L712.432 4113.78C794.661 4110.66 842.734 4106.5 889.99 4098.41C943.817 4089.2 979.098 4073.13 1007.12 4045.06C1030.12 4022.02 1044.84 3993.73 1055.32 3952.43C1061.54 3927.9 1069.18 3908.44 1090.67 3862.43C1098.63 3845.38 1105.54 3830.3 1106.04 3828.93C1107.57 3824.63 1107.75 3833.7 1106.45 3850.93ZM1224.96 3870.78C1226.63 3871.8 1230.37 3875.56 1233.27 3879.13C1236.17 3882.71 1242.46 3888.98 1247.24 3893.07C1265.33 3908.54 1264.44 3907.92 1333.47 3953.37C1349.8 3964.12 1351.38 3965.4 1349.27 3966.2C1343.68 3968.32 1334.4 3966.53 1321.93 3960.93C1311.02 3956.03 1309.3 3955.55 1302.93 3955.59C1299.08 3955.61 1294.86 3956.07 1293.54 3956.6C1291.29 3957.52 1291.9 3958.17 1304.04 3967.79C1394.09 4039.17 1505.49 4080.53 1664.23 4101.53C1678.29 4103.39 1684.81 4104.61 1683.41 4105.13C1682.25 4105.56 1674.47 4107.13 1666.12 4108.63C1651.83 4111.18 1649.13 4111.35 1620.43 4111.39C1592.94 4111.42 1588.6 4111.2 1576.43 4109.1C1556.31 4105.64 1540.24 4101.51 1517.43 4093.96C1408.69 4057.94 1313.43 4009.21 1232.12 3948C1209.41 3930.9 1201.31 3923.42 1197.86 3916.36C1195.45 3911.44 1195.23 3910.08 1195.64 3902.66C1196.17 3893.05 1199.38 3885.64 1206.54 3877.53C1214.06 3869.01 1219.05 3867.18 1224.96 3870.78Z" fill="black"/>
</g>
<defs>
<clipPath id="clip0_8_6">
<rect width="2415" height="2415" rx="1207.5" fill="white"/>
</clipPath>
</defs>
</svg>
