<svg width="2129" height="2129" viewBox="0 0 2129 2129" fill="none" xmlns="http://www.w3.org/2000/svg">
<circle cx="1064.5" cy="1064.5" r="1064.5" fill="white"/>
<path d="M1106.89 176.503C1091.8 141.51 1048.19 145.072 1036.81 180.334C1050.52 178.096 1063.76 176.64 1075.6 175.513C1086.58 174.467 1097 174.924 1106.89 176.503Z" fill="#707070"/>
<path d="M1237.57 1765.45C1087.61 1808.35 894.279 1771.3 894.279 1771.3C1069.75 1849.29 1237.57 1765.45 1237.57 1765.45Z" fill="#707070"/>
<path d="M1071.02 301.362C1071.12 301.357 1071.22 301.349 1071.32 301.345C1071.22 301.349 1071.12 301.356 1071.02 301.362Z" fill="#707070"/>
<path d="M448.248 870.124C442.415 856.978 444.15 838.057 452.85 826.137C455.059 810.272 457.808 795.054 461.036 780.441C455.021 775.854 450.194 769.557 447.875 761.532C442.738 745.209 449.51 712.894 480.833 709.02C481.334 708.903 481.835 708.784 482.341 708.679C485.642 700.009 489.135 691.613 492.796 683.47C491.276 681.523 489.87 679.511 488.578 677.452C482.287 669.443 478.468 659.23 479.897 647.984C481.742 630.111 501.712 601.877 533.431 611.159C533.568 611.184 533.705 611.211 533.843 611.236C537.777 605.649 541.797 600.229 545.891 594.969C535.649 576.462 538.368 557.443 553.588 543.323C566.829 530.943 583.82 529.51 600.037 537.288C608.033 530.183 616.123 523.495 624.254 517.207C628.238 499.004 647.835 481.733 670.411 485.526C677.736 481.062 685.003 476.868 692.169 472.926C688.467 467.082 685.34 460.903 683.079 454.644C675.111 437.868 676.52 420.096 690.293 406.508C705.892 391.216 725.355 390.473 742.917 401.551C755.751 408.005 768.247 418.88 776.375 429.267C776.008 425.86 775.845 422.45 775.914 419.086C760.157 410.275 750.113 386.011 747.434 368.566C744.769 360.512 744.195 351.438 746.945 342.835C750.681 323.948 782.258 307.12 800.078 314.665C808.741 317.216 815.927 322.782 821.099 329.505C825.554 333.639 829.632 338.377 833.232 343.421C832.78 337.866 833.392 332.149 835.368 326.678C839.81 307.917 872.046 292.33 889.511 300.502C895.98 302.671 901.54 306.529 905.995 311.268C907.245 303.122 908.216 294.01 908.902 283.719C913.602 213.222 978.722 189.934 1035.99 180.468C1034.13 177.298 1027.27 166.739 1018.57 166.739C1008.33 166.739 1000.56 185.748 1000.56 185.748C1000.56 185.748 989.325 157.965 967.735 162.352C946.145 166.739 938.183 204.757 938.183 204.757C938.183 204.757 913.288 184.286 877.73 190.135C842.173 195.984 847.077 236.927 847.077 236.927C847.077 236.927 837.252 204.758 792.775 223.767C748.297 242.776 774.286 301.28 774.286 301.28C774.286 301.28 718.811 277.87 699.802 292.492C680.793 307.114 691.029 351.243 691.029 351.243C691.029 351.243 658.86 327.586 634.002 346.224C609.144 364.862 631.077 415.72 631.077 415.72C631.077 415.72 597.446 394.849 568.201 413.858C538.956 432.867 563.976 475.272 563.976 475.272C563.976 475.272 514.099 463.574 498.124 489.351C482.149 515.128 507.69 550.342 507.69 550.342C507.69 550.342 457.072 557.158 440.987 581.634C424.902 606.11 454.147 644.893 454.147 644.893C454.147 644.893 424.902 644.893 407.355 683.218C389.808 721.542 433.675 746.251 433.675 746.251C363.487 768.647 410.279 801.353 410.279 801.353C376.648 814.513 424.901 850.962 424.901 850.962C384.249 872.231 416.128 908.097 416.128 908.097L414.666 919.359C413.204 930.621 444.955 947.577 444.955 947.577L446.508 950.632C446.717 950.547 446.835 950.501 446.835 950.501C445.914 922.176 446.443 895.417 448.248 870.124Z" fill="#707070"/>
<path d="M1253.99 302.211C1255.35 301.563 1256.75 300.989 1258.2 300.502C1275.64 292.342 1307.89 307.846 1312.35 326.677C1314.32 332.148 1314.94 337.866 1314.48 343.421C1318.08 338.377 1322.16 333.639 1326.62 329.505C1331.79 322.781 1338.97 317.216 1347.64 314.664C1365.39 307.147 1397.03 323.918 1400.77 342.834C1403.52 351.438 1402.95 360.511 1400.28 368.565C1398.12 382.643 1391.33 399.451 1382.92 409.596C1387.09 406.524 1391.45 403.797 1395.92 401.551C1411.99 391.416 1429.74 391.226 1444.33 402.798C1460.52 415.518 1464.42 433.604 1457.01 451.778C1490.07 469.996 1519.58 499.194 1545.7 534.554C1573.39 525.852 1594.02 546.907 1597.88 563.668C1601.59 578.108 1596.1 590.287 1588.71 603.098C1590.67 606.718 1592.6 610.365 1594.5 614.033C1598.09 612.796 1601.75 611.82 1605.41 611.157C1623.43 605.881 1641.16 611.979 1652.65 630.716C1662.49 646.857 1660.99 663.785 1650.26 677.449C1645.6 684.872 1639.34 691.631 1632.41 697.267C1633.75 700.618 1635.08 703.968 1636.39 707.314C1643.67 706.905 1651.07 707.404 1658 709.017C1675.81 711.22 1689.17 723.361 1692.02 744.313C1694.47 762.021 1686.63 776.231 1672.2 784.058C1669.92 785.63 1667.51 787.069 1665.01 788.377C1667.95 797.612 1670.73 806.649 1673.36 815.442C1694.71 826.216 1698.55 855.718 1689.32 872.69C1698.23 907.063 1703.74 932.897 1706.04 944.206C1715.13 938.691 1731.55 927.527 1730.49 919.356L1729.03 908.094C1729.03 908.094 1760.91 872.228 1720.26 850.959C1720.26 850.959 1768.51 814.511 1734.88 801.35C1734.88 801.35 1781.67 768.644 1711.48 746.248C1711.48 746.248 1755.35 721.54 1737.8 683.215C1720.25 644.89 1691.01 644.89 1691.01 644.89C1691.01 644.89 1720.25 606.107 1704.17 581.631C1688.09 557.155 1637.47 550.339 1637.47 550.339C1637.47 550.339 1663.01 515.126 1647.03 489.348C1631.06 463.571 1581.18 475.269 1581.18 475.269C1581.18 475.269 1606.2 432.864 1576.96 413.855C1547.71 394.846 1514.08 415.717 1514.08 415.717C1514.08 415.717 1536.01 364.859 1511.16 346.221C1486.3 327.583 1454.13 351.24 1454.13 351.24C1454.13 351.24 1464.36 307.112 1445.36 292.489C1426.35 277.867 1370.87 301.277 1370.87 301.277C1370.87 301.277 1396.86 242.773 1352.38 223.764C1307.9 204.755 1298.08 236.924 1298.08 236.924C1298.08 236.924 1302.98 195.981 1267.43 190.132C1231.87 184.283 1206.97 204.754 1206.97 204.754C1206.97 204.754 1199.01 166.736 1177.42 162.349C1155.83 157.962 1144.6 185.745 1144.6 185.745C1144.6 185.745 1136.82 166.736 1126.59 166.736C1119.92 166.736 1114.33 172.942 1111.24 177.268C1154.52 185.731 1187.48 215.405 1213.05 233.999C1226.79 243.996 1234.66 270.001 1253.99 302.211Z" fill="#707070"/>
<path d="M1243.43 1455.39C1239.66 1456.6 1232.42 1458.81 1224.26 1460.71C1232.45 1458.8 1239.68 1456.6 1243.43 1455.39Z" fill="#707070"/>
<path d="M1244.17 1455.15C1243.96 1455.22 1243.74 1455.29 1243.51 1455.37C1243.74 1455.29 1243.97 1455.22 1244.17 1455.15Z" fill="#707070"/>
<path d="M1224.24 1460.72C1223.63 1460.86 1223.02 1461 1222.41 1461.13C1223.02 1461 1223.63 1460.86 1224.24 1460.72Z" fill="#707070"/>
<path d="M730.817 1765.44C730.997 1765.46 833.902 1777.17 905.976 1802.5C978.113 1827.84 1102.89 1833.69 1196.47 1814.2C1290.06 1794.7 1424.58 1749.86 1424.58 1749.86L1420.68 1759.6C1420.68 1759.6 1340.75 1853.19 1083.39 1859.04C1031.63 1860.21 986.44 1857.13 947.252 1851.45C955.525 1852.76 964.059 1853.99 972.878 1855.14C1182.83 1882.43 1331 1829.79 1391.44 1786.9C1429.54 1759.86 1476.45 1704.3 1504.62 1666.2L1502.57 1662.61C1502.57 1662.61 1526.07 1630.49 1543.51 1604.12C1560.96 1577.75 1592.25 1497.38 1592.25 1497.38C1601.68 1453.22 1610.36 1399.09 1616.62 1342.1V1336.53C1616.62 1336.53 1616.86 1336.43 1617.25 1336.28C1630.04 1216.39 1627.1 1152.15 1622.24 1064.56C1612.52 1054.96 1612.51 1031.72 1619.76 1021.67C1619.04 1009.6 1618.27 997.213 1617.46 984.627C1611.16 972.392 1610.79 950.658 1614.34 938.124C1613.1 920.534 1611.79 902.867 1610.42 885.447C1600.29 871.573 1597.35 841.446 1605.34 825.887C1603.81 809.372 1602.21 793.491 1600.57 778.577C1594.54 766.844 1590.68 746.371 1594.83 732.517C1593.61 723.981 1592.36 716.083 1591.1 708.939C1581.72 705.653 1573.19 697.921 1565.46 686.499C1551.63 666.051 1549.72 647.602 1563.89 632.588L1563.71 632.247C1542.68 648.592 1522.73 644.233 1504.26 624.935C1500.39 620.897 1497.19 616.823 1494.69 612.719C1513.32 692.818 1530.79 781.577 1529.86 829.62C1529.35 856.528 1526.7 880.921 1523.09 902.239C1557.64 947.412 1569.83 1000.21 1569.83 1000.21C1569.83 1000.21 1549.36 1020.68 1517.19 1008.99C1508.98 1006 1502.68 1001.87 1495.75 996.699C1495.96 996.929 1543.51 1048.2 1541.56 1145.46C1539.61 1242.94 1403.97 1328.73 1332.39 1289.74C1260.81 1250.74 1253.01 1198.1 1175.03 1202C1225.72 1223.45 1225.72 1260.49 1233.52 1285.84C1241.31 1311.18 1235.46 1352.12 1235.46 1352.12L1210.15 1300C1219.38 1327.42 1226.99 1352.35 1227.71 1361.87C1229.27 1382.63 1208.64 1419.06 1201.12 1431.58C1208.96 1428.7 1218.23 1423.98 1219.87 1417.44C1222.79 1405.74 1227.67 1402.82 1227.67 1402.82L1235.46 1445.71C1235.46 1445.71 1247.16 1448.63 1251.06 1438.88C1254.96 1429.14 1254.96 1423.29 1254.96 1423.29C1254.96 1423.29 1265.68 1435.81 1265.68 1446.12C1265.68 1456.43 1266.66 1463.26 1261.79 1478.85C1253.25 1506.15 1250.85 1484.2 1258.92 1533.75C1284.2 1605.58 1276.6 1640.67 1236.54 1654.32C1196.47 1667.97 1165.28 1673.82 1139.93 1689.42C1114.59 1705.01 1046.35 1689.41 1007.36 1685.52C968.363 1681.62 935.219 1689.41 900.125 1681.62C865.031 1673.82 843.585 1636.77 849.434 1603.63C855.283 1570.49 874.779 1556.84 874.779 1556.84C874.779 1556.84 868.93 1465.2 871.854 1451.56C874.779 1437.91 880.627 1435.96 893.3 1434.01C905.973 1432.06 905.973 1431.09 905.973 1426.21C905.973 1423.97 908.028 1418.24 910.251 1412.7C910.011 1396.59 908.765 1366.61 911.188 1336.86C910.751 1338.19 910.312 1339.4 909.873 1340.43C904.024 1354.08 884.528 1369.67 884.528 1369.67C884.528 1369.67 882.698 1230.55 955.306 1204.18C958.529 1197.37 960.564 1193.23 960.564 1193.23C960.564 1193.23 912.798 1202.98 893.301 1233.2C873.804 1263.42 843.585 1300.46 777.297 1289.74C711.009 1279.01 685.663 1237.1 666.167 1187.38C651.168 1149.13 651.171 1087.23 658.185 1046.95C651.359 1045.19 646.671 1044.08 646.671 1044.08C646.671 1044.08 651.538 1042.67 659.308 1040.98C661.227 1031.52 663.553 1023.55 666.167 1017.76C679.736 987.713 696.967 963.061 697.165 962.778C674.035 973.514 649.131 986.827 622.3 1003.14L569.659 1029.46C569.659 1029.46 577.502 961.59 587.206 944.646C587.206 944.646 619.65 875.968 687.604 848.013L666.245 591.9C658.182 587.815 651.496 581.313 645.695 574.397C655.131 591.57 650.253 608.548 634.57 624.932C619.562 640.61 603.579 646.424 586.835 639.294C585.75 641.99 584.667 644.712 583.585 647.461C588.186 664.396 576.902 684.09 565.695 696.298C552.287 735.845 540.32 779.006 532.282 823.735C537.324 831.909 538.939 843.123 537.639 856.775C536.176 872.14 531.671 883.776 523.565 890.699C522.323 906.643 522.034 917.043 521.789 931.116C528.729 944.62 528.325 971.807 521.04 985.244C520.904 998.627 520.811 1011.68 520.759 1024.44C525.492 1033.59 525.175 1049.8 520.718 1058.77C521.389 1418.44 555.65 1486.2 625.417 1632.14C634.032 1647.71 643.857 1663.59 654.407 1677.76C678.387 1710.08 700.018 1739.24 730.817 1765.44ZM1237.57 1765.45C1237.57 1765.45 1069.75 1849.29 894.279 1771.3C894.279 1771.3 1087.61 1808.35 1237.57 1765.45Z" fill="#707070"/>
<path d="M1245.93 1454.57C1245.31 1454.78 1243.47 1455.28 1240.41 1455.43C1240.53 1455.38 1249.82 1451.71 1255 1455.25C1250.56 1445.29 1235.54 1452.72 1231.57 1454.92C1235.79 1455.56 1242.05 1455.89 1245.93 1454.57ZM1236.54 1455.41L1240.34 1455.44C1239.23 1455.49 1237.96 1455.48 1236.54 1455.41Z" fill="#707070"/>
<path d="M1188.47 1238.38C1192.88 1250.52 1197.93 1264.61 1202.92 1278.91C1204.26 1261.27 1197.11 1245.43 1188.47 1238.38Z" fill="#707070"/>
<path d="M1246.19 1454.48L1245.93 1454.57C1245.96 1454.56 1246.1 1454.52 1246.19 1454.48Z" fill="#707070"/>
<path d="M1221.73 1461.28L1222.23 1461.17C1222.07 1461.21 1221.9 1461.24 1221.73 1461.28L1221.73 1461.28Z" fill="#707070"/>
<path d="M886.276 1469.19C884.973 1466.61 883.999 1463.53 883.522 1460.38C883.52 1464.65 884.631 1467.42 886.276 1469.19Z" fill="#707070"/>
<path d="M1230.84 1474.62C1235.98 1482.75 1241.32 1492.31 1246.56 1503.45L1240.34 1486.65C1240.34 1486.65 1240.73 1486.41 1241.37 1485.95C1239.9 1482.51 1239.37 1475.15 1239.37 1475.15C1239.37 1475.15 1235.96 1474.89 1230.84 1474.62Z" fill="#707070"/>
<path d="M1206.74 1443.54C1208.24 1445.07 1209.91 1446.84 1211.71 1448.87C1218.16 1451.68 1223.68 1453.36 1228.3 1454.33L1206.74 1443.54Z" fill="#707070"/>
<path d="M890.143 1443.2C887.175 1443.5 885.396 1445.14 884.44 1449.09C885.579 1446.28 887.363 1444.29 890.143 1443.2Z" fill="#707070"/>
<path d="M920.115 1287.84C927.466 1266.03 939.228 1239.06 948.179 1219.5C936.375 1234.67 921.574 1255.79 921.574 1266.34C921.574 1271.68 921.031 1279.36 920.115 1287.84Z" fill="#707070"/>
<path d="M1487.15 580.981L1488.68 587.327C1489.3 583.035 1490.76 578.724 1493.14 574.4C1491.29 576.606 1489.2 578.934 1487.15 580.981Z" fill="#707070"/>
<path d="M637.243 562.93C633.897 557.719 631.026 552.247 628.846 546.691C627.88 548.596 626.901 550.541 625.905 552.533C629.769 555.607 633.803 559.218 637.243 562.93Z" fill="#707070"/>
<path d="M1463.13 486.758C1467.71 485.387 1472.49 484.746 1477.31 485.041C1468.36 470.912 1461.05 459.606 1456.6 452.769C1456.33 453.399 1456.05 454.025 1455.76 454.644C1455.51 455.33 1455.25 456.016 1454.98 456.7C1456.95 463.821 1459.75 474.091 1463.13 486.758Z" fill="#707070"/>
<path d="M1510.1 546.406C1507.91 552.06 1504.99 557.63 1501.59 562.93C1506.07 558.099 1511.7 553.28 1517.05 549.406C1515.46 546.747 1513.87 544.101 1512.28 541.475C1511.63 543.152 1510.91 544.8 1510.1 546.406Z" fill="#707070"/>
<path d="M1001.54 1251.88C998.559 1260.79 996.636 1266.34 996.636 1266.34C996.636 1266.34 999.474 1260.19 1001.54 1251.88Z" fill="#707070"/>
<path d="M987.862 1029.46C993.711 1049.93 961.542 1190.31 961.542 1190.31C961.542 1190.31 973.24 1199.08 993.711 1213.7C1005.95 1222.44 1004.6 1239.54 1001.54 1251.88C1009.58 1227.81 1025.33 1179.25 1031.73 1149.36C1040.5 1108.42 1025.88 985.593 1025.88 985.593C993.712 836.445 847.488 833.52 742.207 836.445C721.964 837.007 703.784 841.363 687.608 848.018C619.654 875.973 587.21 944.651 587.21 944.651C577.507 961.594 569.663 1029.46 569.663 1029.46L622.304 1003.14C649.135 986.832 674.039 973.519 697.169 962.783C931.188 854.159 982.539 1010.83 987.862 1029.46Z" fill="#707070"/>
<path d="M1414.84 839.369C1294.93 830.596 1163.33 842.293 1128.24 944.65C1093.14 1047.01 1096.07 1131.82 1098.99 1161.06C1101.92 1190.31 1128.24 1272.19 1128.24 1272.19L1142.86 1202H1175.03C1175.03 1202 1137.01 1085.02 1151.63 1041.16C1166.25 997.291 1230.59 886.161 1356.35 927.103C1482.31 968.116 1484.93 997.256 1517.19 1008.99C1549.36 1020.69 1569.83 1000.21 1569.83 1000.21C1569.83 1000.21 1557.64 947.413 1523.09 902.24C1499.02 870.754 1464.08 842.973 1414.84 839.369Z" fill="#707070"/>
<path d="M1019.06 1272.19C995.66 1279.99 993.711 1279.99 962.516 1287.79C931.321 1295.59 939.12 1317.03 954.717 1330.68C970.314 1344.33 1011.26 1336.53 1011.26 1336.53C1011.26 1336.53 1037.45 1352.23 1070 1352.27C1086.97 1351.34 1101.18 1346.78 1102.41 1346.37C1116.01 1340.58 1120.44 1332.63 1120.44 1332.63C1180.88 1350.18 1200.37 1317.03 1202.32 1304.14C1204.27 1291.24 1194.52 1281.94 1174.4 1281.94C1154.28 1281.94 1134.08 1279.99 1114.59 1272.19C1095.09 1264.39 1097.04 1276.09 1073.65 1277.07C1050.25 1278.04 1042.45 1264.39 1019.06 1272.19ZM1016.79 1332.63C1015.49 1338.48 1004.43 1323.86 1000.54 1313.62C996.636 1303.39 981.039 1312.16 981.039 1312.16L984.938 1322.88C963.968 1319.66 963.616 1304.36 993.711 1304.36C1010.28 1304.36 1015.16 1316.06 1015.16 1316.06C1015.16 1316.06 1018.08 1326.78 1016.79 1332.63ZM1118.49 1318.01C1126.29 1309.24 1129.21 1308.26 1140.91 1304.36C1152.61 1300.46 1169.18 1310.9 1169.18 1310.9C1169.18 1316.47 1165.28 1318.98 1158.46 1320.93C1151.63 1322.88 1151.63 1311.18 1147.73 1309.23C1143.84 1307.28 1128.24 1318.01 1128.24 1318.01L1126.29 1326.78C1126.29 1326.78 1110.69 1326.78 1118.49 1318.01Z" fill="#707070"/>
<path d="M993.711 1304.36C963.551 1304.36 964.023 1319.66 984.938 1322.88L981.039 1312.16C981.039 1312.16 996.636 1303.39 1000.54 1313.62C1004.43 1323.86 1015.49 1338.48 1016.79 1332.63C1018.08 1326.78 1015.16 1316.06 1015.16 1316.06C1015.16 1316.06 1010.28 1304.36 993.711 1304.36Z" fill="#707070"/>
<path d="M1126.29 1326.78L1128.24 1318.01C1128.24 1318.01 1143.83 1307.29 1147.73 1309.24C1151.63 1311.19 1151.63 1322.88 1158.46 1320.93C1165.28 1318.98 1169.18 1316.47 1169.18 1310.9C1169.18 1310.9 1152.61 1300.46 1140.91 1304.36C1129.21 1308.26 1126.29 1309.24 1118.49 1318.01C1110.69 1326.78 1126.29 1326.78 1126.29 1326.78Z" fill="#707070"/>
<path d="M959.592 1464.23C988.837 1464.23 1032.7 1469.11 1047.33 1471.06C1061.95 1473.01 1070.72 1475.93 1079.49 1474.96C1088.27 1473.98 1107.77 1465.21 1120.44 1466.18C1133.11 1467.16 1180.88 1464.23 1199.4 1464.23C1212.88 1464.23 1233.31 1458.83 1245.8 1454.62C1244.47 1455.02 1239.76 1456.16 1231.57 1454.92C1230.95 1455.26 1230.59 1455.47 1230.59 1455.47L1228.3 1454.33C1219 1452.39 1209.61 1448.29 1201.35 1443.76C1171.13 1427.19 1130.19 1400.87 1107.77 1410.62C1085.34 1420.36 1090.22 1435.83 1069.75 1432C1049.28 1428.16 1045.38 1409.64 1023.93 1411.59C996.917 1414.05 924.311 1450.22 906.951 1450.58C906.951 1450.58 930.347 1464.23 959.592 1464.23Z" fill="#707070"/>
<path d="M1246.16 1454.5C1246.14 1454.5 1246.1 1454.51 1246.05 1454.53C1246.1 1454.51 1246.14 1454.5 1246.16 1454.5Z" fill="#707070"/>
<path d="M890.143 1443.2C887.363 1444.29 885.578 1446.28 884.44 1449.09C883.644 1452.38 883.521 1457.01 883.521 1460.38C883.998 1463.53 884.972 1466.61 886.275 1469.19C890.994 1474.27 900.127 1471.06 900.127 1471.06L899.954 1471.85C906.53 1466.94 907.13 1472.59 974.214 1475.15C994.685 1475.93 1031.73 1473.98 1043.43 1479.83C1055.13 1485.68 1056.1 1491.53 1077.55 1488.6C1098.99 1485.68 1097.04 1481.78 1113.62 1480.81C1167.17 1477.66 1195.12 1471.84 1239.37 1475.15C1239.37 1475.15 1239.9 1482.52 1241.37 1485.95C1251.42 1478.75 1259.81 1466.03 1255 1455.25C1249.82 1451.71 1240.53 1455.39 1240.41 1455.43C1242.23 1455.34 1244.42 1455.09 1246.19 1454.49C1233.24 1458.75 1214.74 1463.8 1201.12 1464.21C1138.47 1466.1 1128.7 1466.82 1120.44 1466.18C1107.77 1465.21 1088.27 1473.98 1079.5 1474.96C1070.72 1475.93 1061.95 1473.01 1047.33 1471.06C1032.7 1469.11 988.837 1464.23 959.593 1464.23C930.348 1464.23 906.952 1450.59 906.952 1450.59C908.239 1450.56 911.058 1449.99 912.319 1449.72C906.904 1446.3 895.196 1442.69 890.143 1443.2Z" fill="#707070"/>
<path d="M1236.54 1455.41C1237.96 1455.48 1239.24 1455.49 1240.34 1455.44L1236.54 1455.41Z" fill="#707070"/>
<path d="M1159.43 1532.47C1153.58 1533.45 995.66 1534.42 982.988 1532.47C970.315 1530.52 912.8 1482.75 912.8 1482.75C923.523 1511.02 982.013 1565.61 982.013 1565.61H1163.33C1177.95 1557.82 1227.67 1482.75 1227.67 1482.75C1216.95 1498.35 1165.28 1531.5 1159.43 1532.47Z" fill="#707070"/>
<path d="M905.977 1471.06L947.894 1489.38C947.894 1489.38 974.214 1515.9 989.812 1519.8C1005.41 1523.7 1119.46 1524.67 1135.06 1522.72C1150.66 1520.77 1180.88 1496.4 1197.45 1490.55C1214.02 1484.71 1225.72 1477.88 1225.72 1477.88L1174.41 1476.91C1174.41 1476.91 1181.85 1498.35 1148.71 1500.3C1115.56 1502.25 1105.82 1505.18 1083.4 1506.15C1060.97 1507.13 1067.8 1502.25 1040.5 1500.3C1013.21 1498.35 982.013 1502.25 974.215 1496.4C966.416 1490.55 950.819 1479.83 1002.48 1476.91L905.977 1471.06Z" fill="#707070"/>
<path d="M1230.59 1455.47C1261.03 1436.93 1264.68 1471.17 1240.34 1486.65L1259.84 1539.29C1250.59 1483.03 1253.09 1506.69 1261.79 1478.86C1266.66 1463.26 1265.69 1456.43 1265.69 1446.12C1265.69 1435.81 1254.96 1423.29 1254.96 1423.29C1254.96 1423.29 1254.96 1429.14 1251.06 1438.89C1247.16 1448.64 1235.47 1445.71 1235.47 1445.71L1227.67 1402.82C1227.67 1402.82 1222.79 1405.74 1219.87 1417.44C1217.53 1426.8 1198.81 1433.02 1189.65 1434.99C1198.37 1439.35 1221.1 1450.72 1230.59 1455.47Z" fill="#707070"/>
<path d="M900.128 1471.06C900.128 1471.06 890.996 1474.26 886.276 1469.19C884.117 1466.86 883.52 1463.52 883.52 1460.34C883.531 1455.37 883.804 1451.72 884.44 1449.09C885.396 1445.14 887.175 1443.5 890.143 1443.2C895.387 1442.67 907.112 1446.43 912.318 1449.71L937.421 1441.47C937.421 1441.47 921.574 1431.09 919.624 1417.44C917.674 1403.79 915.725 1399.89 915.725 1399.89C913.921 1403.86 905.977 1421.83 905.977 1426.21C905.977 1431.09 905.977 1432.06 893.304 1434.01C880.631 1435.96 874.782 1437.91 871.858 1451.56C868.934 1465.21 874.783 1556.84 874.783 1556.84C887.606 1525.37 892.309 1506.78 900.128 1471.06Z" fill="#707070"/>
<path d="M1034.07 1346.34L1036.6 1399.89C1036.6 1399.89 1039.53 1364.8 1044.4 1364.8C1049.28 1364.8 1061.95 1370.65 1073.65 1369.67C1085.35 1368.7 1097.37 1364.8 1097.37 1364.8L1103.87 1396.97L1102.51 1346.34C1082.94 1352.81 1053.38 1355.9 1034.07 1346.34Z" fill="#707070"/>
<path d="M1339.77 1099.65C1302.73 1102.57 1254.18 1100.62 1236.54 1099.65C1218.9 1098.67 1191.6 1093.8 1191.6 1093.8C1191.6 1093.8 1292.01 1174.71 1420.68 1083.08C1420.68 1083.08 1376.82 1096.72 1339.77 1099.65Z" fill="#707070"/>
<path d="M941.07 1097.7C820.515 1108.27 808.634 1096.05 711.011 1082.1C711.011 1082.1 789.972 1124.02 838.713 1124.99C887.454 1125.97 941.07 1097.7 941.07 1097.7Z" fill="#707070"/>
<path d="M708.739 1064.46C702.453 1059.01 675.236 1051.37 659.004 1047.16C691.914 1055.85 695.646 1059.72 708.739 1064.46Z" fill="#707070"/>
<path d="M785.098 1060.65C761.959 1055.87 730.222 1048.03 708.74 1051.11V1064.46C732.452 1073.05 779.274 1085.07 805.105 1089.24C784.491 1080.86 785.098 1060.65 785.098 1060.65Z" fill="#707070"/>
<path d="M711.012 1037.26C769.202 1051.41 810.398 1056.03 871.039 1057.73C940.408 1059.68 951.794 1070.4 950.819 1080.15C949.844 1089.9 912.801 1086.97 912.801 1086.97C912.801 1086.97 927.423 1079.18 933.272 1077.23C939.121 1075.28 929.373 1065.53 919.625 1064.55C909.877 1063.58 869.909 1063.58 869.909 1063.58C867.532 1073.88 867.731 1086.76 845.361 1091.22C890.581 1090.89 934.897 1087.54 955.694 1086L959.593 1093.8C959.593 1093.8 985.913 1068.94 964.467 1016.06C946.097 970.757 910.537 944.968 851.094 939.722C873.941 942.78 904.729 951.975 928.398 977.795C971.29 1024.59 937.421 1045.06 937.421 1045.06C937.421 1045.06 881.606 1049.93 841.638 1049.93C801.67 1049.93 737.332 1035.31 707.112 1035.31C687.448 1035.31 662.356 1039.53 646.673 1044.08C667.144 1040.18 711.012 1037.26 711.012 1037.26Z" fill="#707070"/>
<path d="M819.217 938.802C830.541 938.522 841.141 938.844 851.094 939.722C832.537 937.238 819.217 938.802 819.217 938.802Z" fill="#707070"/>
<path d="M1214.02 1046.03C1197.45 1042.13 1198.43 1036.28 1198.43 1036.28C1201.35 918.331 1348.55 940.752 1348.55 940.752C1348.55 940.752 1322.23 924.18 1242.29 946.601C1162.36 969.022 1169.18 1085.03 1169.18 1085.03C1169.18 1085.03 1178.84 1085.03 1196.53 1085.65L1196.49 1085.65C1196.49 1085.65 1183.8 1084.05 1185.75 1070.4C1187.7 1056.76 1209.15 1058.71 1231.57 1058.71C1253.99 1058.71 1296.88 1061.63 1329.05 1059.68C1361.22 1057.73 1432.38 1042.13 1448.96 1040.18C1465.53 1038.23 1491.11 1046.64 1491.11 1046.64C1483.53 1048.36 1470.6 1052.4 1463.76 1057.46C1482.28 1052.54 1495.75 1049.93 1495.75 1049.93C1459.68 1021.66 1402.17 1040.18 1365.12 1047.98C1328.08 1055.78 1230.59 1049.93 1214.02 1046.03Z" fill="#707070"/>
<path d="M1351.47 1062.6C1351.47 1062.6 1348.55 1076.25 1345.62 1083.08C1342.7 1089.9 1294.93 1091.85 1281.28 1087.95C1267.64 1084.05 1267.64 1064.86 1267.64 1064.86C1267.64 1064.86 1255.94 1066.5 1226.69 1065.04C1197.45 1063.58 1205.99 1071.38 1205.99 1071.38C1217.97 1084.24 1214.97 1080.92 1219.84 1086.65L1219.76 1086.65C1234.06 1087.37 1251.11 1088.4 1270.56 1089.9C1326.52 1094.2 1385.51 1081.02 1420.69 1070.5L1435.31 1051.11C1415.09 1050.58 1409.01 1050.27 1351.47 1062.6Z" fill="#707070"/>
<path d="M1070.23 789.653C1049.24 789.653 1032.22 806.674 1032.22 827.671C1032.22 848.668 1049.24 865.689 1070.23 865.689C1091.23 865.689 1108.25 848.668 1108.25 827.671C1108.25 806.675 1091.23 789.653 1070.23 789.653ZM1099.35 836.445C1090.62 807.497 1049.86 807.472 1041.12 836.445C1034.97 816.054 1050.43 797.125 1070.23 797.125C1090.04 797.124 1105.5 816.046 1099.35 836.445Z" fill="#707070"/>
<path d="M1083.4 1859.04C1340.75 1853.19 1420.68 1759.6 1420.68 1759.6L1424.58 1749.86C1424.58 1749.86 1290.06 1794.7 1196.47 1814.2C1102.89 1833.69 978.114 1827.84 905.977 1802.5C855.536 1784.77 780.412 1771.19 730.814 1765.44C730.814 1765.44 791.595 1828.9 947.254 1851.45C986.441 1857.13 1031.64 1860.21 1083.4 1859.04Z" fill="#707070"/>
<path d="M1653.07 1069.69L1667.8 1093.8C1667.8 1093.8 1672.19 1071.38 1670.73 1065.04C1670.58 1064.39 1670.34 1063.76 1670.07 1063.16C1666.86 1065.27 1659.48 1068.34 1653.07 1069.69Z" fill="#707070"/>
<path d="M1640.02 1079.18C1634.97 1072.36 1629.79 1079.18 1629.79 1079.18L1669.27 1118.66L1640.02 1079.18Z" fill="#707070"/>
<path d="M1661.37 1143.51C1659.33 1131.82 1624 1097.4 1624 1097.4L1626.54 1154.1C1626.54 1154.1 1663.42 1155.21 1661.37 1143.51Z" fill="#707070"/>
<path d="M1694.12 1008.99C1690.28 1011.55 1681.94 1015.99 1678.95 1030.52C1681.14 1035.68 1681.65 1043.14 1680.16 1049.06C1684.21 1072.21 1692.66 1123.44 1692.66 1147.9C1692.66 1180.07 1673.65 1295.59 1666.34 1321.91C1659.03 1348.23 1661.37 1414.03 1661.37 1414.03C1661.37 1414.03 1663.42 1367.24 1675.11 1330.68C1685.94 1296.85 1708.06 1168.94 1702.9 1106.96C1702.9 1106.96 1717.52 1112.81 1721.9 1147.9C1726.29 1182.99 1716.06 1245.87 1714.59 1263.42C1713.13 1280.96 1710.27 1330.69 1710.27 1330.69C1729.24 1265.58 1752.87 1160.41 1753.75 1087.94C1754.07 992.905 1698.51 1006.06 1694.12 1008.99Z" fill="#707070"/>
<path d="M1645.87 1332.14C1648.42 1324.48 1624.1 1333.49 1616.62 1336.53V1369.67C1616.62 1369.67 1642.94 1340.92 1645.87 1332.14Z" fill="#707070"/>
<path d="M1616.62 1655.3C1604.93 1604.12 1592.25 1497.38 1592.25 1497.38C1592.25 1497.38 1560.96 1577.75 1543.51 1604.12C1526.07 1630.49 1502.57 1662.61 1502.57 1662.61C1514.25 1682.93 1565.64 1772.34 1582.99 1788.36C1602 1805.91 1622.47 1817.61 1663.42 1810.3C1674.61 1808.3 1683.1 1804.03 1689.56 1798.9C1700.69 1790.05 1707.88 1776.1 1709.38 1765.45C1676.65 1740.27 1625.8 1695.45 1616.62 1655.3Z" fill="#707070"/>
<path d="M565.275 1501.76C565.275 1501.76 559.426 1593.17 525.795 1654.94C492.164 1716.71 471.692 1743.03 446.834 1753.27C426.693 1761.56 432.992 1776.84 440.738 1786.4C444.85 1791.47 455.222 1800.38 460.736 1803.95C469.772 1809.81 479.908 1812.88 492.163 1812.51C518.969 1811.7 555.439 1787.28 575.183 1768.45C598.515 1746.21 630.107 1691.5 636.346 1654.94C629.974 1641.6 569.468 1515.74 565.275 1501.76Z" fill="#707070"/>
<path d="M487.296 1370.8C487.53 1371.99 487.696 1372.8 487.776 1373.12C487.899 1373.61 487.722 1372.77 487.296 1370.8Z" fill="#707070"/>
<path d="M413.202 1125.02C419.051 1098.19 454.145 1095.26 454.145 1095.26C454.145 1095.26 448.296 1120.12 448.296 1158.14C448.296 1192.96 482.653 1349.32 487.297 1370.8C483.224 1350.06 457.229 1204 459.994 1162.52C461.965 1132.95 468.587 1090.1 472.694 1065.3C461.779 1060.43 456.932 1050.48 457.947 1038.74C459.123 1024.52 468.165 1018.3 481.672 1014.56C481.211 1007.41 479.174 1000.17 474.244 994.185C473.17 993.695 472.119 993.159 471.086 992.589C470.88 992.506 470.675 992.415 470.47 992.327C463.055 990.935 441.811 988.331 426.362 1000.21C407.353 1014.84 400.042 1057.24 400.042 1077.71C400.042 1098.18 406.907 1175.76 407.13 1187.42C407.345 1198.64 446.694 1341.07 449.758 1352.13C449.758 1352.13 407.353 1151.85 413.202 1125.02Z" fill="#707070"/>
<path d="M479.003 1085.03L492.364 1070.71C488.828 1070.37 485.274 1069.71 481.858 1068.72C480.154 1076.84 479.003 1085.03 479.003 1085.03Z" fill="#707070"/>
<path d="M502.853 1070.7L486.314 1099.65L510.126 1068.83C507.973 1069.74 505.551 1070.37 502.853 1070.7Z" fill="#707070"/>
<path d="M517.021 1093.8C517.021 1093.8 487.776 1120.12 483.39 1146.44C479.004 1172.76 475.088 1292.42 534.073 1348.11C534.073 1348.11 492.163 1273.65 492.163 1231.25C492.163 1188.84 522.301 1171.31 522.301 1171.31L520.855 1087.95L517.021 1093.8Z" fill="#707070"/>
<path d="M1117.84 353.997C1117.84 362.84 1115.69 369.837 1111.66 375.179C1114.17 374.455 1116.93 373.935 1119.94 373.65C1122 361.907 1120.37 343.89 1114 329.475C1115.53 334.254 1117.84 345.289 1117.84 353.997Z" fill="#707070"/>
<path d="M1093.7 386.532C1082.35 389.705 1065.36 389.72 1053.94 386.447C1057.87 390.879 1060.66 396.103 1062.42 401.589C1062.78 402.405 1063.13 403.231 1063.46 404.067C1069.98 404.856 1077.69 404.867 1084.24 404.096C1084.58 403.251 1084.93 402.415 1085.29 401.589C1087.04 396.137 1089.81 390.946 1093.7 386.532Z" fill="#707070"/>
<path d="M1030.11 353.997C1030.11 344.703 1032.72 333.313 1033.96 329.475C1027.58 343.908 1025.96 361.947 1028.02 373.673C1031.05 373.975 1033.83 374.513 1036.35 375.262C1032.28 369.909 1030.11 362.886 1030.11 353.997Z" fill="#707070"/>
<path d="M1031.62 344.508C1031.62 364.6 1047.5 373.124 1073.98 373.124C1100.45 373.124 1116.34 364.6 1116.34 344.508C1116.34 328.918 1109.08 313.198 1094.45 305.806C1105.09 311.499 1111.46 324.342 1111.46 336.6C1111.46 353.017 1097.4 359.981 1073.98 359.981C1050.55 359.981 1036.5 353.016 1036.5 336.6C1036.5 324.343 1042.86 311.498 1053.5 305.806C1038.87 313.197 1031.62 328.937 1031.62 344.508Z" fill="#707070"/>
<path d="M1039.4 328.166C1039.4 340.662 1052.37 345.964 1073.98 345.964C1095.58 345.964 1108.55 340.662 1108.55 328.166C1108.55 314.471 1097.12 301.28 1073.98 301.28C1089.45 301.28 1095.82 310.372 1095.82 318.268C1095.82 326.164 1087.63 329.513 1073.98 329.513C1060.32 329.513 1052.13 326.163 1052.13 318.268C1052.13 310.372 1058.5 301.28 1073.98 301.28C1050.73 301.28 1039.4 314.571 1039.4 328.166Z" fill="#707070"/>
<path d="M1312.48 354.922C1314.82 342.952 1323.68 333.324 1326.61 329.505C1322.16 333.639 1318.08 338.376 1314.48 343.421C1314.23 346.491 1313.65 349.509 1312.81 352.409C1312.72 353.246 1312.6 354.084 1312.48 354.922Z" fill="#707070"/>
<path d="M1394.05 384.964C1388.16 396.077 1380.03 401.694 1370.14 402.668C1370.95 405.927 1371.34 409.284 1371.37 412.64C1371.61 414.737 1371.75 416.866 1371.8 419.017C1375.28 415.651 1379.02 412.474 1382.92 409.597C1391.39 399.377 1398.14 382.531 1400.28 368.566C1399.48 370.983 1398.27 377.001 1394.05 384.964Z" fill="#707070"/>
<path d="M1312.12 357.109C1310.47 366.572 1307 376.449 1303.66 383.072C1307.47 380.029 1311.86 377.589 1316.78 376.037C1312.95 370.258 1311.29 363.96 1312.12 357.109Z" fill="#707070"/>
<path d="M1322.35 336.122C1314.56 350.82 1320.82 363.714 1337.35 374.886C1348.78 376.925 1356.29 381.36 1361.58 386.909C1380.59 393.011 1393.91 387.828 1400.28 368.567C1402.95 360.513 1403.52 351.439 1400.77 342.836C1402.25 350.347 1401.53 357.214 1398.2 363.508C1391.53 376.079 1376.29 374.829 1355.59 363.855C1334.89 352.882 1325.3 340.965 1331.97 328.394C1335.32 322.074 1340.62 317.638 1347.64 314.665C1336.63 317.907 1327.62 326.19 1322.35 336.122Z" fill="#707070"/>
<path d="M1337.96 323.297C1332.89 332.866 1342.19 342.999 1361.28 353.121C1380.37 363.243 1393.98 365.256 1399.05 355.687C1401.02 351.985 1401.69 347.495 1400.77 342.834C1399.25 335.152 1393.33 326.656 1380.74 319.631C1393.24 326.759 1395.32 335.557 1392.54 340.798C1389.67 346.218 1381.21 344.681 1369.15 338.285C1357.08 331.89 1351.07 325.753 1353.94 320.332C1356.72 315.092 1365.17 311.875 1378.08 318.217C1365.2 311.742 1354.85 311.611 1347.64 314.664C1343.25 316.521 1339.92 319.602 1337.96 323.297Z" fill="#707070"/>
<path d="M1303.66 383.071C1307.86 374.744 1311.6 362.895 1312.81 352.409C1312.11 354.854 1311.12 360.919 1307.2 369.027C1297.02 390.076 1278.44 392.456 1254.59 381.445C1263.12 387.704 1267.74 396.86 1269.33 406.403C1269.55 407.175 1269.75 407.952 1269.94 408.737C1276.05 408.531 1281.7 406.858 1286.82 403.596C1289.06 399.891 1291.57 396.37 1294.33 393.128C1296.9 389.396 1300.03 385.965 1303.66 383.071Z" fill="#707070"/>
<path d="M1237.75 316.115C1233.84 320.022 1230.26 324.417 1227.08 329.072C1227.42 329.786 1227.74 330.505 1228.03 331.233C1231.97 322.908 1236.2 318.288 1237.75 316.115Z" fill="#707070"/>
<path d="M1231.34 365.162C1231.18 367.934 1230.9 370.698 1230.52 373.431C1235.32 373.736 1240.22 374.613 1244.67 376.179C1239.17 372.812 1234.69 369.146 1231.34 365.162Z" fill="#707070"/>
<path d="M1233.73 322.885C1225.25 340.438 1235.95 354.799 1259.78 366.322C1283.62 377.845 1301.52 377.312 1310.01 359.759C1314.86 349.712 1316.28 337.572 1312.35 326.677C1314.26 334.775 1313.39 341.555 1310.55 347.431C1304.35 360.241 1289.07 359.558 1267.98 349.363C1246.89 339.167 1236.87 327.615 1243.06 314.804C1246.17 308.365 1251.3 303.733 1258.21 300.502C1247.27 304.169 1238.59 312.826 1233.73 322.885Z" fill="#707070"/>
<path d="M1248.86 309.489C1244.14 319.24 1253.81 329.021 1273.27 338.426C1292.72 347.831 1306.4 349.337 1311.11 339.586C1312.93 335.814 1313.44 331.302 1312.35 326.678C1310.54 319.058 1304.31 310.787 1291.47 304.236C1304.23 310.895 1306.63 319.609 1304.05 324.95C1301.38 330.474 1292.87 329.252 1280.58 323.309C1268.29 317.367 1262.04 311.458 1264.71 305.934C1267.3 300.594 1275.62 297.065 1288.76 302.923C1275.65 296.931 1265.3 297.185 1258.2 300.504C1253.89 302.52 1250.68 305.723 1248.86 309.489Z" fill="#707070"/>
<path d="M1165.33 401.588C1166.88 405.094 1168.15 408.782 1169.16 412.569C1173.55 413.801 1177.88 414.658 1181.71 415.152C1183.65 409.059 1186.61 401.945 1192.3 392.751C1188.16 392.486 1183.74 391.828 1179.05 390.783C1152.29 384.817 1138.44 371.323 1143.65 347.955C1145.62 339.136 1148.58 333.86 1149.57 331.44C1141.95 343.744 1136.17 361.218 1136.12 374.467C1149.71 377.363 1160.63 386.925 1165.33 401.588Z" fill="#707070"/>
<path d="M1227.42 373.316C1228.43 373.321 1229.46 373.364 1230.52 373.431C1231.61 365.717 1231.86 357.429 1230.95 349.583C1230.86 351.397 1231.35 363.014 1227.42 373.316Z" fill="#707070"/>
<path d="M1147.21 338.947C1142.97 357.977 1156.67 369.506 1182.51 375.267C1193.59 377.737 1203.09 378.292 1210.67 376.629C1213.23 375.534 1215.45 374.862 1217.13 374.456C1233.82 366.418 1234.46 339.773 1224.6 324.643C1228.32 332.072 1229.02 338.875 1227.6 345.257C1224.5 359.145 1209.47 361.978 1186.61 356.881C1163.74 351.784 1151.34 342.833 1154.44 328.946C1155.99 321.978 1159.91 316.293 1165.9 311.557C1156.1 317.631 1149.64 328.035 1147.21 338.947Z" fill="#707070"/>
<path d="M1164.06 313.193C1161.32 315.924 1159.6 319.155 1158.86 322.444C1156.51 333.016 1168.16 340.322 1189.25 345.024C1210.34 349.726 1224 348.062 1226.35 337.49C1227.09 334.201 1226.9 330.545 1225.58 326.908C1221.68 316.195 1210.16 310.28 1199.15 307.573C1213.08 311.136 1217.42 319.069 1216.13 324.858C1214.79 330.846 1206.23 331.604 1192.91 328.633C1179.58 325.662 1172.15 321.339 1173.48 315.351C1174.82 309.363 1182.58 303.854 1197.68 307.221C1185.99 304.615 1172.42 304.863 1164.06 313.193Z" fill="#707070"/>
<path d="M1503.32 497.427C1502.93 497.033 1502.53 496.641 1502.12 496.255C1502.56 496.663 1502.86 496.969 1503.32 497.427Z" fill="#707070"/>
<path d="M1444.47 496.892C1446.68 495.082 1449.04 493.413 1451.52 491.931C1441.72 496.574 1432.36 503.49 1424.4 511.297C1424.42 513.046 1424.38 514.807 1424.3 516.573C1429.15 509.247 1437.13 501.912 1444.47 496.892Z" fill="#707070"/>
<path d="M1502.11 496.255C1501.7 495.868 1501.28 495.496 1500.86 495.133C1501.37 495.578 1501.68 495.854 1502.11 496.255Z" fill="#707070"/>
<path d="M1494.3 569.081C1475.73 589.045 1455.81 586.313 1435.73 567.643C1427.44 559.933 1421.87 552.052 1419.49 544.051C1417.07 551.773 1413.85 557.99 1409.92 562.807C1412.95 568.863 1417.62 574.763 1423.78 580.493C1448.31 603.302 1471.19 600.571 1493.14 574.401C1495.23 570.586 1498.04 566.76 1501.59 562.93C1505 557.63 1507.91 552.06 1510.1 546.406C1507.58 551.396 1500.88 562 1494.3 569.081Z" fill="#707070"/>
<path d="M1499.89 494.308C1499.97 494.373 1500.05 494.434 1500.12 494.499C1500.04 494.434 1499.97 494.372 1499.89 494.308Z" fill="#707070"/>
<path d="M1504.01 498.115C1504.08 498.188 1504.15 498.261 1504.22 498.334C1504.15 498.261 1504.08 498.188 1504.01 498.115Z" fill="#707070"/>
<path d="M1444.47 496.892C1422.01 515.24 1426.19 534.812 1447.68 554.793C1469.17 574.775 1488.99 577.528 1505.66 553.799C1513.86 542.136 1518.05 527.526 1513.68 513.888C1517.28 526.188 1511.67 541.021 1502.8 550.557C1490.36 563.933 1474.79 560.037 1457.64 544.085C1440.48 528.133 1435.47 512.887 1447.91 499.511C1456.77 489.976 1471.16 483.301 1483.69 485.998C1469.83 482.652 1455.59 487.8 1444.47 496.892Z" fill="#707070"/>
<path d="M1456.43 494.618C1446.96 504.8 1452.44 517.948 1468.26 532.663C1484.08 547.378 1497.59 551.887 1507.06 541.705C1517.57 530.409 1518.66 512.449 1503.14 497.247C1513.3 507.522 1511.04 518.74 1505.24 524.972C1499.26 531.405 1490.72 528.556 1480.72 519.259C1470.72 509.962 1467.26 501.654 1473.25 495.221C1479.04 488.989 1490.07 485.913 1501.05 495.307C1484.69 480.858 1466.83 483.434 1456.43 494.618Z" fill="#707070"/>
<path d="M1588.5 546.635C1588.13 546.218 1587.75 545.805 1587.36 545.395C1587.76 545.819 1587.96 546.042 1588.5 546.635Z" fill="#707070"/>
<path d="M1586.17 544.202C1586.57 544.592 1586.96 544.981 1587.36 545.394C1586.96 544.985 1586.57 544.589 1586.17 544.202Z" fill="#707070"/>
<path d="M1592.41 595.925C1589.61 600.761 1582.3 610.958 1575.32 617.643C1555.63 636.494 1535.9 632.609 1516.94 612.803C1497.98 592.997 1494.96 573.116 1514.65 554.265C1522.51 546.74 1533.61 539.957 1537.1 538.137C1530.16 540.945 1523.36 544.846 1517.05 549.407C1486.39 571.58 1477.46 596.936 1504.26 624.937C1525.72 647.358 1547.73 648.103 1569.72 627.056C1578.78 618.382 1587.12 607.521 1592.41 595.925Z" fill="#707070"/>
<path d="M1589.14 547.361C1589.21 547.438 1589.27 547.515 1589.34 547.593C1589.27 547.516 1589.21 547.439 1589.14 547.361Z" fill="#707070"/>
<path d="M1529.77 542.679C1506.28 559.69 1509.32 579.469 1529.61 600.669C1549.91 621.867 1569.53 625.767 1587.55 603.047C1596.36 591.941 1601.46 577.621 1597.88 563.669C1600.76 576.158 1594.29 590.64 1584.89 599.645C1571.69 612.275 1556.38 607.481 1540.18 590.559C1523.98 573.637 1519.86 558.125 1533.05 545.495C1542.46 536.491 1557.21 530.664 1569.56 534.085C1555.8 529.901 1541.27 534.348 1529.77 542.679Z" fill="#707070"/>
<path d="M1541.84 541.104C1531.8 550.718 1536.5 564.163 1551.44 579.773C1566.39 595.383 1579.61 600.669 1589.66 591.055C1600.88 580.306 1602.86 562.454 1588.32 546.444C1597.87 557.292 1594.96 568.36 1588.81 574.245C1582.46 580.32 1574.11 576.979 1564.66 567.116C1555.22 557.253 1552.25 548.758 1558.6 542.684C1564.94 536.609 1576.66 534.217 1587.36 545.395C1571.91 529.249 1553.39 530.053 1541.84 541.104Z" fill="#707070"/>
<path d="M1625.84 702.146C1635.28 695.76 1644.13 687.217 1650.26 677.451C1647.15 681.405 1639.3 689.512 1632.07 694.399C1611.75 708.149 1593.91 700.358 1578.55 677.651C1563.18 654.943 1562.59 635.485 1582.91 621.735C1590.62 616.519 1601.53 612.293 1605.41 611.16C1594.13 613.203 1582.85 618.246 1573.4 624.638C1549.27 640.966 1549.2 662.464 1565.47 686.502C1581.69 710.478 1601.67 718.499 1625.84 702.146Z" fill="#707070"/>
<path d="M1652.65 630.718C1652.7 630.804 1652.75 630.889 1652.8 630.975C1652.75 630.889 1652.7 630.803 1652.65 630.718Z" fill="#707070"/>
<path d="M1649.49 626.078C1649.55 626.159 1649.62 626.237 1649.68 626.319C1649.62 626.238 1649.55 626.159 1649.49 626.078Z" fill="#707070"/>
<path d="M1591.63 617.657C1574.96 628.932 1576.79 646.872 1591.63 668.8C1606.46 690.727 1622.43 699.1 1639.1 687.825C1652.17 678.983 1660.99 664.117 1658.94 647.983C1660.19 660.072 1652.99 672.537 1642.92 679.346C1629.31 688.559 1615.65 680.826 1602.53 661.425C1589.4 642.023 1587.3 626.474 1600.92 617.261C1610.98 610.452 1625.23 608.406 1635.99 614.062C1621.86 606.202 1604.76 608.77 1591.63 617.657Z" fill="#707070"/>
<path d="M1609.54 614.935C1599.18 621.948 1602.05 635.661 1614.16 653.558C1626.26 671.455 1637.93 679.218 1648.29 672.205C1659.64 664.525 1664.2 647.662 1651.22 628.482C1659.89 641.298 1655.92 651.677 1649.37 656.108C1642.82 660.539 1635.45 655.634 1627.8 644.326C1620.15 633.018 1618.34 624.353 1624.89 619.922C1631.23 615.63 1641.86 615.659 1650.4 627.317C1637.52 609.208 1620.65 607.422 1609.54 614.935Z" fill="#707070"/>
<path d="M1641.47 796.452C1652.33 794.397 1663.31 790.177 1672.2 784.06C1667.99 786.348 1658.04 790.477 1649.86 792.024C1626.86 796.378 1614.18 782.803 1609.32 757.098C1604.45 731.393 1611.29 714.124 1634.3 709.77C1643.02 708.119 1654.18 708.546 1658 709.019C1647.22 706.512 1635.38 706.726 1624.87 708.714C1597.77 713.843 1589.32 732.472 1594.51 759.9C1599.69 787.275 1614.32 801.59 1641.47 796.452Z" fill="#707070"/>
<path d="M1691.99 744.03C1692 744.126 1692.01 744.219 1692.02 744.315C1692.01 744.22 1692 744.126 1691.99 744.03Z" fill="#707070"/>
<path d="M1690.98 738.772C1691 738.866 1691.02 738.957 1691.04 739.051C1691.02 738.958 1691 738.866 1690.98 738.772Z" fill="#707070"/>
<path d="M1650.64 708.7C1624.49 709.628 1619.24 728.48 1624.12 754.296C1629.01 780.101 1640.79 795.742 1665.47 787.048C1677.57 782.785 1687.38 773.925 1690.96 761.533C1687.48 772.594 1676.46 780.789 1665.06 782.946C1649.65 785.863 1640.62 773.923 1636.46 751.961C1632.3 729.999 1636.35 715.584 1651.76 712.667C1663.16 710.511 1676.41 714.111 1683.69 723.136C1675.85 712.934 1663.5 708.244 1650.64 708.7Z" fill="#707070"/>
<path d="M1660.2 713.893C1648.47 716.114 1645.79 729.211 1649.62 749.469C1653.46 769.728 1660.74 780.941 1672.47 778.72C1685.39 776.274 1695.67 763.152 1691.58 741.529C1694.32 756.036 1686.92 763.625 1679.5 765.028C1672.09 766.431 1667.49 759.346 1665.07 746.546C1662.65 733.746 1664.34 725.47 1671.75 724.067C1679.16 722.664 1688.83 727.022 1691.58 741.529C1687.48 719.875 1673.08 711.456 1660.2 713.893Z" fill="#707070"/>
<path d="M1642.28 897.716C1652.51 896.742 1663.15 893.674 1672.1 888.386C1667.96 890.249 1658.3 893.388 1650.5 894.13C1628.58 896.218 1617.79 881.478 1615.31 855.435C1612.83 829.392 1620.64 812.881 1642.57 810.793C1650.89 810.001 1661.14 811.474 1664.86 812.358C1655.07 808.855 1644.04 807.85 1633.81 808.824C1607.28 811.351 1598.63 829.913 1601.19 856.779C1603.73 883.407 1615.55 900.262 1642.28 897.716Z" fill="#707070"/>
<path d="M1693.37 845.17C1693.39 845.265 1693.4 845.357 1693.41 845.452C1693.4 845.357 1693.39 845.264 1693.37 845.17Z" fill="#707070"/>
<path d="M1693.9 850.497C1693.9 850.594 1693.9 850.688 1693.91 850.784C1693.9 850.688 1693.9 850.593 1693.9 850.497Z" fill="#707070"/>
<path d="M1657.98 811.322C1632.8 809.655 1627.02 828.866 1629.42 854.091C1631.82 879.31 1641.12 897.092 1665.54 890.701C1677.43 887.59 1687.22 879.612 1691.52 867.807C1687.42 878.307 1676.59 885.525 1665.5 886.581C1650.8 887.98 1643.3 875.223 1641.18 852.971C1639.06 830.72 1644.02 816.775 1658.72 815.377C1669.81 814.321 1681.8 819.36 1687.81 828.904C1681.42 818.222 1670.38 812.143 1657.98 811.322Z" fill="#707070"/>
<path d="M1666.53 817.42C1655.34 818.485 1651.77 831.252 1653.73 851.777C1655.68 872.302 1661.6 884.166 1672.78 883.101C1684.59 881.977 1695.86 870.491 1693.71 847.969C1695.11 862.667 1687.55 869.494 1680.49 870.167C1673.42 870.84 1669.68 863.344 1668.45 850.375C1667.21 837.406 1669.47 829.34 1676.53 828.667C1683.6 827.994 1692.31 833.271 1693.71 847.969C1691.57 825.425 1678.29 816.299 1666.53 817.42Z" fill="#707070"/>
<path d="M1642.97 998.952C1651.33 998.809 1660.16 996.778 1667.75 992.59C1665.96 993.315 1664.12 993.86 1662.28 994.23C1658.2 995.532 1653.97 996.199 1649.87 996.27C1631.94 996.577 1624.09 982.288 1623.67 958.255C1623.26 934.222 1630.62 919.672 1648.55 919.365C1652.65 919.295 1656.9 919.817 1661.03 920.978C1662.88 921.285 1664.73 921.767 1666.55 922.43C1658.82 918.505 1649.92 916.777 1641.56 916.921C1618.63 917.314 1611.74 935.546 1612.14 958.454C1612.53 981.253 1619.97 999.346 1642.97 998.952Z" fill="#707070"/>
<path d="M1687.77 959.482C1687.77 959.572 1687.76 959.659 1687.76 959.749C1687.76 959.66 1687.77 959.572 1687.77 959.482Z" fill="#707070"/>
<path d="M1687.67 954.566C1687.68 954.654 1687.68 954.739 1687.69 954.827C1687.68 954.74 1687.68 954.654 1687.67 954.566Z" fill="#707070"/>
<path d="M1655.51 920.566C1640.81 920.818 1634.81 934.849 1635.21 958.056C1635.61 981.263 1642.08 995.081 1656.78 994.829C1668.56 994.627 1679.71 987.755 1684.77 975.163C1680.81 984.447 1671.59 990.297 1662.5 990.453C1650.49 990.659 1645.18 978.426 1644.83 957.891C1644.48 937.357 1649.36 924.949 1661.37 924.743C1670.45 924.587 1679.88 930.101 1684.16 939.261C1678.7 926.926 1667.35 920.363 1655.51 920.566Z" fill="#707070"/>
<path d="M1667.59 927.186C1658.44 927.343 1654.76 938.774 1655.08 957.715C1655.41 976.656 1659.48 987.955 1668.62 987.798C1694.82 987.349 1693.97 926.735 1667.59 927.186ZM1667.12 957.509C1666.91 945.541 1669.24 938.318 1675.02 938.219C1691.65 937.934 1692.31 976.231 1675.67 976.517C1669.9 976.616 1667.32 969.477 1667.12 957.509Z" fill="#707070"/>
<path d="M1663.35 1066.39C1660.29 1067.4 1653.24 1068.97 1647.66 1069.06C1631.94 1069.33 1625.09 1059.16 1624.8 1042.03C1624.51 1024.9 1631 1014.51 1646.72 1014.24C1652.67 1014.14 1660.02 1015.64 1662.5 1016.37C1650.21 1011.33 1628.61 1009.41 1619.76 1021.67C1612.52 1031.72 1612.52 1054.96 1622.24 1064.56C1631.92 1074.12 1651.93 1071.54 1663.35 1066.39Z" fill="#707070"/>
<path d="M1680.95 1039.48C1680.93 1039.23 1680.91 1038.99 1680.89 1038.74C1680.97 1039.7 1680.95 1039.43 1680.95 1039.48Z" fill="#707070"/>
<path d="M1680.92 1044.22C1680.89 1044.66 1680.84 1045.08 1680.79 1045.51C1680.84 1045.08 1680.89 1044.66 1680.92 1044.22Z" fill="#707070"/>
<path d="M1680.64 1036.65C1680.7 1037.07 1680.76 1037.49 1680.81 1037.93C1680.76 1037.49 1680.7 1037.07 1680.64 1036.65Z" fill="#707070"/>
<path d="M1680.97 1043.4C1680.98 1043.15 1681 1042.91 1681 1042.66C1681 1042.83 1681 1042.75 1680.97 1043.4Z" fill="#707070"/>
<path d="M1652.83 1015.08C1639.93 1015.3 1634.63 1025.32 1634.92 1041.86C1635.2 1058.4 1640.84 1068.24 1653.73 1068.01C1664.09 1067.84 1674.34 1062.82 1678.71 1053.13C1675.22 1060.52 1666.76 1064.74 1658.75 1064.88C1648.22 1065.06 1643.6 1056.35 1643.35 1041.72C1643.1 1027.08 1647.42 1018.22 1657.95 1018.04C1665.97 1017.9 1674.56 1021.83 1678.3 1029.09C1673.65 1019.67 1663.34 1014.9 1652.83 1015.08Z" fill="#707070"/>
<path d="M1663.39 1019.76C1655.38 1019.9 1652.11 1028.06 1652.34 1041.56C1652.58 1055.06 1656.12 1063.11 1664.13 1062.97C1672.64 1062.82 1680.56 1056.05 1680.98 1042.82C1680.46 1051.23 1675.1 1054.83 1670.35 1054.91C1665.28 1054.99 1663.05 1049.91 1662.9 1041.38C1662.75 1032.85 1664.82 1027.69 1669.88 1027.61C1674.63 1027.52 1680.12 1030.93 1680.92 1039.32C1680.04 1025.98 1671.74 1019.62 1663.39 1019.76Z" fill="#707070"/>
<path d="M1445.32 403.601C1445.75 403.957 1446.18 404.313 1446.6 404.693C1446.18 404.316 1445.75 403.954 1445.32 403.601Z" fill="#707070"/>
<path d="M1446.6 404.693C1447.03 405.072 1447.44 405.454 1447.84 405.836C1447.44 405.451 1447.03 405.07 1446.6 404.693Z" fill="#707070"/>
<path d="M1369.05 462.798C1367.27 459.896 1365.91 456.966 1364.99 454.008C1362.13 460.425 1358.46 465.449 1354.07 469.197C1354.38 469.988 1354.71 470.777 1355.08 471.561C1359.08 467.758 1363.75 464.709 1369.05 462.798Z" fill="#707070"/>
<path d="M1422.3 490.599C1422.97 493.129 1423.42 495.723 1423.68 498.341C1436.75 489.37 1449.97 470.664 1455.76 454.643C1453.36 459.691 1446.91 470.449 1440.49 477.681C1434.61 484.308 1428.53 488.527 1422.3 490.599Z" fill="#707070"/>
<path d="M1371.8 419.017C1371.83 420.411 1371.82 421.812 1371.77 423.219C1377.78 415.261 1389.03 405.895 1395.92 401.552C1387.11 405.979 1378.86 412.2 1371.8 419.017Z" fill="#707070"/>
<path d="M1444.33 402.799C1444.41 402.862 1444.49 402.921 1444.57 402.985C1444.49 402.921 1444.41 402.861 1444.33 402.799Z" fill="#707070"/>
<path d="M1383 412.557C1369.01 428.326 1373.18 444.909 1390.31 461.483C1401.44 463.789 1410.76 469.022 1417.01 478.566C1427.72 481.481 1437.63 478.637 1446.37 468.785C1457.58 456.143 1464.17 438.23 1458.58 422.052C1462.46 434.263 1457.2 449.225 1448.56 458.966C1436.43 472.629 1420.78 469.097 1403.26 453.55C1385.73 438.003 1380.36 422.878 1392.49 409.215C1401.13 399.474 1415.36 392.466 1427.94 394.871C1411.28 391.254 1394.27 399.846 1383 412.557Z" fill="#707070"/>
<path d="M1400.89 404.123C1391.66 414.523 1397.44 427.54 1413.61 441.881C1429.77 456.222 1443.38 460.415 1452.61 450.015C1463.17 438.112 1463.44 419.628 1446.6 404.693C1458.18 414.963 1456.23 426.758 1450.4 433.329C1444.57 439.9 1435.97 437.251 1425.75 428.19C1415.54 419.129 1411.89 410.904 1417.72 404.333C1423.55 397.762 1435.03 394.424 1446.6 404.693C1429.77 389.763 1411.41 392.262 1400.89 404.123Z" fill="#707070"/>
<path d="M1354.07 469.197C1368.03 457.284 1373.48 430.895 1371.37 412.64C1371.4 417.648 1370.29 428.818 1367.67 437.181C1360.28 460.765 1341.31 466.76 1314.92 460.076C1288.53 453.393 1275.83 439.377 1283.23 415.793C1286.03 406.843 1291.88 396.671 1294.33 393.128C1286.77 402.015 1281.04 413.064 1277.55 424.213C1271.18 444.506 1276.49 458.548 1290.73 467.432C1298.57 468.48 1305.81 471.385 1312.01 475.696C1329.35 479.738 1343.72 478.026 1354.07 469.197Z" fill="#707070"/>
<path d="M1366.77 418.88C1361.82 434.681 1346.19 437.958 1323.64 432.248C1301.09 426.537 1289.67 416.408 1294.62 400.606C1298.3 388.873 1308.28 378.008 1320.28 375.111C1304.24 378.601 1292.33 391.735 1287.54 407.028C1281.48 426.367 1294.19 438.443 1319.67 444.897C1345.16 451.351 1363.02 447.019 1369.08 427.68C1373.81 412.591 1371.51 395.737 1359.7 385.095C1368.33 393.271 1370.4 407.301 1366.77 418.88Z" fill="#707070"/>
<path d="M1343.89 376.456C1343.99 376.485 1344.08 376.516 1344.18 376.546C1344.08 376.516 1343.99 376.485 1343.89 376.456Z" fill="#707070"/>
<path d="M1338.49 375.104C1338.58 375.124 1338.68 375.141 1338.78 375.161C1338.68 375.141 1338.58 375.124 1338.49 375.104Z" fill="#707070"/>
<path d="M1299.97 393.196C1296.19 405.224 1307.07 413.487 1327.87 418.755C1348.67 424.023 1362.75 422.08 1366.52 410.053C1370.64 396.911 1363.7 381.967 1342.72 376.12C1356.46 380.161 1359.56 390.061 1357.26 397.423C1354.87 405.023 1345.98 406.25 1332.84 402.922C1319.7 399.594 1312.82 394.373 1315.2 386.773C1317.51 379.411 1325.91 372.426 1339.98 375.426C1318.72 370.576 1304.08 380.082 1299.97 393.196Z" fill="#707070"/>
<path d="M1420.2 541.669C1423.59 529.637 1425.26 516.057 1423.95 503.409C1423.98 508.978 1422.87 521.408 1420.25 530.713C1412.86 556.953 1393.89 563.624 1367.5 556.187C1341.11 548.751 1328.41 533.156 1335.81 506.916C1338.76 496.421 1344.89 484.942 1346.95 481.626C1340.84 489.605 1335.95 499.152 1332.47 508.935C1333.89 519.093 1332.11 529.069 1327.65 537.813C1329.27 555.864 1341.9 567.204 1362.74 573.076C1392.62 581.496 1411.95 570.962 1420.2 541.669Z" fill="#707070"/>
<path d="M1393.94 462.359C1393.39 462.205 1392.85 462.066 1392.31 461.936C1392.98 462.102 1393.35 462.194 1393.94 462.359Z" fill="#707070"/>
<path d="M1419.35 510.351C1414.4 527.932 1398.77 531.578 1376.22 525.225C1353.68 518.871 1342.25 507.6 1347.2 490.019C1350.73 477.486 1360.48 464.976 1372.86 461.652C1356.28 465.663 1344.73 480.819 1340.12 497.164C1334.06 518.681 1346.77 532.118 1372.26 539.299C1397.74 546.48 1415.6 541.66 1421.66 520.143C1426.24 503.916 1424.4 484.916 1412.28 472.761C1421.1 482.058 1422.89 497.817 1419.35 510.351Z" fill="#707070"/>
<path d="M1391.07 461.645C1391.17 461.667 1391.26 461.686 1391.36 461.708C1391.26 461.686 1391.17 461.666 1391.07 461.645Z" fill="#707070"/>
<path d="M1352.55 481.774C1348.78 495.157 1359.66 504.351 1380.45 510.211C1401.25 516.072 1415.33 513.911 1419.1 500.528C1423.37 485.387 1415.76 469.117 1395.3 462.773C1409.04 467.269 1412.15 478.285 1409.84 486.476C1407.45 494.932 1398.56 496.297 1385.42 492.594C1372.28 488.891 1365.4 483.082 1367.78 474.626C1370.09 466.435 1378.49 458.663 1392.56 462.001C1371.84 456.757 1356.81 466.653 1352.55 481.774Z" fill="#707070"/>
<path d="M636.72 496.255C636.305 496.641 635.903 497.032 635.511 497.427C635.984 496.958 636.292 496.653 636.72 496.255Z" fill="#707070"/>
<path d="M637.977 495.133C637.555 495.496 637.135 495.868 636.72 496.255C637.151 495.854 637.462 495.583 637.977 495.133Z" fill="#707070"/>
<path d="M714.534 516.573C714.455 514.808 714.415 513.047 714.434 511.297C706.474 503.49 697.113 496.574 687.319 491.931C695.621 496.902 708.238 507.06 714.534 516.573Z" fill="#707070"/>
<path d="M715.051 580.493C721.213 574.763 725.888 568.863 728.911 562.807C724.983 557.99 721.77 551.774 719.347 544.051C716.962 552.052 711.393 559.933 703.102 567.643C683.024 586.313 663.101 589.045 644.537 569.081C637.112 561.096 630.494 549.895 628.736 546.406C630.938 552.088 633.857 557.657 637.243 562.93C640.793 566.76 643.602 570.585 645.699 574.401C667.769 600.715 690.668 603.166 715.051 580.493Z" fill="#707070"/>
<path d="M634.617 498.334C634.687 498.261 634.754 498.188 634.825 498.115C634.754 498.188 634.686 498.261 634.617 498.334Z" fill="#707070"/>
<path d="M638.713 494.499C638.791 494.433 638.869 494.372 638.947 494.308C638.869 494.372 638.791 494.434 638.713 494.499Z" fill="#707070"/>
<path d="M638.452 560.322C653.675 576.693 671.766 572.821 691.154 554.793C710.542 536.765 715.716 519.002 700.493 502.631C688.902 490.166 671.699 482 655.146 485.997C667.674 483.3 682.062 489.974 690.929 499.51C703.367 512.886 698.351 528.132 681.197 544.084C664.042 560.036 648.473 563.932 636.034 550.556C627.167 541.02 621.554 526.186 625.154 513.886C619.944 530.169 626.91 547.911 638.452 560.322Z" fill="#707070"/>
<path d="M631.772 541.704C641.24 551.886 654.751 547.377 670.575 532.662C686.399 517.947 691.877 504.799 682.409 494.617C671.904 483.321 654.071 480.923 637.783 495.305C648.768 485.912 659.793 488.987 665.588 495.219C671.57 501.652 668.109 509.96 658.111 519.257C648.113 528.554 639.576 531.403 633.593 524.97C627.798 518.738 625.531 507.519 635.696 497.245C620.335 512.287 621.168 530.302 631.772 541.704Z" fill="#707070"/>
<path d="M551.478 545.394C551.086 545.804 550.708 546.218 550.339 546.634C550.804 546.117 551.069 545.821 551.478 545.394Z" fill="#707070"/>
<path d="M551.478 545.394C551.873 544.981 552.27 544.592 552.667 544.202C552.266 544.589 551.87 544.985 551.478 545.394Z" fill="#707070"/>
<path d="M633.832 559.453C624.638 550.652 613.397 542.854 601.739 538.137C606.692 540.724 617.198 547.58 624.182 554.265C643.876 573.117 640.856 592.998 621.897 612.803C602.938 632.609 583.208 636.494 563.514 617.643C555.653 610.118 548.383 599.313 546.421 595.925C553.868 612.243 570.593 632.381 586.837 639.299C603.58 646.429 619.564 640.616 634.572 624.937C656.024 602.527 655.828 580.509 633.832 559.453Z" fill="#707070"/>
<path d="M549.498 547.593C549.564 547.516 549.627 547.438 549.693 547.361C549.627 547.439 549.564 547.516 549.498 547.593Z" fill="#707070"/>
<path d="M551.28 603.047C569.301 625.768 588.931 621.866 609.222 600.669C629.514 579.471 632.552 559.691 609.067 542.679C597.463 534.274 582.937 529.93 569.276 534.083C581.627 530.662 596.378 536.488 605.784 545.493C618.979 558.123 614.858 573.635 598.659 590.557C582.461 607.479 567.144 612.274 553.949 599.643C544.542 590.638 538.077 576.156 540.955 563.667C537.375 577.605 542.48 591.952 551.28 603.047Z" fill="#707070"/>
<path d="M549.18 591.055C559.224 600.669 572.45 595.382 587.392 579.773C602.334 564.164 607.038 550.719 596.994 541.104C585.581 530.179 567.106 529.065 551.477 545.394C562.177 534.216 573.89 536.609 580.236 542.683C586.582 548.758 583.61 557.252 574.169 567.115C564.728 576.978 556.371 580.318 550.025 574.244C543.877 568.359 540.962 557.291 550.513 546.443C536.028 562.383 537.955 580.311 549.18 591.055Z" fill="#707070"/>
<path d="M565.435 624.637C556.006 618.258 544.766 613.216 533.43 611.159C538.241 612.567 548.697 616.844 555.925 621.734C576.248 635.484 575.652 654.943 560.288 677.65C544.924 700.358 527.084 708.149 506.761 694.398C499.052 689.182 491.071 680.624 488.577 677.45C494.677 687.172 503.469 695.701 512.993 702.145C537.075 718.439 557.075 710.583 573.369 686.5C589.546 662.591 589.633 641.009 565.435 624.637Z" fill="#707070"/>
<path d="M489.159 626.319C489.22 626.237 489.282 626.159 489.343 626.078C489.281 626.159 489.219 626.238 489.159 626.319Z" fill="#707070"/>
<path d="M486.03 630.974C486.082 630.888 486.131 630.803 486.183 630.717C486.131 630.803 486.081 630.889 486.03 630.974Z" fill="#707070"/>
<path d="M493.816 683.125C513.944 701.744 531.777 691.606 547.207 668.8C562.631 646.003 565.422 625.673 540.645 613.911C528.47 608.131 514.638 607.504 502.847 614.061C513.603 608.407 527.85 610.45 537.916 617.26C551.532 626.473 549.433 642.022 536.306 661.424C523.179 680.826 509.526 688.558 495.909 679.345C485.845 672.536 478.647 660.072 479.895 647.982C478.193 661.388 483.941 673.99 493.816 683.125Z" fill="#707070"/>
<path d="M490.543 672.205C500.908 679.218 512.57 671.455 524.679 653.558C536.788 635.661 539.656 621.948 529.291 614.935C518.289 607.491 501.41 609.076 488.437 627.317C496.978 615.66 507.604 615.63 513.949 619.922C520.498 624.353 518.686 633.018 511.035 644.326C503.384 655.634 496.015 660.539 489.466 656.108C482.917 651.677 478.946 641.298 487.617 628.482C474.663 647.628 479.168 664.509 490.543 672.205Z" fill="#707070"/>
<path d="M504.538 709.77C527.543 714.124 534.384 731.394 529.519 757.098C524.654 782.802 511.975 796.378 488.97 792.024C480.244 790.372 470.014 785.897 466.629 784.06C475.64 790.259 486.628 794.421 497.36 796.452C524.506 801.59 539.136 787.319 544.325 759.901C549.514 732.483 541.111 713.853 513.965 708.715C503.296 706.696 491.59 706.519 480.831 709.02C485.594 708.43 496.363 708.223 504.538 709.77Z" fill="#707070"/>
<path d="M446.811 744.317C446.824 744.22 446.835 744.126 446.849 744.028C446.835 744.126 446.824 744.221 446.811 744.317Z" fill="#707070"/>
<path d="M447.791 739.052C447.813 738.957 447.838 738.866 447.861 738.771C447.837 738.865 447.813 738.958 447.791 739.052Z" fill="#707070"/>
<path d="M473.366 787.047C498.043 795.739 509.826 780.112 514.712 754.295C519.596 728.489 514.347 709.627 488.194 708.699C475.344 708.244 462.99 712.927 455.142 723.134C462.424 714.11 475.677 710.509 487.071 712.665C502.484 715.582 506.529 729.997 502.373 751.959C498.217 773.921 489.183 785.861 473.77 782.944C462.377 780.788 451.355 772.593 447.874 761.531C451.483 774.017 461.376 782.824 473.366 787.047Z" fill="#707070"/>
<path d="M466.367 778.721C478.1 780.941 485.377 769.728 489.212 749.47C493.047 729.212 490.369 716.114 478.637 713.894C465.787 711.462 451.369 719.815 447.26 741.53C450.006 727.023 459.672 722.665 467.086 724.068C474.499 725.471 476.191 733.746 473.768 746.547C471.345 759.348 466.747 766.432 459.334 765.029C452.153 763.67 444.978 756.505 447.033 742.87C443.6 763.666 453.685 776.32 466.367 778.721Z" fill="#707070"/>
<path d="M505.023 808.824C494.794 807.85 483.764 808.854 473.974 812.358C478.379 811.311 488.468 810.051 496.267 810.793C518.194 812.881 526.009 829.393 523.529 855.435C521.049 881.478 510.259 896.218 488.331 894.13C480.013 893.338 470.217 889.955 466.734 888.386C475.687 893.674 486.329 896.742 496.558 897.716C523.234 900.256 535.1 883.463 537.641 856.779C540.165 830.274 531.838 811.377 505.023 808.824Z" fill="#707070"/>
<path d="M445.42 845.452C445.433 845.357 445.449 845.264 445.462 845.17C445.449 845.264 445.434 845.357 445.42 845.452Z" fill="#707070"/>
<path d="M444.928 850.784C444.933 850.688 444.935 850.594 444.94 850.497C444.935 850.593 444.932 850.688 444.928 850.784Z" fill="#707070"/>
<path d="M479.976 891.889C497.956 893.601 507.021 879.239 509.416 854.091C511.811 828.943 505.619 813.128 487.639 811.416C473.437 810.064 458.862 815.806 451.025 828.904C457.032 819.363 469.035 814.321 480.121 815.377C494.812 816.776 499.774 830.72 497.655 852.971C495.536 875.222 488.032 887.98 473.341 886.581C462.249 885.525 451.42 878.311 447.321 867.807C452.463 881.922 465.541 890.515 479.976 891.889Z" fill="#707070"/>
<path d="M466.055 883.101C477.238 884.166 483.155 872.302 485.109 851.777C487.063 831.252 483.492 818.485 472.309 817.42C460.474 816.293 447.263 825.476 445.122 847.969C446.522 833.271 455.234 827.994 462.3 828.667C469.366 829.34 471.623 837.407 470.388 850.375C469.153 863.344 465.414 870.84 458.349 870.167C451.283 869.494 443.722 862.667 445.122 847.969C442.975 870.514 454.286 881.981 466.055 883.101Z" fill="#707070"/>
<path d="M497.275 916.919C488.912 916.776 480.02 918.503 472.289 922.428C474.106 921.765 475.958 921.283 477.809 920.976C481.936 919.815 486.187 919.293 490.288 919.363C508.215 919.67 515.574 934.22 515.162 958.253C514.75 982.286 506.898 996.576 488.97 996.268C484.869 996.198 480.637 995.53 476.553 994.228C474.713 993.858 472.88 993.313 471.086 992.588C478.517 996.687 487.259 998.803 495.869 998.95C507.962 999.157 516.155 994.262 521.042 985.247C528.324 971.814 528.739 944.637 521.791 931.119C517.187 922.163 509.214 917.123 497.275 916.919Z" fill="#707070"/>
<path d="M476.553 994.23C497.617 998.467 503.252 979.718 503.623 958.057C503.994 936.403 499.009 917.465 477.808 920.977C467.781 922.638 459.2 929.031 454.677 939.262C458.95 930.118 468.366 924.588 477.463 924.744C489.474 924.95 494.359 937.358 494.007 957.892C493.655 978.426 488.348 990.659 476.337 990.454C467.257 990.298 458.027 984.466 454.062 975.164C458.299 985.708 466.763 992.261 476.553 994.23Z" fill="#707070"/>
<path d="M461.682 984.971C464.404 986.842 467.367 987.75 470.21 987.798C479.353 987.955 483.426 976.656 483.751 957.715C484.076 938.774 480.391 927.342 471.249 927.186C468.405 927.137 465.413 927.943 462.629 929.72C454.014 935.217 451.233 946.981 451.059 957.156C451.291 943.592 458.039 938.121 463.816 938.22C469.593 938.319 471.921 945.542 471.716 957.51C471.511 969.478 468.937 976.617 463.16 976.518C457.383 976.419 450.827 970.72 451.059 957.156C450.885 967.331 453.261 979.182 461.682 984.971Z" fill="#707070"/>
<path d="M498.234 1012.51C490.955 1012.39 483.129 1013.59 476.338 1016.37C479.421 1015.47 486.527 1014.14 492.114 1014.24C507.836 1014.51 514.33 1024.9 514.036 1042.03C513.743 1059.16 506.896 1069.33 491.174 1069.06C485.223 1068.96 477.931 1067.2 475.481 1066.39C480.761 1068.77 486.623 1070.15 492.363 1070.71C504.464 1071.89 515.33 1069.62 520.719 1058.77C525.184 1049.79 525.496 1033.6 520.76 1024.44C516.897 1016.97 509.614 1012.71 498.234 1012.51Z" fill="#707070"/>
<path d="M458.048 1045.51C457.999 1045.08 457.948 1044.66 457.916 1044.22C457.95 1044.66 457.997 1045.08 458.048 1045.51Z" fill="#707070"/>
<path d="M457.831 1042.66C457.838 1042.91 457.855 1043.15 457.868 1043.4C457.828 1042.62 457.836 1042.83 457.831 1042.66Z" fill="#707070"/>
<path d="M458.024 1037.93C458.071 1037.49 458.136 1037.07 458.2 1036.65C458.134 1037.07 458.073 1037.49 458.024 1037.93Z" fill="#707070"/>
<path d="M457.947 1038.74C457.926 1038.99 457.901 1039.23 457.885 1039.48C457.899 1039.27 457.895 1039.37 457.947 1038.74Z" fill="#707070"/>
<path d="M485.102 1068.01C497.994 1068.24 503.634 1058.4 503.917 1041.86C504.2 1025.32 498.901 1015.3 486.009 1015.08C475.696 1014.9 465.257 1019.53 460.533 1029.09C464.273 1021.84 472.869 1017.9 480.882 1018.04C491.416 1018.22 495.734 1027.08 495.484 1041.72C495.233 1056.35 490.614 1065.06 480.08 1064.88C472.06 1064.74 463.615 1060.52 460.121 1053.13C464.457 1062.73 474.63 1067.84 485.102 1068.01Z" fill="#707070"/>
<path d="M474.7 1062.97C482.718 1063.11 486.259 1055.06 486.49 1041.56C486.721 1028.06 483.458 1019.9 475.44 1019.76C466.987 1019.62 458.79 1026.07 457.915 1039.32C458.718 1030.93 464.203 1027.53 468.952 1027.61C474.018 1027.69 476.08 1032.85 475.934 1041.38C475.788 1049.91 473.551 1054.99 468.484 1054.91C463.734 1054.83 458.37 1051.23 457.855 1042.82C458.269 1055.98 466.146 1062.82 474.7 1062.97Z" fill="#707070"/>
<path d="M690.995 405.836C691.399 405.454 691.803 405.072 692.231 404.693C691.806 405.07 691.396 405.451 690.995 405.836Z" fill="#707070"/>
<path d="M692.231 404.693C692.659 404.314 693.086 403.958 693.514 403.601C693.083 403.954 692.655 404.316 692.231 404.693Z" fill="#707070"/>
<path d="M763.972 419.453C777.249 434.417 778.278 448.937 769.788 462.797C775.082 464.708 779.754 467.757 783.753 471.56C785.297 468.27 786.341 464.922 786.857 461.517C780.813 452.564 777.519 439.92 776.373 429.267C768.301 418.952 755.83 408.046 742.915 401.551C747.642 404.533 757.556 412.222 763.972 419.453Z" fill="#707070"/>
<path d="M715.153 498.342C715.413 495.723 715.866 493.13 716.536 490.6C710.305 488.528 704.225 484.308 698.346 477.682C691.124 469.542 684.765 458.195 683.078 454.645C688.877 470.698 702.109 489.388 715.153 498.342Z" fill="#707070"/>
<path d="M694.264 402.985C694.343 402.921 694.422 402.862 694.502 402.799C694.423 402.861 694.343 402.921 694.264 402.985Z" fill="#707070"/>
<path d="M692.467 468.784C701.209 478.637 711.111 481.481 721.822 478.565C728.034 469.09 737.383 463.79 748.523 461.482C765.652 444.908 769.83 428.325 755.838 412.556C744.57 399.857 727.569 391.251 710.891 394.868C723.48 392.464 737.707 399.472 746.349 409.212C758.472 422.875 753.101 438 735.579 453.547C718.056 469.094 702.4 472.626 690.277 458.963C681.635 449.223 676.37 434.263 680.255 422.05C674.682 438.167 681.188 456.072 692.467 468.784Z" fill="#707070"/>
<path d="M686.223 450.015C695.451 460.415 709.064 456.223 725.227 441.881C741.39 427.539 747.174 414.523 737.946 404.123C727.445 392.287 709.133 389.701 692.231 404.693C703.805 394.423 715.285 397.762 721.116 404.333C726.947 410.904 723.292 419.129 713.08 428.19C702.867 437.251 694.266 439.9 688.436 433.329C682.606 426.758 680.657 414.962 692.231 404.693C675.392 419.634 675.71 438.166 686.223 450.015Z" fill="#707070"/>
<path d="M803.028 506.917C810.423 533.157 797.726 548.751 771.337 556.188C744.948 563.624 725.977 556.954 718.583 530.714C715.784 520.781 714.858 507.866 714.885 503.409C713.489 516.864 715.511 531.825 719.347 544.052C727.962 571.508 747.007 581.275 776.096 573.078C804.245 565.146 817.432 547.25 808.707 516.287C805.25 504.019 799.521 491.599 791.882 481.628C794.592 485.979 800.239 497.019 803.028 506.917Z" fill="#707070"/>
<path d="M746.527 461.936C745.986 462.066 745.443 462.206 744.897 462.359C745.499 462.19 745.883 462.097 746.527 461.936Z" fill="#707070"/>
<path d="M765.972 461.652C778.351 464.976 788.1 477.487 791.631 490.019C796.585 507.6 785.159 518.871 762.611 525.225C740.064 531.579 724.434 527.932 719.479 510.351C715.947 497.818 717.73 482.058 726.551 472.761C714.505 484.841 712.559 503.782 717.169 520.143C723.232 541.66 741.094 546.48 766.576 539.299C792.058 532.118 804.775 518.681 798.712 497.164C794.138 480.928 782.647 465.686 765.972 461.652Z" fill="#707070"/>
<path d="M742.076 463.248C742.172 463.215 742.264 463.18 742.361 463.148C742.265 463.181 742.171 463.215 742.076 463.248Z" fill="#707070"/>
<path d="M747.472 461.708C747.571 461.685 747.667 461.667 747.765 461.645C747.668 461.666 747.57 461.686 747.472 461.708Z" fill="#707070"/>
<path d="M719.733 500.529C723.504 513.912 737.583 516.073 758.381 510.212C779.179 504.351 790.059 495.157 786.287 481.775C782.079 466.841 767.283 456.684 746.275 462.002C760.338 458.664 768.74 466.436 771.049 474.627C773.432 483.083 766.558 488.892 753.416 492.595C740.275 496.298 731.379 494.933 728.996 486.477C726.688 478.286 729.796 467.27 743.532 462.774C722.961 469.154 715.518 485.572 719.733 500.529Z" fill="#707070"/>
<path d="M1169.18 426.11C1169.18 450.612 1152.73 461.007 1125.31 461.007C1097.9 461.007 1081.45 450.612 1081.45 426.11C1081.45 416.816 1084.06 405.426 1085.29 401.588C1080.69 412.012 1078.52 424.112 1078.52 435.599C1078.52 464.512 1096.07 476.778 1125.31 476.778C1154.56 476.778 1172.11 464.512 1172.11 435.599C1172.11 424.039 1169.9 411.919 1165.33 401.588C1166.86 406.355 1169.18 417.396 1169.18 426.11Z" fill="#707070"/>
<path d="M1083.53 409.097C1079.37 436.307 1097.99 445.238 1125.31 445.238C1152.62 445.238 1171.26 436.316 1167.1 409.097C1165.05 395.735 1157.79 383.98 1145.79 377.92C1156.43 383.612 1162.79 396.456 1162.79 408.714C1162.79 425.13 1148.74 432.095 1125.31 432.095C1101.89 432.095 1087.83 425.13 1087.83 408.714C1087.83 396.457 1094.2 383.612 1104.84 377.92C1092.84 383.98 1085.57 395.743 1083.53 409.097Z" fill="#707070"/>
<path d="M1090.74 400.279C1090.74 412.775 1103.7 418.077 1125.31 418.077C1146.92 418.077 1159.89 412.775 1159.89 400.279C1159.89 386.524 1148.42 373.393 1125.31 373.393C1140.79 373.393 1147.16 382.485 1147.16 390.381C1147.16 398.277 1138.97 401.626 1125.31 401.626C1111.66 401.626 1103.47 398.276 1103.47 390.381C1103.47 382.486 1109.84 373.393 1125.31 373.393C1102.45 373.393 1090.74 386.356 1090.74 400.279Z" fill="#707070"/>
<path d="M1269.56 431.167C1265.97 455.456 1248.14 463.815 1220.96 460.572C1193.78 457.329 1179 445.079 1182.59 420.79C1183.95 411.576 1188.12 400.764 1189.99 396.936C1186.51 402.531 1183.75 408.744 1181.71 415.152C1170.7 449.709 1181.18 471.735 1218.65 476.206C1247.64 479.665 1266.83 469.581 1271.07 440.92C1272.73 429.644 1272.4 417.381 1269.33 406.404C1270.16 411.355 1270.83 422.554 1269.56 431.167Z" fill="#707070"/>
<path d="M1231.15 373.47C1231.05 373.463 1230.95 373.458 1230.85 373.451C1230.95 373.459 1231.05 373.463 1231.15 373.47Z" fill="#707070"/>
<path d="M1236.71 374.151C1236.61 374.134 1236.51 374.115 1236.41 374.099C1236.51 374.115 1236.61 374.134 1236.71 374.151Z" fill="#707070"/>
<path d="M1185.47 411.562C1182.53 431.479 1197.02 441.808 1223.27 444.939C1249.51 448.071 1266.51 441.499 1269.45 421.582C1271.75 405.994 1266.76 389.629 1253.43 380.629C1263.26 387.616 1267.53 401.233 1265.77 413.167C1263.37 429.441 1248.42 434.682 1225.19 431.912C1201.97 429.142 1189.06 420.575 1191.46 404.301C1193.26 392.149 1201.45 380.17 1212.83 375.786C1197.57 381.265 1187.81 395.7 1185.47 411.562Z" fill="#707070"/>
<path d="M1195.58 396.283C1193.75 408.671 1205.82 415.459 1227.25 418.015C1248.67 420.571 1262.3 416.849 1264.13 404.461C1266.13 390.908 1256.76 376.462 1233.79 373.72C1249.13 375.55 1254.11 385.317 1252.96 393.144C1251.8 400.971 1243.19 403.323 1229.66 401.708C1216.12 400.093 1208.49 395.804 1209.65 387.977C1210.8 380.15 1218.45 371.89 1233.79 373.72C1210.89 370.99 1197.59 382.684 1195.58 396.283Z" fill="#707070"/>
<path d="M831.177 343.866C833.208 347.697 834.542 351.38 835.235 354.922C835.111 354.084 834.996 353.246 834.899 352.409C834.058 349.509 833.481 346.491 833.231 343.421C829.631 338.376 825.554 333.639 821.098 329.505C822.687 331.57 826.948 335.889 831.177 343.866Z" fill="#707070"/>
<path d="M830.935 376.037C835.857 377.588 840.24 380.029 844.057 383.071C840.745 376.567 837.23 366.514 835.592 357.109C836.429 363.96 834.77 370.258 830.935 376.037Z" fill="#707070"/>
<path d="M777.574 402.668C760.944 401.031 751.772 385.806 747.781 369.573C747.662 369.239 747.546 368.904 747.434 368.566C750.086 385.842 760.072 410.228 775.914 419.086C775.959 416.912 776.102 414.759 776.347 412.64C776.369 409.283 776.759 405.926 777.574 402.668Z" fill="#707070"/>
<path d="M750.515 375.807C757.608 389.186 769.998 392.088 786.136 386.909C791.317 381.476 798.814 376.947 810.36 374.886C828.977 362.307 834.905 347.455 821.098 329.505C815.927 322.781 808.74 317.216 800.077 314.665C807.128 317.651 812.407 322.1 815.744 328.394C822.409 340.965 812.819 352.882 792.122 363.855C771.426 374.828 756.18 376.079 749.515 363.508C746.167 357.193 745.463 350.319 746.943 342.836C743.459 353.739 745.232 365.843 750.515 375.807Z" fill="#707070"/>
<path d="M748.661 355.687C753.735 365.256 767.342 363.243 786.433 353.121C805.524 342.999 814.826 332.866 809.753 323.297C807.794 319.602 804.462 316.521 800.078 314.664C792.867 311.611 782.513 311.742 769.636 318.217C782.548 311.875 790.995 315.092 793.774 320.332C796.648 325.753 790.629 331.889 778.567 338.285C766.504 344.681 758.048 346.218 755.174 340.798C752.395 335.557 754.474 326.759 766.97 319.631C754.384 326.656 748.465 335.153 746.945 342.834C746.023 347.495 746.698 351.985 748.661 355.687Z" fill="#707070"/>
<path d="M917.195 373.431C916.81 370.698 916.536 367.934 916.374 365.162C913.021 369.146 908.541 372.812 903.049 376.179C907.518 374.605 912.428 373.734 917.195 373.431Z" fill="#707070"/>
<path d="M893.123 381.445C869.271 392.456 850.691 390.076 840.515 369.027C836.592 360.913 835.611 354.866 834.899 352.409C836.101 362.808 839.878 374.864 844.057 383.071C847.687 385.965 850.809 389.396 853.386 393.128C856.143 396.369 858.657 399.891 860.897 403.596C866.015 406.858 871.661 408.531 877.772 408.737C877.961 407.952 878.166 407.175 878.381 406.403C879.974 396.86 884.591 387.705 893.123 381.445Z" fill="#707070"/>
<path d="M919.683 331.233C919.975 330.505 920.295 329.785 920.633 329.072C917.453 324.417 913.875 320.022 909.966 316.115C911.504 318.276 915.743 322.905 919.683 331.233Z" fill="#707070"/>
<path d="M835.209 353.429C843.169 378.716 863.782 377.998 887.933 366.323C912.083 354.648 925.45 338.939 910.576 316.995C905.416 309.381 898.107 303.386 889.511 300.503C896.446 303.748 901.557 308.392 904.658 314.805C910.851 327.615 900.824 339.168 879.734 349.364C858.644 359.56 843.362 360.243 837.169 347.432C834.058 340.997 833.61 334.103 835.368 326.679C832.227 335.375 832.487 344.782 835.209 353.429Z" fill="#707070"/>
<path d="M836.605 339.585C841.319 349.336 854.992 347.831 874.446 338.425C893.9 329.02 903.573 319.24 898.858 309.488C897.037 305.722 893.822 302.519 889.51 300.501C882.418 297.182 872.066 296.929 858.958 302.92C872.097 297.062 880.419 300.591 883.001 305.931C885.671 311.455 879.429 317.363 867.137 323.306C854.845 329.249 846.337 330.471 843.667 324.947C841.085 319.607 843.489 310.892 856.241 304.233C843.402 310.785 837.171 319.056 835.367 326.676C834.273 331.301 834.781 335.812 836.605 339.585Z" fill="#707070"/>
<path d="M1004.06 347.955C1009.27 371.324 995.424 384.818 968.664 390.783C963.977 391.828 959.556 392.486 955.415 392.751C961.072 401.885 964.069 409.059 966.009 415.152C969.838 414.658 974.165 413.801 978.56 412.569C979.564 408.782 980.833 405.094 982.383 401.588C987.084 386.94 997.993 377.366 1011.6 374.467C1011.55 361.138 1005.72 343.667 998.15 331.44C999.109 333.797 1002.1 339.158 1004.06 347.955Z" fill="#707070"/>
<path d="M917.195 373.431C918.25 373.364 919.287 373.321 920.292 373.316C916.47 363.294 916.935 352.89 916.765 349.583C915.853 357.418 916.106 365.705 917.195 373.431Z" fill="#707070"/>
<path d="M930.588 374.456C932.276 374.864 934.487 375.537 937.039 376.629C944.623 378.292 954.126 377.737 965.205 375.267C991.388 369.43 1007.99 357.199 998.538 332.431C995.264 323.858 989.548 316.35 981.809 311.556C987.829 316.313 991.731 322.006 993.278 328.945C996.374 342.833 983.969 351.783 961.105 356.88C938.241 361.977 923.209 359.144 920.113 345.256C918.56 338.288 919.696 331.475 923.11 324.642C913.38 339.577 913.666 366.31 930.588 374.456Z" fill="#707070"/>
<path d="M921.36 337.49C923.717 348.062 937.371 349.726 958.462 345.024C979.553 340.322 991.207 333.016 988.85 322.444C987.934 318.338 985.522 314.491 981.809 311.557C975.452 306.534 964.954 303.896 950.034 307.222C965.137 303.855 972.893 309.364 974.228 315.352C975.563 321.34 968.134 325.663 954.808 328.634C941.482 331.605 932.92 330.847 931.585 324.859C930.294 319.07 934.629 311.137 948.567 307.574C934.569 311.013 926.61 317.638 923.11 324.643C920.991 328.885 920.447 333.392 921.36 337.49Z" fill="#707070"/>
<path d="M780.093 447.027C787.82 471.672 805.31 481.648 832.309 476.43C839.458 471.177 848.092 467.836 857.466 467.137C871.355 458.238 876.46 444.28 870.169 424.213C866.68 413.084 860.96 402.03 853.387 393.128C856.302 397.349 861.861 407.408 864.49 415.793C871.884 439.377 859.188 453.392 832.799 460.076C806.41 466.76 787.439 460.764 780.045 437.181C777.246 428.255 776.32 416.649 776.347 412.64C775.04 423.948 776.701 436.209 780.093 447.027Z" fill="#707070"/>
<path d="M808.932 375.161C809.031 375.14 809.128 375.124 809.227 375.104C809.129 375.124 809.031 375.141 808.932 375.161Z" fill="#707070"/>
<path d="M803.537 376.545C803.633 376.516 803.725 376.484 803.821 376.455C803.725 376.485 803.632 376.516 803.537 376.545Z" fill="#707070"/>
<path d="M827.433 375.111C839.433 378.007 849.412 388.869 853.092 400.606C858.046 416.407 846.62 426.537 824.072 432.248C801.525 437.958 785.895 434.681 780.94 418.88C777.312 407.309 779.377 393.275 788.013 385.095C778.053 394.073 774.907 407.309 776.914 420.297C781.107 447.429 801.637 451.584 828.038 444.897C854.818 438.114 869.416 424.787 857.349 399.925C851.404 387.675 840.902 378.041 827.433 375.111Z" fill="#707070"/>
<path d="M781.194 410.052C784.965 422.08 799.044 424.022 819.842 418.754C840.64 413.486 851.519 405.223 847.748 393.195C843.759 380.475 829.446 370.47 807.736 375.423C821.799 372.423 830.201 379.408 832.51 386.77C834.893 394.37 828.019 399.591 814.877 402.919C801.736 406.247 792.84 405.02 790.457 397.42C788.149 390.058 791.257 380.157 804.994 376.117C783.897 381.999 777.117 397.05 781.194 410.052Z" fill="#707070"/>
<path d="M1066.27 426.11C1066.27 450.612 1049.82 461.007 1022.4 461.007C994.985 461.007 978.535 450.612 978.535 426.11C978.535 416.816 981.15 405.426 982.382 401.588C977.819 411.914 975.611 424.033 975.611 435.599C975.611 464.512 993.158 476.778 1022.4 476.778C1051.65 476.778 1069.19 464.512 1069.19 435.599C1069.19 424.26 1067.08 412.125 1062.42 401.588C1063.95 406.355 1066.27 417.396 1066.27 426.11Z" fill="#707070"/>
<path d="M1019.44 373.475C1019.55 373.47 1019.64 373.462 1019.75 373.458C1019.65 373.463 1019.54 373.47 1019.44 373.475Z" fill="#707070"/>
<path d="M980.042 416.621C980.042 436.713 995.927 445.237 1022.4 445.237C1048.88 445.237 1064.76 436.713 1064.76 416.621C1064.76 400.862 1057.4 385.253 1042.88 377.92C1053.52 383.613 1059.88 396.457 1059.88 408.714C1059.88 425.13 1045.83 432.095 1022.4 432.095C998.976 432.095 984.921 425.13 984.921 408.714C984.921 396.457 991.286 383.612 1001.92 377.92C987.451 385.231 980.042 400.806 980.042 416.621Z" fill="#707070"/>
<path d="M987.828 400.279C987.828 412.775 1000.79 418.077 1022.4 418.077C1044.01 418.077 1056.97 412.775 1056.97 400.279C1056.97 386.646 1045.62 373.393 1022.4 373.393C1037.87 373.393 1044.25 382.485 1044.25 390.381C1044.25 398.277 1036.05 401.626 1022.4 401.626C1008.75 401.626 1000.56 398.276 1000.56 390.381C1000.56 382.486 1006.93 373.393 1022.4 373.393C999.189 373.393 987.828 386.658 987.828 400.279Z" fill="#707070"/>
<path d="M965.13 420.79C968.718 445.079 953.932 457.329 926.754 460.572C899.576 463.815 881.746 455.456 878.159 431.167C876.801 421.974 877.721 410.363 878.382 406.403C875.313 417.382 874.984 429.646 876.65 440.919C880.883 469.58 900.074 479.664 929.064 476.205C933.557 475.669 937.727 474.873 941.553 473.805C945.438 471.495 949.668 469.705 954.153 468.543C972.96 457.219 972.64 435.976 966.009 415.151C963.969 408.743 961.209 402.53 957.727 396.935C959.946 401.492 963.855 412.157 965.13 420.79Z" fill="#707070"/>
<path d="M916.867 373.452C916.767 373.459 916.668 373.463 916.568 373.471C916.668 373.463 916.766 373.459 916.867 373.452Z" fill="#707070"/>
<path d="M911.303 374.098C911.203 374.115 911.106 374.133 911.007 374.15C911.106 374.134 911.203 374.115 911.303 374.098Z" fill="#707070"/>
<path d="M956.252 404.3C958.656 420.574 945.743 429.14 922.521 431.911C899.299 434.682 884.346 429.44 881.943 413.166C880.18 401.233 884.456 387.616 894.289 380.628C883.125 388.163 877.802 400.796 877.733 414.054C877.59 441.485 897.313 448.175 924.445 444.938C951.9 441.662 968.61 430.405 960.574 404.17C956.625 391.279 947.75 380.403 934.889 375.784C946.26 380.168 954.456 392.14 956.252 404.3Z" fill="#707070"/>
<path d="M913.925 373.72C929.264 371.89 936.911 380.149 938.068 387.976C939.224 395.803 931.594 400.092 918.059 401.707C904.525 403.322 895.913 400.97 894.757 393.143C893.602 385.317 898.587 375.551 913.925 373.72C891.372 376.412 881.54 390.592 883.589 404.461C885.419 416.849 899.047 420.57 920.468 418.015C941.889 415.459 953.965 408.67 952.135 396.283C950.08 382.374 936.44 371.037 913.925 373.72Z" fill="#707070"/>
<path d="M1072.03 466.986C1045.11 466.986 1023.29 488.808 1023.29 515.727C1023.29 542.646 1045.11 564.468 1072.03 564.468C1098.95 564.468 1120.77 542.646 1120.77 515.727C1120.77 488.808 1098.95 466.986 1072.03 466.986ZM1072.03 550.342C1049.68 550.342 1031.56 532.226 1031.56 509.878C1031.56 487.53 1049.68 469.414 1072.03 469.414C1094.37 469.414 1112.49 487.53 1112.49 509.878C1112.49 532.226 1094.37 550.342 1072.03 550.342Z" fill="#707070"/>
<path d="M1078.48 472.665C1089.51 479.212 1084.89 496.23 1072.03 496.23C1059.16 496.23 1054.55 479.214 1065.57 472.665C1051.87 475.626 1041.6 487.812 1041.6 502.403C1041.6 519.209 1055.22 532.833 1072.03 532.833C1088.83 532.833 1102.46 519.209 1102.46 502.403C1102.46 487.812 1092.19 475.626 1078.48 472.665ZM1072.03 516.166C1059.03 516.166 1049.2 503.436 1053.73 490.382C1059.79 507.819 1084.27 507.803 1090.32 490.382C1094.85 503.44 1085.02 516.166 1072.03 516.166Z" fill="#707070"/>
<path d="M967.734 532.833C984.54 532.833 998.164 519.209 998.164 502.403C998.164 485.065 983.59 470.939 965.827 472.039C978.205 477.702 974.081 496.231 960.567 496.231C951.419 496.231 945.288 486.812 948.972 478.455C926.371 496.186 938.763 532.833 967.734 532.833ZM978.86 490.382C983.394 503.44 973.557 516.166 960.567 516.166C947.573 516.166 937.741 503.436 942.274 490.382C948.326 507.819 972.813 507.803 978.86 490.382Z" fill="#707070"/>
<path d="M917.675 515.727C917.675 542.646 939.497 564.468 966.416 564.468C993.335 564.468 1015.16 542.646 1015.16 515.727C1015.16 483.87 985.035 460.538 954.152 468.544C933.234 473.966 917.675 493.002 917.675 515.727ZM967.734 469.415C990.081 469.415 1008.2 487.531 1008.2 509.879C1008.2 532.227 990.082 550.343 967.734 550.343C945.386 550.343 927.27 532.227 927.27 509.879C927.27 487.531 945.387 469.415 967.734 469.415Z" fill="#707070"/>
<path d="M812.393 515.727C812.393 542.646 834.215 564.468 861.134 564.468C888.053 564.468 909.875 542.646 909.875 515.727C909.875 487.758 886.187 464.995 857.464 467.138C832.218 469.019 812.393 490.086 812.393 515.727ZM862.453 469.415C884.8 469.415 902.917 487.531 902.917 509.879C902.917 532.227 884.801 550.343 862.453 550.343C840.105 550.343 821.989 532.227 821.989 509.879C821.989 487.409 840.257 469.415 862.453 469.415Z" fill="#707070"/>
<path d="M853.336 496.231C845.315 496.231 839.232 488.833 840.956 480.867C821.897 499.892 835.32 532.834 862.453 532.834C879.259 532.834 892.883 519.21 892.883 502.404C892.883 484.344 877.171 470.063 858.902 472.187C870.946 478.094 866.692 496.231 853.336 496.231ZM871.629 490.382C876.163 503.44 866.326 516.166 853.336 516.166C840.342 516.166 830.511 503.435 835.043 490.382C841.096 507.819 865.582 507.803 871.629 490.382Z" fill="#707070"/>
<path d="M1178.93 466.986C1152.01 466.986 1130.19 488.808 1130.19 515.727C1130.19 542.646 1152.01 564.468 1178.93 564.468C1205.85 564.468 1227.67 542.646 1227.67 515.727C1227.67 488.707 1205.72 466.986 1178.93 466.986ZM1218.07 509.878C1218.07 532.226 1199.96 550.342 1177.61 550.342C1155.26 550.342 1137.15 532.226 1137.15 509.878C1137.15 487.53 1155.26 469.414 1177.61 469.414C1199.96 469.415 1218.07 487.531 1218.07 509.878Z" fill="#707070"/>
<path d="M1184.78 496.231C1171.26 496.231 1167.14 477.701 1179.52 472.039C1161.73 470.938 1147.18 485.089 1147.18 502.403C1147.18 519.209 1160.8 532.833 1177.61 532.833C1206.56 532.833 1218.99 496.203 1196.37 478.455C1200.06 486.828 1193.91 496.231 1184.78 496.231ZM1203.07 490.382C1207.6 503.44 1197.77 516.166 1184.78 516.166C1171.78 516.166 1161.95 503.436 1166.48 490.382C1172.54 507.819 1197.02 507.803 1203.07 490.382Z" fill="#707070"/>
<path d="M1292.01 496.231C1278.65 496.231 1274.4 478.093 1286.44 472.186C1268.11 470.056 1252.46 484.398 1252.46 502.403C1252.46 519.209 1266.08 532.833 1282.89 532.833C1310.04 532.833 1323.44 499.882 1304.39 480.866C1306.11 488.832 1300.03 496.231 1292.01 496.231ZM1310.3 490.382C1314.84 503.44 1305 516.166 1292.01 516.166C1279.01 516.166 1269.18 503.436 1273.71 490.382C1279.77 507.819 1304.25 507.803 1310.3 490.382Z" fill="#707070"/>
<path d="M1332.47 508.936C1329.46 487.397 1312.38 470.329 1290.73 467.433C1261.3 463.495 1235.47 486.365 1235.47 515.727C1235.47 542.646 1257.29 564.468 1284.21 564.468C1313.67 564.468 1336.58 538.418 1332.47 508.936ZM1282.89 550.342C1260.54 550.342 1242.43 532.226 1242.43 509.878C1242.43 487.53 1260.54 469.414 1282.89 469.414C1305.1 469.414 1323.35 487.42 1323.35 509.878C1323.35 532.226 1305.24 550.342 1282.89 550.342Z" fill="#707070"/>
</svg>
