<svg width="1359" height="1711" viewBox="0 0 1359 1711" fill="none" xmlns="http://www.w3.org/2000/svg">
<path d="M711.892 24.5029C696.805 -10.4901 653.188 -6.92807 641.806 28.3339C655.519 26.0959 668.764 24.6399 680.596 23.5129C691.579 22.4669 701.998 22.9239 711.892 24.5029Z" fill="#707070"/>
<path d="M842.574 1613.45C692.607 1656.35 499.279 1619.3 499.279 1619.3C674.748 1697.29 842.574 1613.45 842.574 1613.45Z" fill="#707070"/>
<path d="M676.017 149.362C676.12 149.357 676.219 149.349 676.322 149.345C676.22 149.349 676.119 149.356 676.017 149.362Z" fill="#707070"/>
<path d="M53.248 718.124C47.415 704.978 49.1501 686.057 57.8501 674.137C60.0591 658.272 62.808 643.054 66.036 628.441C60.021 623.854 55.194 617.557 52.875 609.532C47.738 593.209 54.51 560.894 85.833 557.02C86.334 556.903 86.835 556.784 87.341 556.679C90.642 548.009 94.135 539.613 97.796 531.47C96.276 529.523 94.87 527.511 93.578 525.452C87.287 517.443 83.4681 507.23 84.8971 495.984C86.7421 478.111 106.712 449.877 138.431 459.159C138.568 459.184 138.705 459.211 138.843 459.236C142.777 453.649 146.797 448.229 150.891 442.969C140.649 424.462 143.368 405.443 158.588 391.323C171.829 378.943 188.82 377.51 205.037 385.288C213.033 378.183 221.123 371.495 229.254 365.207C233.238 347.004 252.835 329.733 275.411 333.526C282.736 329.062 290.003 324.868 297.169 320.926C293.467 315.082 290.34 308.903 288.079 302.644C280.111 285.868 281.52 268.096 295.293 254.508C310.892 239.216 330.355 238.473 347.917 249.551C360.751 256.005 373.247 266.88 381.375 277.267C381.008 273.86 380.845 270.45 380.914 267.086C365.157 258.275 355.113 234.011 352.434 216.566C349.769 208.512 349.195 199.438 351.945 190.835C355.681 171.948 387.258 155.12 405.078 162.665C413.741 165.216 420.927 170.782 426.099 177.505C430.554 181.639 434.632 186.377 438.232 191.421C437.78 185.866 438.392 180.149 440.368 174.678C444.81 155.917 477.046 140.33 494.511 148.502C500.98 150.671 506.54 154.529 510.995 159.268C512.245 151.122 513.216 142.01 513.902 131.719C518.602 61.2218 583.722 37.9339 640.991 28.4679C639.128 25.2979 632.27 14.7389 623.57 14.7389C613.334 14.7389 605.557 33.7479 605.557 33.7479C605.557 33.7479 594.325 5.96486 572.735 10.3519C551.145 14.7389 543.183 52.7569 543.183 52.7569C543.183 52.7569 518.288 32.2859 482.73 38.1349C447.173 43.9839 452.077 84.9269 452.077 84.9269C452.077 84.9269 442.252 52.7579 397.775 71.7669C353.297 90.7759 379.286 149.28 379.286 149.28C379.286 149.28 323.811 125.87 304.802 140.492C285.793 155.114 296.029 199.243 296.029 199.243C296.029 199.243 263.86 175.586 239.002 194.224C214.144 212.862 236.077 263.72 236.077 263.72C236.077 263.72 202.446 242.849 173.201 261.858C143.956 280.867 168.976 323.272 168.976 323.272C168.976 323.272 119.099 311.574 103.124 337.351C87.149 363.128 112.69 398.342 112.69 398.342C112.69 398.342 62.072 405.158 45.987 429.634C29.902 454.11 59.1471 492.893 59.1471 492.893C59.1471 492.893 29.902 492.893 12.355 531.218C-5.19205 569.542 38.675 594.251 38.675 594.251C-31.513 616.647 15.279 649.353 15.279 649.353C-18.352 662.513 29.901 698.962 29.901 698.962C-10.751 720.231 21.128 756.097 21.128 756.097L19.666 767.359C18.204 778.621 49.9551 795.577 49.9551 795.577L51.508 798.632C51.717 798.547 51.8351 798.501 51.8351 798.501C50.9141 770.176 51.443 743.417 53.248 718.124Z" fill="#707070"/>
<path d="M858.989 150.211C860.347 149.563 861.752 148.989 863.204 148.502C880.642 140.342 912.888 155.846 917.347 174.677C919.323 180.148 919.935 185.866 919.483 191.421C923.082 186.377 927.16 181.639 931.616 177.505C936.787 170.781 943.974 165.216 952.637 162.664C970.392 155.147 1002.03 171.918 1005.77 190.834C1008.52 199.438 1007.95 208.511 1005.28 216.565C1003.12 230.643 996.329 247.451 987.92 257.596C992.088 254.524 996.452 251.797 1000.92 249.551C1016.99 239.416 1034.74 239.226 1049.33 250.798C1065.52 263.518 1069.42 281.604 1062.01 299.778C1095.07 317.996 1124.58 347.194 1150.7 382.554C1178.39 373.852 1199.02 394.907 1202.88 411.668C1206.59 426.108 1201.1 438.287 1193.71 451.098C1195.67 454.718 1197.6 458.365 1199.5 462.033C1203.09 460.796 1206.75 459.82 1210.41 459.157C1228.43 453.881 1246.16 459.979 1257.65 478.716C1267.49 494.857 1265.99 511.785 1255.26 525.449C1250.6 532.872 1244.34 539.631 1237.41 545.267C1238.75 548.618 1240.08 551.968 1241.39 555.314C1248.67 554.905 1256.07 555.404 1263 557.017C1280.81 559.22 1294.17 571.361 1297.02 592.313C1299.47 610.021 1291.63 624.231 1277.2 632.058C1274.92 633.63 1272.51 635.069 1270.01 636.377C1272.95 645.612 1275.73 654.649 1278.36 663.442C1299.71 674.216 1303.55 703.718 1294.32 720.69C1303.23 755.063 1308.74 780.897 1311.04 792.206C1320.13 786.691 1336.55 775.527 1335.49 767.356L1334.03 756.094C1334.03 756.094 1365.91 720.228 1325.26 698.959C1325.26 698.959 1373.51 662.511 1339.88 649.35C1339.88 649.35 1386.67 616.644 1316.48 594.248C1316.48 594.248 1360.35 569.54 1342.8 531.215C1325.25 492.89 1296.01 492.89 1296.01 492.89C1296.01 492.89 1325.25 454.107 1309.17 429.631C1293.09 405.155 1242.47 398.339 1242.47 398.339C1242.47 398.339 1268.01 363.126 1252.03 337.348C1236.06 311.571 1186.18 323.269 1186.18 323.269C1186.18 323.269 1211.2 280.864 1181.96 261.855C1152.71 242.846 1119.08 263.717 1119.08 263.717C1119.08 263.717 1141.01 212.859 1116.16 194.221C1091.3 175.583 1059.13 199.24 1059.13 199.24C1059.13 199.24 1069.36 155.112 1050.36 140.489C1031.35 125.867 975.871 149.277 975.871 149.277C975.871 149.277 1001.86 90.7729 957.382 71.7639C912.904 52.7549 903.079 84.9239 903.079 84.9239C903.079 84.9239 907.983 43.9809 872.425 38.1319C836.867 32.2829 811.972 52.7539 811.972 52.7539C811.972 52.7539 804.011 14.7359 782.42 10.3489C760.83 5.96193 749.598 33.7449 749.598 33.7449C749.598 33.7449 741.821 14.7359 731.585 14.7359C724.916 14.7359 719.329 20.9419 716.244 25.2679C759.524 33.7309 792.48 63.4049 818.046 81.9989C831.789 91.9959 839.663 118.001 858.989 150.211Z" fill="#707070"/>
<path d="M848.429 1303.39C844.658 1304.6 837.425 1306.81 829.256 1308.71C837.447 1306.8 844.681 1304.6 848.429 1303.39Z" fill="#707070"/>
<path d="M849.174 1303.15C848.965 1303.22 848.744 1303.29 848.506 1303.37C848.744 1303.29 848.966 1303.22 849.174 1303.15Z" fill="#707070"/>
<path d="M829.239 1308.72C828.632 1308.86 828.02 1309 827.405 1309.13C828.021 1309 828.632 1308.86 829.239 1308.72Z" fill="#707070"/>
<path d="M335.817 1613.44C335.997 1613.46 438.902 1625.17 510.976 1650.5C583.113 1675.84 707.891 1681.69 801.474 1662.2C895.057 1642.7 1029.58 1597.86 1029.58 1597.86L1025.68 1607.6C1025.68 1607.6 945.748 1701.19 688.394 1707.04C636.635 1708.21 591.44 1705.13 552.252 1699.45C560.525 1700.76 569.059 1701.99 577.878 1703.14C787.825 1730.43 935.999 1677.79 996.438 1634.9C1034.54 1607.86 1081.45 1552.3 1109.62 1514.2L1107.57 1510.61C1107.57 1510.61 1131.07 1478.49 1148.51 1452.12C1165.96 1425.75 1197.25 1345.38 1197.25 1345.38C1206.68 1301.22 1215.36 1247.09 1221.62 1190.1V1184.53C1221.62 1184.53 1221.86 1184.43 1222.25 1184.28C1235.04 1064.39 1232.1 1000.15 1227.24 912.56C1217.52 902.96 1217.51 879.724 1224.76 869.67C1224.04 857.603 1223.27 845.213 1222.46 832.627C1216.16 820.392 1215.79 798.658 1219.34 786.124C1218.1 768.534 1216.79 750.867 1215.42 733.447C1205.29 719.573 1202.35 689.446 1210.34 673.887C1208.81 657.372 1207.21 641.491 1205.57 626.577C1199.54 614.844 1195.68 594.371 1199.83 580.517C1198.61 571.981 1197.36 564.083 1196.1 556.939C1186.72 553.653 1178.19 545.921 1170.46 534.499C1156.63 514.051 1154.72 495.602 1168.89 480.588L1168.71 480.247C1147.68 496.592 1127.73 492.233 1109.26 472.935C1105.39 468.897 1102.19 464.823 1099.69 460.719C1118.32 540.818 1135.79 629.577 1134.86 677.62C1134.35 704.528 1131.7 728.921 1128.09 750.239C1162.64 795.412 1174.83 848.214 1174.83 848.214C1174.83 848.214 1154.36 868.685 1122.19 856.987C1113.98 854.002 1107.68 849.872 1100.75 844.699C1100.96 844.929 1148.51 896.199 1146.56 993.462C1144.61 1090.94 1008.97 1176.73 937.388 1137.74C865.811 1098.74 858.012 1046.1 780.026 1050C830.717 1071.45 830.717 1108.49 838.516 1133.84C846.315 1159.18 840.465 1200.12 840.465 1200.12L815.149 1148C824.376 1175.42 831.989 1200.35 832.706 1209.87C834.27 1230.63 813.643 1267.06 806.115 1279.58C813.961 1276.7 823.23 1271.98 824.867 1265.44C827.792 1253.74 832.666 1250.82 832.666 1250.82L840.465 1293.71C840.465 1293.71 852.163 1296.63 856.062 1286.88C859.961 1277.14 859.961 1271.29 859.961 1271.29C859.961 1271.29 870.684 1283.81 870.684 1294.12C870.684 1304.43 871.659 1311.26 866.785 1326.85C858.254 1354.15 855.853 1332.2 863.924 1381.75C889.205 1453.58 881.602 1488.67 841.537 1502.32C801.472 1515.97 770.277 1521.82 744.932 1537.42C719.587 1553.01 651.349 1537.41 612.356 1533.52C573.363 1529.62 540.219 1537.41 505.125 1529.62C470.031 1521.82 448.585 1484.77 454.434 1451.63C460.283 1418.49 479.779 1404.84 479.779 1404.84C479.779 1404.84 473.93 1313.2 476.854 1299.56C479.779 1285.91 485.627 1283.96 498.3 1282.01C510.973 1280.06 510.973 1279.09 510.973 1274.21C510.973 1271.97 513.028 1266.24 515.251 1260.7C515.011 1244.59 513.765 1214.61 516.188 1184.86C515.751 1186.19 515.312 1187.4 514.873 1188.43C509.024 1202.08 489.528 1217.67 489.528 1217.67C489.528 1217.67 487.698 1078.55 560.306 1052.18C563.529 1045.37 565.564 1041.23 565.564 1041.23C565.564 1041.23 517.798 1050.98 498.301 1081.2C478.804 1111.42 448.585 1148.46 382.297 1137.74C316.009 1127.01 290.663 1085.1 271.167 1035.38C256.168 997.131 256.171 935.231 263.185 894.947C256.359 893.186 251.671 892.08 251.671 892.08C251.671 892.08 256.538 890.668 264.308 888.978C266.227 879.524 268.553 871.548 271.167 865.759C284.736 835.713 301.967 811.061 302.165 810.778C279.035 821.514 254.131 834.827 227.3 851.136L174.659 877.456C174.659 877.456 182.502 809.59 192.206 792.646C192.206 792.646 224.65 723.968 292.604 696.013L271.245 439.9C263.182 435.815 256.496 429.313 250.695 422.397C260.131 439.57 255.253 456.548 239.57 472.932C224.562 488.61 208.579 494.424 191.835 487.294C190.75 489.99 189.667 492.712 188.585 495.461C193.186 512.396 181.902 532.09 170.695 544.298C157.287 583.845 145.32 627.006 137.282 671.735C142.324 679.909 143.939 691.123 142.639 704.775C141.176 720.14 136.671 731.776 128.565 738.699C127.323 754.643 127.034 765.043 126.789 779.116C133.729 792.62 133.325 819.807 126.04 833.244C125.904 846.627 125.811 859.685 125.759 872.438C130.492 881.595 130.175 897.797 125.718 906.768C126.389 1266.44 160.65 1334.2 230.417 1480.14C239.032 1495.71 248.857 1511.59 259.407 1525.76C283.387 1558.08 305.018 1587.24 335.817 1613.44ZM842.574 1613.45C842.574 1613.45 674.748 1697.29 499.279 1619.3C499.279 1619.3 692.606 1656.35 842.574 1613.45Z" fill="#707070"/>
<path d="M850.926 1302.57C850.305 1302.78 848.471 1303.28 845.411 1303.43C845.529 1303.38 854.819 1299.71 859.999 1303.25C855.558 1293.29 840.542 1300.72 836.566 1302.92C840.788 1303.56 847.053 1303.89 850.926 1302.57ZM841.54 1303.41L845.338 1303.44C844.235 1303.49 842.959 1303.48 841.54 1303.41Z" fill="#707070"/>
<path d="M793.467 1086.38C797.881 1098.52 802.934 1112.61 807.918 1126.91C809.257 1109.27 802.11 1093.43 793.467 1086.38Z" fill="#707070"/>
<path d="M851.191 1302.48L850.926 1302.57C850.962 1302.56 851.096 1302.52 851.191 1302.48Z" fill="#707070"/>
<path d="M826.735 1309.28L827.234 1309.17C827.068 1309.21 826.9 1309.24 826.734 1309.28L826.735 1309.28Z" fill="#707070"/>
<path d="M491.276 1317.19C489.973 1314.61 488.999 1311.53 488.522 1308.38C488.52 1312.65 489.631 1315.42 491.276 1317.19Z" fill="#707070"/>
<path d="M835.844 1322.62C840.978 1330.75 846.323 1340.31 851.562 1351.45L845.338 1334.65C845.338 1334.65 845.725 1334.41 846.365 1333.95C844.902 1330.51 844.367 1323.15 844.367 1323.15C844.367 1323.15 840.962 1322.89 835.844 1322.62Z" fill="#707070"/>
<path d="M811.742 1291.54C813.242 1293.07 814.909 1294.84 816.712 1296.87C823.161 1299.68 828.684 1301.36 833.304 1302.33L811.742 1291.54Z" fill="#707070"/>
<path d="M495.143 1291.2C492.175 1291.5 490.396 1293.14 489.44 1297.09C490.579 1294.28 492.363 1292.29 495.143 1291.2Z" fill="#707070"/>
<path d="M525.115 1135.84C532.466 1114.03 544.228 1087.06 553.179 1067.5C541.375 1082.67 526.574 1103.79 526.574 1114.34C526.574 1119.68 526.031 1127.36 525.115 1135.84Z" fill="#707070"/>
<path d="M1092.15 428.981L1093.68 435.327C1094.3 431.035 1095.76 426.724 1098.14 422.4C1096.29 424.606 1094.2 426.934 1092.15 428.981Z" fill="#707070"/>
<path d="M242.243 410.93C238.897 405.719 236.026 400.247 233.846 394.691C232.88 396.596 231.901 398.541 230.905 400.533C234.769 403.607 238.803 407.218 242.243 410.93Z" fill="#707070"/>
<path d="M1068.13 334.758C1072.71 333.387 1077.49 332.746 1082.31 333.041C1073.36 318.912 1066.05 307.606 1061.6 300.769C1061.33 301.399 1061.05 302.025 1060.76 302.644C1060.51 303.33 1060.25 304.016 1059.98 304.7C1061.95 311.821 1064.75 322.091 1068.13 334.758Z" fill="#707070"/>
<path d="M1115.1 394.406C1112.91 400.06 1109.99 405.63 1106.59 410.93C1111.07 406.099 1116.7 401.28 1122.05 397.406C1120.46 394.747 1118.87 392.101 1117.28 389.475C1116.63 391.152 1115.91 392.8 1115.1 394.406Z" fill="#707070"/>
<path d="M606.536 1099.88C603.559 1108.79 601.636 1114.34 601.636 1114.34C601.636 1114.34 604.474 1108.19 606.536 1099.88Z" fill="#707070"/>
<path d="M592.862 877.46C598.711 897.931 566.542 1038.31 566.542 1038.31C566.542 1038.31 578.24 1047.08 598.711 1061.7C610.947 1070.44 609.599 1087.54 606.536 1099.88C614.578 1075.81 630.326 1027.25 636.73 997.364C645.503 956.421 630.881 833.593 630.881 833.593C598.712 684.445 452.488 681.52 347.207 684.445C326.964 685.007 308.784 689.363 292.608 696.018C224.654 723.973 192.21 792.651 192.21 792.651C182.507 809.594 174.663 877.461 174.663 877.461L227.304 851.141C254.135 834.832 279.039 821.519 302.169 810.783C536.188 702.159 587.539 858.831 592.862 877.46Z" fill="#707070"/>
<path d="M1019.84 687.369C899.932 678.596 768.331 690.293 733.237 792.65C698.143 895.007 701.068 979.817 703.992 1009.06C706.917 1038.31 733.237 1120.19 733.237 1120.19L747.859 1050H780.028C780.028 1050 742.01 933.025 756.632 889.158C771.254 845.291 835.593 734.161 961.346 775.103C1087.31 816.116 1089.93 845.256 1122.19 856.988C1154.36 868.686 1174.83 848.215 1174.83 848.215C1174.83 848.215 1162.64 795.413 1128.09 750.24C1104.02 718.754 1069.08 690.973 1019.84 687.369Z" fill="#707070"/>
<path d="M624.056 1120.19C600.66 1127.99 598.711 1127.99 567.516 1135.79C536.321 1143.59 544.12 1165.03 559.717 1178.68C575.314 1192.33 616.257 1184.53 616.257 1184.53C616.257 1184.53 642.448 1200.23 674.998 1200.27C691.973 1199.34 706.175 1194.78 707.411 1194.37C721.005 1188.58 725.437 1180.63 725.437 1180.63C785.876 1198.18 805.373 1165.03 807.322 1152.14C809.272 1139.24 799.523 1129.94 779.403 1129.94C759.283 1129.94 739.084 1127.99 719.588 1120.19C700.092 1112.39 702.041 1124.09 678.645 1125.07C655.251 1126.04 647.452 1112.39 624.056 1120.19ZM621.785 1180.63C620.488 1186.48 609.434 1171.86 605.535 1161.62C601.636 1151.39 586.039 1160.16 586.039 1160.16L589.938 1170.88C568.968 1167.66 568.616 1152.36 598.711 1152.36C615.283 1152.36 620.157 1164.06 620.157 1164.06C620.157 1164.06 623.082 1174.78 621.785 1180.63ZM723.489 1166.01C731.288 1157.24 734.212 1156.26 745.91 1152.36C757.608 1148.46 774.18 1158.9 774.18 1158.9C774.18 1164.47 770.281 1166.98 763.457 1168.93C756.633 1170.88 756.633 1159.18 752.734 1157.23C748.835 1155.28 733.237 1166.01 733.237 1166.01L731.287 1174.78C731.287 1174.78 715.69 1174.78 723.489 1166.01Z" fill="#707070"/>
<path d="M598.711 1152.36C568.551 1152.36 569.023 1167.66 589.938 1170.88L586.039 1160.16C586.039 1160.16 601.636 1151.39 605.535 1161.62C609.434 1171.86 620.489 1186.48 621.785 1180.63C623.081 1174.78 620.157 1164.06 620.157 1164.06C620.157 1164.06 615.283 1152.36 598.711 1152.36Z" fill="#707070"/>
<path d="M731.287 1174.78L733.237 1166.01C733.237 1166.01 748.834 1155.29 752.734 1157.24C756.633 1159.19 756.633 1170.88 763.457 1168.93C770.281 1166.98 774.18 1164.47 774.18 1158.9C774.18 1158.9 757.608 1148.46 745.91 1152.36C734.212 1156.26 731.288 1157.24 723.489 1166.01C715.69 1174.78 731.287 1174.78 731.287 1174.78Z" fill="#707070"/>
<path d="M564.592 1312.23C593.837 1312.23 637.704 1317.11 652.326 1319.06C666.948 1321.01 675.722 1323.93 684.495 1322.96C693.268 1321.98 712.765 1313.21 725.438 1314.18C738.111 1315.16 785.877 1312.23 804.399 1312.23C817.882 1312.23 838.315 1306.83 850.798 1302.62C849.472 1303.02 844.757 1304.16 836.565 1302.92C835.945 1303.26 835.593 1303.47 835.593 1303.47L833.303 1302.33C824 1300.39 814.613 1296.29 806.348 1291.76C776.129 1275.19 735.186 1248.87 712.765 1258.62C690.344 1268.36 695.218 1283.83 674.747 1280C654.276 1276.16 650.376 1257.64 628.93 1259.59C601.917 1262.05 529.311 1298.22 511.951 1298.58C511.951 1298.58 535.347 1312.23 564.592 1312.23Z" fill="#707070"/>
<path d="M851.157 1302.5C851.138 1302.5 851.105 1302.51 851.05 1302.53C851.103 1302.51 851.136 1302.5 851.157 1302.5Z" fill="#707070"/>
<path d="M495.143 1291.2C492.363 1292.29 490.578 1294.28 489.44 1297.09C488.644 1300.38 488.521 1305.01 488.521 1308.38C488.998 1311.53 489.972 1314.61 491.275 1317.19C495.994 1322.27 505.127 1319.06 505.127 1319.06L504.954 1319.85C511.53 1314.94 512.13 1320.59 579.214 1323.15C599.685 1323.93 636.729 1321.98 648.427 1327.83C660.125 1333.68 661.1 1339.53 682.546 1336.6C703.992 1333.68 702.043 1329.78 718.615 1328.81C772.172 1325.66 800.124 1319.84 844.368 1323.15C844.368 1323.15 844.903 1330.52 846.366 1333.95C856.424 1326.75 864.809 1314.03 860 1303.25C854.821 1299.71 845.531 1303.39 845.412 1303.43C847.231 1303.34 849.423 1303.09 851.192 1302.49C838.236 1306.75 819.744 1311.8 806.12 1312.21C743.468 1314.1 733.701 1314.82 725.439 1314.18C712.766 1313.21 693.27 1321.98 684.496 1322.96C675.723 1323.93 666.949 1321.01 652.327 1319.06C637.704 1317.11 593.837 1312.23 564.593 1312.23C535.348 1312.23 511.952 1298.59 511.952 1298.59C513.239 1298.56 516.058 1297.99 517.319 1297.72C511.904 1294.3 500.196 1290.69 495.143 1291.2Z" fill="#707070"/>
<path d="M841.54 1303.41C842.959 1303.48 844.235 1303.49 845.338 1303.44L841.54 1303.41Z" fill="#707070"/>
<path d="M764.431 1380.47C758.582 1381.45 600.66 1382.42 587.988 1380.47C575.315 1378.52 517.8 1330.75 517.8 1330.75C528.523 1359.02 587.013 1413.61 587.013 1413.61H768.331C782.953 1405.82 832.669 1330.75 832.669 1330.75C821.946 1346.35 770.28 1379.5 764.431 1380.47Z" fill="#707070"/>
<path d="M510.977 1319.06L552.894 1337.38C552.894 1337.38 579.214 1363.9 594.812 1367.8C610.409 1371.7 724.464 1372.67 740.061 1370.72C755.658 1368.77 785.878 1344.4 802.45 1338.55C819.022 1332.71 830.72 1325.88 830.72 1325.88L779.405 1324.91C779.405 1324.91 786.853 1346.35 753.708 1348.3C720.564 1350.25 710.816 1353.18 688.395 1354.15C665.974 1355.13 672.798 1350.25 645.503 1348.3C618.208 1346.35 587.013 1350.25 579.215 1344.4C571.416 1338.55 555.819 1327.83 607.485 1324.91L510.977 1319.06Z" fill="#707070"/>
<path d="M835.594 1303.47C866.035 1284.93 869.68 1319.17 845.338 1334.65L864.838 1387.29C855.589 1331.03 858.089 1354.69 866.787 1326.86C871.661 1311.26 870.686 1304.43 870.686 1294.12C870.686 1283.81 859.963 1271.29 859.963 1271.29C859.963 1271.29 859.963 1277.14 856.064 1286.89C852.165 1296.64 840.467 1293.71 840.467 1293.71L832.668 1250.82C832.668 1250.82 827.794 1253.74 824.869 1265.44C822.529 1274.8 803.811 1281.02 794.65 1282.99C803.37 1287.35 826.1 1298.72 835.594 1303.47Z" fill="#707070"/>
<path d="M505.128 1319.06C505.128 1319.06 495.996 1322.26 491.276 1317.19C489.117 1314.86 488.52 1311.52 488.52 1308.34C488.531 1303.37 488.804 1299.72 489.44 1297.09C490.396 1293.14 492.175 1291.5 495.143 1291.2C500.387 1290.67 512.112 1294.43 517.318 1297.71L542.421 1289.47C542.421 1289.47 526.574 1279.09 524.624 1265.44C522.674 1251.79 520.725 1247.89 520.725 1247.89C518.921 1251.86 510.977 1269.83 510.977 1274.21C510.977 1279.09 510.977 1280.06 498.304 1282.01C485.631 1283.96 479.782 1285.91 476.858 1299.56C473.934 1313.21 479.783 1404.84 479.783 1404.84C492.606 1373.37 497.309 1354.78 505.128 1319.06Z" fill="#707070"/>
<path d="M639.071 1194.34L641.603 1247.89C641.603 1247.89 644.528 1212.8 649.402 1212.8C654.276 1212.8 666.949 1218.65 678.647 1217.67C690.345 1216.7 702.37 1212.8 702.37 1212.8L708.866 1244.97L707.505 1194.34C687.944 1200.81 658.378 1203.9 639.071 1194.34Z" fill="#707070"/>
<path d="M944.774 947.648C907.731 950.572 859.184 948.623 841.54 947.648C823.895 946.673 796.6 941.799 796.6 941.799C796.6 941.799 897.007 1022.71 1025.68 931.076C1025.68 931.076 981.818 944.724 944.774 947.648Z" fill="#707070"/>
<path d="M546.07 945.698C425.515 956.273 413.634 944.047 316.011 930.101C316.011 930.101 394.972 972.019 443.713 972.993C492.454 973.967 546.07 945.698 546.07 945.698Z" fill="#707070"/>
<path d="M313.739 912.463C307.453 907.014 280.236 899.368 264.004 895.161C296.914 903.854 300.646 907.722 313.739 912.463Z" fill="#707070"/>
<path d="M390.098 908.655C366.959 903.866 335.222 896.033 313.74 899.111V912.464C337.452 921.049 384.274 933.074 410.105 937.243C389.491 928.859 390.098 908.655 390.098 908.655Z" fill="#707070"/>
<path d="M316.012 885.259C374.202 899.413 415.398 904.026 476.039 905.73C545.408 907.68 556.794 918.403 555.819 928.151C554.844 937.899 517.801 934.975 517.801 934.975C517.801 934.975 532.423 927.176 538.272 925.227C544.121 923.277 534.373 913.529 524.625 912.554C514.877 911.579 474.909 911.579 474.909 911.579C472.532 921.882 472.731 934.763 450.361 939.219C495.581 938.886 539.897 935.54 560.694 934L564.593 941.799C564.593 941.799 590.913 916.941 569.467 864.057C551.097 818.757 515.537 792.968 456.094 787.722C478.941 790.78 509.729 799.975 533.398 825.795C576.29 872.587 542.421 893.058 542.421 893.058C542.421 893.058 486.606 897.932 446.638 897.932C406.67 897.932 342.332 883.31 312.112 883.31C292.448 883.31 267.356 887.535 251.673 892.083C272.144 888.184 316.012 885.259 316.012 885.259Z" fill="#707070"/>
<path d="M424.217 786.802C435.541 786.522 446.141 786.844 456.094 787.722C437.537 785.238 424.217 786.802 424.217 786.802Z" fill="#707070"/>
<path d="M819.022 894.033C802.45 890.134 803.425 884.285 803.425 884.285C806.349 766.331 953.548 788.752 953.548 788.752C953.548 788.752 927.228 772.18 847.292 794.601C767.356 817.022 774.18 933.026 774.18 933.026C774.18 933.026 783.842 933.027 801.525 933.65L801.488 933.649C801.488 933.649 788.803 932.051 790.752 918.404C792.701 904.757 814.148 906.706 836.569 906.706C858.99 906.706 901.882 909.63 934.052 907.681C966.221 905.731 1037.38 890.134 1053.96 888.184C1070.53 886.234 1096.11 894.636 1096.11 894.636C1088.53 896.362 1075.6 900.401 1068.76 905.461C1087.28 900.54 1100.75 897.932 1100.75 897.932C1064.68 869.662 1007.17 888.184 970.121 895.982C933.077 903.781 835.594 897.932 819.022 894.033Z" fill="#707070"/>
<path d="M956.472 910.605C956.472 910.605 953.547 924.253 950.623 931.076C947.698 937.9 899.932 939.849 886.284 935.95C872.637 932.051 872.637 912.859 872.637 912.859C872.637 912.859 860.939 914.504 831.694 913.042C802.449 911.58 810.989 919.378 810.989 919.378C822.965 932.242 819.967 928.918 824.838 934.653L824.756 934.649C839.063 935.368 856.112 936.403 875.562 937.899C931.521 942.204 990.505 929.023 1025.69 918.497L1040.31 899.11C1020.09 898.581 1014.01 898.266 956.472 910.605Z" fill="#707070"/>
<path d="M675.235 637.653C654.238 637.653 637.217 654.674 637.217 675.671C637.217 696.668 654.238 713.689 675.235 713.689C696.232 713.689 713.253 696.668 713.253 675.671C713.253 654.675 696.232 637.653 675.235 637.653ZM704.349 684.445C695.62 655.497 654.858 655.472 646.121 684.445C639.972 664.054 655.426 645.125 675.235 645.125C695.037 645.124 710.5 664.046 704.349 684.445Z" fill="#707070"/>
<path d="M688.395 1707.04C945.749 1701.19 1025.68 1607.6 1025.68 1607.6L1029.58 1597.86C1029.58 1597.86 895.058 1642.7 801.475 1662.2C707.892 1681.69 583.114 1675.84 510.977 1650.5C460.536 1632.77 385.412 1619.19 335.814 1613.44C335.814 1613.44 396.595 1676.9 552.254 1699.45C591.441 1705.13 636.637 1708.21 688.395 1707.04Z" fill="#707070"/>
<path d="M1258.07 917.695L1272.8 941.799C1272.8 941.799 1277.19 919.378 1275.73 913.042C1275.58 912.387 1275.34 911.763 1275.07 911.158C1271.86 913.273 1264.48 916.338 1258.07 917.695Z" fill="#707070"/>
<path d="M1245.02 927.177C1239.97 920.358 1234.79 927.177 1234.79 927.177L1274.27 966.657L1245.02 927.177Z" fill="#707070"/>
<path d="M1266.37 991.515C1264.33 979.817 1229 945.401 1229 945.401L1231.54 1002.1C1231.54 1002.1 1268.42 1003.21 1266.37 991.515Z" fill="#707070"/>
<path d="M1299.12 856.989C1295.28 859.553 1286.94 863.993 1283.95 878.518C1286.14 883.679 1286.65 891.143 1285.16 897.064C1289.21 920.21 1297.66 971.44 1297.66 995.902C1297.66 1028.07 1278.65 1143.59 1271.34 1169.91C1264.03 1196.23 1266.37 1262.03 1266.37 1262.03C1266.37 1262.03 1268.42 1215.24 1280.11 1178.68C1290.94 1144.85 1313.06 1016.94 1307.9 954.958C1307.9 954.958 1322.52 960.807 1326.9 995.901C1331.29 1030.99 1321.06 1093.87 1319.59 1111.42C1318.13 1128.96 1315.27 1178.69 1315.27 1178.69C1334.24 1113.58 1357.87 1008.41 1358.75 935.936C1359.07 840.905 1303.51 854.065 1299.12 856.989Z" fill="#707070"/>
<path d="M1250.87 1180.14C1253.42 1172.48 1229.1 1181.49 1221.62 1184.53V1217.67C1221.62 1217.67 1247.94 1188.92 1250.87 1180.14Z" fill="#707070"/>
<path d="M1221.62 1503.3C1209.93 1452.12 1197.25 1345.38 1197.25 1345.38C1197.25 1345.38 1165.96 1425.75 1148.51 1452.12C1131.07 1478.49 1107.57 1510.61 1107.57 1510.61C1119.25 1530.93 1170.64 1620.34 1187.99 1636.36C1207 1653.91 1227.47 1665.61 1268.42 1658.3C1279.61 1656.3 1288.1 1652.03 1294.56 1646.9C1305.69 1638.05 1312.88 1624.1 1314.38 1613.45C1281.65 1588.27 1230.8 1543.45 1221.62 1503.3Z" fill="#707070"/>
<path d="M170.275 1349.76C170.275 1349.76 164.426 1441.17 130.795 1502.94C97.164 1564.71 76.692 1591.03 51.834 1601.27C31.693 1609.56 37.992 1624.84 45.738 1634.4C49.85 1639.47 60.2221 1648.38 65.7361 1651.95C74.7721 1657.81 84.9081 1660.88 97.1631 1660.51C123.969 1659.7 160.439 1635.28 180.183 1616.45C203.515 1594.21 235.107 1539.5 241.346 1502.94C234.974 1489.6 174.468 1363.74 170.275 1349.76Z" fill="#707070"/>
<path d="M92.296 1218.8C92.53 1219.99 92.696 1220.8 92.776 1221.12C92.899 1221.61 92.722 1220.77 92.296 1218.8Z" fill="#707070"/>
<path d="M18.202 973.018C24.051 946.186 59.145 943.261 59.145 943.261C59.145 943.261 53.296 968.119 53.296 1006.14C53.296 1040.96 87.653 1197.32 92.297 1218.8C88.224 1198.06 62.229 1052 64.994 1010.52C66.965 980.954 73.5871 938.1 77.6941 913.305C66.7791 908.43 61.932 898.482 62.947 886.745C64.123 872.522 73.165 866.296 86.672 862.558C86.211 855.415 84.174 848.174 79.244 842.185C78.17 841.695 77.1191 841.159 76.0861 840.589C75.8801 840.506 75.6751 840.415 75.4701 840.327C68.0551 838.935 46.8111 836.331 31.3621 848.215C12.3531 862.837 5.04199 905.242 5.04199 925.714C5.04199 946.185 11.907 1023.76 12.13 1035.42C12.345 1046.64 51.6941 1189.07 54.7581 1200.13C54.7581 1200.13 12.353 999.85 18.202 973.018Z" fill="#707070"/>
<path d="M84.0031 933.026L97.364 918.711C93.828 918.367 90.274 917.711 86.858 916.722C85.154 924.837 84.0031 933.026 84.0031 933.026Z" fill="#707070"/>
<path d="M107.853 918.705L91.3141 947.648L115.126 916.832C112.973 917.74 110.551 918.368 107.853 918.705Z" fill="#707070"/>
<path d="M122.021 941.799C122.021 941.799 92.776 968.119 88.39 994.44C84.004 1020.76 80.088 1140.42 139.073 1196.11C139.073 1196.11 97.1631 1121.65 97.1631 1079.25C97.1631 1036.84 127.301 1019.31 127.301 1019.31L125.855 935.954L122.021 941.799Z" fill="#707070"/>
<path d="M722.844 201.997C722.844 210.84 720.691 217.837 716.663 223.179C719.172 222.455 721.929 221.935 724.939 221.65C726.995 209.907 725.367 191.89 718.997 177.475C720.531 182.254 722.844 193.289 722.844 201.997Z" fill="#707070"/>
<path d="M698.7 234.532C687.35 237.705 670.362 237.72 658.941 234.447C662.867 238.879 665.662 244.103 667.422 249.589C667.783 250.405 668.129 251.231 668.459 252.067C674.977 252.856 682.688 252.867 689.243 252.096C689.577 251.251 689.927 250.415 690.292 249.589C692.042 244.137 694.813 238.946 698.7 234.532Z" fill="#707070"/>
<path d="M635.109 201.997C635.109 192.703 637.724 181.313 638.956 177.475C632.578 191.908 630.96 209.947 633.019 221.673C636.053 221.975 638.832 222.513 641.352 223.262C637.284 217.909 635.109 210.886 635.109 201.997Z" fill="#707070"/>
<path d="M636.617 192.508C636.617 212.6 652.502 221.124 678.977 221.124C705.452 221.124 721.337 212.6 721.337 192.508C721.337 176.918 714.084 161.198 699.455 153.806C710.092 159.499 716.458 172.342 716.458 184.6C716.458 201.017 702.403 207.981 678.977 207.981C655.551 207.981 641.496 201.016 641.496 184.6C641.496 172.343 647.861 159.498 658.499 153.806C643.87 161.197 636.617 176.937 636.617 192.508Z" fill="#707070"/>
<path d="M644.403 176.166C644.403 188.662 657.368 193.964 678.976 193.964C700.584 193.964 713.549 188.662 713.549 176.166C713.549 162.471 702.119 149.28 678.976 149.28C694.45 149.28 700.821 158.372 700.821 166.268C700.821 174.164 692.629 177.513 678.976 177.513C665.323 177.513 657.131 174.163 657.131 166.268C657.131 158.372 663.502 149.28 678.976 149.28C655.727 149.28 644.403 162.571 644.403 176.166Z" fill="#707070"/>
<path d="M917.479 202.922C919.821 190.952 928.679 181.324 931.615 177.505C927.16 181.639 923.082 186.376 919.482 191.421C919.232 194.491 918.655 197.509 917.814 200.409C917.718 201.246 917.603 202.084 917.479 202.922Z" fill="#707070"/>
<path d="M999.05 232.964C993.158 244.077 985.034 249.694 975.139 250.668C975.954 253.927 976.344 257.284 976.367 260.64C976.609 262.737 976.752 264.866 976.798 267.017C980.283 263.651 984.016 260.474 987.919 257.597C996.39 247.377 1003.14 230.531 1005.28 216.566C1004.48 218.983 1003.27 225.001 999.05 232.964Z" fill="#707070"/>
<path d="M917.122 205.109C915.474 214.572 911.998 224.449 908.657 231.072C912.474 228.029 916.857 225.589 921.779 224.037C917.945 218.258 916.286 211.96 917.122 205.109Z" fill="#707070"/>
<path d="M927.349 184.122C919.556 198.82 925.819 211.714 942.353 222.886C953.777 224.925 961.286 229.36 966.577 234.909C985.591 241.011 998.905 235.828 1005.28 216.567C1007.95 208.513 1008.52 199.439 1005.77 190.836C1007.25 198.347 1006.53 205.214 1003.2 211.508C996.532 224.079 981.286 222.829 960.59 211.855C939.894 200.882 930.303 188.965 936.969 176.394C940.32 170.074 945.617 165.638 952.636 162.665C941.626 165.907 932.616 174.19 927.349 184.122Z" fill="#707070"/>
<path d="M942.962 171.297C937.889 180.866 947.191 190.999 966.282 201.121C985.373 211.243 998.98 213.256 1004.05 203.687C1006.02 199.985 1006.69 195.495 1005.77 190.834C1004.25 183.152 998.331 174.656 985.745 167.631C998.241 174.759 1000.32 183.557 997.541 188.798C994.667 194.218 986.21 192.681 974.148 186.285C962.085 179.89 956.067 173.753 958.941 168.332C961.72 163.092 970.167 159.875 983.079 166.217C970.202 159.742 959.848 159.611 952.638 162.664C948.254 164.521 944.921 167.602 942.962 171.297Z" fill="#707070"/>
<path d="M908.657 231.071C912.858 222.744 916.602 210.895 917.815 200.409C917.106 202.854 916.119 208.919 912.199 217.027C902.023 238.076 883.443 240.456 859.591 229.445C868.124 235.704 872.74 244.86 874.332 254.403C874.548 255.175 874.753 255.952 874.941 256.737C881.052 256.531 886.698 254.858 891.816 251.596C894.057 247.891 896.57 244.37 899.327 241.128C901.905 237.396 905.027 233.965 908.657 231.071Z" fill="#707070"/>
<path d="M842.748 164.115C838.84 168.022 835.262 172.417 832.081 177.072C832.419 177.786 832.739 178.505 833.031 179.233C836.97 170.908 841.201 166.288 842.748 164.115Z" fill="#707070"/>
<path d="M836.34 213.162C836.178 215.934 835.904 218.698 835.519 221.431C840.318 221.736 845.222 222.613 849.665 224.179C844.174 220.812 839.693 217.146 836.34 213.162Z" fill="#707070"/>
<path d="M838.731 170.885C830.245 188.438 840.946 202.799 864.782 214.322C888.617 225.845 906.519 225.312 915.005 207.759C919.862 197.712 921.282 185.572 917.347 174.677C919.264 182.775 918.386 189.555 915.546 195.431C909.353 208.241 894.072 207.558 872.982 197.363C851.892 187.167 841.865 175.615 848.058 162.804C851.171 156.365 856.3 151.733 863.205 148.502C852.269 152.169 843.594 160.826 838.731 170.885Z" fill="#707070"/>
<path d="M853.856 157.489C849.142 167.24 858.814 177.021 878.269 186.426C897.723 195.831 911.396 197.337 916.11 187.586C917.934 183.814 918.442 179.302 917.347 174.678C915.543 167.058 909.312 158.787 896.474 152.236C909.226 158.895 911.63 167.609 909.048 172.95C906.378 178.474 897.87 177.252 885.578 171.309C873.286 165.367 867.044 159.458 869.714 153.934C872.296 148.594 880.618 145.065 893.757 150.923C880.649 144.931 870.297 145.185 863.205 148.504C858.892 150.52 855.676 153.723 853.856 157.489Z" fill="#707070"/>
<path d="M770.333 249.588C771.883 253.094 773.152 256.782 774.156 260.569C778.55 261.801 782.877 262.658 786.706 263.152C788.646 257.059 791.606 249.945 797.3 240.751C793.158 240.486 788.738 239.828 784.05 238.783C757.29 232.817 743.444 219.323 748.654 195.955C750.62 187.136 753.578 181.86 754.566 179.44C746.946 191.744 741.165 209.218 741.116 222.467C754.708 225.363 765.627 234.925 770.333 249.588Z" fill="#707070"/>
<path d="M832.422 221.316C833.427 221.321 834.464 221.364 835.519 221.431C836.606 213.717 836.862 205.429 835.949 197.583C835.856 199.397 836.351 211.014 832.422 221.316Z" fill="#707070"/>
<path d="M752.207 186.947C747.965 205.977 761.669 217.506 787.509 223.267C798.587 225.737 808.091 226.292 815.675 224.629C818.234 223.534 820.446 222.862 822.126 222.456C838.823 214.418 839.464 187.773 829.603 172.643C833.317 180.072 834.023 186.875 832.6 193.257C829.504 207.145 814.472 209.978 791.608 204.881C768.744 199.784 756.339 190.833 759.435 176.946C760.988 169.978 764.911 164.293 770.904 159.557C761.099 165.631 754.64 176.035 752.207 186.947Z" fill="#707070"/>
<path d="M769.06 161.193C766.318 163.924 764.597 167.155 763.863 170.444C761.506 181.016 773.161 188.322 794.251 193.024C815.342 197.726 828.996 196.062 831.353 185.49C832.086 182.201 831.9 178.545 830.578 174.908C826.684 164.195 815.161 158.28 804.146 155.573C818.084 159.136 822.419 167.069 821.128 172.858C819.793 178.846 811.231 179.604 797.905 176.633C784.579 173.662 777.15 169.339 778.485 163.351C779.82 157.363 787.576 151.854 802.679 155.221C790.988 152.615 777.425 152.863 769.06 161.193Z" fill="#707070"/>
<path d="M1108.32 345.427C1107.93 345.033 1107.53 344.641 1107.12 344.255C1107.56 344.663 1107.86 344.969 1108.32 345.427Z" fill="#707070"/>
<path d="M1049.47 344.892C1051.68 343.082 1054.04 341.413 1056.52 339.931C1046.72 344.574 1037.36 351.49 1029.4 359.297C1029.42 361.046 1029.38 362.807 1029.3 364.573C1034.15 357.247 1042.13 349.912 1049.47 344.892Z" fill="#707070"/>
<path d="M1107.11 344.255C1106.7 343.868 1106.28 343.496 1105.86 343.133C1106.37 343.578 1106.68 343.854 1107.11 344.255Z" fill="#707070"/>
<path d="M1099.3 417.081C1080.73 437.045 1060.81 434.313 1040.73 415.643C1032.44 407.933 1026.87 400.052 1024.49 392.051C1022.07 399.773 1018.85 405.99 1014.92 410.807C1017.95 416.863 1022.62 422.763 1028.78 428.493C1053.31 451.302 1076.19 448.571 1098.14 422.401C1100.23 418.586 1103.04 414.76 1106.59 410.93C1110 405.63 1112.91 400.06 1115.1 394.406C1112.58 399.396 1105.88 410 1099.3 417.081Z" fill="#707070"/>
<path d="M1104.89 342.308C1104.97 342.373 1105.05 342.434 1105.12 342.499C1105.04 342.434 1104.97 342.372 1104.89 342.308Z" fill="#707070"/>
<path d="M1109.01 346.115C1109.08 346.188 1109.15 346.261 1109.22 346.334C1109.15 346.261 1109.08 346.188 1109.01 346.115Z" fill="#707070"/>
<path d="M1049.47 344.892C1027.01 363.24 1031.19 382.812 1052.68 402.793C1074.17 422.775 1093.99 425.528 1110.66 401.799C1118.86 390.136 1123.05 375.526 1118.68 361.888C1122.28 374.188 1116.67 389.021 1107.8 398.557C1095.36 411.933 1079.79 408.037 1062.64 392.085C1045.48 376.133 1040.47 360.887 1052.91 347.511C1061.77 337.976 1076.16 331.301 1088.69 333.998C1074.83 330.652 1060.59 335.8 1049.47 344.892Z" fill="#707070"/>
<path d="M1061.43 342.618C1051.96 352.8 1057.44 365.948 1073.26 380.663C1089.08 395.378 1102.59 399.887 1112.06 389.705C1122.57 378.409 1123.66 360.449 1108.14 345.247C1118.3 355.522 1116.04 366.74 1110.24 372.972C1104.26 379.405 1095.72 376.556 1085.72 367.259C1075.72 357.962 1072.26 349.654 1078.25 343.221C1084.04 336.989 1095.07 333.913 1106.05 343.307C1089.69 328.858 1071.83 331.434 1061.43 342.618Z" fill="#707070"/>
<path d="M1193.5 394.635C1193.13 394.218 1192.75 393.805 1192.36 393.395C1192.76 393.819 1192.96 394.042 1193.5 394.635Z" fill="#707070"/>
<path d="M1191.17 392.202C1191.57 392.592 1191.96 392.981 1192.36 393.394C1191.96 392.985 1191.57 392.589 1191.17 392.202Z" fill="#707070"/>
<path d="M1197.41 443.925C1194.61 448.761 1187.3 458.958 1180.32 465.643C1160.63 484.494 1140.9 480.609 1121.94 460.803C1102.98 440.997 1099.96 421.116 1119.65 402.265C1127.51 394.74 1138.61 387.957 1142.1 386.137C1135.16 388.945 1128.36 392.846 1122.05 397.407C1091.39 419.58 1082.46 444.936 1109.26 472.937C1130.72 495.358 1152.73 496.103 1174.72 475.056C1183.78 466.382 1192.12 455.521 1197.41 443.925Z" fill="#707070"/>
<path d="M1194.14 395.361C1194.21 395.438 1194.27 395.515 1194.34 395.593C1194.27 395.516 1194.21 395.439 1194.14 395.361Z" fill="#707070"/>
<path d="M1134.77 390.679C1111.28 407.69 1114.32 427.469 1134.61 448.669C1154.91 469.867 1174.53 473.767 1192.55 451.047C1201.36 439.941 1206.46 425.621 1202.88 411.669C1205.76 424.158 1199.29 438.64 1189.89 447.645C1176.69 460.275 1161.38 455.481 1145.18 438.559C1128.98 421.637 1124.86 406.125 1138.05 393.495C1147.46 384.491 1162.21 378.664 1174.56 382.085C1160.8 377.901 1146.27 382.348 1134.77 390.679Z" fill="#707070"/>
<path d="M1146.84 389.104C1136.8 398.718 1141.5 412.163 1156.44 427.773C1171.39 443.383 1184.61 448.669 1194.66 439.055C1205.88 428.306 1207.86 410.454 1193.32 394.444C1202.87 405.292 1199.96 416.36 1193.81 422.245C1187.46 428.32 1179.11 424.979 1169.66 415.116C1160.22 405.253 1157.25 396.758 1163.6 390.684C1169.94 384.609 1181.66 382.217 1192.36 393.395C1176.91 377.249 1158.39 378.053 1146.84 389.104Z" fill="#707070"/>
<path d="M1230.84 550.146C1240.28 543.76 1249.13 535.217 1255.26 525.451C1252.15 529.405 1244.3 537.512 1237.07 542.399C1216.75 556.149 1198.91 548.358 1183.55 525.651C1168.18 502.943 1167.59 483.485 1187.91 469.735C1195.62 464.519 1206.53 460.293 1210.41 459.16C1199.13 461.203 1187.85 466.246 1178.4 472.638C1154.27 488.966 1154.2 510.464 1170.47 534.502C1186.69 558.478 1206.67 566.499 1230.84 550.146Z" fill="#707070"/>
<path d="M1257.65 478.718C1257.7 478.804 1257.75 478.889 1257.8 478.975C1257.75 478.889 1257.7 478.803 1257.65 478.718Z" fill="#707070"/>
<path d="M1254.49 474.078C1254.55 474.159 1254.62 474.237 1254.68 474.319C1254.62 474.238 1254.55 474.159 1254.49 474.078Z" fill="#707070"/>
<path d="M1196.63 465.657C1179.96 476.932 1181.79 494.872 1196.63 516.8C1211.46 538.727 1227.43 547.1 1244.1 535.825C1257.17 526.983 1265.99 512.117 1263.94 495.983C1265.19 508.072 1257.99 520.537 1247.92 527.346C1234.31 536.559 1220.65 528.826 1207.53 509.425C1194.4 490.023 1192.3 474.474 1205.92 465.261C1215.98 458.452 1230.23 456.406 1240.99 462.062C1226.86 454.202 1209.76 456.77 1196.63 465.657Z" fill="#707070"/>
<path d="M1214.54 462.935C1204.18 469.948 1207.05 483.661 1219.16 501.558C1231.26 519.455 1242.93 527.218 1253.29 520.205C1264.64 512.525 1269.2 495.662 1256.22 476.482C1264.89 489.298 1260.92 499.677 1254.37 504.108C1247.82 508.539 1240.45 503.634 1232.8 492.326C1225.15 481.018 1223.34 472.353 1229.89 467.922C1236.23 463.63 1246.86 463.659 1255.4 475.317C1242.52 457.208 1225.65 455.422 1214.54 462.935Z" fill="#707070"/>
<path d="M1246.47 644.452C1257.33 642.397 1268.31 638.177 1277.2 632.06C1272.99 634.348 1263.04 638.477 1254.86 640.024C1231.86 644.378 1219.18 630.803 1214.32 605.098C1209.45 579.393 1216.29 562.124 1239.3 557.77C1248.02 556.119 1259.18 556.546 1263 557.019C1252.22 554.512 1240.38 554.726 1229.87 556.714C1202.77 561.843 1194.32 580.472 1199.51 607.9C1204.69 635.275 1219.32 649.59 1246.47 644.452Z" fill="#707070"/>
<path d="M1296.99 592.03C1297 592.126 1297.01 592.219 1297.02 592.315C1297.01 592.22 1297 592.126 1296.99 592.03Z" fill="#707070"/>
<path d="M1295.98 586.772C1296 586.866 1296.02 586.957 1296.04 587.051C1296.02 586.958 1296 586.866 1295.98 586.772Z" fill="#707070"/>
<path d="M1255.64 556.7C1229.49 557.628 1224.24 576.48 1229.12 602.296C1234.01 628.101 1245.79 643.742 1270.47 635.048C1282.57 630.785 1292.38 621.925 1295.96 609.533C1292.48 620.594 1281.46 628.789 1270.06 630.946C1254.65 633.863 1245.62 621.923 1241.46 599.961C1237.3 577.999 1241.35 563.584 1256.76 560.667C1268.16 558.511 1281.41 562.111 1288.69 571.136C1280.85 560.934 1268.5 556.244 1255.64 556.7Z" fill="#707070"/>
<path d="M1265.2 561.893C1253.47 564.114 1250.79 577.211 1254.62 597.469C1258.46 617.728 1265.74 628.941 1277.47 626.72C1290.39 624.274 1300.67 611.152 1296.58 589.529C1299.32 604.036 1291.92 611.625 1284.5 613.028C1277.09 614.431 1272.49 607.346 1270.07 594.546C1267.65 581.746 1269.34 573.47 1276.75 572.067C1284.16 570.664 1293.83 575.022 1296.58 589.529C1292.48 567.875 1278.08 559.456 1265.2 561.893Z" fill="#707070"/>
<path d="M1247.28 745.716C1257.51 744.742 1268.15 741.674 1277.1 736.386C1272.96 738.249 1263.3 741.388 1255.5 742.13C1233.58 744.218 1222.79 729.478 1220.31 703.435C1217.83 677.392 1225.64 660.881 1247.57 658.793C1255.89 658.001 1266.14 659.474 1269.86 660.358C1260.07 656.855 1249.04 655.85 1238.81 656.824C1212.28 659.351 1203.63 677.913 1206.19 704.779C1208.73 731.407 1220.55 748.262 1247.28 745.716Z" fill="#707070"/>
<path d="M1298.37 693.17C1298.39 693.265 1298.4 693.357 1298.41 693.452C1298.4 693.357 1298.39 693.264 1298.37 693.17Z" fill="#707070"/>
<path d="M1298.9 698.497C1298.9 698.594 1298.9 698.688 1298.91 698.784C1298.9 698.688 1298.9 698.593 1298.9 698.497Z" fill="#707070"/>
<path d="M1262.98 659.322C1237.8 657.655 1232.02 676.866 1234.42 702.091C1236.82 727.31 1246.12 745.092 1270.54 738.701C1282.43 735.59 1292.22 727.612 1296.52 715.807C1292.42 726.307 1281.59 733.525 1270.5 734.581C1255.8 735.98 1248.3 723.223 1246.18 700.971C1244.06 678.72 1249.02 664.775 1263.72 663.377C1274.81 662.321 1286.8 667.36 1292.81 676.904C1286.42 666.222 1275.38 660.143 1262.98 659.322Z" fill="#707070"/>
<path d="M1271.53 665.42C1260.34 666.485 1256.77 679.252 1258.73 699.777C1260.68 720.302 1266.6 732.166 1277.78 731.101C1289.59 729.977 1300.86 718.491 1298.71 695.969C1300.11 710.667 1292.55 717.494 1285.49 718.167C1278.42 718.84 1274.68 711.344 1273.45 698.375C1272.21 685.406 1274.47 677.34 1281.53 676.667C1288.6 675.994 1297.31 681.271 1298.71 695.969C1296.57 673.425 1283.29 664.299 1271.53 665.42Z" fill="#707070"/>
<path d="M1247.97 846.952C1256.33 846.809 1265.16 844.778 1272.75 840.59C1270.96 841.315 1269.12 841.86 1267.28 842.23C1263.2 843.532 1258.97 844.199 1254.87 844.27C1236.94 844.577 1229.09 830.288 1228.67 806.255C1228.26 782.222 1235.62 767.672 1253.55 767.365C1257.65 767.295 1261.9 767.817 1266.03 768.978C1267.88 769.285 1269.73 769.767 1271.55 770.43C1263.82 766.505 1254.92 764.777 1246.56 764.921C1223.63 765.314 1216.74 783.546 1217.14 806.454C1217.53 829.253 1224.97 847.346 1247.97 846.952Z" fill="#707070"/>
<path d="M1292.77 807.482C1292.77 807.572 1292.76 807.659 1292.76 807.749C1292.76 807.66 1292.77 807.572 1292.77 807.482Z" fill="#707070"/>
<path d="M1292.67 802.566C1292.68 802.654 1292.68 802.739 1292.69 802.827C1292.68 802.74 1292.68 802.654 1292.67 802.566Z" fill="#707070"/>
<path d="M1260.51 768.566C1245.81 768.818 1239.81 782.849 1240.21 806.056C1240.61 829.263 1247.08 843.081 1261.78 842.829C1273.56 842.627 1284.71 835.755 1289.77 823.163C1285.81 832.447 1276.59 838.297 1267.5 838.453C1255.49 838.659 1250.18 826.426 1249.83 805.891C1249.48 785.357 1254.36 772.949 1266.37 772.743C1275.45 772.587 1284.88 778.101 1289.16 787.261C1283.7 774.926 1272.35 768.363 1260.51 768.566Z" fill="#707070"/>
<path d="M1272.59 775.186C1263.44 775.343 1259.76 786.774 1260.08 805.715C1260.41 824.656 1264.48 835.955 1273.62 835.798C1299.82 835.349 1298.97 774.735 1272.59 775.186ZM1272.12 805.509C1271.91 793.541 1274.24 786.318 1280.02 786.219C1296.65 785.934 1297.31 824.231 1280.67 824.517C1274.9 824.616 1272.32 817.477 1272.12 805.509Z" fill="#707070"/>
<path d="M1268.35 914.388C1265.29 915.404 1258.24 916.966 1252.66 917.061C1236.94 917.33 1230.09 907.165 1229.8 890.033C1229.51 872.901 1236 862.507 1251.72 862.238C1257.67 862.136 1265.02 863.645 1267.5 864.372C1255.21 859.33 1233.61 857.408 1224.76 869.669C1217.52 879.72 1217.52 902.956 1227.24 912.559C1236.92 922.12 1256.93 919.536 1268.35 914.388Z" fill="#707070"/>
<path d="M1285.95 887.48C1285.93 887.231 1285.91 886.99 1285.89 886.745C1285.97 887.7 1285.95 887.431 1285.95 887.48Z" fill="#707070"/>
<path d="M1285.92 892.219C1285.89 892.66 1285.84 893.082 1285.79 893.505C1285.84 893.082 1285.89 892.656 1285.92 892.219Z" fill="#707070"/>
<path d="M1285.64 884.646C1285.7 885.067 1285.76 885.487 1285.81 885.926C1285.76 885.491 1285.7 885.067 1285.64 884.646Z" fill="#707070"/>
<path d="M1285.97 891.399C1285.98 891.153 1286 890.911 1286 890.661C1286 890.83 1286 890.753 1285.97 891.399Z" fill="#707070"/>
<path d="M1257.83 863.076C1244.93 863.297 1239.63 873.317 1239.92 889.86C1240.2 906.403 1245.84 916.236 1258.73 916.015C1269.09 915.838 1279.34 910.816 1283.71 901.133C1280.22 908.516 1271.76 912.742 1263.75 912.88C1253.22 913.061 1248.6 904.354 1248.35 889.716C1248.1 875.078 1252.42 866.219 1262.95 866.038C1270.97 865.901 1279.56 869.831 1283.3 877.094C1278.65 867.671 1268.34 862.896 1257.83 863.076Z" fill="#707070"/>
<path d="M1268.39 867.762C1260.38 867.899 1257.11 876.059 1257.34 889.562C1257.58 903.065 1261.12 911.108 1269.13 910.97C1277.64 910.824 1285.56 904.055 1285.98 890.818C1285.46 899.234 1280.1 902.826 1275.35 902.907C1270.28 902.994 1268.05 897.912 1267.9 889.38C1267.75 880.849 1269.82 875.693 1274.88 875.606C1279.63 875.525 1285.12 878.931 1285.92 887.324C1285.04 873.984 1276.74 867.619 1268.39 867.762Z" fill="#707070"/>
<path d="M1050.32 251.601C1050.75 251.957 1051.18 252.313 1051.6 252.693C1051.18 252.316 1050.75 251.954 1050.32 251.601Z" fill="#707070"/>
<path d="M1051.6 252.693C1052.03 253.072 1052.44 253.454 1052.84 253.836C1052.44 253.451 1052.03 253.07 1051.6 252.693Z" fill="#707070"/>
<path d="M974.046 310.798C972.269 307.896 970.91 304.966 969.993 302.008C967.13 308.425 963.46 313.449 959.068 317.197C959.379 317.988 959.713 318.777 960.081 319.561C964.081 315.758 968.753 312.709 974.046 310.798Z" fill="#707070"/>
<path d="M1027.3 338.599C1027.97 341.129 1028.42 343.723 1028.68 346.341C1041.75 337.37 1054.97 318.664 1060.76 302.643C1058.36 307.691 1051.91 318.449 1045.49 325.681C1039.61 332.308 1033.53 336.527 1027.3 338.599Z" fill="#707070"/>
<path d="M976.799 267.017C976.829 268.411 976.82 269.812 976.773 271.219C982.78 263.261 994.034 253.895 1000.92 249.552C992.115 253.979 983.858 260.2 976.799 267.017Z" fill="#707070"/>
<path d="M1049.33 250.799C1049.41 250.862 1049.49 250.921 1049.57 250.985C1049.49 250.921 1049.41 250.861 1049.33 250.799Z" fill="#707070"/>
<path d="M987.997 260.557C974.006 276.326 978.184 292.909 995.312 309.483C1006.44 311.789 1015.76 317.022 1022.01 326.566C1032.72 329.481 1042.63 326.637 1051.37 316.785C1062.58 304.143 1069.17 286.23 1063.58 270.052C1067.46 282.263 1062.2 297.225 1053.56 306.966C1041.43 320.629 1025.78 317.097 1008.26 301.55C990.734 286.003 985.363 270.878 997.486 257.215C1006.13 247.474 1020.36 240.466 1032.94 242.871C1016.28 239.254 999.274 247.846 987.997 260.557Z" fill="#707070"/>
<path d="M1005.89 252.123C996.661 262.523 1002.44 275.54 1018.61 289.881C1034.77 304.222 1048.38 308.415 1057.61 298.015C1068.17 286.112 1068.44 267.628 1051.6 252.693C1063.18 262.963 1061.23 274.758 1055.4 281.329C1049.57 287.9 1040.97 285.251 1030.75 276.19C1020.54 267.129 1016.89 258.904 1022.72 252.333C1028.55 245.762 1040.03 242.424 1051.6 252.693C1034.77 237.763 1016.41 240.262 1005.89 252.123Z" fill="#707070"/>
<path d="M959.068 317.197C973.03 305.284 978.476 278.895 976.368 260.64C976.402 265.648 975.292 276.818 972.67 285.181C965.275 308.765 946.305 314.76 919.916 308.076C893.527 301.393 880.83 287.377 888.225 263.793C891.031 254.843 896.881 244.671 899.328 241.128C891.768 250.015 886.042 261.064 882.547 272.213C876.184 292.506 881.485 306.548 895.731 315.432C903.566 316.48 910.809 319.385 917.006 323.696C934.353 327.738 948.721 326.026 959.068 317.197Z" fill="#707070"/>
<path d="M971.773 266.88C966.819 282.681 951.189 285.958 928.641 280.248C906.094 274.537 894.667 264.408 899.621 248.606C903.3 236.873 913.277 226.008 925.28 223.111C909.237 226.601 897.333 239.735 892.539 255.028C886.476 274.367 899.193 286.443 924.675 292.897C950.157 299.351 968.019 295.019 974.082 275.68C978.813 260.591 976.506 243.737 964.7 233.095C973.333 241.271 975.403 255.301 971.773 266.88Z" fill="#707070"/>
<path d="M948.893 224.456C948.989 224.485 949.081 224.516 949.177 224.546C949.082 224.516 948.989 224.485 948.893 224.456Z" fill="#707070"/>
<path d="M943.486 223.104C943.585 223.124 943.682 223.141 943.781 223.161C943.683 223.141 943.585 223.124 943.486 223.104Z" fill="#707070"/>
<path d="M904.966 241.196C901.195 253.224 912.074 261.487 932.872 266.755C953.67 272.023 967.749 270.08 971.52 258.053C975.64 244.911 968.702 229.967 947.719 224.12C961.456 228.161 964.564 238.061 962.256 245.423C959.873 253.023 950.978 254.25 937.836 250.922C924.695 247.594 917.821 242.373 920.203 234.773C922.511 227.411 930.914 220.426 944.977 223.426C923.723 218.576 909.077 228.082 904.966 241.196Z" fill="#707070"/>
<path d="M1025.2 389.669C1028.59 377.637 1030.26 364.057 1028.95 351.409C1028.98 356.978 1027.87 369.408 1025.25 378.713C1017.86 404.953 998.886 411.624 972.497 404.187C946.108 396.751 933.411 381.156 940.806 354.916C943.763 344.421 949.887 332.942 951.952 329.626C945.839 337.605 940.949 347.152 937.468 356.935C938.885 367.093 937.108 377.069 932.654 385.813C934.274 403.864 946.9 415.204 967.738 421.076C997.616 429.496 1016.95 418.962 1025.2 389.669Z" fill="#707070"/>
<path d="M998.938 310.359C998.392 310.205 997.849 310.066 997.308 309.936C997.975 310.102 998.353 310.194 998.938 310.359Z" fill="#707070"/>
<path d="M1024.35 358.351C1019.4 375.932 1003.77 379.578 981.223 373.225C958.676 366.871 947.249 355.6 952.203 338.019C955.735 325.486 965.484 312.976 977.862 309.652C961.285 313.663 949.726 328.819 945.121 345.164C939.058 366.681 951.775 380.118 977.257 387.299C1002.74 394.48 1020.6 389.66 1026.66 368.143C1031.24 351.916 1029.4 332.916 1017.28 320.761C1026.1 330.058 1027.89 345.817 1024.35 358.351Z" fill="#707070"/>
<path d="M996.069 309.645C996.167 309.667 996.264 309.686 996.362 309.708C996.264 309.686 996.167 309.666 996.069 309.645Z" fill="#707070"/>
<path d="M957.547 329.774C953.776 343.157 964.655 352.351 985.453 358.211C1006.25 364.072 1020.33 361.911 1024.1 348.528C1028.37 333.387 1020.76 317.117 1000.3 310.773C1014.04 315.269 1017.15 326.285 1014.84 334.476C1012.45 342.932 1003.56 344.297 990.417 340.594C977.276 336.891 970.402 331.082 972.784 322.626C975.092 314.435 983.494 306.663 997.558 310.001C976.839 304.757 961.808 314.653 957.547 329.774Z" fill="#707070"/>
<path d="M241.72 344.255C241.305 344.641 240.903 345.032 240.511 345.427C240.984 344.958 241.292 344.653 241.72 344.255Z" fill="#707070"/>
<path d="M242.977 343.133C242.555 343.496 242.135 343.868 241.72 344.255C242.151 343.854 242.462 343.583 242.977 343.133Z" fill="#707070"/>
<path d="M319.534 364.573C319.455 362.808 319.415 361.047 319.434 359.297C311.474 351.49 302.113 344.574 292.319 339.931C300.621 344.902 313.238 355.06 319.534 364.573Z" fill="#707070"/>
<path d="M320.051 428.493C326.213 422.763 330.888 416.863 333.911 410.807C329.983 405.99 326.77 399.774 324.347 392.051C321.962 400.052 316.393 407.933 308.102 415.643C288.024 434.313 268.101 437.045 249.537 417.081C242.112 409.096 235.494 397.895 233.736 394.406C235.938 400.088 238.857 405.657 242.243 410.93C245.793 414.76 248.602 418.585 250.699 422.401C272.769 448.715 295.668 451.166 320.051 428.493Z" fill="#707070"/>
<path d="M239.617 346.334C239.687 346.261 239.754 346.188 239.825 346.115C239.754 346.188 239.686 346.261 239.617 346.334Z" fill="#707070"/>
<path d="M243.713 342.499C243.791 342.433 243.869 342.372 243.947 342.308C243.869 342.372 243.791 342.434 243.713 342.499Z" fill="#707070"/>
<path d="M243.452 408.322C258.675 424.693 276.766 420.821 296.154 402.793C315.542 384.765 320.716 367.002 305.493 350.631C293.902 338.166 276.699 330 260.146 333.997C272.674 331.3 287.062 337.974 295.929 347.51C308.367 360.886 303.351 376.132 286.197 392.084C269.042 408.036 253.473 411.932 241.034 398.556C232.167 389.02 226.554 374.186 230.154 361.886C224.944 378.169 231.91 395.911 243.452 408.322Z" fill="#707070"/>
<path d="M236.772 389.704C246.24 399.886 259.751 395.377 275.575 380.662C291.399 365.947 296.877 352.799 287.409 342.617C276.904 331.321 259.071 328.923 242.783 343.305C253.768 333.912 264.793 336.987 270.588 343.219C276.57 349.652 273.109 357.96 263.111 367.257C253.113 376.554 244.576 379.403 238.593 372.97C232.798 366.738 230.531 355.519 240.696 345.245C225.335 360.287 226.168 378.302 236.772 389.704Z" fill="#707070"/>
<path d="M156.478 393.394C156.086 393.804 155.708 394.218 155.339 394.634C155.804 394.117 156.069 393.821 156.478 393.394Z" fill="#707070"/>
<path d="M156.478 393.394C156.873 392.981 157.27 392.592 157.667 392.202C157.266 392.589 156.87 392.985 156.478 393.394Z" fill="#707070"/>
<path d="M238.832 407.453C229.638 398.652 218.397 390.854 206.739 386.137C211.692 388.724 222.198 395.58 229.182 402.265C248.876 421.117 245.856 440.998 226.897 460.803C207.938 480.609 188.208 484.494 168.514 465.643C160.653 458.118 153.383 447.313 151.421 443.925C158.868 460.243 175.593 480.381 191.837 487.299C208.58 494.429 224.564 488.616 239.572 472.937C261.024 450.527 260.828 428.509 238.832 407.453Z" fill="#707070"/>
<path d="M154.498 395.593C154.564 395.516 154.627 395.438 154.693 395.361C154.627 395.439 154.564 395.516 154.498 395.593Z" fill="#707070"/>
<path d="M156.28 451.047C174.301 473.768 193.931 469.866 214.222 448.669C234.514 427.471 237.552 407.691 214.067 390.679C202.463 382.274 187.937 377.93 174.276 382.083C186.627 378.662 201.378 384.488 210.784 393.493C223.979 406.123 219.858 421.635 203.659 438.557C187.461 455.479 172.144 460.274 158.949 447.643C149.542 438.638 143.077 424.156 145.955 411.667C142.375 425.605 147.48 439.952 156.28 451.047Z" fill="#707070"/>
<path d="M154.18 439.055C164.224 448.669 177.45 443.382 192.392 427.773C207.334 412.164 212.038 398.719 201.994 389.104C190.581 378.179 172.106 377.065 156.477 393.394C167.177 382.216 178.89 384.609 185.236 390.683C191.582 396.758 188.61 405.252 179.169 415.115C169.728 424.978 161.371 428.318 155.025 422.244C148.877 416.359 145.962 405.291 155.513 394.443C141.028 410.383 142.955 428.311 154.18 439.055Z" fill="#707070"/>
<path d="M170.435 472.637C161.006 466.258 149.766 461.216 138.43 459.159C143.241 460.567 153.697 464.844 160.925 469.734C181.248 483.484 180.652 502.943 165.288 525.65C149.924 548.358 132.084 556.149 111.761 542.398C104.052 537.182 96.071 528.624 93.577 525.45C99.677 535.172 108.469 543.701 117.993 550.145C142.075 566.439 162.075 558.583 178.369 534.5C194.546 510.591 194.633 489.009 170.435 472.637Z" fill="#707070"/>
<path d="M94.1591 474.319C94.2201 474.237 94.282 474.159 94.343 474.078C94.281 474.159 94.2191 474.238 94.1591 474.319Z" fill="#707070"/>
<path d="M91.03 478.974C91.082 478.888 91.131 478.803 91.183 478.717C91.131 478.803 91.081 478.889 91.03 478.974Z" fill="#707070"/>
<path d="M98.8161 531.125C118.944 549.744 136.777 539.606 152.207 516.8C167.631 494.003 170.422 473.673 145.645 461.911C133.47 456.131 119.638 455.504 107.847 462.061C118.603 456.407 132.85 458.45 142.916 465.26C156.532 474.473 154.433 490.022 141.306 509.424C128.179 528.826 114.526 536.558 100.909 527.345C90.8451 520.536 83.647 508.072 84.895 495.982C83.193 509.388 88.9411 521.99 98.8161 531.125Z" fill="#707070"/>
<path d="M95.5431 520.205C105.908 527.218 117.57 519.455 129.679 501.558C141.788 483.661 144.656 469.948 134.291 462.935C123.289 455.491 106.41 457.076 93.437 475.317C101.978 463.66 112.604 463.63 118.949 467.922C125.498 472.353 123.686 481.018 116.035 492.326C108.384 503.634 101.015 508.539 94.4661 504.108C87.9171 499.677 83.9461 489.298 92.6171 476.482C79.6631 495.628 84.1681 512.509 95.5431 520.205Z" fill="#707070"/>
<path d="M109.538 557.77C132.543 562.124 139.384 579.394 134.519 605.098C129.654 630.802 116.975 644.378 93.9701 640.024C85.2441 638.372 75.014 633.897 71.629 632.06C80.64 638.259 91.628 642.421 102.36 644.452C129.506 649.59 144.136 635.319 149.325 607.901C154.514 580.483 146.111 561.853 118.965 556.715C108.296 554.696 96.5901 554.519 85.8311 557.02C90.5941 556.43 101.363 556.223 109.538 557.77Z" fill="#707070"/>
<path d="M51.811 592.317C51.824 592.22 51.835 592.126 51.849 592.028C51.835 592.126 51.824 592.221 51.811 592.317Z" fill="#707070"/>
<path d="M52.791 587.052C52.813 586.957 52.8381 586.866 52.8611 586.771C52.8371 586.865 52.813 586.958 52.791 587.052Z" fill="#707070"/>
<path d="M78.3661 635.047C103.043 643.739 114.826 628.112 119.712 602.295C124.596 576.489 119.347 557.627 93.1941 556.699C80.3441 556.244 67.9901 560.927 60.1421 571.134C67.4241 562.11 80.677 558.509 92.071 560.665C107.484 563.582 111.529 577.997 107.373 599.959C103.217 621.921 94.183 633.861 78.77 630.944C67.377 628.788 56.355 620.593 52.874 609.531C56.483 622.017 66.3761 630.824 78.3661 635.047Z" fill="#707070"/>
<path d="M71.3671 626.721C83.1001 628.941 90.3771 617.728 94.2121 597.47C98.0471 577.212 95.3691 564.114 83.6371 561.894C70.7871 559.462 56.3691 567.815 52.2601 589.53C55.0061 575.023 64.6721 570.665 72.0861 572.068C79.4991 573.471 81.1911 581.746 78.7681 594.547C76.3451 607.348 71.747 614.432 64.334 613.029C57.153 611.67 49.9781 604.505 52.0331 590.87C48.6001 611.666 58.6851 624.32 71.3671 626.721Z" fill="#707070"/>
<path d="M110.023 656.824C99.7941 655.85 88.764 656.854 78.974 660.358C83.379 659.311 93.4681 658.051 101.267 658.793C123.194 660.881 131.009 677.393 128.529 703.435C126.049 729.478 115.259 744.218 93.3311 742.13C85.0131 741.338 75.217 737.955 71.734 736.386C80.687 741.674 91.329 744.742 101.558 745.716C128.234 748.256 140.1 731.463 142.641 704.779C145.165 678.274 136.838 659.377 110.023 656.824Z" fill="#707070"/>
<path d="M50.42 693.452C50.433 693.357 50.449 693.264 50.462 693.17C50.449 693.264 50.434 693.357 50.42 693.452Z" fill="#707070"/>
<path d="M49.928 698.784C49.933 698.688 49.9351 698.594 49.9401 698.497C49.9351 698.593 49.932 698.688 49.928 698.784Z" fill="#707070"/>
<path d="M84.9761 739.889C102.956 741.601 112.021 727.239 114.416 702.091C116.811 676.943 110.619 661.128 92.639 659.416C78.437 658.064 63.862 663.806 56.025 676.904C62.032 667.363 74.0351 662.321 85.1211 663.377C99.8121 664.776 104.774 678.72 102.655 700.971C100.536 723.222 93.0321 735.98 78.3411 734.581C67.2491 733.525 56.42 726.311 52.321 715.807C57.463 729.922 70.5411 738.515 84.9761 739.889Z" fill="#707070"/>
<path d="M71.0551 731.101C82.2381 732.166 88.155 720.302 90.109 699.777C92.063 679.252 88.4921 666.485 77.3091 665.42C65.4741 664.293 52.2631 673.476 50.1221 695.969C51.5221 681.271 60.2341 675.994 67.3001 676.667C74.3661 677.34 76.6231 685.407 75.3881 698.375C74.1531 711.344 70.414 718.84 63.349 718.167C56.283 717.494 48.7221 710.667 50.1221 695.969C47.9751 718.514 59.2861 729.981 71.0551 731.101Z" fill="#707070"/>
<path d="M102.275 764.919C93.912 764.776 85.0201 766.503 77.2891 770.428C79.1061 769.765 80.9581 769.283 82.8091 768.976C86.9361 767.815 91.1871 767.293 95.2881 767.363C113.215 767.67 120.574 782.22 120.162 806.253C119.75 830.286 111.898 844.576 93.9701 844.268C89.8691 844.198 85.637 843.53 81.553 842.228C79.713 841.858 77.8801 841.313 76.0861 840.588C83.5171 844.687 92.259 846.803 100.869 846.95C112.962 847.157 121.155 842.262 126.042 833.247C133.324 819.814 133.739 792.637 126.791 779.119C122.187 770.163 114.214 765.123 102.275 764.919Z" fill="#707070"/>
<path d="M81.553 842.23C102.617 846.467 108.252 827.718 108.623 806.057C108.994 784.403 104.009 765.465 82.808 768.977C72.781 770.638 64.2 777.031 59.677 787.262C63.95 778.118 73.366 772.588 82.463 772.744C94.474 772.95 99.3591 785.358 99.0071 805.892C98.6551 826.426 93.348 838.659 81.337 838.454C72.257 838.298 63.027 832.466 59.062 823.164C63.299 833.708 71.763 840.261 81.553 842.23Z" fill="#707070"/>
<path d="M66.682 832.971C69.404 834.842 72.3671 835.75 75.2101 835.798C84.3531 835.955 88.4261 824.656 88.7511 805.715C89.0761 786.774 85.391 775.342 76.249 775.186C73.405 775.137 70.413 775.943 67.629 777.72C59.014 783.217 56.2331 794.981 56.0591 805.156C56.2911 791.592 63.039 786.121 68.816 786.22C74.593 786.319 76.921 793.542 76.716 805.51C76.511 817.478 73.937 824.617 68.16 824.518C62.383 824.419 55.8271 818.72 56.0591 805.156C55.8851 815.331 58.261 827.182 66.682 832.971Z" fill="#707070"/>
<path d="M103.234 860.515C95.955 860.39 88.129 861.587 81.338 864.372C84.421 863.466 91.527 862.142 97.114 862.238C112.836 862.508 119.33 872.901 119.036 890.033C118.743 907.165 111.896 917.33 96.1741 917.061C90.2231 916.959 82.9311 915.2 80.4811 914.388C85.7611 916.768 91.623 918.153 97.363 918.711C109.464 919.886 120.33 917.621 125.719 906.773C130.184 897.786 130.496 881.605 125.76 872.443C121.897 864.968 114.614 860.71 103.234 860.515Z" fill="#707070"/>
<path d="M63.0481 893.506C62.9991 893.082 62.948 892.66 62.916 892.22C62.95 892.656 62.9971 893.082 63.0481 893.506Z" fill="#707070"/>
<path d="M62.8311 890.661C62.8381 890.911 62.855 891.153 62.868 891.399C62.828 890.62 62.8361 890.83 62.8311 890.661Z" fill="#707070"/>
<path d="M63.024 885.926C63.071 885.487 63.1361 885.068 63.2001 884.646C63.1341 885.067 63.073 885.491 63.024 885.926Z" fill="#707070"/>
<path d="M62.947 886.745C62.926 886.99 62.901 887.231 62.885 887.48C62.899 887.268 62.895 887.372 62.947 886.745Z" fill="#707070"/>
<path d="M90.1021 916.015C102.994 916.236 108.634 906.403 108.917 889.86C109.2 873.317 103.901 863.297 91.009 863.076C80.696 862.899 70.2571 867.527 65.5331 877.094C69.2731 869.839 77.8691 865.901 85.8821 866.038C96.4161 866.219 100.734 875.078 100.484 889.716C100.233 904.354 95.6141 913.06 85.0801 912.88C77.0601 912.742 68.6151 908.521 65.1211 901.133C69.4571 910.727 79.6301 915.836 90.1021 916.015Z" fill="#707070"/>
<path d="M79.7001 910.97C87.7181 911.107 91.259 903.064 91.49 889.562C91.721 876.06 88.4581 867.9 80.4401 867.762C71.9871 867.617 63.79 874.067 62.915 887.325C63.718 878.932 69.203 875.526 73.952 875.607C79.018 875.694 81.0801 880.849 80.9341 889.381C80.7881 897.913 78.551 902.995 73.484 902.908C68.734 902.827 63.37 899.234 62.855 890.819C63.269 903.976 71.1461 910.823 79.7001 910.97Z" fill="#707070"/>
<path d="M295.995 253.836C296.399 253.454 296.803 253.072 297.231 252.693C296.806 253.07 296.396 253.451 295.995 253.836Z" fill="#707070"/>
<path d="M297.231 252.693C297.659 252.314 298.086 251.958 298.514 251.601C298.083 251.954 297.655 252.316 297.231 252.693Z" fill="#707070"/>
<path d="M368.972 267.453C382.249 282.417 383.278 296.937 374.788 310.797C380.082 312.708 384.754 315.757 388.753 319.56C390.297 316.27 391.341 312.922 391.857 309.517C385.813 300.564 382.519 287.92 381.373 277.267C373.301 266.952 360.83 256.046 347.915 249.551C352.642 252.533 362.556 260.222 368.972 267.453Z" fill="#707070"/>
<path d="M320.153 346.342C320.413 343.723 320.866 341.13 321.536 338.6C315.305 336.528 309.225 332.308 303.346 325.682C296.124 317.542 289.765 306.195 288.078 302.645C293.877 318.698 307.109 337.388 320.153 346.342Z" fill="#707070"/>
<path d="M299.264 250.985C299.343 250.921 299.422 250.862 299.502 250.799C299.423 250.861 299.343 250.921 299.264 250.985Z" fill="#707070"/>
<path d="M297.467 316.784C306.209 326.637 316.111 329.481 326.822 326.565C333.034 317.09 342.383 311.79 353.523 309.482C370.652 292.908 374.83 276.325 360.838 260.556C349.57 247.857 332.569 239.251 315.891 242.868C328.48 240.464 342.707 247.472 351.349 257.212C363.472 270.875 358.101 286 340.579 301.547C323.056 317.094 307.4 320.626 295.277 306.963C286.635 297.223 281.37 282.263 285.255 270.05C279.682 286.167 286.188 304.072 297.467 316.784Z" fill="#707070"/>
<path d="M291.223 298.015C300.451 308.415 314.064 304.223 330.227 289.881C346.39 275.539 352.174 262.523 342.946 252.123C332.445 240.287 314.133 237.701 297.231 252.693C308.805 242.423 320.285 245.762 326.116 252.333C331.947 258.904 328.292 267.129 318.08 276.19C307.867 285.251 299.266 287.9 293.436 281.329C287.606 274.758 285.657 262.962 297.231 252.693C280.392 267.634 280.71 286.166 291.223 298.015Z" fill="#707070"/>
<path d="M408.028 354.917C415.423 381.157 402.726 396.751 376.337 404.188C349.948 411.624 330.977 404.954 323.583 378.714C320.784 368.781 319.858 355.866 319.885 351.409C318.489 364.864 320.511 379.825 324.347 392.052C332.962 419.508 352.007 429.275 381.096 421.078C409.245 413.146 422.432 395.25 413.707 364.287C410.25 352.019 404.521 339.599 396.882 329.628C399.592 333.979 405.239 345.019 408.028 354.917Z" fill="#707070"/>
<path d="M351.527 309.936C350.986 310.066 350.443 310.206 349.897 310.359C350.499 310.19 350.883 310.097 351.527 309.936Z" fill="#707070"/>
<path d="M370.972 309.652C383.351 312.976 393.1 325.487 396.631 338.019C401.585 355.6 390.159 366.871 367.611 373.225C345.064 379.579 329.434 375.932 324.479 358.351C320.947 345.818 322.73 330.058 331.551 320.761C319.505 332.841 317.559 351.782 322.169 368.143C328.232 389.66 346.094 394.48 371.576 387.299C397.058 380.118 409.775 366.681 403.712 345.164C399.138 328.928 387.647 313.686 370.972 309.652Z" fill="#707070"/>
<path d="M347.076 311.248C347.172 311.215 347.264 311.18 347.361 311.148C347.265 311.181 347.171 311.215 347.076 311.248Z" fill="#707070"/>
<path d="M352.472 309.708C352.571 309.685 352.667 309.667 352.765 309.645C352.668 309.666 352.57 309.686 352.472 309.708Z" fill="#707070"/>
<path d="M324.733 348.529C328.504 361.912 342.583 364.073 363.381 358.212C384.179 352.351 395.059 343.157 391.287 329.775C387.079 314.841 372.283 304.684 351.275 310.002C365.338 306.664 373.74 314.436 376.049 322.627C378.432 331.083 371.558 336.892 358.416 340.595C345.275 344.298 336.379 342.933 333.996 334.477C331.688 326.286 334.796 315.27 348.532 310.774C327.961 317.154 320.518 333.572 324.733 348.529Z" fill="#707070"/>
<path d="M774.18 274.11C774.18 298.612 757.73 309.007 730.313 309.007C702.896 309.007 686.446 298.612 686.446 274.11C686.446 264.816 689.061 253.426 690.293 249.588C685.687 260.012 683.522 272.112 683.522 283.599C683.522 312.512 701.069 324.778 730.314 324.778C759.559 324.778 777.106 312.512 777.106 283.599C777.106 272.039 774.9 259.919 770.335 249.588C771.863 254.355 774.18 265.396 774.18 274.11Z" fill="#707070"/>
<path d="M688.529 257.097C684.365 284.307 702.994 293.238 730.313 293.238C757.619 293.238 776.262 284.316 772.097 257.097C770.052 243.735 762.786 231.98 750.792 225.92C761.429 231.612 767.794 244.456 767.794 256.714C767.794 273.13 753.739 280.095 730.313 280.095C706.888 280.095 692.832 273.13 692.832 256.714C692.832 244.457 699.197 231.612 709.835 225.92C697.838 231.98 690.572 243.743 688.529 257.097Z" fill="#707070"/>
<path d="M695.739 248.279C695.739 260.775 708.704 266.077 730.312 266.077C751.92 266.077 764.885 260.775 764.885 248.279C764.885 234.524 753.423 221.393 730.312 221.393C745.786 221.393 752.157 230.485 752.157 238.381C752.157 246.277 743.965 249.626 730.312 249.626C716.659 249.626 708.467 246.276 708.467 238.381C708.467 230.486 714.838 221.393 730.312 221.393C707.448 221.393 695.739 234.356 695.739 248.279Z" fill="#707070"/>
<path d="M874.556 279.167C870.968 303.456 853.139 311.815 825.961 308.572C798.782 305.329 783.997 293.079 787.585 268.79C788.946 259.576 793.124 248.764 794.989 244.936C791.506 250.531 788.747 256.744 786.707 263.152C775.703 297.709 786.18 319.735 823.652 324.206C852.642 327.665 871.833 317.581 876.066 288.92C877.732 277.644 877.402 265.381 874.333 254.404C875.159 259.355 875.828 270.554 874.556 279.167Z" fill="#707070"/>
<path d="M836.147 221.47C836.047 221.463 835.948 221.458 835.848 221.451C835.948 221.459 836.046 221.463 836.147 221.47Z" fill="#707070"/>
<path d="M841.707 222.151C841.608 222.134 841.51 222.115 841.411 222.099C841.511 222.115 841.608 222.134 841.707 222.151Z" fill="#707070"/>
<path d="M790.468 259.562C787.526 279.479 802.025 289.808 828.269 292.939C854.514 296.071 871.508 289.499 874.45 269.582C876.753 253.994 871.761 237.629 858.426 228.629C868.259 235.616 872.534 249.233 870.772 261.167C868.368 277.441 853.416 282.682 830.194 279.912C806.972 277.142 794.059 268.575 796.463 252.301C798.258 240.149 806.449 228.17 817.826 223.786C802.566 229.265 792.811 243.7 790.468 259.562Z" fill="#707070"/>
<path d="M800.579 244.283C798.749 256.671 810.825 263.459 832.246 266.015C853.667 268.571 867.295 264.849 869.125 252.461C871.127 238.908 861.76 224.462 838.789 221.72C854.128 223.55 859.113 233.317 857.957 241.144C856.801 248.971 848.19 251.323 834.655 249.708C821.121 248.093 813.49 243.804 814.647 235.977C815.803 228.15 823.45 219.89 838.789 221.72C815.888 218.99 802.588 230.684 800.579 244.283Z" fill="#707070"/>
<path d="M436.177 191.866C438.208 195.697 439.542 199.38 440.235 202.922C440.111 202.084 439.996 201.246 439.899 200.409C439.058 197.509 438.481 194.491 438.231 191.421C434.631 186.376 430.554 181.639 426.098 177.505C427.687 179.57 431.948 183.889 436.177 191.866Z" fill="#707070"/>
<path d="M435.935 224.037C440.857 225.588 445.24 228.029 449.057 231.071C445.745 224.567 442.23 214.514 440.592 205.109C441.429 211.96 439.77 218.258 435.935 224.037Z" fill="#707070"/>
<path d="M382.574 250.668C365.944 249.031 356.772 233.806 352.781 217.573C352.662 217.239 352.546 216.904 352.434 216.566C355.086 233.842 365.072 258.228 380.914 267.086C380.959 264.912 381.102 262.759 381.347 260.64C381.369 257.283 381.759 253.926 382.574 250.668Z" fill="#707070"/>
<path d="M355.515 223.807C362.608 237.186 374.998 240.088 391.136 234.909C396.317 229.476 403.814 224.947 415.36 222.886C433.977 210.307 439.905 195.455 426.098 177.505C420.927 170.781 413.74 165.216 405.077 162.665C412.128 165.651 417.407 170.1 420.744 176.394C427.409 188.965 417.819 200.882 397.122 211.855C376.426 222.828 361.18 224.079 354.515 211.508C351.167 205.193 350.463 198.319 351.943 190.836C348.459 201.739 350.232 213.843 355.515 223.807Z" fill="#707070"/>
<path d="M353.661 203.687C358.735 213.256 372.342 211.243 391.433 201.121C410.524 190.999 419.826 180.866 414.753 171.297C412.794 167.602 409.462 164.521 405.078 162.664C397.867 159.611 387.513 159.742 374.636 166.217C387.548 159.875 395.995 163.092 398.774 168.332C401.648 173.753 395.629 179.889 383.567 186.285C371.504 192.681 363.048 194.218 360.174 188.798C357.395 183.557 359.474 174.759 371.97 167.631C359.384 174.656 353.465 183.153 351.945 190.834C351.023 195.495 351.698 199.985 353.661 203.687Z" fill="#707070"/>
<path d="M522.195 221.431C521.81 218.698 521.536 215.934 521.374 213.162C518.021 217.146 513.541 220.812 508.049 224.179C512.518 222.605 517.428 221.734 522.195 221.431Z" fill="#707070"/>
<path d="M498.123 229.445C474.271 240.456 455.691 238.076 445.515 217.027C441.592 208.913 440.611 202.866 439.899 200.409C441.101 210.808 444.878 222.864 449.057 231.071C452.687 233.965 455.809 237.396 458.386 241.128C461.143 244.369 463.657 247.891 465.897 251.596C471.015 254.858 476.661 256.531 482.772 256.737C482.961 255.952 483.166 255.175 483.381 254.403C484.974 244.86 489.591 235.705 498.123 229.445Z" fill="#707070"/>
<path d="M524.683 179.233C524.975 178.505 525.295 177.785 525.633 177.072C522.453 172.417 518.875 168.022 514.966 164.115C516.504 166.276 520.743 170.905 524.683 179.233Z" fill="#707070"/>
<path d="M440.209 201.429C448.169 226.716 468.782 225.998 492.933 214.323C517.083 202.648 530.45 186.939 515.576 164.995C510.416 157.381 503.107 151.386 494.511 148.503C501.446 151.748 506.557 156.392 509.658 162.805C515.851 175.615 505.824 187.168 484.734 197.364C463.644 207.56 448.362 208.243 442.169 195.432C439.058 188.997 438.61 182.103 440.368 174.679C437.227 183.375 437.487 192.782 440.209 201.429Z" fill="#707070"/>
<path d="M441.605 187.585C446.319 197.336 459.992 195.831 479.446 186.425C498.9 177.02 508.573 167.24 503.858 157.488C502.037 153.722 498.822 150.519 494.51 148.501C487.418 145.182 477.066 144.929 463.958 150.92C477.097 145.062 485.419 148.591 488.001 153.931C490.671 159.455 484.429 165.363 472.137 171.306C459.845 177.249 451.337 178.471 448.667 172.947C446.085 167.607 448.489 158.892 461.241 152.233C448.402 158.785 442.171 167.056 440.367 174.676C439.273 179.301 439.781 183.812 441.605 187.585Z" fill="#707070"/>
<path d="M609.06 195.955C614.27 219.324 600.424 232.818 573.664 238.783C568.977 239.828 564.556 240.486 560.415 240.751C566.072 249.885 569.069 257.059 571.009 263.152C574.838 262.658 579.165 261.801 583.56 260.569C584.564 256.782 585.833 253.094 587.383 249.588C592.084 234.94 602.993 225.366 616.6 222.467C616.551 209.138 610.723 191.667 603.15 179.44C604.109 181.797 607.099 187.158 609.06 195.955Z" fill="#707070"/>
<path d="M522.195 221.431C523.25 221.364 524.287 221.321 525.292 221.316C521.47 211.294 521.935 200.89 521.765 197.583C520.853 205.418 521.106 213.705 522.195 221.431Z" fill="#707070"/>
<path d="M535.588 222.456C537.276 222.864 539.487 223.537 542.039 224.629C549.623 226.292 559.126 225.737 570.205 223.267C596.388 217.43 612.994 205.199 603.538 180.431C600.264 171.858 594.548 164.35 586.809 159.556C592.829 164.313 596.731 170.006 598.278 176.945C601.374 190.833 588.969 199.783 566.105 204.88C543.241 209.977 528.209 207.144 525.113 193.256C523.56 186.288 524.696 179.475 528.11 172.642C518.38 187.577 518.666 214.31 535.588 222.456Z" fill="#707070"/>
<path d="M526.36 185.49C528.717 196.062 542.371 197.726 563.462 193.024C584.553 188.322 596.207 181.016 593.85 170.444C592.934 166.338 590.522 162.491 586.809 159.557C580.452 154.534 569.954 151.896 555.034 155.222C570.137 151.855 577.893 157.364 579.228 163.352C580.563 169.34 573.134 173.663 559.808 176.634C546.482 179.605 537.92 178.847 536.585 172.859C535.294 167.07 539.629 159.137 553.567 155.574C539.569 159.013 531.61 165.638 528.11 172.643C525.991 176.885 525.447 181.392 526.36 185.49Z" fill="#707070"/>
<path d="M385.093 295.027C392.82 319.672 410.31 329.648 437.309 324.43C444.458 319.177 453.092 315.836 462.466 315.137C476.355 306.238 481.46 292.28 475.169 272.213C471.68 261.084 465.96 250.03 458.387 241.128C461.302 245.349 466.861 255.408 469.49 263.793C476.884 287.377 464.188 301.392 437.799 308.076C411.41 314.76 392.439 308.764 385.045 285.181C382.246 276.255 381.32 264.649 381.347 260.64C380.04 271.948 381.701 284.209 385.093 295.027Z" fill="#707070"/>
<path d="M413.932 223.161C414.031 223.14 414.128 223.124 414.227 223.104C414.129 223.124 414.031 223.141 413.932 223.161Z" fill="#707070"/>
<path d="M408.537 224.545C408.633 224.516 408.725 224.484 408.821 224.455C408.725 224.485 408.632 224.516 408.537 224.545Z" fill="#707070"/>
<path d="M432.433 223.111C444.433 226.007 454.412 236.869 458.092 248.606C463.046 264.407 451.62 274.537 429.072 280.248C406.525 285.958 390.895 282.681 385.94 266.88C382.312 255.309 384.377 241.275 393.013 233.095C383.053 242.073 379.907 255.309 381.914 268.297C386.107 295.429 406.637 299.584 433.038 292.897C459.818 286.114 474.416 272.787 462.349 247.925C456.404 235.675 445.902 226.041 432.433 223.111Z" fill="#707070"/>
<path d="M386.194 258.052C389.965 270.08 404.044 272.022 424.842 266.754C445.64 261.486 456.519 253.223 452.748 241.195C448.759 228.475 434.446 218.47 412.736 223.423C426.799 220.423 435.201 227.408 437.51 234.77C439.893 242.37 433.019 247.591 419.877 250.919C406.736 254.247 397.84 253.02 395.457 245.42C393.149 238.058 396.257 228.157 409.994 224.117C388.897 229.999 382.117 245.05 386.194 258.052Z" fill="#707070"/>
<path d="M671.269 274.11C671.269 298.612 654.819 309.007 627.402 309.007C599.985 309.007 583.535 298.612 583.535 274.11C583.535 264.816 586.15 253.426 587.382 249.588C582.819 259.914 580.611 272.033 580.611 283.599C580.611 312.512 598.158 324.778 627.403 324.778C656.648 324.778 674.195 312.512 674.195 283.599C674.195 272.26 672.08 260.125 667.424 249.588C668.952 254.355 671.269 265.396 671.269 274.11Z" fill="#707070"/>
<path d="M624.443 221.475C624.546 221.47 624.645 221.462 624.748 221.458C624.646 221.463 624.545 221.47 624.443 221.475Z" fill="#707070"/>
<path d="M585.042 264.621C585.042 284.713 600.927 293.237 627.402 293.237C653.877 293.237 669.761 284.713 669.761 264.621C669.761 248.862 662.395 233.253 647.88 225.92C658.517 231.613 664.882 244.457 664.882 256.714C664.882 273.13 650.827 280.095 627.402 280.095C603.976 280.095 589.921 273.13 589.921 256.714C589.921 244.457 596.286 231.612 606.923 225.92C592.451 233.231 585.042 248.806 585.042 264.621Z" fill="#707070"/>
<path d="M592.828 248.279C592.828 260.775 605.793 266.077 627.401 266.077C649.009 266.077 661.974 260.775 661.974 248.279C661.974 234.646 650.624 221.393 627.401 221.393C642.874 221.393 649.246 230.485 649.246 238.381C649.246 246.277 641.054 249.626 627.401 249.626C613.748 249.626 605.556 246.276 605.556 238.381C605.556 230.486 611.928 221.393 627.401 221.393C604.189 221.393 592.828 234.658 592.828 248.279Z" fill="#707070"/>
<path d="M570.13 268.79C573.718 293.079 558.932 305.329 531.754 308.572C504.576 311.815 486.746 303.456 483.159 279.167C481.801 269.974 482.721 258.363 483.382 254.403C480.313 265.382 479.984 277.646 481.65 288.919C485.883 317.58 505.074 327.664 534.064 324.205C538.557 323.669 542.727 322.873 546.553 321.805C550.438 319.495 554.668 317.705 559.153 316.543C577.96 305.219 577.64 283.976 571.009 263.151C568.969 256.743 566.209 250.53 562.727 244.935C564.946 249.492 568.855 260.157 570.13 268.79Z" fill="#707070"/>
<path d="M521.867 221.452C521.767 221.459 521.668 221.463 521.568 221.471C521.668 221.463 521.766 221.459 521.867 221.452Z" fill="#707070"/>
<path d="M516.303 222.098C516.203 222.115 516.106 222.133 516.007 222.15C516.106 222.134 516.203 222.115 516.303 222.098Z" fill="#707070"/>
<path d="M561.252 252.3C563.656 268.574 550.743 277.14 527.521 279.911C504.299 282.682 489.346 277.44 486.943 261.166C485.18 249.233 489.456 235.616 499.289 228.628C488.125 236.163 482.802 248.796 482.733 262.054C482.59 289.485 502.313 296.175 529.445 292.938C556.9 289.662 573.61 278.405 565.574 252.17C561.625 239.279 552.75 228.403 539.889 223.784C551.26 228.168 559.456 240.14 561.252 252.3Z" fill="#707070"/>
<path d="M518.925 221.72C534.264 219.89 541.911 228.149 543.068 235.976C544.224 243.803 536.594 248.092 523.059 249.707C509.525 251.322 500.913 248.97 499.757 241.143C498.602 233.317 503.587 223.551 518.925 221.72C496.372 224.412 486.54 238.592 488.589 252.461C490.419 264.849 504.047 268.57 525.468 266.015C546.889 263.459 558.965 256.67 557.135 244.283C555.08 230.374 541.44 219.037 518.925 221.72Z" fill="#707070"/>
<path d="M677.027 314.986C650.108 314.986 628.286 336.808 628.286 363.727C628.286 390.646 650.108 412.468 677.027 412.468C703.946 412.468 725.768 390.646 725.768 363.727C725.768 336.808 703.946 314.986 677.027 314.986ZM677.027 398.342C654.68 398.342 636.563 380.226 636.563 357.878C636.563 335.53 654.679 317.414 677.027 317.414C699.375 317.414 717.491 335.53 717.491 357.878C717.491 380.226 699.374 398.342 677.027 398.342Z" fill="#707070"/>
<path d="M683.48 320.665C694.505 327.212 689.894 344.23 677.027 344.23C664.162 344.23 659.546 327.214 670.574 320.665C656.869 323.626 646.597 335.812 646.597 350.403C646.597 367.209 660.221 380.833 677.027 380.833C693.833 380.833 707.457 367.209 707.457 350.403C707.457 335.812 697.185 323.626 683.48 320.665ZM677.027 364.166C664.033 364.166 654.202 351.436 658.734 338.382C664.787 355.819 689.273 355.803 695.321 338.382C699.854 351.44 690.017 364.166 677.027 364.166Z" fill="#707070"/>
<path d="M572.734 380.833C589.54 380.833 603.164 367.209 603.164 350.403C603.164 333.065 588.59 318.939 570.827 320.039C583.205 325.702 579.081 344.231 565.567 344.231C556.419 344.231 550.288 334.812 553.972 326.455C531.371 344.186 543.763 380.833 572.734 380.833ZM583.86 338.382C588.394 351.44 578.557 364.166 565.567 364.166C552.573 364.166 542.741 351.436 547.274 338.382C553.326 355.819 577.813 355.803 583.86 338.382Z" fill="#707070"/>
<path d="M522.675 363.727C522.675 390.646 544.497 412.468 571.416 412.468C598.335 412.468 620.157 390.646 620.157 363.727C620.157 331.87 590.035 308.538 559.152 316.544C538.234 321.966 522.675 341.002 522.675 363.727ZM572.734 317.415C595.081 317.415 613.198 335.531 613.198 357.879C613.198 380.227 595.082 398.343 572.734 398.343C550.386 398.343 532.27 380.227 532.27 357.879C532.27 335.531 550.387 317.415 572.734 317.415Z" fill="#707070"/>
<path d="M417.393 363.727C417.393 390.646 439.215 412.468 466.134 412.468C493.053 412.468 514.875 390.646 514.875 363.727C514.875 335.758 491.187 312.995 462.464 315.138C437.218 317.019 417.393 338.086 417.393 363.727ZM467.453 317.415C489.8 317.415 507.917 335.531 507.917 357.879C507.917 380.227 489.801 398.343 467.453 398.343C445.105 398.343 426.989 380.227 426.989 357.879C426.989 335.409 445.257 317.415 467.453 317.415Z" fill="#707070"/>
<path d="M458.336 344.231C450.315 344.231 444.232 336.833 445.956 328.867C426.897 347.892 440.32 380.834 467.453 380.834C484.259 380.834 497.883 367.21 497.883 350.404C497.883 332.344 482.171 318.063 463.902 320.187C475.946 326.094 471.692 344.231 458.336 344.231ZM476.629 338.382C481.163 351.44 471.326 364.166 458.336 364.166C445.342 364.166 435.511 351.435 440.043 338.382C446.096 355.819 470.582 355.803 476.629 338.382Z" fill="#707070"/>
<path d="M783.928 314.986C757.009 314.986 735.187 336.808 735.187 363.727C735.187 390.646 757.009 412.468 783.928 412.468C810.847 412.468 832.669 390.646 832.669 363.727C832.669 336.707 810.72 314.986 783.928 314.986ZM823.073 357.878C823.073 380.226 804.957 398.342 782.609 398.342C760.262 398.342 742.145 380.226 742.145 357.878C742.145 335.53 760.261 317.414 782.609 317.414C804.957 317.415 823.073 335.531 823.073 357.878Z" fill="#707070"/>
<path d="M789.777 344.231C776.258 344.231 772.142 325.701 784.517 320.039C766.729 318.938 752.18 333.089 752.18 350.403C752.18 367.209 765.804 380.833 782.61 380.833C811.563 380.833 823.994 344.203 801.372 326.455C805.063 334.828 798.91 344.231 789.777 344.231ZM808.07 338.382C812.604 351.44 802.767 364.166 789.777 364.166C776.783 364.166 766.951 351.436 771.484 338.382C777.536 355.819 802.023 355.803 808.07 338.382Z" fill="#707070"/>
<path d="M897.008 344.231C883.649 344.231 879.401 326.093 891.442 320.186C873.115 318.056 857.461 332.398 857.461 350.403C857.461 367.209 871.085 380.833 887.891 380.833C915.041 380.833 928.439 347.882 909.388 328.866C911.112 336.832 905.031 344.231 897.008 344.231ZM915.301 338.382C919.835 351.44 909.998 364.166 897.008 364.166C884.014 364.166 874.183 351.436 878.715 338.382C884.767 355.819 909.254 355.803 915.301 338.382Z" fill="#707070"/>
<path d="M937.469 356.936C934.465 335.397 917.376 318.329 895.73 315.433C866.297 311.495 840.467 334.365 840.467 363.727C840.467 390.646 862.289 412.468 889.208 412.468C918.666 412.468 941.581 386.418 937.469 356.936ZM887.891 398.342C865.544 398.342 847.427 380.226 847.427 357.878C847.427 335.53 865.543 317.414 887.891 317.414C910.097 317.414 928.355 335.42 928.355 357.878C928.355 380.226 910.238 398.342 887.891 398.342Z" fill="#707070"/>
</svg>
