<svg width="982" height="982" viewBox="0 0 982 982" fill="none" xmlns="http://www.w3.org/2000/svg">
<g clip-path="url(#clip0_11_29)">
<path d="M1004.38 1524.88C988.729 1497.53 929.703 1481.25 923.261 1471.41C908.954 1449.56 909.6 1427.25 905.438 1402.58C891.475 1319.82 922.699 1193.82 854.428 1154.3C863.849 1093.93 850.467 1093.12 847.053 1073.17C846.03 1067.19 850.303 1062.11 851.355 1055.96C856.362 1026.7 848.718 999.411 842.751 988.976C840.834 985.622 837.146 981.32 831.689 976.07C841.194 902.254 830.575 848.707 813.866 817.51C761.509 719.749 697.026 761.697 591.548 680.749C580.614 660.995 579.232 653.5 577.021 630.157C588.24 606.588 580.348 623.823 591.952 601.181C594.456 672.591 618.097 668.699 625.216 652.651C635.79 628.815 619.674 603.409 631.208 557.469C636.978 534.484 655.949 497.625 647.802 465.36C647.018 462.257 643.74 459.133 637.969 455.988C642.379 437.917 642.017 431.65 637.585 415.58C646.124 401.065 644.607 394.7 634.205 384.237C635.432 369.513 635.62 350.626 622.528 340.295C617.056 322.475 609.111 306.542 590.417 299.733C583.083 283.76 578.041 276.025 563.837 271.155C568.65 240.3 563.412 220.74 533.691 207.751C528.38 176.243 449.906 172.387 435.721 203.208C405.865 216.217 400.065 235.07 405.023 266.854C390.468 271.844 385.543 279.971 378.444 295.432C359.781 302.229 351.813 318.147 346.333 335.994C333.543 346.087 333.359 364.367 334.656 379.936C324.18 390.473 322.799 396.873 331.276 411.279C326.852 427.32 326.474 433.58 330.892 451.687C325.12 454.832 321.843 457.956 321.059 461.059C310.79 501.728 342.415 542.147 342.415 585.74C342.415 603.203 335.848 630.776 343.644 648.349C349.487 661.52 374.238 673.037 376.908 596.879C387.88 618.288 382.767 606.287 391.22 624.536C388.257 699.577 346.398 718.372 273.66 739.665C151.893 775.308 151.989 846.453 133.127 960.501C84.6445 1253.62 90.4975 1264.11 147.671 1336.52C168.72 1363.18 189.79 1384.46 219.319 1403.95C173.998 1408.56 76.5045 1441.98 24.1425 1459.12C8.33153 1464.3 -53.0875 1471.16 -80.9495 1521.2C-93.7555 1544.19 -96.9185 1568.01 -91.3975 1593.72C-85.5375 1621 -68.0575 1639.1 -48.3775 1658.25C-23.9825 1681.97 7.07553 1686.99 35.2045 1704.95C52.2075 1715.81 69.6585 1718.68 89.2865 1722.78C142.598 1733.89 188.43 1717.9 241.086 1707.41C265.523 1702.55 299.734 1693.33 343.72 1679.76C327.825 1717.18 319.097 1729.81 283.492 1758.42C334.451 1786.82 338.211 1760.74 373.219 1761.49C407.293 1762.23 461.186 1783.14 485.07 1781.78C506.931 1780.53 555.384 1757.12 583.403 1760.88C604.621 1763.73 631.579 1799.2 690.94 1751.05C647.522 1724.01 633.756 1712.4 621.506 1683.44C689.542 1717.08 766.608 1728.31 859.345 1703.72C893.04 1694.79 917.627 1690.09 946.614 1674.85C1008.88 1642.12 1039.01 1585.38 1004.38 1524.88ZM222.034 1178.47C224.526 1160.76 230.717 1146.69 234.735 1129.3C237.689 1116.52 241.377 1098.22 245.797 1074.4C267.854 1123.34 271.879 1134.81 289.759 1201.17C260.77 1222.81 277.848 1244.83 276.73 1266.76C276.376 1273.71 274.256 1280.23 272.006 1286.62C255.267 1269.98 245.09 1257.41 222.033 1241.26C214.985 1236.32 218.949 1200.39 222.034 1178.47Z" fill="black"/>
</g>
<defs>
<clipPath id="clip0_11_29">
<rect width="982" height="982" fill="white"/>
</clipPath>
</defs>
</svg>
